<svg width="32" height="32" viewBox="0 0 32 32" fill="none" xmlns="http://www.w3.org/2000/svg">
<path d="M23.5 9.625V20.875C23.5 21.5312 22.9844 22 22.375 22C21.7188 22 21.25 21.5312 21.25 20.875V12.3438L10.4219 23.1719C10.1875 23.4062 9.90625 23.5 9.625 23.5C9.29688 23.5 9.01562 23.4062 8.82812 23.1719C8.35938 22.75 8.35938 22.0469 8.82812 21.625L19.6562 10.75H11.125C10.4688 10.75 10 10.2812 10 9.625C10 9.01562 10.4688 8.5 11.125 8.5H22.375C22.9844 8.5 23.5 9.01562 23.5 9.625Z" fill="white"/>
</svg>
