<svg width="19" height="22" viewBox="0 0 19 22" fill="none" xmlns="http://www.w3.org/2000/svg">
<path d="M1.28125 9.125L9.15625 0.875C9.39062 0.640625 9.67188 0.546875 10 0.546875C10.2812 0.546875 10.5625 0.640625 10.7969 0.875L18.6719 9.125C19.0938 9.59375 19.0938 10.2969 18.625 10.7188C18.2031 11.1406 17.4531 11.1406 17.0312 10.6719L11.125 4.4375V20.375C11.125 21.0312 10.6094 21.5 10 21.5C9.4375 21.5 8.875 21.0312 8.875 20.375V4.4375L2.92188 10.6719C2.5 11.1406 1.75 11.1406 1.32812 10.7188C0.859375 10.2969 0.859375 9.54688 1.28125 9.125Z" fill="white"/>
</svg>
