<svg width="32" height="32" viewBox="0 0 32 32" fill="none" xmlns="http://www.w3.org/2000/svg">
<path d="M26.1719 17.9219L18.2969 26.1719C18.0625 26.4062 17.7812 26.5 17.5 26.5C17.1719 26.5 16.8906 26.4062 16.6562 26.1719L8.78125 17.9219C8.35938 17.4531 8.35938 16.75 8.82812 16.3281C9.25 15.9062 10 15.9062 10.4219 16.375L16.375 22.6094V6.67188C16.375 6.01562 16.8438 5.54688 17.4531 5.54688C18.0156 5.54688 18.625 6.01562 18.625 6.67188V22.6094L24.5312 16.375C24.9531 15.9062 25.7031 15.9062 26.125 16.3281C26.5938 16.75 26.5938 17.4531 26.1719 17.9219Z" fill="#5D5FEF"/>
</svg>
