<svg width="22" height="26" viewBox="0 0 22 26" fill="none" xmlns="http://www.w3.org/2000/svg">
<path d="M20.375 19.375H1.57812C0.96875 19.375 0.5 19.8906 0.5 20.5C0.5 21.1562 0.96875 21.625 1.57812 21.625H20.375C20.9844 21.625 21.5 21.1562 21.5 20.5469C21.5 19.8906 20.9844 19.375 20.375 19.375ZM20.375 4.375H1.57812C0.96875 4.375 0.5 4.89062 0.5 5.5C0.5 6.0625 0.96875 6.625 1.57812 6.625H20.375C20.9844 6.625 21.5 6.15625 21.5 5.54688C21.5 4.98438 20.9844 4.375 20.375 4.375ZM20.375 11.875H1.57812C0.96875 11.875 0.5 12.3906 0.5 13C0.5 13.6562 0.96875 14.125 1.57812 14.125H20.375C20.9844 14.125 21.5 13.6562 21.5 13C21.5 12.3906 20.9844 11.875 20.375 11.875Z" fill="#5D5FEF"/>
</svg>
