<svg width="34" height="39" viewBox="0 0 34 39" fill="none" xmlns="http://www.w3.org/2000/svg">
<path d="M28.8637 5.21638H25.9293V2.28197C25.9293 1.32829 25.1223 0.521324 24.1686 0.521324C23.2883 0.521324 22.408 1.32829 22.408 2.28197V5.21638H11.8441V2.28197C11.8441 1.32829 11.0372 0.521324 10.0835 0.521324C9.05643 0.521324 8.32283 1.32829 8.32283 2.28197V5.21638H5.38842C2.74745 5.21638 0.693359 7.34383 0.693359 9.91144V33.3867C0.693359 36.0277 2.74745 38.0818 5.38842 38.0818H28.8637C31.4313 38.0818 33.5588 36.0277 33.5588 33.3867V9.91144C33.5588 7.34383 31.4313 5.21638 28.8637 5.21638ZM28.8637 34.5605H5.38842C4.72817 34.5605 4.21465 34.047 4.21465 33.3867V14.6065H30.0375V33.3867C30.0375 34.047 29.4506 34.5605 28.8637 34.5605Z" fill="white"/>
</svg>
