<svg version="1.2" xmlns="http://www.w3.org/2000/svg" viewBox="0 0 549 549" width="549" height="549">
	<title>camping-tent-svgrepo-com-svg</title>
	<style>
		.s0 { fill: #5d5fef } 
	</style>
	<g id="Layer">
		<g id="Layer">
			<path id="Layer" class="s0" d="m334.3 151.4c-1.5-2.3-6.1-4.4-8.9-4.4h-79c-2.8 0-2.9 2.1-1.5 4.5l139.7 242.6c1.4 2.5 4.7 2.6 7.3 1.8l76.2-24.1c2.7-0.8 3.7-4 2.2-6.4z"/>
			<path id="Layer" fill-rule="evenodd" class="s0" d="m137.6 401.2h-49.1c-2.8 0-3.9-4.5-2.5-6.9l29.1-53.8c1.4-2.4 1.7-6.5 0.5-9-3.8-7.9-8.3-15.9-13.6-23.1-8.9-12.3-18.6-22.5-23.2-27-2.4-2.3-2.6-6.2 0.5-7.6 20.6-9 66.9-34.5 101.3-53.5 2.4-1.4 5.6-4.5 6.9-6.9l34-59.7c1.4-2.4 3.7-2.4 5 0l135.8 240.6c1.4 2.4 0.2 6.9-2.6 6.9h-131.4c-2.8 0-16 0.8-16-11.7v-139.2l-67.4 143.9c-1.2 2.5-4.5 7-7.3 7zm4.8-48.1c0.3 1.6 1.2 1.8 2 0.3l64.8-127.5c0.8-1.5 0.3-2-1.2-1.1-19 11.7-87.4 47.6-101.9 55.1-1.5 0.8-1.6 2.3-0.4 3.4 24.3 21.5 34.2 59 36.7 69.8z"/>
		</g>
	</g>
</svg>