<svg width="481" height="920" viewBox="0 0 481 920" fill="none" xmlns="http://www.w3.org/2000/svg">
<path opacity="0.13" d="M247.222 238.092C293.116 159.588 293.581 74.4699 248.26 47.9744C202.939 21.4789 128.994 63.6397 83.0994 142.143C37.2049 220.647 36.7401 305.765 82.0612 332.261C127.382 358.756 201.327 316.596 247.222 238.092Z" fill="#5292FF"/>
<path opacity="0.13" d="M270.184 275.167C307 212.193 307.373 143.912 271.017 122.658C234.661 101.403 175.344 135.224 138.528 198.198C101.712 261.172 101.339 329.453 137.695 350.707C174.051 371.962 233.369 338.141 270.184 275.167Z" fill="#5292FF"/>
<path d="M238.804 179.337C238.804 179.337 206.714 147.526 182.95 175.643C153.922 209.985 98.9795 193.51 98.9795 193.51C98.9795 193.51 107.027 209.504 123.983 209.985C123.983 209.985 93.6143 206.113 93.6143 205.607C93.6143 205.101 99.7134 220.437 129.349 221.981C158.832 223.499 179.356 223.676 194.996 201.38C203.221 189.688 210.51 166.051 238.804 179.337Z" fill="#E655BE"/>
<path opacity="0.13" d="M329.556 827.111C355.8 811.445 365.443 789.782 359.318 768.473L390.649 555.839C389.08 445.346 116.644 438.083 118.213 548.575L148.658 788.01C148 793.451 282.535 855.202 329.556 827.111Z" fill="#5292FF"/>
<path opacity="0.29" d="M413.963 704.952C328.698 653.758 189.062 651.478 102.099 699.76C15.1363 748.091 13.8268 828.74 99.0923 879.885C184.358 931.079 322.49 933.408 411.005 886.096C508.396 834.078 499.229 756.098 413.963 704.952Z" fill="#A8C4E5"/>
<path d="M332.112 744.633C289.849 719.275 220.658 718.136 177.584 742.077C134.511 766.018 133.827 805.953 176.091 831.286C218.355 856.645 286.786 857.809 330.67 834.349C378.906 808.585 374.376 769.991 332.112 744.633Z" fill="#E6B929"/>
<path d="M330.619 711.227C288.355 685.894 219.165 684.73 176.091 708.671C133.018 732.612 132.334 772.547 174.598 797.88C216.862 823.213 285.293 824.402 329.177 800.942C377.413 775.179 372.883 736.56 330.619 711.227Z" fill="#FDD76A"/>
<path d="M237.816 722.691L220.177 763.993L322.116 751.162" stroke="white" stroke-width="13.9799" stroke-miterlimit="10" stroke-linecap="round" stroke-linejoin="round"/>
<path opacity="0.13" d="M332.112 501.655C289.849 476.322 220.658 475.158 177.584 499.099C134.511 523.04 133.827 562.975 176.091 588.308C218.355 613.641 286.786 614.83 330.67 591.37C378.906 565.607 374.376 527.013 332.112 501.655Z" fill="#5292FF"/>
<path d="M291.392 508.994C271.121 496.847 237.968 496.29 217.317 507.754C196.666 519.218 196.337 538.376 216.608 550.524C236.88 562.672 269.678 563.228 290.709 551.992C313.815 539.667 311.638 521.142 291.392 508.994Z" fill="#7DADFF"/>
<path d="M278.106 512.917C264.668 504.844 242.65 504.49 228.959 512.107C215.267 519.725 215.04 532.429 228.478 540.477C241.916 548.55 263.681 548.904 277.651 541.464C292.987 533.239 291.544 520.965 278.106 512.917Z" fill="#94BBFF"/>
<path d="M253.811 476.93L262.744 250.199L220.202 272.926L214.888 433.401L230.376 460.834L253.811 476.93Z" fill="#83A1CC"/>
<path d="M239.335 326.173C270.818 309.343 297.315 266.801 298.504 231.117C299.693 195.434 275.12 180.148 243.612 196.952C212.129 213.782 185.632 256.324 184.443 292.007C183.253 327.716 207.827 343.002 239.335 326.173Z" fill="#83A1CC"/>
<path d="M274.816 473.716L281.927 258.804L239.385 281.53L234.07 442.005L253.81 476.93L274.816 473.716Z" fill="#D9E9FF"/>
<path d="M258.518 334.777C290 317.948 316.497 275.406 317.687 239.722C318.876 204.038 294.303 188.752 262.795 205.557C231.312 222.386 204.815 264.928 203.626 300.612C202.462 336.296 227.035 351.607 258.518 334.777Z" fill="#D9E9FF"/>
<path d="M262.871 315.392C285.242 303.446 304.071 273.204 304.906 247.846C305.742 222.488 288.279 211.631 265.907 223.576C243.536 235.521 224.707 265.763 223.872 291.122C223.036 316.48 240.473 327.337 262.871 315.392Z" fill="#ADC9F0"/>
<path d="M254.266 250.098C248.167 246.302 248.572 234.635 255.152 224.056C261.732 213.478 272.032 207.961 278.131 211.757C284.231 215.553 283.826 227.22 277.246 237.799C270.64 248.377 260.366 253.894 254.266 250.098Z" fill="#8DB0DA"/>
<path d="M250.445 244.505C249.027 239.115 250.622 231.345 255.152 224.057C259.808 216.591 266.287 211.656 271.855 210.719C274.588 222.513 258.872 243.796 250.445 244.505Z" fill="#5B82BA"/>
<path d="M270.397 307.743L266.422 474.698L270.217 474.788L274.192 307.834L270.397 307.743Z" fill="#ADC9F0"/>
<path d="M262.702 280.341L260.495 475.645L264.291 475.688L266.498 280.384L262.702 280.341Z" fill="#ADC9F0"/>
<path d="M249.539 301.464L247.347 468.831L251.142 468.881L253.335 301.514L249.539 301.464Z" fill="#ADC9F0"/>
<path d="M261.049 220.64C261.049 220.64 266.186 210.719 255.962 191.865C242.625 167.317 219.266 175.516 228.022 203.076" stroke="#3B2AD1" stroke-width="2" stroke-miterlimit="10" stroke-linecap="round" stroke-linejoin="round"/>
</svg>
