<svg width="28" height="28" viewBox="0 0 28 28" fill="none" xmlns="http://www.w3.org/2000/svg">
<path d="M8.5625 13.4375C8.9375 13.8125 9.4375 14 10 14C10.5 14 11 13.8125 11.375 13.4375L21.375 3.4375C21.75 3.0625 22 2.5625 22 2C22 0.875 21.0625 0 20 0C19.4375 0 18.9375 0.25 18.5625 0.625L10 9.1875L6.375 5.625C6 5.25 5.5 5 5 5C3.875 5 3 5.875 3 7C3 7.5625 3.1875 8.0625 3.5625 8.4375L8.5625 13.4375ZM28 10C28 8.875 27.0625 8 26 8C25.4375 8 24.9375 8.25 24.5625 8.625L10 23.1875L3.375 16.625C3 16.25 2.5 16 2 16C0.875 16 0 16.875 0 18C0 18.5625 0.1875 19.0625 0.5625 19.4375L8.5625 27.4375C8.9375 27.8125 9.4375 28 10 28C10.5 28 11 27.8125 11.375 27.4375L27.375 11.4375C27.75 11.0625 28 10.5625 28 10Z" fill="#5D5FEF"/>
</svg>
