<svg width="24" height="24" viewBox="0 0 24 24" fill="none" xmlns="http://www.w3.org/2000/svg">
<path d="M23.3438 20.1094L22.5 19.6875V19.125C22.5 18.5156 21.9844 18 21.375 18H16.125C15.4688 18 15 18.5156 15 19.125V19.6875L14.1094 20.1094C13.7344 20.2969 13.5 20.6719 13.5 21.0938V22.875C13.5 23.5312 13.9688 24 14.625 24H22.875C23.4844 24 24 23.5312 24 22.875V21.0938C24 20.6719 23.7188 20.2969 23.3438 20.1094ZM22.5 22.5H15V21.3281L16.5 20.5781V19.5H21V20.5781L22.5 21.3281V22.5ZM2.625 10.5H2.25C1.875 10.5 1.54688 10.7812 1.5 11.1562C1.40625 11.625 1.78125 12 2.25 12H3V13.3594C2.95312 14.1562 2.90625 14.9062 2.8125 15.7031C2.76562 16.125 3.14062 16.5 3.5625 16.5C3.9375 16.5 4.26562 16.2188 4.3125 15.8438C4.40625 15 4.5 14.2031 4.5 13.3594V12H7.5V13.3594C7.5 14.2031 7.54688 15.0469 7.64062 15.8438C7.6875 16.2188 8.01562 16.5 8.39062 16.5C8.8125 16.5 9.1875 16.125 9.14062 15.7031C9.04688 14.9062 9 14.1562 9 13.3594V12H9.70312C10.0781 12 10.4062 11.7656 10.4531 11.3906C10.5469 10.9219 10.1719 10.5 9.75 10.5H9.32812L10.7812 6.5625C11.0625 5.90625 10.8281 5.15625 10.2188 4.78125C9.9375 4.59375 9.65625 4.5 9.375 4.5H6.75V3H7.45312C7.82812 3 8.15625 2.76562 8.20312 2.39062C8.29688 1.92188 7.92188 1.5 7.5 1.5H6.75V0.796875C6.75 0.421875 6.46875 0.09375 6.09375 0.046875C5.625 -0.046875 5.25 0.328125 5.25 0.75V1.5H4.5C4.125 1.5 3.79688 1.78125 3.75 2.15625C3.65625 2.625 4.03125 3 4.5 3H5.25V4.5H2.57812C2.29688 4.5 2.01562 4.59375 1.73438 4.73438C1.125 5.15625 0.890625 5.90625 1.17188 6.5625L2.625 10.5ZM9.42188 6L7.73438 10.5H4.26562L2.57812 6H9.42188ZM11.3438 20.1094L10.5 19.6875V19.125C10.5 18.5156 9.98438 18 9.375 18H2.625C1.96875 18 1.5 18.5156 1.5 19.125V19.6875L0.609375 20.1094C0.234375 20.2969 0 20.6719 0 21.0938V22.875C0 23.5312 0.46875 24 1.125 24H10.875C11.4844 24 12 23.5312 12 22.875V21.0938C12 20.6719 11.7188 20.2969 11.3438 20.1094ZM10.5 22.5H1.5V21.3281L3 20.5781V19.5H9V20.5781L10.5 21.3281V22.5ZM23.25 7.5H14.25C13.8281 7.5 13.5 7.875 13.5 8.25V12C13.5 12.2812 13.5938 12.5156 13.8281 12.6562L15.75 13.9219V16.5C15.75 16.9219 16.0781 17.25 16.5 17.25C16.875 17.25 17.25 16.9219 17.25 16.5V13.5C17.25 13.2656 17.1094 13.0312 16.875 12.8906L15 11.625V9H16.5V9.75C16.5 10.1719 16.8281 10.5 17.25 10.5C17.625 10.5 18 10.1719 18 9.75V9H19.5V9.75C19.5 10.1719 19.8281 10.5 20.25 10.5C20.625 10.5 21 10.1719 21 9.75V9H22.5V11.625L20.5781 12.8906C20.3438 13.0312 20.25 13.2656 20.25 13.5V16.5C20.25 16.9219 20.5781 17.25 21 17.25C21.375 17.25 21.75 16.9219 21.75 16.5V13.9219L23.625 12.6562C23.8594 12.5156 24 12.2812 24 12V8.25C24 7.875 23.625 7.5 23.25 7.5Z" fill="#FF643E"/>
</svg>
