<svg width="19" height="19" viewBox="0 0 19 19" fill="none" xmlns="http://www.w3.org/2000/svg">
<path d="M9.99414 0.467773C5.00195 0.467773 0.994141 4.51074 0.994141 9.46777C0.994141 14.46 5.00195 18.4678 9.99414 18.4678C14.9512 18.4678 18.959 14.46 18.959 9.46777C18.9941 4.51074 14.9863 0.467773 9.99414 0.467773ZM12.9473 12.2451C12.7715 12.4561 12.5254 12.5615 12.2441 12.5615C12.0684 12.5615 11.8926 12.5264 11.7168 12.4209L9.4668 10.7334C9.29102 10.5576 9.18555 10.3115 9.18555 10.0303V5.81152C9.18555 5.35449 9.53711 4.96777 10.0293 4.96777C10.4863 4.96777 10.873 5.35449 10.873 5.81152V9.6084L12.7715 11.0498C13.1582 11.3311 13.2285 11.8584 12.9473 12.2451Z" fill="#FF643E"/>
</svg>
