<svg width="22" height="26" viewBox="0 0 22 26" fill="none" xmlns="http://www.w3.org/2000/svg">
<path d="M18.125 18.5781C18.5469 19.0469 18.5469 19.75 18.125 20.1719C17.6562 20.6406 16.9531 20.6406 16.5312 20.1719L11 14.5938L5.42188 20.1719C4.95312 20.6406 4.25 20.6406 3.82812 20.1719C3.35938 19.75 3.35938 19.0469 3.82812 18.5781L9.40625 13L3.82812 7.42188C3.35938 6.95312 3.35938 6.25 3.82812 5.82812C4.25 5.35938 4.95312 5.35938 5.375 5.82812L11 11.4531L16.5781 5.875C17 5.40625 17.7031 5.40625 18.125 5.875C18.5938 6.29688 18.5938 7 18.125 7.46875L12.5469 13L18.125 18.5781Z" fill="#5D5FEF"/>
</svg>
