<svg width="24" height="25" viewBox="0 0 24 25" fill="none" xmlns="http://www.w3.org/2000/svg">
<path fill-rule="evenodd" clip-rule="evenodd" d="M10.909 0.242829C6.80843 1.34875 3.98251 4.70946 3.27442 9.32207C3.15979 10.0688 2.70571 11.3015 1.55929 13.9777C0.70165 15.9798 0 17.6702 0 17.7343C0 17.7984 0.676177 17.8508 1.50262 17.8508H3.00523V21.0707V24.2906H10.0754H17.1457L16.8014 23.0394C16.6121 22.3512 16.4572 21.7394 16.4572 21.6799C16.4572 21.6203 14.0101 21.5715 11.0192 21.5715H5.58115V18.5663V15.5611H4.72251C4.25026 15.5611 3.86387 15.4991 3.86387 15.4235C3.86387 15.3478 4.32238 14.1725 4.88279 12.8119C5.6454 10.9601 5.9641 9.97778 6.14999 8.90663C6.58532 6.39697 7.85811 4.53802 9.8616 3.48519C12.2601 2.22485 14.6567 2.23229 17.086 3.50766C19.5236 4.78717 21.0366 7.28194 21.0366 10.021C21.0366 11.8364 20.5715 13.2722 19.5124 14.7266L19.0258 15.3946L20.2999 19.8069L21.5741 24.219L22.6879 24.2612C23.3007 24.2844 23.8789 24.274 23.973 24.2378C24.0935 24.1915 23.8156 22.9531 23.0324 20.0455C22.1061 16.6073 21.9517 15.8831 22.1063 15.7042C22.7649 14.9426 23.4918 12.7633 23.6812 10.9817C23.8646 9.25853 23.2782 6.53493 22.402 5.0399C21.5228 3.53957 19.7563 1.83761 18.3203 1.10762C16.7533 0.310947 15.7597 0.0702432 13.8098 0.0150041C12.2918 -0.0280709 11.7579 0.0138586 10.909 0.242829ZM11.4159 3.73262C9.64036 4.33767 8.08765 5.70434 7.40733 7.26091C7.25263 7.61509 7.03453 8.42007 6.92277 9.04974C6.811 9.6794 6.34677 11.1928 5.89097 12.4127L5.06224 14.6309L5.71524 14.7024L6.36823 14.774L6.40687 17.815L6.44551 20.856H11.3083C13.9828 20.856 16.17 20.8398 16.1687 20.8202C16.1676 20.8006 16.0162 20.2371 15.8323 19.568L15.498 18.3516L12.2569 18.3131L9.0157 18.2747V15.5584C9.0157 12.9375 9.00568 12.8421 8.72949 12.8421C8.57207 12.8421 8.44356 12.8259 8.44399 12.8063C8.44442 12.7867 8.66981 12.166 8.94486 11.4273C9.21991 10.6886 9.44502 9.97578 9.44502 9.84326C9.44502 8.60195 10.6186 6.96095 11.9094 6.39754C15.2474 4.94058 18.5968 8.1692 17.3113 11.6049C17.0334 12.3478 15.9794 13.5499 15.4519 13.7257C15.2876 13.7805 15.5266 14.7903 16.6513 18.792C17.4238 21.5406 18.0869 23.9025 18.1248 24.0401C18.1839 24.2548 18.3763 24.2906 19.472 24.2906C20.1751 24.2906 20.7504 24.2443 20.7504 24.1877C20.7504 24.1311 20.1621 22.0757 19.4433 19.6201L18.136 15.1554L18.629 14.5353C19.9701 12.8491 20.4692 11.0818 20.167 9.09009C19.5476 5.00712 15.3022 2.40803 11.4159 3.73262ZM12.2711 7.8432C11.5892 8.20326 11.0475 9.01739 10.9328 9.85528C10.815 10.7142 11.2231 11.6538 11.957 12.2135C12.4401 12.582 12.6132 12.6274 13.5377 12.6274C14.6932 12.6274 15.1193 12.4175 15.7025 11.5607C17.207 9.3504 14.6544 6.58501 12.2711 7.8432Z" fill="white"/>
</svg>
