<svg width="24" height="22" viewBox="0 0 24 22" fill="none" xmlns="http://www.w3.org/2000/svg">
<path d="M12 0.5C5.34375 0.5 0 4.85938 0 10.25C0 12.4531 0.9375 14.5156 2.48438 16.1562C1.78125 17.9844 0.328125 19.5781 0.328125 19.5781C0 19.9062 -0.046875 20.375 0.09375 20.7969C0.234375 21.2656 0.65625 21.5 1.125 21.5C3.98438 21.5 6.23438 20.3281 7.64062 19.3438C8.95312 19.7656 10.4531 20 12 20C18.6094 20 23.9531 15.6406 23.9531 10.2969C23.9531 4.95312 18.6094 0.5 12 0.5ZM12 18.5C10.6406 18.5 9.32812 18.3125 8.0625 17.9375C7.64062 17.7969 7.125 17.8438 6.75 18.125C5.71875 18.875 4.03125 19.7656 1.92188 20C2.48438 19.2969 3.32812 18.0781 3.84375 16.7188C4.07812 16.2031 3.9375 15.6406 3.5625 15.1719C2.20312 13.7188 1.5 12.0312 1.5 10.25C1.5 5.70312 6.1875 2 11.9531 2C17.7188 2 22.4062 5.70312 22.4062 10.25C22.4062 14.7969 17.7656 18.5 12 18.5ZM12 9.125C11.3438 9.125 10.875 9.64062 10.875 10.25C10.875 10.9062 11.3438 11.375 12 11.375C12.6094 11.375 13.125 10.9062 13.125 10.25C13.125 9.64062 12.6094 9.125 12 9.125ZM18 9.125C17.3438 9.125 16.875 9.64062 16.875 10.25C16.875 10.9062 17.3438 11.375 18 11.375C18.6094 11.375 19.125 10.9062 19.125 10.25C19.125 9.64062 18.6094 9.125 18 9.125ZM6 9.125C5.34375 9.125 4.875 9.64062 4.875 10.25C4.875 10.9062 5.34375 11.375 6 11.375C6.60938 11.375 7.125 10.9062 7.125 10.25C7.125 9.64062 6.60938 9.125 6 9.125Z" fill="#5D5FEF"/>
</svg>
