<svg width="24" height="22" viewBox="0 0 24 22" fill="none" xmlns="http://www.w3.org/2000/svg">
<path d="M12 0.5C5.34375 0.5 0 4.85938 0 10.25C0 12.5469 1.03125 14.7031 2.67188 16.3438C2.10938 18.7344 0.140625 20.8438 0.140625 20.8438C0 20.9375 0 21.125 0.046875 21.2656C0.09375 21.4062 0.234375 21.5 0.375 21.5C3.51562 21.5 5.76562 20 6.98438 19.0625C8.53125 19.625 10.2188 20 12 20C18.6562 20 23.9531 15.5938 23.9531 10.25C23.9531 4.90625 18.6094 0.5 12 0.5ZM5.95312 11.75C5.10938 11.75 4.45312 11.0469 4.45312 10.25C4.45312 9.5 5.10938 8.75 5.95312 8.75C6.75 8.75 7.45312 9.45312 7.45312 10.25C7.45312 11.0938 6.79688 11.75 5.95312 11.75ZM12 11.75C11.1562 11.75 10.5 11.0469 10.5 10.25C10.5 9.5 11.2031 8.75 12 8.75C12.75 8.75 13.4531 9.45312 13.4531 10.25C13.4531 11.0938 12.7969 11.75 12 11.75ZM17.9531 11.75C17.1094 11.75 16.4531 11.0469 16.4531 10.25C16.4531 9.5 17.1094 8.75 17.9531 8.75C18.75 8.75 19.4531 9.45312 19.4531 10.25C19.4531 11.0938 18.7969 11.75 17.9531 11.75Z" fill="#2F75EE"/>
</svg>
