<svg version="1.2" xmlns="http://www.w3.org/2000/svg" viewBox="0 0 699 271" width="699" height="271">
	<title>dama-fruta1 (1)-svg</title>
	<style>
		.s0 { fill: #e0ebff } 
	</style>
	<path id="Layer" class="s0" d="m13.5 6c40.7-0.1 81.3 0 122 0q0.1 0 10.5-0.4c5.1-0.2 10.8 0.4 15.3 0.4q92.5-0.2 185 0.3 10.3 0.1 19.9 0.1 162.2-0.2 323.9-0.5 0.2 0 0.4 0.1 0.3 0.1 0.4 0.2 0.2 0.2 0.2 0.4 0.1 0.2 0.1 0.4v19.6q0 0.8-0.8 0.8l-682.2 0.3q-1.2 0-1.2-1.3-0.2-8.4-0.1-17.6c0-3.7 4.4-2.8 6.6-2.8z"/>
	<path id="Layer" class="s0" d="m615.8 136.7c7.8-4.3 14.5-12.8 12.4-22.2q-1.7-7.6-3.7-15c-4.1-15.3 2.3-30.1 14.4-40 8.1-6.7 22.9-14.8 34.4-14q0.1 0 0.2 0.1 0.1 0.1 0.1 0.2 0.1 0.1 0 0.2 0 0.1-0.1 0.2c-19.5 18-6.2 35.4-2.8 55.9q0.3 1.6 0 3.3c-3.5 21.1-20.1 37.5-42.1 36.3-3.7-0.3-8.1-1.6-12.2-2q-0.5-0.1-0.9-0.4-0.3-0.4-0.4-0.9-0.1-0.5 0.1-1 0.2-0.4 0.6-0.7z"/>
	<path id="Layer" fill-rule="evenodd" class="s0" d="m11.8 139.8q0.2 0 0.4-0.1 0.2 0 0.3-0.2 0.1-0.1 0.2-0.3 0.1-0.2 0-0.4 0.1-39.3 0-78.2c0-3.3-0.9-6-1.7-9.2q0-0.2 0-0.5 0.1-0.3 0.3-0.6 0.2-0.2 0.4-0.3 0.3-0.2 0.6-0.2 19.3-0.1 38.7 0.1 9.5 0.1 12.8 1.5c10.4 4.3 10.9 19.3 11 29q0 17.1 0.1 34.3c0 8.5-1.6 21.8-10.1 26q-2.7 1.4-7.7 1.3-22.3-0.1-45.2 0.1-0.2 0-0.3-0.1-0.2-0.1-0.4-0.2-0.1-0.1-0.2-0.3-0.1-0.1-0.1-0.3-0.1-1.3 0.9-1.4zm39.1-71.3q0-0.2-0.1-0.5-0.1-0.2-0.2-0.4-0.2-0.2-0.5-0.3-0.2-0.1-0.5-0.1l-11.6-0.6q-0.3 0-0.6 0.1-0.2 0.1-0.4 0.3-0.2 0.1-0.3 0.4-0.2 0.3-0.2 0.5v56.7q0 0.3 0.1 0.5 0.1 0.3 0.3 0.5 0.2 0.2 0.5 0.3 0.2 0.1 0.5 0.1h11.7q0.3 0 0.6-0.1 0.2-0.1 0.4-0.3 0.2-0.2 0.3-0.5 0.1-0.2 0.1-0.5z"/>
	<path id="Layer" class="s0" d="m328.2 87.8l-4.6-0.1q-0.7-0.1-0.7-0.7l-0.1-11.9q0-0.2 0.1-0.4 0.1-0.2 0.2-0.4 0.2-0.1 0.4-0.2 0.2-0.1 0.4-0.1l4.4-0.2q0.1 0 0.2 0 0-0.1 0.1-0.1 0.1-0.1 0.1-0.2 0.1-0.1 0.1-0.2 0-4.1 0-8c0.1-7.7 4.9-14.9 13.2-15q11.9-0.2 24.3 0 0.5 0 1 0.2 0.4 0.2 0.8 0.6 0.3 0.3 0.5 0.8 0.2 0.4 0.2 0.9l0.3 12.2q0 0.1-0.1 0.3-0.1 0.1-0.2 0.2-0.1 0.1-0.3 0.2-0.1 0-0.3 0-1.2-0.2-1.6-1.4-0.1-0.1-0.1-0.2-0.1-0.1-0.2-0.1-0.1-0.1-0.2-0.1-0.1 0-0.2 0h-14.1q-0.7 0-0.9 0.7l-1.8 8.2q-0.1 0.2-0.1 0.4 0.1 0.2 0.2 0.3 0.1 0.2 0.3 0.3 0.2 0.1 0.4 0.1l12.9 0.1q2 0 2 2l-0.1 9.9q0 1.7-1.6 1.7l-13.1 0.3q-0.6 0-0.6 0.6-0.6 20.7-0.1 41.3c0.1 3.7 1.8 7.4 1.6 11.5q0 0.1-0.1 0.2 0 0.1-0.1 0.2-0.1 0.1-0.2 0.2-0.2 0-0.3 0h-22.4q-0.5 0-0.6-0.5-0.6-2.8 0.6-4.7 0.9-1.5 0.9-2.4 0.4-23 0-45.9 0-0.5-0.5-0.6z"/>
	<path id="Layer" class="s0" d="m495.2 73.4l0.1-11.2q0-2.2 2.2-2.2l18.4-0.1q0.2 0 0.4 0 0.2 0.1 0.4 0.3 0.1 0.1 0.2 0.3 0.1 0.2 0.1 0.4v12.7q0 0.4 0.4 0.4h16.4q0.2 0.1 0.4 0.1 0.3 0.1 0.4 0.3 0.2 0.2 0.3 0.4 0.1 0.2 0.1 0.5v11.7q0 0.5-0.5 0.6l-17 0.1q-0.5 0-0.5 0.5-0.2 18.2 0 36.3 0 1.5 0.4 2.9 0.1 0.1 0.1 0.2 0.1 0 0.1 0.1 0.1 0.1 0.2 0.1 0.1 0.1 0.2 0.1 8.3 1.6 16.5-0.2 0.5-0.1 0.6-0.6 0.3-1 1.3-1.1 0.6-0.1 0.6 0.5 0.2 3.9-0.1 7.7c-0.2 2.5-1.6 4.3-1.8 6.8q0 0.2-0.1 0.3 0 0.2-0.2 0.3-0.1 0.1-0.2 0.2-0.2 0-0.3 0-12 0.1-22.8 0-5.6 0-8.2-1.5c-6.2-3.4-8-12.8-8-19.5q-0.1-16.2-0.1-32.1 0-0.2 0-0.3-0.1-0.2-0.2-0.3-0.2-0.2-0.3-0.3-0.2 0-0.4-0.1l-4.5-0.2q-0.2 0-0.3-0.1-0.1 0-0.2-0.1-0.1-0.1-0.2-0.3 0-0.1 0-0.2v-12.3q0-0.1 0.1-0.2 0-0.2 0.1-0.3 0.1-0.1 0.3-0.1 0.1-0.1 0.3-0.1l4.7 0.2q0.1 0 0.2-0.1 0.2 0 0.2-0.1 0.1-0.1 0.2-0.2 0-0.1 0-0.2z"/>
	<path id="Layer" fill-rule="evenodd" class="s0" d="m119.5 138.7c-0.8 2.6-2.3 3.2-4.9 3.3q-6.2 0.1-12.4 0-8.5-0.1-9.4-0.3c-7.1-1.6-8.6-10.6-8.5-16.9q0.2-13.9 0.6-18.3 1-10.8 11.3-10.7 10.9 0.1 21.8 0 0.6 0 0.9-0.4 3-3.8-0.2-7.1-0.3-0.3-0.8-0.3c-12.3-0.4-22.3-1.2-30.5 1.8q-0.9 0.3-0.8-0.6l0.3-14q0-0.3 0.1-0.5 0.1-0.3 0.3-0.5 0.2-0.1 0.4-0.2 0.3-0.1 0.5-0.1 19.3-0.3 38.4 0 5.1 0.1 7.6 1.5c5.7 3.3 8.3 13.6 8.3 19.7q-0.1 14.9-0.2 29.8c-0.1 5 0.7 10.9 0.6 16.4q0 0.2-0.1 0.3 0 0.1-0.1 0.2-0.1 0.1-0.2 0.1-0.2 0.1-0.3 0.1h-18.8q-0.3 0-0.4-0.2l-2.6-3.2q-0.6-0.8-0.9 0.1zm-11.9-28.7q-0.3 0-0.4 0.3-2 8.6-0.2 17.2 0.1 0.7 0.8 0.7h10q0.4 0 0.7-0.4c2.8-4.3 2.1-10.1 2.1-17.2q0-0.7-0.7-0.7z"/>
	<path id="Layer" class="s0" d="m210.2 78.8q1.1-2.7 3.4-4.5 0.3-0.3 0.8-0.3 6.8-0.3 13.6-0.1c7 0.1 12.4-0.1 15.7 5.7 2.1 3.7 3.1 9 3.1 13.7q-0.1 23.5 0.1 47 0 0.1 0.1 0.2 0 0.1 0 0.2 0.1 0 0.2 0.1 0 0 0.1 0l0.5 0.1q0.3 0.1 0 0.2-1.2 0.8-2.5 0.8-9.9 0.2-19.8 0-0.1 0-0.2-0.1-0.1 0-0.2-0.1-0.1-0.1-0.1-0.2-0.1-0.1-0.1-0.2 0.2-23.1 0.1-46.3 0-3.9-0.3-6.5 0-0.2-0.1-0.3-0.1-0.1-0.2-0.2-0.1-0.1-0.2-0.1-0.1-0.1-0.3-0.1h-8.6q-0.9 0-1.7 0.3-0.8 0.4-1.4 1-0.6 0.6-0.9 1.4-0.4 0.8-0.4 1.6-0.1 21.2 0.1 43.4 0 1.9 1.2 2.6 0.5 0.3 0.5 0.9l0.1 2.2q0 0.7-0.8 0.7l-22.4 0.1q-0.2 0-0.3-0.1-0.1 0-0.2-0.1-0.1-0.1-0.1-0.2-0.1-0.1-0.1-0.3 0.8-23.6 0.3-47.3-0.1-3.4-0.6-5.6-0.1-0.5-0.7-0.5h-10q-0.6 0-0.8 0.6c-2.5 7.7-1 14-1.4 21.8q-0.8 14.7 1.2 30 0.3 1.7-1.4 1.7h-21.7q-0.3 0-0.5-0.1-0.2-0.1-0.3-0.3-0.2-0.2-0.2-0.4-0.1-0.2 0-0.5c0.6-3.2 1.5-6.3 1.5-9.6 0-18.6 0.5-37.5-1.5-56q0-0.2 0.1-0.5 0.1-0.2 0.2-0.4 0.2-0.2 0.4-0.3 0.3-0.1 0.5-0.1l19.5 0.1q0.1 0 0.2 0 0.1 0.1 0.2 0.1 0.1 0.1 0.2 0.1 0.1 0.1 0.1 0.2l1.3 1.9q0.1 0.1 0.2 0.1 0.1 0.1 0.3 0.1 0.1 0 0.2-0.1 0.1-0.1 0.2-0.2l0.8-1.7q0.2-0.4 0.6-0.4 16.8-0.6 26.7 0.1 4.1 0.3 5.1 4.6 0.2 1.1 0.6 0.1z"/>
	<path id="Layer" fill-rule="evenodd" class="s0" d="m293 138.5v0.8q-0.1 0.6-0.8 0.7-1.1 0-1.3 1.1-0.1 0.7-0.8 0.7-11.7 0.4-23.5 0-0.5 0-0.9-0.2l-3.9-2.1q-0.4-0.2-0.6-0.6-3.5-6.9-3.8-10.2-1-14.6 0-20c2.5-12.9 7.5-12.7 19.5-12.8q7.6-0.1 15.3 0 0.5 0 0.6-0.5 0.7-3.5 0-7.1-0.1-0.5-0.7-0.5c-9.9-0.1-21.6-1.1-31.2 1.5q-1.6 0.5-1.4-1.2l1.7-13.7q0-0.1 0-0.2 0.1-0.1 0.2-0.1 0.1-0.1 0.1-0.1 0.1-0.1 0.2-0.1 19-0.2 38.1 0 4.6 0.1 6.8 1.1c5.6 2.5 8.2 10.7 8.3 16.5q0 22.9 0.2 45.8 0 2.1 1.4 3 0.2 0.2 0.3 0.4 0.1 0.3 0 0.6-0.1 0.2-0.3 0.4-0.2 0.2-0.5 0.2h-20.2q-0.1 0-0.2 0-0.2-0.1-0.3-0.2-0.1 0-0.1-0.2-0.1-0.1-0.1-0.2l-0.3-2.8q-0.1-0.4-0.3-0.6-0.3-0.2-0.6-0.2-0.4 0-0.6 0.3-0.2 0.2-0.3 0.5zm0.1-11.5l0.1-15.7q0-0.3-0.1-0.5-0.2-0.3-0.4-0.5-0.2-0.2-0.4-0.3-0.3-0.1-0.6-0.1l-8.6-0.1q-0.8 0-1.6 0.3-0.7 0.3-1.3 0.8-0.6 0.6-1 1.3-0.3 0.7-0.3 1.4v10.9q-0.1 0.8 0.3 1.5 0.3 0.7 0.9 1.2 0.6 0.5 1.3 0.8 0.8 0.3 1.6 0.3l8.6 0.1q0.3 0 0.6-0.1 0.3-0.1 0.5-0.3 0.2-0.2 0.3-0.5 0.1-0.2 0.1-0.5z"/>
	<path id="Layer" class="s0" d="m394.2 80.8c1.2-4.5 4.2-6.3 8.8-6.7q5.4-0.6 10.8 0 1.1 0.2 1.1 1.2v19.7q0 0.2-0.2 0.4-0.1 0.2-0.4 0.3-0.2 0.1-0.4 0-0.3-0.1-0.4-0.2c-1.9-2.7-11.9-1.8-14.5-1.6q-0.9 0.1-1.7 0.5-0.8 0.4-1.4 1-0.6 0.6-0.9 1.5-0.3 0.8-0.3 1.7l0.1 42.5q0 0.1-0.1 0.3 0 0.1-0.1 0.3-0.2 0.1-0.3 0.1-0.2 0.1-0.4 0.1l-21.8-0.1q-0.2 0-0.4-0.1-0.2-0.2-0.3-0.4-0.1-0.3 0-0.5 0-0.3 0.2-0.4c1.2-0.9 1.4-2.2 1.4-3.7q0.1-27.7 0-55.5c0-2.2-0.6-3.7-1.7-5.6q-0.1-0.3-0.1-0.6 0-0.3 0.1-0.5 0.2-0.3 0.5-0.4 0.2-0.2 0.5-0.2h18.8q0.3 0 0.5 0.1 0.3 0.1 0.5 0.3 0.3 0.2 0.4 0.5 0.1 0.2 0.2 0.5l0.7 5.4q0 0.2 0.1 0.3 0.1 0.1 0.3 0.1 0.1 0 0.2-0.1 0.1-0.1 0.2-0.2z"/>
	<path id="Layer" class="s0" d="m427.2 137.6c-0.6-1-1.7-2.4-1.8-3.6-0.9-5.4-2.1-10.4-2.1-15.9q0-21.9-0.2-43.5-0.1-0.7 0.6-0.7l19.6 0.1q1.7 0 1.7 1.8-0.1 23.8 0 47.4 0 4.9 4.8 5.2 4.5 0.4 8.1-0.3 1.4-0.3 1.4-1.7l-0.2-51.6q0-0.8 0.8-0.8h19.7q0.3 0 0.5 0.1 0.3 0.1 0.5 0.3 0.2 0.2 0.3 0.5 0.1 0.2 0.1 0.5-0.2 30 0 60.4 0 0.1-0.1 1.9-0.1 1.8 0.7 2.3 2.6 1.8-0.8 1.8l-17.2 0.1q-0.1 0-0.2 0-0.1-0.1-0.2-0.1-0.1-0.1-0.1-0.2-0.1-0.1-0.1-0.3l-0.2-2.8q-0.1-0.4-0.4-0.5l-0.3-0.1q-0.7-0.3-0.7 0.4-0.3 1.6-1.8 1.8-0.5 0-0.7 0.5-0.5 1.2-2.4 1.2-15.5 0.1-22-0.1c-1.8 0-3.5-1.1-5-2q-1.4-0.8-2.3-2.1z"/>
	<path id="Layer" fill-rule="evenodd" class="s0" d="m582.6 139q-0.1-0.5-0.6-0.9-0.4-0.3-0.9-0.3-0.6 0-1 0.4-0.4 0.3-0.5 0.8c-0.8 3.2-3.2 2.8-6.3 2.9q-8.7 0.1-17.4-0.1c-6.9-0.2-10.6-6.8-10.7-13.1q-0.3-15.7 0.1-21.4 0.7-11.4 12.7-11.3 9 0 17.9 0c3.8 0 5.8-1.4 5.1-5.5-0.4-2-1.3-2.6-3.4-2.6q-11.7-0.4-23.4-0.1c-2.2 0-4 0.8-6 1.7q-0.1 0.1-0.3 0.1-0.2-0.1-0.4-0.2-0.1-0.1-0.2-0.2-0.1-0.2-0.1-0.4l0.2-11.8q0-0.6 0.2-1.2 0.3-0.5 0.7-0.9 0.4-0.4 1-0.7 0.5-0.2 1.1-0.2 18.7-0.1 38.3 0 3.2 0 6 1.6c5.5 3.2 8.3 13.4 8.2 18.9q-0.4 23.4 0.3 46.7 0 0.1-0.1 0.2 0 0.2-0.1 0.3-0.1 0.1-0.2 0.1-0.2 0.1-0.3 0.1h-18.5q-0.1 0.1-0.2 0-0.1 0-0.2-0.1-0.1 0-0.1-0.1-0.1-0.1-0.1-0.2zm-15.2-28.4c-1.7 5.8-0.9 10.9-0.3 16.8q0 0.5 0.5 0.6c3.8 0.6 12.6 2 13.3-3.5q0.4-3.7 0.1-14.1 0-0.5-0.6-0.5h-12.2q-0.6 0.1-0.8 0.7z"/>
	<path id="Layer" class="s0" d="m7.5 161q0.1-0.1 0.4 0.1 0.3 0.1 0.3-0.2 0.2-1.3-0.1-2.7-0.3-1.6-0.4 0.1l-0.2 2.7q-0.7-1.9-0.2-4 0.1-0.6 0.3 0l0.2 0.3q0 0 0 0 0 0 0 0 0.1 0 0.1 0 0 0 0 0 0.7-1.1 0.4-2.1 0-0.2 0-0.4 0-0.2 0.2-0.4 0.1-0.1 0.3-0.2 0.2-0.1 0.4-0.1l681.6 0.1q0.2 0 0.3 0 0.1 0.1 0.2 0.2 0.1 0.1 0.2 0.2 0 0.1 0 0.3l0.1 6.4q0 0.1-0.1 0.2 0 0.2-0.1 0.3-0.1 0.1-0.3 0.1-0.1 0.1-0.2 0.1-341.1 0-682.1 0-1.2 0-1.3-1z"/>
	<path id="Layer" fill-rule="evenodd" class="s0" d="m10.8 169q0-0.2 0-0.4 0.1-0.1 0.2-0.2 0.1-0.1 0.3-0.2 0.1-0.1 0.3-0.1h19.7c2.3 0 4.5 0.4 6.6 1.2 2.2 0.9 4.1 2.1 5.7 3.6 1.6 1.5 2.9 3.3 3.8 5.3 0.9 2 1.3 4.2 1.3 6.3v1c0 2.2-0.4 4.3-1.3 6.3-0.9 2-2.1 3.8-3.8 5.4-1.6 1.5-3.5 2.7-5.6 3.6-2.1 0.8-4.4 1.2-6.7 1.2l-19.6 0.1q-0.2-0.1-0.4-0.1-0.1-0.1-0.2-0.2-0.1-0.1-0.2-0.3-0.1-0.1-0.1-0.3zm9.9 6.3l0.1 19.9q0 0.2 0 0.3 0.1 0.2 0.2 0.3 0.1 0.1 0.3 0.2 0.1 0 0.3 0h7.4c1.3 0 2.6-0.3 3.8-0.7 1.2-0.4 2.3-1.1 3.2-1.9 0.9-0.8 1.6-1.8 2.1-2.9 0.5-1.1 0.7-2.2 0.7-3.4v-3.9c0-1.2-0.3-2.3-0.8-3.4-0.5-1.1-1.2-2-2.1-2.8-0.9-0.8-2-1.5-3.2-1.9-1.2-0.5-2.5-0.7-3.8-0.7l-7.4 0.1q-0.2 0-0.3 0-0.2 0.1-0.3 0.2-0.1 0.1-0.2 0.3 0 0.1 0 0.3z"/>
	<path id="Layer" class="s0" d="m70.9 169.4c0-0.7 0.5-1.3 1.3-1.3h7.3c0.7 0 1.2 0.6 1.2 1.3v31.4c0 0.7-0.5 1.3-1.2 1.3h-7.3c-0.8 0-1.3-0.6-1.3-1.3z"/>
	<path id="Layer" class="s0" d="m111.6 201.3q-6.4-1.5-8.5-7.6-0.6-1.7 0.1-2.9 0.2-0.5 0.8-0.6 5.5-0.8 9.1 2.9 1.6 1.7 2.9 2.2c3 1 13.3 2.4 12.9-3.6q-0.1-2-2.6-2.4-8-1.3-15.6-3.9c-6.8-2.4-8.7-8.4-3.7-14.2 3.2-3.7 12.9-3.5 18.7-3 4.7 0.4 12.6 4.2 10.9 9.9q-0.1 0.5-0.6 0.6c-4.3 0.5-6.2-0.4-10.1-2.8-3.2-2.1-10.3-3.3-12.8 0.9q0 0.1-0.1 0.2 0 0.1 0 0.2 0 0.1 0 0.2 0.1 0.1 0.1 0.2 1.3 1.8 2.8 2.1 8 1.3 15.8 3.7c9.2 2.8 9.4 14.4 0.2 17.1q-10 3.1-20.3 0.8z"/>
	<path id="Layer" class="s0" d="m170.5 174.4l-10.6-0.1q-0.2 0-0.4-0.1-0.2-0.1-0.3-0.2-0.2-0.2-0.2-0.4-0.1-0.2-0.1-0.4l0.1-4.2q0-0.2 0.1-0.4 0.1-0.2 0.2-0.3 0.2-0.1 0.4-0.2 0.2-0.1 0.4-0.1l33.5 0.1q0.2 0 0.4 0.1 0.2 0.1 0.3 0.2 0.2 0.1 0.3 0.3 0 0.2 0 0.4l0.2 4.2q0 0.2-0.1 0.4-0.1 0.2-0.2 0.3-0.2 0.2-0.4 0.3-0.2 0.1-0.4 0.1l-11.7-0.1q-0.2 0-0.4 0-0.2 0.1-0.4 0.3-0.1 0.1-0.2 0.3-0.1 0.2-0.1 0.4l-0.1 25.7q0 0.3 0 0.4-0.1 0.2-0.3 0.4-0.1 0.1-0.3 0.2-0.2 0.1-0.4 0.1l-7.3-0.1q-0.2 0-0.4-0.1-0.2-0.1-0.3-0.2-0.2-0.2-0.3-0.4 0-0.2 0-0.4v-25.4q0-0.2-0.1-0.4 0-0.2-0.2-0.3-0.1-0.2-0.3-0.3-0.2-0.1-0.4-0.1z"/>
	<path id="Layer" fill-rule="evenodd" class="s0" d="m242.9 187.7q6.7 5.3 11.8 12.1 0.2 0.3 0.3 0.7 0 0.4-0.2 0.8-0.1 0.3-0.5 0.5-0.3 0.2-0.7 0.2l-7.8-0.1q-0.5 0-0.6-0.5-0.2-0.9-1-1.2-0.4-0.2-0.6-0.5l-10.8-11.1q-0.5-0.5-1.1-0.5l-6-0.1q-0.7 0-0.7 0.8l-0.2 12.6q0 0.1 0 0.3-0.1 0.1-0.2 0.2-0.1 0.1-0.2 0.1-0.1 0.1-0.3 0.1l-8.2-0.2q-0.2 0-0.3-0.1-0.1 0-0.2-0.1-0.1-0.1-0.1-0.2-0.1-0.1-0.1-0.3l-0.1-31q0-2.1 2.1-2.1 9.5-0.1 18.7 0c6.9 0.1 14.5 1.1 16.6 8.7 1.4 4.9-4.3 9.6-9.1 9.6q-0.3 0-0.5 0.1-0.1 0.1-0.2 0.4-0.1 0.2 0 0.4 0 0.2 0.2 0.4zm-17.8-13.2l-0.2 7.1q0 0 0 0.1 0 0.1 0.1 0.1 0.1 0.1 0.1 0.1 0.1 0 0.2 0.1l11.7 0.2q1.2 0.1 2.2-0.2 1.1-0.2 1.9-0.7 0.8-0.5 1.3-1.2 0.5-0.6 0.5-1.3v-0.7q0-0.7-0.4-1.4-0.4-0.6-1.2-1.2-0.8-0.5-1.9-0.8-1-0.3-2.2-0.3l-11.7-0.3q-0.1 0-0.2 0-0.1 0-0.1 0.1-0.1 0.1-0.1 0.1 0 0.1 0 0.2z"/>
	<path id="Layer" class="s0" d="m275.9 199.8q-0.1 0.8 0.3 1.4 0.3 0.5-0.2 0.4-0.1 0-0.2 0-0.1 0-0.1-0.1l-0.2-32.1q0-0.6 0.6-0.8 3.8-1 7.7-0.4 1.2 0.1 1.2 1.3v31.5q0 0.2-0.1 0.4-0.1 0.2-0.2 0.3-0.2 0.2-0.3 0.3-0.2 0-0.4 0h-6.6q-0.5 0-0.6-0.4l-0.4-1.9q-0.1-0.1-0.1-0.1-0.1-0.1-0.2-0.1-0.1 0-0.1 0.1-0.1 0.1-0.1 0.1z"/>
	<path id="Layer" fill-rule="evenodd" class="s0" d="m338.1 201.1q-1.3 0.7-2.7 0.8l-25.2 0.1q-0.2 0-0.4 0-0.2-0.1-0.3-0.3-0.2-0.1-0.3-0.3 0-0.2-0.1-0.4v-31.5q0-0.3 0.1-0.5 0.1-0.2 0.3-0.4 0.1-0.2 0.4-0.3 0.2-0.1 0.5-0.1 11.4-0.3 22.3 0c2.7 0.1 4.7 1.6 7.6 2q0.1 0 0.2 0.1 0.1 0 0.2 0.1 0 0.1 0.1 0.2 0.1 0.1 0.1 0.2 0.2 1 1.3 1 0.2 0 0.3 0.1 0.1 0 0.2 0.1 0.1 0.1 0.2 0.2 0.1 0.1 0.1 0.3 0.1 1.2 1.1 1.9 0.4 0.3 0.5 0.7 1.3 4.8-2.9 7.1-0.5 0.2-0.7 0.7-0.2 0.4-0.2 0.9 0 0.5 0.3 0.9 0.3 0.4 0.8 0.6c5 1.8 6.9 7.2 3.2 11.4q-1.3 1.5-2.7 2.9-0.4 0.3-0.9 0.4-1.9 0.1-3.4 1.1zm-19.2-26.2v6.3q0 0.1 0.1 0.3 0 0.1 0.2 0.2 0.1 0.2 0.2 0.2 0.2 0.1 0.3 0.1l11.7-0.1q0.8 0 1.5-0.3 0.7-0.3 1.3-0.7 0.5-0.5 0.8-1.2 0.3-0.6 0.3-1.3v-1q0-0.7-0.3-1.3-0.3-0.7-0.9-1.2-0.5-0.4-1.3-0.7-0.7-0.3-1.4-0.3l-11.7 0.1q-0.2 0-0.3 0.1-0.2 0.1-0.3 0.2-0.1 0.1-0.2 0.2 0 0.2 0 0.4zm16.5 19.8c2.4-0.7 1.8-4.1 1.3-6.1q-0.2-0.6-0.8-0.6l-16.4-0.3q-0.6 0-0.6 0.6v7.2q0 0.5 0.6 0.5l15.3-0.1q0.1 0 0.2 0 0.1-0.1 0.2-0.2 0.1-0.1 0.1-0.2 0-0.2 0-0.3 0-0.1-0.1-0.2 0-0.2 0.2-0.3z"/>
	<path id="Layer" class="s0" d="m374.6 198.9l-3.2-3.2q-0.1-0.1-0.2-0.2 0-0.1-0.1-0.2 0-0.1-0.1-0.2 0-0.1 0-0.2l-0.4-25.6q0-0.3 0.1-0.5 0-0.2 0.2-0.4 0.2-0.1 0.4-0.2 0.2-0.1 0.4-0.1l6.2 0.2q1.1 0 1.1 1.1l-0.1 22.6q0 0.3 0.1 0.6 0.1 0.3 0.3 0.5 0.2 0.3 0.4 0.5 0.2 0.1 0.5 0.2 1.6 0.6 2.8 1.9 0.2 0.3 0.6 0.3l8.8 0.1q0.5 0 0.9-0.3 3.3-2.1 3.4-5 0.4-14.3 0.1-20.1-0.1-2.5 2-2.5 2.7 0 5.4 0.1 0.2 0 0.3 0 0.2 0.1 0.3 0.3 0.2 0.1 0.2 0.3 0.1 0.2 0.1 0.3l-0.1 25.3q0 0.6-0.4 0.9-1.2 1.5-2.5 2.8-1.2 1.3-2.8 1.9-3.8 1.6-5.2 1.8-3.1 0.6-13.7-0.1-0.6-0.1-1-0.4-0.9-0.8-2.1-1.1-1.6-0.3-2.7-1.4z"/>
	<path id="Layer" class="s0" d="m431 169.2c0-0.6 0.5-1.1 1.2-1.1h5.8c0.6 0 1.1 0.5 1.1 1.1l-0.1 31.6c0 0.6-0.5 1.1-1.1 1.1h-5.8c-0.6 0-1.1-0.5-1.1-1.1z"/>
	<path id="Layer" fill-rule="evenodd" class="s0" d="m463.4 169.7q0-0.3 0.2-0.6 0.1-0.2 0.3-0.5 0.2-0.2 0.5-0.3 0.3-0.1 0.6-0.1h18.6c2.4 0 4.6 0.4 6.8 1.2 2.1 0.7 4.1 1.8 5.7 3.3 1.6 1.4 2.9 3 3.8 4.9 0.9 1.8 1.4 3.8 1.4 5.8v3.2c0 2-0.5 4-1.4 5.9-0.9 1.8-2.2 3.5-3.8 4.9-1.6 1.4-3.6 2.5-5.7 3.3-2.2 0.7-4.4 1.1-6.8 1.1h-18.6q-0.3 0-0.6-0.1-0.3-0.1-0.5-0.3-0.2-0.2-0.3-0.5-0.2-0.3-0.2-0.6zm9.6 5v21q0 0.1 0.1 0.2 0 0 0 0.1 0.1 0 0.1 0 0.1 0.1 0.2 0.1l9-0.1c1.2 0 2.3-0.2 3.4-0.5 1.1-0.4 2.1-0.9 2.9-1.6q1.2-0.9 1.9-2.2 0.7-1.3 0.7-2.7v-7.7q0-1.4-0.7-2.7-0.7-1.3-2-2.3c-0.8-0.6-1.8-1.1-2.9-1.5-1-0.3-2.2-0.5-3.4-0.5h-9q-0.1 0-0.1 0-0.1 0.1-0.1 0.1-0.1 0.1-0.1 0.1 0 0.1 0 0.2z"/>
	<path id="Layer" fill-rule="evenodd" class="s0" d="m536.4 201.1q-14.2-3.4-13.5-16.7c0.7-13.6 12.8-17.5 24.4-16.3 12.2 1.2 20.1 7 17.9 20.7-2.2 13.4-18.2 14.9-28.8 12.3zm20-17.4c0-1.3-0.3-2.6-0.8-3.7-0.5-1.2-1.2-2.3-2.2-3.2-0.9-1-2-1.7-3.2-2.2-1.2-0.4-2.5-0.7-3.8-0.7l-4 0.1c-1.3 0-2.6 0.3-3.8 0.8-1.2 0.5-2.3 1.2-3.2 2.1-0.9 1-1.6 2.1-2.1 3.3-0.5 1.2-0.7 2.5-0.7 3.8v2.4c0 1.3 0.3 2.6 0.8 3.7 0.5 1.2 1.3 2.3 2.2 3.2 0.9 1 2 1.7 3.2 2.2 1.3 0.4 2.5 0.7 3.8 0.7l4-0.1c1.3 0 2.6-0.3 3.8-0.8 1.2-0.5 2.3-1.2 3.2-2.1 0.9-1 1.6-2.1 2.1-3.3 0.5-1.2 0.7-2.5 0.7-3.8z"/>
	<path id="Layer" fill-rule="evenodd" class="s0" d="m597.3 188.8v11.5q0 1.6-1.6 1.6l-5.5 0.1q-0.3 0-0.5-0.1-0.2-0.1-0.3-0.3-0.1-0.1-0.2-0.3-0.1-0.2-0.1-0.4l-0.2-31.2q0-0.3 0.2-0.6 0.1-0.3 0.3-0.5 0.2-0.2 0.5-0.3 0.3-0.1 0.6-0.2 9.9-0.1 20.4 0 5 0.1 10 2.9 4.1 2.2 4.3 6.3 0.2 3.7-2.5 6.3-2.7 2.7-7 2.8-0.1 0-0.2 0-0.1 0.1-0.2 0.2 0 0.1 0 0.2 0 0.2 0 0.3 1.2 1.8 3.4 3.4 1.4 1.1 4.1 4.3 0.6 0.6 2.5 2.4 1.5 1.3 2.1 2.9 0.8 2-1.4 1.9l-7.1-0.3q-0.6 0-1-0.4l-12.5-12.8q-0.4-0.5-1-0.5l-6.4 0.1q-0.7 0-0.7 0.7zm0.5-13.4q-0.9 3-0.4 6.1 0.1 0.6 0.6 0.6l15.6-0.1q0.1 0 0.2 0 0.2 0 0.3-0.1 0.1-0.1 0.2-0.1 0.1-0.1 0.2-0.2 1.1-1.6 0.9-3.5-0.1-1.8-1.7-2.8c-2.8-1.9-10.2-1.1-13.8-1.3q-0.3 0-0.7 0-0.3 0.1-0.6 0.3-0.3 0.2-0.5 0.5-0.2 0.3-0.3 0.6z"/>
	<path id="Layer" fill-rule="evenodd" class="s0" d="m657.6 195l-2.6 5.9q-0.2 0.6-0.9 0.7l-7.9 0.3q-0.2 0-0.5-0.1-0.2-0.2-0.4-0.4-0.1-0.2-0.1-0.5 0-0.2 0.1-0.5l16.3-31.1q0-0.1 0.1-0.2 0.1-0.1 0.1-0.1 0.1-0.1 0.2-0.1 0.1-0.1 0.2-0.1 1.9-0.5 5.3-0.6c3.2 0 4.1 0.1 5.8 3.1q8.2 14.6 15.9 29.8 0.1 0.2 0 0.4 0 0.2-0.1 0.4-0.1 0.2-0.3 0.3-0.2 0-0.4 0l-8.2-0.5q-0.5 0-0.7-0.5c-1.3-2.7-2.5-7.3-6.1-7.1-5.1 0.2-10-0.3-15.2 0.4q-0.5 0.1-0.6 0.5zm4.5-8.5q-0.2 0.3-0.1 0.6 0 0.3 0.1 0.5 0.2 0.3 0.5 0.5 0.2 0.1 0.5 0.1h7.5q0.4 0 0.6-0.2 0.3-0.1 0.5-0.4 0.1-0.3 0.1-0.6 0.1-0.3-0.1-0.6l-3.8-7.6q-0.1-0.3-0.4-0.5-0.3-0.1-0.7-0.1-0.3 0-0.6 0.1-0.3 0.2-0.4 0.5z"/>
	<path id="Layer" class="s0" d="m153.7 211.3c-26.6-0.2-53.3 0.8-79.9 0.2q-30.5-0.7-61-0.2c-1.2 0-2.6-0.3-3.9-0.3q-0.2 0-0.3 0-0.2-0.1-0.3-0.2-0.1-0.1-0.2-0.2 0-0.1 0-0.3l-0.6-5.1q0-0.2 0-0.3 0-0.1 0.1-0.3 0.1-0.1 0.2-0.2 0.2 0 0.3-0.1 1.5-0.3 4.4-0.3 316.8 0 633.5 0.1c11.9 0 29.3-0.3 43.9 0q0.1 0 0.3 0 0.1 0.1 0.2 0.1 0.1 0.1 0.2 0.2 0.1 0.1 0.2 0.2 1.5 2.8 1 5.9-0.1 0.6-0.8 0.6-35.7-0.2-71.3 0c-7.1 0.1-19.3-0.4-28.9-0.2-19.4 0.5-38.8 0-58.2 0.3-10.9 0.1-26.2-0.8-39.3 0q-6.5 0.4-26-0.6-5.1-0.3-16.3 0.3c-8.6 0.5-17.5-0.6-26.3-0.4q-13.4 0.5-14.9 0.5-30.3 0-60.5-0.1-31.7-0.1-63.3 0.3c-12.4 0.1-26.9-0.3-40.4-0.2q-3.6 0.1-17.2-0.2c-7.6-0.1-15.8 0.6-22.9 0.5-21.1-0.4-35.5 0-51.8-0.1z"/>
	<path id="Layer" class="s0" d="m18.8 238.4l-0.2 11q0 0.8-0.8 0.8l-5.6-0.3q-0.1 0-0.3 0-0.1-0.1-0.2-0.2-0.1-0.1-0.1-0.2-0.1-0.1-0.1-0.3l0.1-28.6q0-0.5 0.2-0.9 0.2-0.5 0.5-0.8 0.4-0.4 0.9-0.6 0.4-0.2 0.9-0.2l17.7 0.1q0.8 0 0.8 0.8v5.8q0 0.7-0.7 0.7h-12.4q-0.2 0-0.3 0-0.2 0.1-0.3 0.2-0.1 0.1-0.1 0.3-0.1 0.1-0.1 0.3l0.1 4.7q0 0.6 0.6 0.4 5.3-1 10.7-0.2 0.6 0.1 0.6 0.7v5.4q0 0.7-0.7 0.7l-10.7-0.1q-0.5 0-0.5 0.5z"/>
	<path id="Layer" class="s0" d="m142.3 225.9l-6.8-0.1q-0.8 0-0.8-0.8l0.2-6.1q0-0.6 0.5-0.6 10.1-0.3 20.1-0.1 0.7 0 2.2 0.5 0.5 0.2 0.7 0.7 0.8 2.8 0 5.7-0.1 0.1-0.2 0.3 0 0.1-0.2 0.2-0.1 0.1-0.2 0.1-0.1 0.1-0.3 0.1l-6.1 0.1q-0.6 0-0.7 0.6-0.9 11.4-0.3 22.8 0.1 0.7-0.6 0.7l-6.3 0.2q-0.5 0-0.5-0.5l-0.1-23.2q0-0.1 0-0.2-0.1-0.1-0.2-0.2-0.1-0.1-0.2-0.2-0.1 0-0.2 0z"/>
	<path id="Layer" fill-rule="evenodd" class="s0" d="m69.3 237.5q4.5 5.2 7.5 11.4 0.1 0.3 0.1 0.5-0.1 0.2-0.2 0.4-0.1 0.2-0.3 0.3-0.2 0.1-0.4 0.1h-6.1q-0.5-0.1-0.8-0.5-3.1-5.1-6.3-10-1.8-2.8-5.7-1.4-0.3 0.1-0.3 0.5l-0.1 10.7q0 0.1 0 0.3-0.1 0.1-0.2 0.2-0.1 0.1-0.2 0.1-0.1 0.1-0.3 0.1h-4.8q-0.5 0-0.5-0.5v-30.7q0-0.1 0-0.2 0.1-0.1 0.2-0.2 0-0.1 0.2-0.1 0.1-0.1 0.2-0.1 7.7-0.6 14.1 0.1c11.4 1.3 12.4 12.5 4 18.3q-0.4 0.3-0.1 0.7zm-12.6-10.6l0.1 3.8q0 0.3 0.2 0.6 0.1 0.3 0.3 0.5 0.2 0.2 0.5 0.3 0.3 0.1 0.6 0.1l4.5-0.1q1 0 2-0.3 0.9-0.3 1.7-0.8 0.7-0.5 1.1-1.1 0.4-0.6 0.3-1.2v-0.3q0-0.7-0.4-1.2-0.4-0.6-1.2-1.1-0.7-0.4-1.7-0.7-1-0.2-2-0.2l-4.5 0.1q-0.3 0.1-0.6 0.2-0.2 0.1-0.4 0.3-0.3 0.2-0.4 0.5-0.1 0.3-0.1 0.6z"/>
	<path id="Layer" class="s0" d="m105.7 244.3c5 0.1 5.1-4 5.1-7.7q0.1-8.8 0.1-17.8 0-0.6 0.6-0.6l4.7 0.1q0.1 0 0.2 0 0.2 0.1 0.3 0.2 0.1 0.1 0.1 0.2 0 0.1 0.1 0.3l-0.2 25.1q0 0.1 0 0.2 0 0.1 0 0.2 0 0.1-0.1 0.2 0 0.1-0.1 0.2-1.4 2.3-3.4 3.8c-2.6 2.1-9.5 1.8-11.6 1.6-8.3-1.1-8.2-10.8-8.4-16.9q-0.3-7.2 0-14.4 0.1-0.7 0.8-0.7h5.9q0.8 0 0.8 0.8l0.1 22.3q0 0.2 0.1 0.3 0 0.1 0 0.2 0.1 0.1 0.2 0.2 0 0.1 0.1 0.2 1.9 1.9 4.6 2z"/>
	<path id="Layer" class="s0" d="m221.7 226.4q-0.3 0.3-0.4 0.7 0 0.4 0.1 0.8 0.1 0.4 0.4 0.7 0.3 0.3 0.7 0.4 4.8 1.4 8.9 2.6c10 2.9 8 18.1-1.6 18.6-7.6 0.3-14.9 0.1-15.7-9.5q-0.1-0.5 0.3-0.9 1.4-1.9 3.8-1.3c1.8 0.5 2.5 1.7 3.3 3.2 1.8 3.3 6.1 3.1 8.9 1.4q0.1 0 0.2-0.1 0-0.1 0.1-0.1 0-0.1 0-0.2 0.1-0.1 0.1-0.1v-2.9q0-0.1-0.1-0.2 0-0.2-0.1-0.3-0.1-0.1-0.2-0.2-0.1-0.1-0.3-0.1c-8.7-2.7-19.2-4.5-13.7-16.8q0.8-1.8 4-2.9c6.9-2.6 19.2-0.1 16 9.8q-0.2 0.5-0.7 0.5c-4.7-0.1-5.3-3-8.5-4.3q-3.3-1.2-5.5 1.2z"/>
	<path id="Layer" class="s0" d="m299.6 247.4q0.2 0.2 0.4 0.3 0 0 0 0.1 0 0 0 0 0 0.1-0.1 0.1 0 0 0 0h-0.3q-0.1 0-0.1-0.2 0.2-8.1 0.3-16.3c0-2.7-0.4-7.2-0.1-10.8q0.1-0.5 0.3-1 0.2-0.4 0.5-0.7 0.4-0.4 0.9-0.5 0.4-0.2 0.9-0.2l19.7 0.1q0.1 0 0.2 0.1 0.2 0 0.3 0.1 0.1 0.1 0.1 0.2 0.1 0.2 0.1 0.3 0.3 2 0.1 4.5-0.2 2-2 2-6.5-0.1-13-0.4-0.7 0-0.7 0.7l-0.1 4q0 0.5 0.5 0.5l12.1-0.1q0.2 0 0.5 0.1 0.2 0.1 0.4 0.3 0.2 0.2 0.3 0.4 0.1 0.3 0.1 0.6l0.1 4.2q0 0.7-0.7 0.7h-12.5q-0.6 0-0.7 0.7l-0.2 6.1q0 0.7 0.7 0.7h14.5q0.8 0 0.8 0.8v4.6q0 0.2-0.1 0.3 0 0.1-0.1 0.2-0.1 0.1-0.2 0.1-0.1 0.1-0.3 0.1-10.4 0.1-20.9 0c-0.8 0-1.4-0.6-1.8-1.3q-0.2-0.5 0.2-0.2l0.3 0.1q0.2 0.1 0.2-0.1 0.3-1-0.5-1.4 0 0 0 0-0.1 0.1-0.1 0.1 0 0 0 0.1 0 0 0 0z"/>
	<path id="Layer" class="s0" d="m421.8 244.1l14.4-0.1q0.1 0 0.3 0.1 0.1 0.1 0.3 0.2 0.1 0.1 0.1 0.2 0.1 0.2 0.1 0.4v4.3q0 0.2 0 0.3-0.1 0.2-0.2 0.3-0.1 0.1-0.3 0.2-0.1 0-0.3 0l-20.3 0.1q-0.2 0-0.3-0.1-0.2 0-0.3-0.1-0.1-0.2-0.2-0.3 0-0.2 0-0.3l-0.2-30.2q0-0.2 0.1-0.3 0-0.2 0.2-0.3 0.1-0.1 0.2-0.2 0.2 0 0.4 0h20.3q0.2 0 0.3 0 0.2 0.1 0.3 0.2 0.1 0.1 0.2 0.3 0 0.1 0 0.3v5.6q0 0.2 0 0.3-0.1 0.2-0.2 0.3-0.1 0.1-0.3 0.2-0.1 0-0.3 0l-14.2-0.2q-0.1 0-0.3 0-0.1 0.1-0.2 0.2-0.2 0.1-0.2 0.3-0.1 0.1-0.1 0.3l-0.1 3.3q0 0.2 0.1 0.4 0 0.1 0.2 0.2 0.1 0.2 0.2 0.2 0.2 0.1 0.4 0.1h12.5q0.2 0 0.3 0.1 0.2 0 0.3 0.1 0.1 0.2 0.2 0.3 0 0.2 0 0.4l-0.1 4.5q0 0.2-0.1 0.3-0.1 0.1-0.2 0.3-0.1 0.1-0.3 0.1-0.1 0.1-0.3 0.1l-12.2-0.2q-0.2 0-0.3 0.1-0.2 0-0.3 0.1-0.1 0.1-0.2 0.3 0 0.1-0.1 0.3l-0.1 6.1q0 0.2 0.1 0.3 0 0.2 0.1 0.3 0.2 0.1 0.3 0.2 0.2 0 0.3 0.1z"/>
	<path id="Layer" fill-rule="evenodd" class="s0" d="m482 248.9q0.1 0.1 0.3 0.2 0.2 0.1 0 0.1-3.7 1.6-7.6 0.6-0.5-0.1-0.8-0.6-2.7-4.8-5.9-9.3-1.7-2.5-4.8-1.9-0.4 0.1-0.4 0.5v10.7q0 0.9-0.9 0.9h-6q-0.1 0-0.2-0.1-0.2 0-0.3-0.1 0-0.1-0.1-0.2 0-0.2-0.1-0.3v-29.8q0-0.2 0.1-0.5 0.1-0.2 0.3-0.4 0.2-0.2 0.4-0.3 0.3-0.1 0.6-0.1c5.8-0.1 20.9-1.5 22.6 6 1.1 5.2 0.2 9.9-5 12.4q-0.5 0.3-0.1 0.7 4.5 5 7.5 11 0.1 0.4 0.4 0.5zm-19.1-22.6v4.9q0 0.2 0.1 0.3 0.1 0.2 0.2 0.3 0.1 0.1 0.3 0.2 0.1 0.1 0.3 0.1l5.6-0.1q0.7 0 1.4-0.1 0.6-0.2 1.2-0.5 0.5-0.3 0.7-0.6 0.3-0.4 0.3-0.8v-2.7q0-0.4-0.3-0.7-0.3-0.4-0.8-0.7-0.5-0.2-1.2-0.4-0.6-0.1-1.4-0.1h-5.5q-0.2 0-0.4 0.1-0.1 0-0.2 0.2-0.2 0.1-0.2 0.3-0.1 0.1-0.1 0.3z"/>
	<path id="Layer" fill-rule="evenodd" class="s0" d="m515.4 249.2q-0.7 0.8-2.4 0.8-6.6 0.1-12.8 0.1-0.2 0-0.4-0.1-0.2-0.1-0.3-0.2-0.2-0.2-0.3-0.4 0-0.1-0.1-0.4v-29.5q0-0.2 0.1-0.5 0.1-0.2 0.2-0.3 0.2-0.2 0.4-0.3 0.2-0.1 0.4-0.1c8.4-0.5 20.9-0.8 22.6 10.1q0.9 5.6-0.1 12.8 0 0.1 0 0.2-0.1 0.1-0.1 0.2-0.1 0.1-0.1 0.2-0.1 0.1-0.1 0.2-0.8 1-1.3 2.2-0.6 1.6-1.2 2.2-1.6 1.6-3.7 2.3-0.5 0.2-0.8 0.5zm-10.4-22.9v17q0 0.1 0.1 0.3 0.1 0.2 0.2 0.3 0.1 0.1 0.3 0.2 0.2 0.1 0.3 0.1l4.7-0.1q1.3 0 2.5-0.5 1.2-0.6 2.1-1.6 0.9-1 1.4-2.4 0.5-1.3 0.5-2.8l-0.1-4.1q0-1.5-0.5-2.8-0.5-1.4-1.4-2.4-0.9-1-2.1-1.6-1.2-0.5-2.5-0.5h-4.6q-0.2 0-0.4 0.1-0.1 0-0.3 0.2-0.1 0.1-0.2 0.3 0 0.1 0 0.3z"/>
	<path id="Layer" class="s0" d="m557.5 243.4c0.5-0.7 0.9-1 1.3-1.5q0.3-0.4 0.3-0.9v-21.2q0-1.6 1.6-1.6l3.7 0.2q0.8 0 0.7 0.7l-0.1 25.7q0 0.7-0.7 0.8-1.3 0.3-1.3 1.7-0.1 0.1-0.1 0.2-0.1 0.2-0.2 0.3-0.1 0.1-0.2 0.1-0.1 0.1-0.3 0.1-1.3 0.1-1.7 1.5 0 0.1 0 0.2-0.1 0.1-0.2 0.2-0.1 0.1-0.2 0.1-0.1 0-0.2 0h-11.8q-0.1 0-0.3 0-0.1-0.1-0.2-0.1-0.1-0.1-0.2-0.1 0-0.1-0.1-0.2-0.9-1.2-2.3-1.6-0.1-0.1-0.2-0.1-0.1-0.1-0.2-0.1-0.1-0.1-0.2-0.2 0-0.1-0.1-0.2c-4.2-7.2-3-18.1-2.8-26.2 0.2-3.6 3.5-3.3 6.3-2.3q0.4 0.1 0.6 0.5 0.7 1.2 0.6 2.6-0.3 10.4 0.2 20.7 0 0.5 0.5 0.6 3.9 1.4 6.8 0.9 0.6-0.1 1-0.8z"/>
	<path id="Layer" fill-rule="evenodd" class="s0" d="m591.1 238.3v10.1q0 1.6-1.6 1.6l-3.7 0.1q-0.1 0-0.2-0.1-0.1 0-0.2-0.1-0.1-0.1-0.2-0.2 0-0.1 0-0.3l-0.1-30.3q0-0.5 0.5-0.6 10-1.1 18.4 1c4.7 1.1 5.9 6.8 5 10.8-0.7 3-3.1 4.7-5.6 6.4q-0.4 0.3-0.1 0.7 4.7 5.2 7.9 11.4 0.1 0.2 0.1 0.4 0 0.2-0.1 0.4-0.1 0.2-0.3 0.3-0.2 0.1-0.4 0.1h-5.8q-0.7 0-1-0.5l-6.5-10.8q-0.3-0.5-0.9-0.5l-4.6-0.5q-0.1 0-0.2 0-0.2 0.1-0.3 0.2 0 0.1-0.1 0.2 0 0.1 0 0.2zm-0.1-11.8l0.1 4.4q0 0.3 0.1 0.5 0.1 0.2 0.3 0.4 0.1 0.2 0.4 0.3 0.2 0.1 0.4 0h5.4q1 0 1.9-0.3 0.9-0.2 1.6-0.7 0.8-0.5 1.1-1.1 0.4-0.6 0.4-1.3v-0.3q0-0.6-0.4-1.2-0.4-0.6-1.1-1.1-0.7-0.4-1.7-0.7-0.9-0.2-1.9-0.2h-5.3q-0.3 0.1-0.5 0.2-0.2 0-0.4 0.2-0.2 0.2-0.3 0.4-0.1 0.2-0.1 0.5z"/>
	<path id="Layer" class="s0" d="m677.3 227.5q1.2 1.6 2.8 2c8.1 1.7 14.9 4.2 13.2 13.6-1.1 6.2-6.8 7.5-12.8 7.1q-4.3-0.3-6.4-1.9c-1.7-1.3-5.6-6.4-3.9-8.9q0.6-0.7 1.9-0.8c4.4-0.4 4.5 4.4 8 5.4 2.1 0.7 6.8 0 7-3 0.3-5-19.4-1.6-15.7-16.8 1.3-5.3 7.4-6.5 12.1-5.9q9.3 1.3 9.6 10.4 0 0.6-0.5 0.6-4.3 0.3-7.2-2.1-2.1-1.8-3.2-2-2.7-0.6-4.8 1.4-0.5 0.4-0.1 0.9z"/>
	<path id="Layer" fill-rule="evenodd" class="s0" d="m179.1 243.9q-2.2 2.4-2.5 5.7-0.1 0.6-0.7 0.6l-5.8-0.1q-1.1 0-0.7-1l10.8-29.2q0.1-0.1 0.1-0.2 0.1-0.1 0.1-0.1 0.1-0.1 0.2-0.2 0 0 0.1-0.1 3.3-1.7 6.5 0 0.1 0 0.2 0.1 0.1 0.1 0.2 0.2 0.1 0.1 0.2 0.2 0 0.1 0.1 0.2l10.9 28.8q0.1 0.3 0.1 0.5 0 0.3-0.2 0.5-0.1 0.2-0.4 0.3-0.2 0.1-0.5 0.1l-5.6-0.4q-0.1 0-0.2 0-0.1 0-0.2-0.1-0.1-0.1-0.2-0.2 0 0-0.1-0.1l-1.3-4.7q-0.1-0.1-0.2-0.3-0.1-0.1-0.2-0.2-0.1-0.1-0.2-0.1-0.2-0.1-0.3-0.1l-9.1-0.5q-0.6-0.1-1.1 0.4zm7.6-8.2l-2.5-6.5q-0.3-0.8-0.6 0l-2.4 6.4q0 0.2 0 0.3 0 0.1 0.1 0.2 0 0.1 0.1 0.2 0.1 0.1 0.3 0.1l4 0.5q0.2 0.1 0.5 0 0.2-0.1 0.4-0.3 0.1-0.2 0.2-0.4 0-0.3-0.1-0.5z"/>
	<path id="Layer" fill-rule="evenodd" class="s0" d="m647.7 249.2c-1.1-4.3-3.9-6.6-8.3-5.9-2.9 0.4-5.1-1-6.3 2.9q-0.4 1.4-0.7 2.9-0.2 0.6-0.8 0.7l-5.2 0.3q-0.3 0-0.5-0.1-0.3-0.1-0.4-0.3-0.2-0.3-0.2-0.5-0.1-0.3 0-0.5 4.8-12.6 9-24.6c1.6-4.7 4.1-7.4 9-4.3q0.1 0 0.1 0.1 0.1 0 0.1 0.1 0 0 0.1 0.1 0 0 0 0.1l10.8 28.8q0.4 1-0.7 1l-5.2-0.2q-0.1 0-0.2 0-0.2-0.1-0.3-0.2-0.1 0-0.2-0.2 0-0.1-0.1-0.2zm-6.8-18.8q-0.1-0.4-0.3-0.6-0.3-0.2-0.7-0.3-0.3 0-0.6 0.1-0.3 0.2-0.5 0.5l-1.3 2.5q0 0.1 0 0.1 0 0.1 0 0.1 0 0.1-0.1 0.1 0 0.1 0 0.1l-0.2 2.9q0 0.2 0.1 0.4 0 0.2 0.2 0.4 0.1 0.1 0.3 0.2 0.2 0.1 0.4 0.2l2.6 0.2q0.3 0 0.5-0.1 0.3-0.1 0.4-0.3 0.2-0.2 0.3-0.5 0.1-0.2 0-0.5z"/>
	<path id="Layer" class="s0" d="m384.8 238.8q0.2-0.2 0.3-0.6 3.6-8.8 5.8-18 0-0.3 0.2-0.6 0.2-0.3 0.5-0.5 0.2-0.2 0.5-0.3 0.3-0.1 0.7-0.1l5 0.2q0.2 0 0.3 0.1 0.1 0 0.2 0.2 0.1 0.1 0.1 0.2 0.1 0.2 0 0.3l-10.2 29.8q-0.1 0.5-0.6 0.5l-5.2 0.2q-0.3 0-0.5-0.1-0.3-0.1-0.6-0.2-0.2-0.2-0.4-0.4-0.1-0.2-0.2-0.5l-9.6-28.8q-0.1-0.2 0-0.4 0-0.3 0.1-0.4 0.2-0.2 0.4-0.3 0.1-0.1 0.4-0.2l5.5-0.2q0.2 0 0.3 0 0.2 0.1 0.3 0.1 0.1 0.1 0.2 0.3 0.1 0.1 0.1 0.2l5.5 19.2q0 0.1 0.1 0.3 0.1 0.1 0.3 0.1 0.1 0 0.3 0 0.1 0 0.2-0.1z"/>
	<path id="Layer" class="s0" d="m8.2 260.8c0-1.4 1.1-2.6 2.6-2.6h678.1c1.4 0 2.6 1.2 2.6 2.6v2.6c0 1.5-1.2 2.6-2.6 2.6h-678.1c-1.5 0-2.6-1.1-2.6-2.6z"/>
</svg>