<svg width="105" height="119" viewBox="0 0 105 119" fill="none" xmlns="http://www.w3.org/2000/svg">
<path d="M63.2277 31.5882H80.5019C81.3636 31.5882 82.2169 31.4185 83.013 31.0888C83.8091 30.759 84.5325 30.2757 85.1419 29.6663C85.7512 29.057 86.2346 28.3335 86.5644 27.5374C86.8941 26.7413 87.0638 25.888 87.0638 25.0263V25.0263V13.21H80.5019V23.4602C80.5019 23.8756 80.3368 24.2739 80.0431 24.5676C79.7494 24.8613 79.3511 25.0263 78.9357 25.0263H26.3459C25.9305 25.0263 25.5322 24.8613 25.2385 24.5676C24.9448 24.2739 24.7798 23.8756 24.7798 23.4602V13.21H18.2178V25.0263C18.2178 25.888 18.3875 26.7413 18.7173 27.5374C19.047 28.3335 19.5304 29.057 20.1397 29.6663C20.7491 30.2757 21.4725 30.759 22.2686 31.0888C23.0647 31.4185 23.918 31.5882 24.7798 31.5882H42.0539" stroke="white" stroke-width="2.87164" stroke-miterlimit="10" stroke-linecap="round"/>
<path d="M2.36719 13.21H40.0712" stroke="white" stroke-width="2.87164" stroke-miterlimit="10" stroke-linecap="round"/>
<path d="M64.9277 13.21H102.632" stroke="white" stroke-width="2.87164" stroke-miterlimit="10" stroke-linecap="round"/>
<path d="M18.2178 8.41093V5.63893C18.2168 5.20741 18.3009 4.77992 18.4653 4.38095C18.6297 3.98198 18.8712 3.61936 19.176 3.31386C19.4808 3.00836 19.8428 2.76601 20.2414 2.60063C20.64 2.43526 21.0673 2.3501 21.4988 2.3501V2.3501C22.3697 2.35217 23.2042 2.6996 23.8193 3.31615C24.4343 3.9327 24.7798 4.76804 24.7798 5.63893V8.41093" stroke="white" stroke-width="2.87164" stroke-miterlimit="10" stroke-linecap="round"/>
<path d="M80.501 8.41093V5.63893C80.5 5.20741 80.584 4.77992 80.7485 4.38095C80.9129 3.98198 81.1544 3.61936 81.4592 3.31386C81.764 3.00836 82.126 2.76601 82.5246 2.60063C82.9232 2.43526 83.3505 2.3501 83.782 2.3501V2.3501C84.6529 2.35217 85.4874 2.6996 86.1025 3.31615C86.7175 3.9327 87.063 4.76804 87.063 5.63893V8.41093" stroke="white" stroke-width="2.87164" stroke-miterlimit="10" stroke-linecap="round"/>
<path d="M95.0096 68.8627V50.2495C95.0075 48.2813 94.2248 46.3944 92.8331 45.0027C91.4414 43.611 89.5544 42.8282 87.5863 42.8262H17.6909C15.7228 42.8282 13.8358 43.611 12.4441 45.0027C11.0524 46.3944 10.2697 48.2813 10.2676 50.2495V68.8627" stroke="white" stroke-width="2.87164" stroke-miterlimit="10" stroke-linecap="round"/>
<path d="M48.4512 42.8258V31.5889" stroke="white" stroke-width="2.87164" stroke-miterlimit="10" stroke-linecap="round"/>
<path d="M56.8203 42.8258V31.5889" stroke="white" stroke-width="2.87164" stroke-miterlimit="10" stroke-linecap="round"/>
<path d="M25.3897 113.737C25.3897 115.927 27.0928 117.63 29.2824 117.63H48.7458V90.3813H25.3897V113.737ZM79.8872 70.9179H74.6565C76.1162 68.2417 76.4812 64.8356 74.6565 61.0646C72.9534 57.4152 69.1824 55.3472 65.1681 55.3472C60.0589 55.4689 56.7745 58.0234 52.6385 63.7408C48.3809 58.0234 45.0964 55.4689 39.9873 55.3472C35.973 55.3472 32.2019 57.4152 30.4989 61.0646C28.6742 64.8356 29.0391 68.2417 30.4989 70.9179H25.3897C23.2001 70.9179 21.4971 72.7426 21.4971 74.8106V82.596C21.4971 84.7856 23.2001 86.4887 25.2681 86.4887H79.7656C81.8336 86.4887 83.6583 84.7856 83.6583 82.596V74.8106C83.7799 72.7426 81.9552 70.9179 79.8872 70.9179ZM40.1089 70.9179C37.4327 70.9179 35.2431 68.85 35.2431 66.0521C35.2431 63.3759 37.4327 61.1862 40.1089 61.1862C42.5419 61.1862 44.3666 61.6728 50.6922 70.9179H40.1089ZM65.0464 70.9179H54.5848C60.7888 61.6728 62.6135 61.1862 65.0464 61.1862C67.7226 61.1862 69.9123 63.3759 69.9123 66.0521C69.9123 68.85 67.7226 70.9179 65.0464 70.9179ZM56.5312 117.63H75.9946C78.0626 117.63 79.8872 115.927 79.8872 113.737V90.3813H56.5312V117.63Z" fill="#5D5FEF"/>
</svg>
