<svg width="105" height="104" viewBox="0 0 105 104" fill="none" xmlns="http://www.w3.org/2000/svg">
<path d="M53.0134 69.8353C48.4634 69.8353 43.9134 68.1053 40.4434 64.6353C37.0834 61.2753 35.2334 56.8154 35.2334 52.0654C35.2334 47.3154 37.0834 42.8554 40.4434 39.4954C47.3734 32.5654 58.6434 32.5654 65.5734 39.4954C72.5034 46.4254 72.5034 57.6954 65.5734 64.6254C62.1234 68.1054 57.5634 69.8353 53.0134 69.8353ZM53.0134 37.2953C49.0634 37.2953 45.3534 38.8354 42.5634 41.6254C39.7734 44.4154 38.2334 48.1253 38.2334 52.0753C38.2334 56.0253 39.7734 59.7353 42.5634 62.5253C45.3534 65.3153 49.0634 66.8553 53.0134 66.8553C56.9634 66.8553 60.6734 65.3153 63.4634 62.5253C66.2534 59.7353 67.7934 56.0253 67.7934 52.0753C67.7934 48.1253 66.2534 44.4154 63.4634 41.6254C60.6734 38.8354 56.9634 37.2953 53.0134 37.2953Z" fill="white"/>
<path d="M54.7234 91.9254C54.5934 91.9254 54.4634 91.9055 54.3334 91.8755L31.0434 85.6354C30.2534 85.4254 29.7734 84.6155 29.9734 83.8155C30.6434 81.1455 29.8934 78.3854 27.9534 76.4554C26.0134 74.5154 23.2634 73.7654 20.5934 74.4354C19.7934 74.6354 18.9934 74.1654 18.7734 73.3654L12.5634 50.2054C12.3534 49.4154 12.8134 48.5954 13.6134 48.3754C14.8934 48.0154 16.0634 47.3354 17.0034 46.3954C18.4634 44.9354 19.2734 42.9954 19.2734 40.9254C19.2734 38.8554 18.4734 36.9154 17.0034 35.4554C16.9834 35.4354 16.9034 35.3754 16.8934 35.3554C16.6034 35.0754 16.4334 34.6954 16.4334 34.2854C16.4334 33.8854 16.5834 33.4954 16.8734 33.2054L34.0434 16.0554C34.3334 15.7654 34.6934 15.6154 35.1234 15.6154C35.5234 15.6154 35.9134 15.7854 36.1934 16.0754C36.2134 16.0954 36.2834 16.1755 36.3034 16.1955C37.7634 17.6555 39.7034 18.4554 41.7634 18.4554C43.8334 18.4554 45.7734 17.6554 47.2334 16.1854C48.2234 15.1954 48.9234 13.9455 49.2634 12.5655C49.3634 12.1755 49.6134 11.8354 49.9534 11.6354C50.3034 11.4254 50.7134 11.3754 51.1034 11.4754L74.4234 17.7254C74.8334 17.8354 75.1734 18.1154 75.3734 18.4854C75.5634 18.8654 75.5934 19.3055 75.4434 19.6955C74.3834 22.5355 75.0734 25.7454 77.2134 27.8754C79.2634 29.9254 82.2534 30.6454 85.0234 29.7754C85.4134 29.6554 85.8334 29.6954 86.1934 29.8854C86.5534 30.0854 86.8134 30.4155 86.9234 30.8155L92.9634 53.3754C93.0734 53.7754 93.0034 54.1954 92.7934 54.5454C92.5834 54.8954 92.2334 55.1454 91.8334 55.2354C90.3834 55.5554 89.0634 56.2754 88.0234 57.3154C85.0134 60.3354 85.0134 65.2355 88.0234 68.2555L88.1634 68.3854C88.4634 68.6654 88.6334 69.0454 88.6434 69.4554C88.6534 69.8654 88.4934 70.2554 88.2034 70.5454L71.4534 87.2954C71.1734 87.5854 70.7834 87.7154 70.3734 87.7354C69.9734 87.7354 69.5834 87.5654 69.3034 87.2754L69.1834 87.1354C67.7034 85.6554 65.7634 84.8454 63.6934 84.8454C61.6234 84.8454 59.6834 85.6454 58.2234 87.1154C57.2234 88.1154 56.5134 89.3854 56.1834 90.7854C56.0934 91.1754 55.8434 91.5154 55.4934 91.7254C55.2534 91.8554 54.9834 91.9254 54.7234 91.9254ZM33.1534 83.0954L53.7234 88.6054C54.2634 87.2554 55.0634 86.0154 56.1034 84.9854C58.1334 82.9554 60.8234 81.8454 63.6934 81.8454C66.1334 81.8454 68.4534 82.6554 70.3434 84.1554L85.0634 69.4354C81.7334 65.2254 82.0134 59.0855 85.9034 55.1955C86.9834 54.1155 88.2734 53.2855 89.6934 52.7555L84.4034 33.0154C81.0134 33.5754 77.5634 32.4854 75.0934 30.0154C72.5234 27.4454 71.4534 23.7454 72.1834 20.2354L51.7134 14.7555C51.1734 16.0855 50.3734 17.3055 49.3634 18.3155C47.3334 20.3455 44.6434 21.4554 41.7734 21.4554C39.3534 21.4554 37.0434 20.6554 35.1734 19.1854L20.0234 34.3354C21.4934 36.2154 22.2934 38.5154 22.2934 40.9354C22.2934 43.8054 21.1734 46.4954 19.1534 48.5254C18.2034 49.4754 17.0834 50.2354 15.8534 50.7754L21.3434 71.2654C24.5534 70.9254 27.8034 72.0354 30.1034 74.3354C32.4134 76.6754 33.5134 79.8654 33.1534 83.0954Z" fill="white"/>
<path d="M11.5435 51.6652C8.73346 51.6652 5.98343 50.5651 3.95343 48.5251C1.92343 46.4951 0.813477 43.8052 0.813477 40.9352C0.813477 38.0652 1.93343 35.3751 3.95343 33.3451C8.05343 29.2451 14.7834 29.1752 18.9634 33.1952C19.0334 33.2552 19.0835 33.3051 19.1335 33.3451C21.1635 35.3751 22.2734 38.0652 22.2734 40.9352C22.2734 43.8052 21.1535 46.4951 19.1335 48.5251C17.8335 49.8251 16.2035 50.7751 14.4235 51.2651C13.4735 51.5351 12.5035 51.6652 11.5435 51.6652ZM11.5334 33.2252C9.55345 33.2252 7.56349 33.9752 6.07349 35.4752C4.61349 36.9352 3.80347 38.8752 3.80347 40.9452C3.80347 43.0152 4.60349 44.9552 6.07349 46.4152C8.04349 48.3852 10.9335 49.1351 13.6235 48.3951C14.9035 48.0351 16.0734 47.3552 17.0134 46.4152C18.4734 44.9552 19.2834 43.0152 19.2834 40.9452C19.2834 38.8752 18.4834 36.9352 17.0134 35.4752C16.9934 35.4552 16.9134 35.3952 16.9034 35.3752C15.4034 33.9352 13.4634 33.2252 11.5334 33.2252Z" fill="white"/>
<path d="M11.4136 46.0748C10.0336 46.0748 8.68359 45.5348 7.68359 44.5348C6.68359 43.5448 6.14355 42.2148 6.14355 40.8148C6.14355 39.4048 6.69359 38.0848 7.68359 37.0948C9.68359 35.0848 12.9836 35.0548 15.0336 37.0048C15.0636 37.0248 15.1036 37.0648 15.1136 37.0848C16.1236 38.0948 16.6736 39.4148 16.6736 40.8248C16.6736 42.2348 16.1236 43.5548 15.1336 44.5448C14.4936 45.1848 13.6936 45.6448 12.8236 45.8948C12.3536 46.0048 11.8836 46.0748 11.4136 46.0748ZM11.4036 38.5448C10.8236 38.5448 10.2436 38.7648 9.80359 39.2048C9.37359 39.6348 9.14355 40.2048 9.14355 40.8048C9.14355 41.4048 9.38359 41.9748 9.80359 42.4048C10.3836 42.9748 11.2235 43.2048 12.0135 42.9848C12.3935 42.8748 12.7236 42.6848 13.0036 42.4048C13.4336 41.9748 13.6636 41.4048 13.6636 40.8048C13.6636 40.1948 13.4236 39.6348 13.0036 39.2048C13.0036 39.2048 12.9736 39.1748 12.9636 39.1748C12.5436 38.7548 11.9736 38.5448 11.4036 38.5448Z" fill="white"/>
<path d="M22.4931 87.1853C21.1131 87.1853 19.7631 86.6452 18.7631 85.6452C16.7131 83.5952 16.7131 80.2553 18.7631 78.1953C20.7731 76.1853 24.0631 76.1453 26.1131 78.1053C26.1431 78.1253 26.1831 78.1653 26.1931 78.1853C28.2631 80.2553 28.2631 83.5952 26.2031 85.6452C25.5631 86.2852 24.7631 86.7453 23.8931 86.9953C23.4331 87.1253 22.9631 87.1853 22.4931 87.1853ZM22.4831 79.6653C21.9031 79.6653 21.3231 79.8852 20.8831 80.3252C20.0031 81.2052 20.0031 82.6453 20.8831 83.5253C21.4631 84.1053 22.3031 84.3253 23.0931 84.1053C23.4731 83.9953 23.8031 83.8053 24.0831 83.5253C24.9631 82.6453 24.9631 81.2052 24.0831 80.3252C24.0831 80.3252 24.0531 80.2953 24.0431 80.2953C23.6231 79.8753 23.0531 79.6653 22.4831 79.6653Z" fill="white"/>
<path d="M63.6933 97.8446C62.3133 97.8446 60.9633 97.3046 59.9633 96.3046C57.9133 94.2546 57.9133 90.9146 59.9633 88.8546C61.9633 86.8446 65.2533 86.8145 67.3133 88.7645C67.3333 88.7845 67.3733 88.8145 67.3833 88.8245C69.4633 90.9045 69.4633 94.2446 67.4133 96.3046C66.7733 96.9446 65.9733 97.4046 65.1033 97.6546C64.6333 97.7746 64.1633 97.8446 63.6933 97.8446ZM63.6833 90.3245C63.1033 90.3245 62.5233 90.5446 62.0833 90.9846C61.2033 91.8646 61.2033 93.3046 62.0833 94.1846C62.6633 94.7646 63.5033 94.9845 64.2933 94.7645C64.6733 94.6545 65.0033 94.4646 65.2833 94.1846C66.1633 93.3046 66.1633 91.8646 65.2833 90.9846C65.2833 90.9846 65.2533 90.9545 65.2433 90.9545C64.8233 90.5245 64.2533 90.3245 63.6833 90.3245Z" fill="white"/>
<path d="M93.4833 68.0552C92.1033 68.0552 90.7533 67.5151 89.7533 66.5151C87.7033 64.4651 87.7033 61.1252 89.7533 59.0652C91.7633 57.0552 95.0633 57.0252 97.1133 58.9852C97.1333 59.0052 97.1733 59.0352 97.1833 59.0552C99.2533 61.1252 99.2533 64.4651 97.1933 66.5151C96.5533 67.1551 95.7533 67.6252 94.8833 67.8652C94.4333 67.9852 93.9533 68.0552 93.4833 68.0552ZM93.4833 60.5251C92.9033 60.5251 92.3233 60.7452 91.8833 61.1852C91.0033 62.0652 91.0033 63.5051 91.8833 64.3851C92.4633 64.9651 93.3033 65.1851 94.0933 64.9651C94.4733 64.8551 94.8033 64.6651 95.0833 64.3851C95.9633 63.5051 95.9633 62.0652 95.0833 61.1852L96.0833 60.0751L95.0433 61.1551C94.6133 60.7351 94.0433 60.5251 93.4833 60.5251Z" fill="white"/>
<path d="M82.6733 27.6852C81.2933 27.6852 79.9434 27.1451 78.9434 26.1451C77.9434 25.1451 77.4033 23.8252 77.4033 22.4252C77.4033 21.0152 77.9534 19.6951 78.9434 18.7051C80.9534 16.6951 84.2433 16.6652 86.2933 18.6152C86.3233 18.6452 86.3833 18.6951 86.4033 18.7151C87.3833 19.6951 87.9333 21.0152 87.9333 22.4252C87.9333 23.8352 87.3833 25.1551 86.3933 26.1451C85.7533 26.7851 84.9533 27.2452 84.0833 27.4952C83.6133 27.6252 83.1433 27.6852 82.6733 27.6852ZM82.6633 20.1652C82.0833 20.1652 81.5034 20.3851 81.0634 20.8251C80.6334 21.2551 80.4033 21.8252 80.4033 22.4252C80.4033 23.0252 80.6434 23.5951 81.0634 24.0251C81.6434 24.5951 82.4833 24.8252 83.2733 24.6052C83.6533 24.4952 83.9833 24.3051 84.2633 24.0251C84.6933 23.5951 84.9333 23.0252 84.9333 22.4252C84.9333 21.8152 84.6933 21.2551 84.2733 20.8251L84.2433 20.7952C83.8033 20.3752 83.2333 20.1652 82.6633 20.1652Z" fill="white"/>
<path d="M41.9741 15.775C40.5941 15.775 39.2441 15.235 38.2441 14.235C37.2441 13.245 36.7041 11.915 36.7041 10.515C36.7041 9.10497 37.2541 7.785 38.2441 6.795C40.2441 4.785 43.5441 4.75498 45.5941 6.70498C45.6241 6.72498 45.6641 6.76499 45.6741 6.78499C47.7441 8.85499 47.7441 12.195 45.6841 14.245C45.0441 14.885 44.2441 15.345 43.3741 15.595C42.9241 15.705 42.4441 15.775 41.9741 15.775ZM41.9641 8.24502C41.3841 8.24502 40.8041 8.46499 40.3641 8.90499C39.9341 9.33499 39.7041 9.90502 39.7041 10.505C39.7041 11.115 39.9441 11.675 40.3641 12.105C40.9441 12.685 41.7942 12.905 42.5742 12.685C42.9542 12.575 43.2841 12.385 43.5641 12.105C44.4441 11.225 44.4441 9.78499 43.5641 8.90499C43.5641 8.90499 43.5341 8.87502 43.5241 8.87502C43.1041 8.45502 42.5341 8.24502 41.9641 8.24502Z" fill="white"/>
<path d="M41.7533 21.455C39.0033 21.455 36.2533 20.4051 34.1633 18.3151C34.1133 18.2651 34.0633 18.215 34.0233 18.165C30.0033 13.975 30.0633 7.235 34.1633 3.135C38.3533 -1.045 45.1533 -1.045 49.3433 3.135C52.0133 5.805 53.0733 9.60503 52.1633 13.295C51.6933 15.205 50.7133 16.9451 49.3433 18.3151C47.2533 20.4051 44.5033 21.455 41.7533 21.455ZM36.2833 5.25506C33.3333 8.20506 33.2833 13.065 36.1833 16.075C36.2033 16.095 36.2733 16.1751 36.2933 16.1951C39.3033 19.2051 44.2133 19.2051 47.2233 16.1951C48.2133 15.2051 48.9133 13.955 49.2533 12.575C49.9033 9.915 49.1433 7.17506 47.2233 5.25506C44.2033 2.23506 39.3033 2.23506 36.2833 5.25506Z" fill="white"/>
<path d="M82.6539 33.1553C79.8539 33.1553 77.1339 32.0553 75.0839 30.0153C72.1239 27.0553 71.154 22.5953 72.634 18.6553C73.174 17.2053 74.0039 15.9153 75.0839 14.8353C77.1139 12.8053 79.804 11.6953 82.674 11.6953C85.544 11.6953 88.2339 12.8153 90.2639 14.8353C94.4439 19.0253 94.4439 25.8253 90.2639 30.0153C89.0339 31.2453 87.574 32.1253 85.914 32.6553C84.834 32.9853 83.7339 33.1553 82.6539 33.1553ZM82.674 14.6853C80.604 14.6853 78.6639 15.4853 77.2039 16.9553C76.4239 17.7353 75.824 18.6653 75.434 19.7053C74.374 22.5453 75.0639 25.7553 77.2039 27.8953C79.2539 29.9453 82.2439 30.6653 85.0139 29.7953C86.2139 29.4153 87.2639 28.7753 88.1439 27.8953C91.1539 24.8753 91.1539 19.9753 88.1439 16.9553C86.6739 15.4953 84.734 14.6853 82.674 14.6853Z" fill="white"/>
<path d="M22.4829 92.655C19.7329 92.655 16.9829 91.605 14.8929 89.515C12.8629 87.485 11.7529 84.795 11.7529 81.925C11.7529 79.055 12.8729 76.365 14.8929 74.335C16.2529 72.975 17.9729 72.005 19.8529 71.525C23.5029 70.605 27.4229 71.685 30.0729 74.335C32.7629 77.025 33.8129 80.845 32.8829 84.555C32.4129 86.435 31.4329 88.155 30.0729 89.515C27.9829 91.605 25.2329 92.655 22.4829 92.655ZM22.5229 74.195C21.8829 74.195 21.2329 74.275 20.5929 74.435C19.2329 74.775 18.0029 75.475 17.0229 76.455C15.5629 77.915 14.7529 79.855 14.7529 81.925C14.7529 83.995 15.5529 85.935 17.0229 87.395C20.0429 90.405 24.9429 90.415 27.9629 87.395C28.9429 86.415 29.6429 85.175 29.9829 83.825C30.6529 81.155 29.9029 78.395 27.9629 76.465C26.4829 74.985 24.5429 74.195 22.5229 74.195Z" fill="white"/>
<path d="M63.694 103.315C60.824 103.315 58.134 102.195 56.104 100.175C53.454 97.5255 52.394 93.7554 53.264 90.0854C53.724 88.1554 54.704 86.3955 56.104 84.9955C58.134 82.9655 60.824 81.8555 63.694 81.8555C66.564 81.8555 69.254 82.9755 71.284 84.9955C71.344 85.0555 71.394 85.1155 71.444 85.1655C75.514 89.4555 75.434 96.0355 71.284 100.175C69.254 102.195 66.554 103.315 63.694 103.315ZM58.224 87.1155C57.224 88.1155 56.514 89.3855 56.184 90.7855C55.554 93.4255 56.314 96.1455 58.224 98.0555C59.684 99.5155 61.624 100.325 63.694 100.325C65.764 100.325 67.704 99.5255 69.164 98.0555C72.144 95.0755 72.204 90.3354 69.304 87.2654L69.184 87.1354C67.704 85.6554 65.764 84.8455 63.694 84.8455C61.624 84.8455 59.684 85.6555 58.224 87.1155Z" fill="white"/>
<path d="M93.4933 73.5452C90.8433 73.5452 88.1933 72.5552 86.1033 70.5752C86.0133 70.4952 85.9532 70.4452 85.9032 70.3852C81.7132 66.1952 81.7132 59.3852 85.9032 55.2052C87.3532 53.7552 89.1833 52.7552 91.1933 52.3152C94.7933 51.5252 98.4832 52.6052 101.083 55.2052C103.113 57.2352 104.223 59.9252 104.223 62.7952C104.223 65.6652 103.103 68.3552 101.083 70.3852C98.9632 72.4852 96.2333 73.5452 93.4933 73.5452ZM93.5033 55.0552C92.9433 55.0552 92.3833 55.1152 91.8233 55.2352C90.3733 55.5552 89.0532 56.2752 88.0132 57.3152C85.0032 60.3352 85.0032 65.2352 88.0132 68.2552L88.1532 68.3852C91.2232 71.3052 95.9633 71.2452 98.9433 68.2552C100.403 66.7952 101.213 64.8552 101.213 62.7852C101.213 60.7152 100.413 58.7752 98.9433 57.3152C97.4833 55.8552 95.5233 55.0552 93.5033 55.0552Z" fill="white"/>
<path d="M84.6138 61.7256C84.4838 61.7256 84.3538 61.7056 84.2238 61.6756L68.4938 57.4656C67.6938 57.2556 67.2238 56.4256 67.4338 55.6256C67.6438 54.8256 68.4738 54.3556 69.2738 54.5656L85.0038 58.7756C85.8038 58.9856 86.2738 59.8156 86.0638 60.6156C85.8838 61.2856 85.2738 61.7256 84.6138 61.7256Z" fill="white"/>
<path d="M37.3834 49.0752C37.2534 49.0752 37.1234 49.0552 36.9934 49.0252L20.1334 44.5052C19.3334 44.2952 18.8634 43.4652 19.0734 42.6652C19.2834 41.8652 20.1134 41.3852 20.9134 41.6052L37.7734 46.1252C38.5734 46.3352 39.0434 47.1652 38.8334 47.9652C38.6534 48.6252 38.0434 49.0752 37.3834 49.0752Z" fill="white"/>
<path d="M61.2937 85.165C60.6337 85.165 60.0237 84.725 59.8437 84.055L55.6037 68.225C55.3937 67.425 55.8637 66.605 56.6637 66.385C57.4637 66.175 58.2837 66.645 58.5037 67.445L62.7437 83.275C62.9537 84.075 62.4837 84.895 61.6837 85.115C61.5537 85.145 61.4237 85.165 61.2937 85.165Z" fill="white"/>
<path d="M48.634 37.8955C47.974 37.8955 47.364 37.4555 47.184 36.7855L42.844 20.5755C42.634 19.7755 43.104 18.9556 43.904 18.7356C44.704 18.5256 45.524 18.9956 45.744 19.7956L50.0839 36.0056C50.2939 36.8056 49.824 37.6255 49.024 37.8455C48.894 37.8855 48.764 37.8955 48.634 37.8955Z" fill="white"/>
<path d="M64.1832 41.7253C63.8032 41.7253 63.4132 41.5753 63.1232 41.2853C62.5332 40.6953 62.5332 39.7453 63.1232 39.1653L74.7532 27.5353C75.3432 26.9453 76.2932 26.9453 76.8732 27.5353C77.4632 28.1253 77.4632 29.0753 76.8732 29.6553L65.2432 41.2853C64.9532 41.5853 64.5732 41.7253 64.1832 41.7253Z" fill="white"/>
<path d="M29.0132 76.8949C28.6332 76.8949 28.2432 76.7449 27.9532 76.4549C27.3632 75.8649 27.3632 74.9149 27.9532 74.3349L40.1133 62.1749C40.7033 61.5849 41.6533 61.5849 42.2333 62.1749C42.8233 62.7649 42.8233 63.7149 42.2333 64.2949L30.0733 76.4549C29.7833 76.7549 29.4032 76.8949 29.0132 76.8949Z" fill="white"/>
<path d="M51.8538 60.5349C51.8338 60.5349 51.8038 60.5349 51.7838 60.5349C51.2038 60.5049 50.6938 60.1549 50.4738 59.6149L46.9538 51.2249C46.6338 50.4649 46.9938 49.5849 47.7538 49.2649C48.5138 48.9449 49.3938 49.3049 49.7138 50.0649L52.0238 55.5649L57.4638 45.4749C57.8538 44.7449 58.7638 44.4749 59.4938 44.8649C60.2238 45.2549 60.4938 46.1649 60.1038 46.8949L53.1738 59.7449C52.9138 60.2349 52.4038 60.5349 51.8538 60.5349Z" fill="#5D5FEF"/>
</svg>
