<svg width="32" height="32" viewBox="0 0 32 32" fill="none" xmlns="http://www.w3.org/2000/svg">
<path d="M9.07935 0.918091L23.0535 5.34857L18.5073 11.1875L23.7076 16.852L20.4438 30.9498L8.00937 24.6705L18.5073 11.1875L9.07935 0.918091Z" fill="#00BAFE" fill-opacity="0.2"/>
<path d="M9.07935 0.918091L23.0535 5.34857L8.00937 24.6705L20.4438 30.9498L23.7076 16.852L9.07935 0.918091Z" stroke="#5DC1EF" stroke-width="0.354624" stroke-linejoin="round"/>
<circle cx="20.4056" cy="30.8886" r="1.06462" transform="rotate(92.5793 20.4056 30.8886)" fill="#5D5FEF"/>
<circle cx="23.5072" cy="17.2452" r="1.06462" transform="rotate(92.5793 23.5072 17.2452)" fill="#5D5FEF"/>
<circle cx="22.8455" cy="5.23276" r="2.13764" transform="rotate(92.5793 22.8455 5.23276)" fill="#5DC1EF"/>
<circle cx="9.17175" cy="1.11145" r="1.06462" transform="rotate(92.5793 9.17175 1.11145)" fill="#5D5FEF"/>
<circle cx="8.11145" cy="24.651" r="1.06462" transform="rotate(92.5793 8.11145 24.651)" fill="#5D5FEF"/>
</svg>
