<svg width="33" height="32" viewBox="0 0 33 32" fill="none" xmlns="http://www.w3.org/2000/svg">
<path d="M23 8V0H12C10.3125 0 9 1.375 9 3V8.3125C9.0625 8.3125 9.1875 8.25 9.375 8.25L9.625 8.1875C9.9375 8.0625 10.3125 8 10.625 8C11.625 8 12.625 8.4375 13.3125 9.1875L13.5 9.375C13.625 9.5 13.75 9.5625 13.8125 9.6875C13.9375 9.6875 14.0625 9.75 14.25 9.8125L14.5 9.875C15.8125 10.1875 16.8125 11.25 17.1875 12.5625L17.25 12.8125C17.3125 13 17.3125 13.1875 17.375 13.25C17.4375 13.375 17.5625 13.4375 17.6875 13.625L17.8125 13.75C18.8125 14.75 19.1875 16.1875 18.8125 17.5V17.6875C18.75 17.9375 18.6875 18.0625 18.6875 18.1875C18.6875 18.25 18.75 18.4375 18.75 18.625L18.8125 18.875C19.1875 20.1875 18.8125 21.625 17.875 22.5625L17.6875 22.75C17.5625 22.875 17.4375 23 17.375 23.0625C17.3125 23.1875 17.3125 23.3125 17.25 23.5L17.1875 23.75C16.875 24.9375 16.0625 25.875 14.9375 26.3125V32H30C31.625 32 33 30.6875 33 29V10H25C23.875 10 23 9.125 23 8ZM25 0V8H33L25 0ZM15.25 23.25C15.3125 22.9375 15.375 22.6875 15.4375 22.5C15.625 21.9375 15.75 21.875 16.4375 21.1875C16.875 20.6875 17.0625 20 16.875 19.375C16.5625 18.0625 16.5625 18.25 16.875 17C17.0625 16.3125 16.875 15.625 16.4375 15.1875C15.75 14.4375 15.625 14.375 15.4375 13.8125C15.375 13.625 15.3125 13.4375 15.25 13.0625C15.1875 12.9375 15.125 12.75 15.0625 12.625C14.8125 12.25 14.4375 11.9375 13.9375 11.75C13.1875 11.5625 12.9375 11.5 12.625 11.25C12.5 11.1875 12.375 11.0625 12.1875 10.875C12.125 10.8125 12 10.6875 11.9375 10.5625C11.75 10.4375 11.5625 10.3125 11.375 10.1875C11.3125 10.1875 11.3125 10.1875 11.25 10.125C11.0625 10.0625 10.8125 10 10.625 10C10.4375 10 10.3125 10.0625 10.125 10.0625C10.1875 10.0625 10.1875 10.0625 10.1875 10.0625C10.1875 10.0625 10.1875 10.0625 10.125 10.0625C9.5 10.25 9.25 10.375 8.9375 10.375C8.625 10.375 8.375 10.25 7.75 10.0625C7.625 10.0625 7.5 10 7.3125 10C7.125 10 6.875 10.0625 6.6875 10.125C6.625 10.1875 6.625 10.1875 6.5625 10.1875C6.375 10.3125 6.1875 10.4375 6 10.5625C5.0625 11.5 5.25 11.4375 4 11.75C3.375 11.9375 2.875 12.4375 2.6875 13.0625C2.5625 13.5625 2.5 13.875 2.4375 14.0625C2.25 14.4375 2.0625 14.5625 1.5 15.1875C1.375 15.3125 1.3125 15.4375 1.1875 15.5625C1 16 0.875 16.5 1.0625 17C1.375 18.25 1.375 18.0625 1.0625 19.375C0.875 19.875 1 20.375 1.1875 20.8125C1.3125 20.9375 1.375 21.0625 1.5 21.1875C2.1875 21.875 2.3125 22 2.5 22.5C2.5625 22.6875 2.625 22.9375 2.6875 23.25C2.875 23.875 3.375 24.375 4 24.5625C4.4375 24.6875 4.625 24.75 4.6875 24.75C4.8125 24.8125 4.8125 24.8125 5 24.875V32L9 30L12.9375 32V24.875C13.25 24.75 13.0625 24.8125 13.9375 24.5625C14.4375 24.4375 14.8125 24.125 15.0625 23.6875C15.125 23.5625 15.1875 23.4375 15.25 23.25ZM9 22C8.6875 22 8.4375 22 8.1875 21.9375C7.625 21.8125 7.1875 21.625 6.75 21.375C6.3125 21.0625 5.9375 20.6875 5.625 20.25C5.25 19.625 5 18.875 5 18C5 17.1875 5.25 16.4375 5.625 15.8125C5.9375 15.375 6.3125 15 6.75 14.6875C7.1875 14.4375 7.625 14.1875 8.1875 14.125C8.4375 14.0625 8.6875 14 9 14C11.1875 14 12.9375 15.8125 12.9375 18C12.9375 20.25 11.1875 22 9 22Z" fill="#5D5FEF"/>
</svg>
