<svg width="40" height="24" viewBox="0 0 40 24" fill="none" xmlns="http://www.w3.org/2000/svg">
<path d="M28 0H12C5.3125 0 0 5.375 0 12C0 18.6875 5.3125 24 12 24H28C34.625 24 40 18.6875 40 12C40 5.375 34.625 0 28 0ZM15.4375 13.5H13.4375V15.5C13.4375 16.375 12.75 17 11.9375 17C11.0625 17 10.4375 16.375 10.4375 15.5V13.5H8.5C7.625 13.5 6.9375 12.875 6.9375 12C6.9375 11.1875 7.5625 10.5 8.4375 10.5H10.4375V8.5C10.4375 7.6875 11.0625 7 11.9375 7C12.75 7 13.4375 7.6875 13.4375 8.5V10.5H15.4375C16.25 10.5 16.9375 11.1875 16.9375 12C16.9375 12.875 16.3125 13.5 15.4375 13.5ZM26.9375 17.5C25.5 17.5 24.5 16.4375 24.5 15.0625C24.5 13.75 25.5625 12.5625 26.9375 12.5625C28.25 12.5625 29.375 13.6875 29.375 15.0625C29.375 16.5 28.375 17.5 26.9375 17.5ZM30.9375 11.5C29.5 11.5 28.5 10.4375 28.5 9.0625C28.5 7.75 29.5625 6.5625 30.9375 6.5625C32.25 6.5625 33.375 7.6875 33.375 9.0625C33.375 10.5 32.375 11.5 30.9375 11.5Z" fill="#5D5FEF"/>
</svg>
