<svg width="123" height="86" viewBox="0 0 123 86" fill="none" xmlns="http://www.w3.org/2000/svg">
<path d="M112.763 24.9505C111.763 18.5492 108.506 12.7167 103.581 8.50751C98.6552 4.2983 92.3865 1.9901 85.9076 2.00003H36.4114C29.9377 1.99889 23.6765 4.31088 18.7571 8.51907C13.8377 12.7273 10.5838 18.5547 9.58219 24.9505L2.12104 72.6297C1.79605 74.6818 2.12948 76.7842 3.0735 78.6351C4.01753 80.4859 5.52361 81.9901 7.37563 82.9318C9.22764 83.8736 11.3304 84.2044 13.3821 83.8769C15.4338 83.5494 17.3291 82.5804 18.7959 81.1088L37.9835 61.9211H84.3741L103.562 81.1088C105.029 82.5804 106.924 83.5494 108.976 83.8769C111.027 84.2044 113.13 83.8736 114.982 82.9318C116.834 81.9901 118.34 80.4859 119.284 78.6351C120.228 76.7842 120.562 74.6818 120.237 72.6297L112.763 24.9505Z" stroke="#E0EBFF" stroke-width="3.86588" stroke-linecap="round" stroke-linejoin="round"/>
<path d="M37.9835 61.8954L45.7153 53.9705H88.4849C93.6282 54.0124 98.667 52.5182 102.956 49.6792C107.59 46.7881 110.998 42.2931 112.531 37.0508C113.393 33.8956 113.59 30.5957 113.111 27.3603L112.788 24.9505C111.788 18.5449 108.527 12.709 103.597 8.49922C98.6658 4.28946 92.3909 1.98399 85.9076 2.00008H36.4114C29.9377 1.99894 23.6765 4.31093 18.7571 8.51912C13.8377 12.7273 10.5838 18.5547 9.58219 24.9505L2.12104 72.6298C1.79605 74.6819 2.12948 76.7843 3.0735 78.6351C4.01753 80.486 5.52361 81.9901 7.37563 82.9319C9.22764 83.8736 11.3304 84.2045 13.3821 83.8769C15.4338 83.5494 17.3291 82.5804 18.7959 81.1089L37.9835 61.9212" stroke="#E0EBFF" stroke-width="3.86588" stroke-linecap="round" stroke-linejoin="round"/>
<path d="M46.038 22.3739H39.2598V15.5957H30.5358V22.3739H23.7705V31.0979H30.5358V37.8632H39.2598V31.0979H46.038V22.3739Z" stroke="#FF643E" stroke-width="3.86588" stroke-linecap="round" stroke-linejoin="round"/>
<path d="M78.8829 26.7298C78.9027 26.9474 78.8769 27.1667 78.8072 27.3737C78.7375 27.5807 78.6254 27.771 78.4781 27.9323C78.3308 28.0936 78.1515 28.2223 77.9516 28.3104C77.7517 28.3986 77.5357 28.4441 77.3173 28.4441C77.0988 28.4441 76.8828 28.3986 76.6829 28.3104C76.483 28.2223 76.3037 28.0936 76.1564 27.9323C76.0091 27.771 75.897 27.5807 75.8273 27.3737C75.7576 27.1667 75.7318 26.9474 75.7516 26.7298C75.787 26.3391 75.9674 25.9757 76.2571 25.7112C76.5468 25.4466 76.9249 25.2998 77.3173 25.2998C77.7096 25.2998 78.0877 25.4466 78.3774 25.7112C78.6671 25.9757 78.8475 26.3391 78.8829 26.7298Z" stroke="#E0EBFF" stroke-width="3.86588" stroke-linecap="round" stroke-linejoin="round"/>
<path d="M95.6282 26.7288C95.6282 27.0372 95.5368 27.3386 95.3655 27.595C95.1941 27.8515 94.9506 28.0513 94.6657 28.1694C94.3808 28.2874 94.0673 28.3182 93.7648 28.2581C93.4623 28.1979 93.1845 28.0494 92.9664 27.8313C92.7484 27.6133 92.5999 27.3355 92.5397 27.033C92.4796 26.7305 92.5104 26.4169 92.6285 26.132C92.7465 25.8471 92.9463 25.6036 93.2027 25.4323C93.4592 25.261 93.7606 25.1694 94.069 25.1694C94.4815 25.1728 94.8761 25.3382 95.1678 25.6299C95.4595 25.9215 95.6249 26.3163 95.6282 26.7288Z" stroke="#E0EBFF" stroke-width="3.86588" stroke-linecap="round" stroke-linejoin="round"/>
<path d="M87.1956 17.6174C87.1956 17.9258 87.1042 18.2272 86.9328 18.4836C86.7615 18.7401 86.518 18.9399 86.2331 19.0579C85.9482 19.1759 85.6347 19.2068 85.3322 19.1466C85.0297 19.0864 84.7519 18.938 84.5338 18.7199C84.3158 18.5018 84.1673 18.224 84.1071 17.9215C84.0469 17.6191 84.0778 17.3056 84.1958 17.0206C84.3138 16.7357 84.5137 16.4922 84.7701 16.3209C85.0265 16.1495 85.328 16.0581 85.6364 16.0581C86.0499 16.0581 86.4465 16.2224 86.7389 16.5148C87.0313 16.8072 87.1956 17.2038 87.1956 17.6174Z" stroke="#E0EBFF" stroke-width="3.86588" stroke-linecap="round" stroke-linejoin="round"/>
<path d="M84.1309 35.8388C84.1335 35.531 84.2271 35.2309 84.3999 34.9762C84.5728 34.7215 84.8172 34.5236 85.1023 34.4075C85.3875 34.2915 85.7006 34.2624 86.0022 34.324C86.3038 34.3856 86.5804 34.5352 86.7972 34.7538C87.014 34.9723 87.1612 35.2501 87.2203 35.5522C87.2794 35.8543 87.2478 36.1672 87.1294 36.4514C87.011 36.7355 86.8112 36.9783 86.5551 37.149C86.2989 37.3198 85.998 37.4109 85.6902 37.4109C85.4843 37.4109 85.2805 37.3702 85.0905 37.2911C84.9004 37.2119 84.728 37.0959 84.583 36.9497C84.4381 36.8036 84.3235 36.6303 84.2459 36.4396C84.1683 36.2489 84.1292 36.0447 84.1309 35.8388Z" stroke="#E0EBFF" stroke-width="3.86588" stroke-linecap="round" stroke-linejoin="round"/>
</svg>
