<svg width="32" height="32" viewBox="0 0 32 32" fill="none" xmlns="http://www.w3.org/2000/svg">
<path d="M2 30C2 31.125 2.875 32 4 32H14V18H2V30ZM30 8H27.3125C28.0625 6.625 28.25 4.875 27.3125 2.9375C26.4375 1.0625 24.5 0 22.4375 0C19.8125 0.0625 18.125 1.375 16 4.3125C13.8125 1.375 12.125 0.0625 9.5 0C7.4375 0 5.5 1.0625 4.625 2.9375C3.6875 4.875 3.875 6.625 4.625 8H2C0.875 8 0 8.9375 0 10V14C0 15.125 0.875 16 1.9375 16H29.9375C31 16 31.9375 15.125 31.9375 14V10C32 8.9375 31.0625 8 30 8ZM9.5625 8C8.1875 8 7.0625 6.9375 7.0625 5.5C7.0625 4.125 8.1875 3 9.5625 3C10.8125 3 11.75 3.25 15 8H9.5625ZM22.375 8H17C20.1875 3.25 21.125 3 22.375 3C23.75 3 24.875 4.125 24.875 5.5C24.875 6.9375 23.75 8 22.375 8ZM18 32H28C29.0625 32 30 31.125 30 30V18H18V32Z" fill="#5D5FEF"/>
</svg>
