<svg width="28" height="22" viewBox="0 0 28 22" fill="none" xmlns="http://www.w3.org/2000/svg">
<path d="M26 2H24.5V1.25C24.5 0.875 24.125 0.5 23.75 0.5C23.3281 0.5 23 0.875 23 1.25V2H2.51562C1.39062 2 0.5 2.9375 0.5 4.0625V8.23438C0.5 9.35938 1.39062 10.25 2.51562 10.25C3.5 10.25 4.20312 11.2344 3.92188 12.1719L2.04688 19.625C1.76562 20.5625 2.46875 21.5 3.5 21.5H9.07812C9.78125 21.5 10.3438 21.0781 10.5312 20.4219L11.8438 15.5H15.5C16.4844 15.5 17.3281 14.8906 17.6562 14L18.875 10.25H20.8438C21.2656 10.25 21.6406 10.1094 21.9219 9.82812L23 8.75H26C26.7969 8.75 27.5 8.09375 27.5 7.25V3.5C27.5 2.70312 26.7969 2 26 2ZM9.07812 20H3.5L5.375 12.5938C5.60938 11.7969 5.46875 10.9531 5.09375 10.25H11.6562L9.07812 20ZM16.25 13.5312C16.1094 13.8125 15.8281 14 15.5 14H12.2188L13.25 10.25H17.3281L16.25 13.5312ZM26 7.25H22.3438L20.8906 8.75H2.51562C2.23438 8.75 2 8.51562 2 8.23438V4.0625C2 3.73438 2.23438 3.5 2.51562 3.5H26V7.25Z" fill="#FF643E"/>
</svg>
