<svg width="32" height="32" viewBox="0 0 32 32" fill="none" xmlns="http://www.w3.org/2000/svg">
<path d="M20 6C20.5 6 21 5.5625 21 5V1C21 0.5 20.5 0 20 0C19.4375 0 19 0.5 19 1V5C19 5.5625 19.4375 6 20 6ZM23.9375 6C24.25 6 24.5625 5.875 24.75 5.5625L26.8125 2.5625C26.9375 2.4375 26.9375 2.25 26.9375 2.0625C26.9375 1.5 26.5 1 25.9375 1C25.625 1 25.3125 1.1875 25.125 1.5L23.125 4.5C23 4.625 22.9375 4.8125 22.9375 5C22.9375 5.5625 23.375 6 23.9375 6ZM24 22.375V12.125C24 11.75 23.6875 10 22 10C20.875 10 19.9375 10.9375 19.9375 12L20 16.8125L10.5625 7.375C10.25 7.0625 9.875 6.9375 9.5 6.9375C8.625 6.9375 8 7.625 8 8.4375C8 8.8125 8.125 9.1875 8.4375 9.5L14 15.0625C14.1875 15.25 14.25 15.5 14.25 15.6875C14.25 15.9375 14.1875 16.1875 14 16.375C13.8125 16.5625 13.5625 16.625 13.375 16.625C13.125 16.625 12.875 16.5625 12.6875 16.375L5.9375 9.625C5.6875 9.375 5.3125 9.1875 4.875 9.1875C4.0625 9.1875 3.375 9.9375 3.375 10.6875C3.375 11.125 3.5625 11.5 3.8125 11.75L10.5625 18.5C10.75 18.6875 10.8125 18.9375 10.8125 19.125C10.8125 19.3125 10.75 19.5625 10.5625 19.75C10.375 19.9375 10.125 20 9.9375 20C9.6875 20 9.4375 19.9375 9.25 19.75L3.6875 14.25C3.375 13.9375 3 13.8125 2.625 13.8125C1.75 13.8125 1.125 14.5 1.125 15.3125C1.125 15.6875 1.25 16.0625 1.5625 16.375L7.125 21.9375C7.3125 22.125 7.375 22.375 7.375 22.5625C7.375 22.8125 7.3125 23.0625 7.125 23.25C6.9375 23.4375 6.6875 23.5 6.5 23.5C6.25 23.5 6 23.4375 5.8125 23.25L2.5 19.9375C2.25 19.625 1.875 19.5 1.5 19.5C0.625 19.5 0 20.1875 0 21C0 21.375 0.125 21.75 0.4375 22.0625C7 28.6875 9.4375 32 14.5 32C19.875 32 24 27.5625 24 22.375ZM15.1875 5.5625C15.375 5.875 15.6875 6 16 6C16.5625 6 17 5.5625 17 5C17 4.8125 16.9375 4.625 16.8125 4.5L14.8125 1.5C14.625 1.1875 14.3125 1 13.9375 1C13.375 1 12.9375 1.5 12.9375 2.0625C12.9375 2.25 13 2.4375 13.0625 2.5625L15.1875 5.5625ZM30 10C28.875 10 28 10.9375 28 12V16.8125L26 14.8125V22.375C26 28.25 22 31.25 21.0625 31.875C21.5625 31.9375 22 32 22.5 32C27.875 32 32 27.5625 32 22.375L31.9375 12C31.9375 10.9375 31.0625 10 30 10Z" fill="#5D5FEF"/>
</svg>
