<svg width="748" height="800" viewBox="0 0 748 800" fill="none" xmlns="http://www.w3.org/2000/svg">
<circle opacity="0.13" cx="376.001" cy="436" r="364" fill="#5292FF"/>
<path d="M746.905 608.493C747.817 602.249 745.155 596.476 739.919 593.358L658.854 544.992C654.415 542.344 650.051 545.183 649.159 551.297L641.159 606.116C640.315 611.903 642.786 617.255 647.634 620.148L722.095 664.572C728.89 668.629 738.864 663.557 740.049 655.449L746.905 608.493Z" fill="#D9E9FF"/>
<path d="M655.034 601.003C655.034 601.003 660.215 595.754 667.745 599.935C673.505 603.134 670.271 602.869 677.399 605.177C681.6 606.539 689.484 599.356 699.635 604.203C718.017 612.979 727.331 596.108 734.493 605.606L728.127 649.219L654.081 607.56L655.034 601.003Z" fill="url(#paint0_linear)"/>
<path d="M654.041 607.805L660.4 564.239" stroke="white" stroke-width="0.541117" stroke-miterlimit="10" stroke-linecap="round" stroke-linejoin="round"/>
<path d="M672.559 617.684L678.917 574.111" stroke="white" stroke-width="0.541117" stroke-miterlimit="10" stroke-linecap="round" stroke-linejoin="round"/>
<path d="M690.995 628.107L697.354 584.534" stroke="white" stroke-width="0.541117" stroke-miterlimit="10" stroke-linecap="round" stroke-linejoin="round"/>
<path d="M709.432 638.517L715.791 594.951" stroke="white" stroke-width="0.541117" stroke-miterlimit="10" stroke-linecap="round" stroke-linejoin="round"/>
<path d="M727.773 649.607L734.132 606.035" stroke="white" stroke-width="0.541117" stroke-miterlimit="10" stroke-linecap="round" stroke-linejoin="round"/>
<path d="M734.527 601.739L732.117 600.221C731.851 600.05 731.674 599.615 731.729 599.247C731.783 598.879 732.042 598.716 732.314 598.879L734.724 600.398C734.99 600.568 735.167 601.004 735.112 601.371C735.058 601.746 734.792 601.909 734.527 601.739Z" fill="white"/>
<path d="M727.004 651.793L724.594 650.275C724.587 650.268 724.58 650.268 724.573 650.261L722.783 649.131C722.517 648.961 722.252 649.131 722.197 649.498C722.143 649.866 722.32 650.309 722.585 650.472L724.996 651.99C725.002 651.997 725.009 651.997 725.016 652.004L726.807 653.127C727.072 653.297 727.338 653.127 727.392 652.76C727.446 652.399 727.269 651.956 727.004 651.793Z" fill="white"/>
<path d="M706.879 639.735L704.469 638.217C704.462 638.21 704.455 638.21 704.448 638.204L702.658 637.073C702.392 636.903 702.127 637.073 702.072 637.441C702.018 637.809 702.195 638.251 702.46 638.415L704.871 639.933C704.877 639.94 704.884 639.94 704.891 639.946L706.682 641.07C706.947 641.24 707.213 641.07 707.267 640.702C707.321 640.348 707.144 639.906 706.879 639.735Z" fill="white"/>
<path d="M688.061 628.618L685.651 627.099C685.644 627.093 685.637 627.093 685.63 627.086L683.84 625.956C683.574 625.785 683.308 625.956 683.254 626.323C683.2 626.691 683.377 627.133 683.642 627.297L686.052 628.815C686.059 628.822 686.066 628.822 686.073 628.829L687.863 629.952C688.129 630.122 688.394 629.952 688.449 629.584C688.503 629.23 688.326 628.788 688.061 628.618Z" fill="white"/>
<path d="M670.292 618.215L667.882 616.696C667.875 616.69 667.868 616.69 667.862 616.683L666.071 615.553C665.805 615.382 665.54 615.553 665.485 615.92C665.431 616.288 665.608 616.731 665.874 616.894L668.284 618.412C668.29 618.419 668.297 618.419 668.304 618.426L670.095 619.549C670.36 619.719 670.626 619.549 670.68 619.181C670.735 618.821 670.558 618.385 670.292 618.215Z" fill="white"/>
<path d="M715.696 591.983L713.286 590.464C713.02 590.294 712.843 589.858 712.898 589.491C712.952 589.123 713.211 588.96 713.483 589.123L715.893 590.641C716.159 590.812 716.336 591.247 716.281 591.615C716.227 591.983 715.961 592.146 715.696 591.983Z" fill="white"/>
<path d="M697.292 582.335L694.882 580.817C694.617 580.647 694.44 580.211 694.494 579.844C694.549 579.476 694.807 579.313 695.08 579.476L697.49 580.994C697.755 581.164 697.932 581.6 697.878 581.968C697.823 582.335 697.558 582.499 697.292 582.335Z" fill="white"/>
<path d="M678.638 572.45L676.228 570.932C675.962 570.761 675.785 570.326 675.84 569.958C675.894 569.59 676.153 569.427 676.425 569.59L678.836 571.109C679.101 571.279 679.278 571.715 679.224 572.082C679.169 572.45 678.91 572.613 678.638 572.45Z" fill="white"/>
<path d="M660.304 562.442L657.894 560.924C657.629 560.753 657.451 560.318 657.506 559.95C657.56 559.582 657.819 559.419 658.091 559.582L660.502 561.101C660.767 561.271 660.944 561.706 660.89 562.074C660.835 562.449 660.57 562.612 660.304 562.442Z" fill="white"/>
<path d="M651.283 607.723L648.873 606.205C648.866 606.198 648.86 606.198 648.853 606.191L647.062 605.061C646.797 604.891 646.531 605.061 646.477 605.429C646.422 605.796 646.599 606.239 646.865 606.402L649.275 607.921C649.282 607.927 649.288 607.927 649.295 607.934L651.086 609.058C651.351 609.228 651.617 609.058 651.671 608.69C651.726 608.329 651.549 607.893 651.283 607.723Z" fill="white"/>
<circle opacity="0.13" cx="376.001" cy="438" r="236" fill="#5292FF"/>
<circle cx="376" cy="437" r="136" fill="#7DADFF"/>
<circle cx="375.498" cy="436.5" r="68.5" fill="#D9E1FF"/>
<path d="M355.659 419.066H395.785" stroke="#2D3352" stroke-width="1.80126" stroke-linecap="round" stroke-linejoin="round"/>
<path d="M375.719 399V419.084" stroke="#2D3352" stroke-width="1.80126" stroke-linecap="round" stroke-linejoin="round"/>
<path d="M355.659 419.084C355.663 413.762 357.781 408.66 361.547 404.9C365.313 401.139 370.418 399.029 375.74 399.033C381.062 399.037 386.164 401.155 389.925 404.921C393.685 408.687 395.795 413.792 395.791 419.114" stroke="#2D3352" stroke-width="1.80126" stroke-linecap="round" stroke-linejoin="round"/>
<path d="M375.725 399C375.725 399 364.966 403.293 364.966 419.066" stroke="#2D3352" stroke-width="1.80126" stroke-linecap="round" stroke-linejoin="round"/>
<path d="M375.724 399C375.724 399 386.477 403.293 386.477 419.066" stroke="#2D3352" stroke-width="1.80126" stroke-linecap="round" stroke-linejoin="round"/>
<path d="M375.716 410.456C364.639 410.456 361.769 404.644 361.769 404.644" stroke="#2D3352" stroke-width="1.80126" stroke-linecap="round" stroke-linejoin="round"/>
<path d="M389.677 404.644C389.677 404.644 386.807 410.456 375.724 410.456" stroke="#2D3352" stroke-width="1.80126" stroke-linecap="round" stroke-linejoin="round"/>
<path d="M375.724 439.15V419.066" stroke="#2D3352" stroke-width="1.80126" stroke-linecap="round" stroke-linejoin="round"/>
<path d="M395.791 419.084C395.791 424.406 393.677 429.51 389.914 433.273C386.151 437.036 381.047 439.15 375.725 439.15C370.403 439.15 365.299 437.036 361.536 433.273C357.773 429.51 355.659 424.406 355.659 419.084" stroke="#2D3352" stroke-width="1.80126" stroke-linecap="round" stroke-linejoin="round"/>
<path d="M375.724 439.15C375.724 439.15 386.477 434.857 386.477 419.084" stroke="#2D3352" stroke-width="1.80126" stroke-linecap="round" stroke-linejoin="round"/>
<path d="M375.725 439.15C375.725 439.15 364.966 434.857 364.966 419.084" stroke="#2D3352" stroke-width="1.80126" stroke-linecap="round" stroke-linejoin="round"/>
<path d="M389.677 433.506C389.677 433.506 386.807 427.694 375.724 427.694" stroke="#2D3352" stroke-width="1.80126" stroke-linecap="round" stroke-linejoin="round"/>
<path d="M361.758 433.506C361.758 433.506 364.628 427.694 375.706 427.694" stroke="#2D3352" stroke-width="1.80126" stroke-linecap="round" stroke-linejoin="round"/>
<path d="M381.574 472.335L380.151 467.7C379.879 466.82 379.333 466.05 378.591 465.503C377.85 464.957 376.953 464.662 376.032 464.662H375.384C374.463 464.662 373.566 464.957 372.825 465.503C372.084 466.05 371.537 466.82 371.265 467.7L369.836 472.335" stroke="#2D3352" stroke-width="1.80126" stroke-linecap="round" stroke-linejoin="round"/>
<path d="M375.724 472.888V469.789" stroke="#2D3352" stroke-width="1.80126" stroke-linecap="round" stroke-linejoin="round"/>
<path d="M414.446 456.1L410.393 453.446C409.62 452.945 408.706 452.706 407.786 452.763C406.866 452.82 405.989 453.171 405.284 453.764L405.038 453.968L404.785 454.178C404.08 454.771 403.584 455.574 403.367 456.47C403.151 457.366 403.228 458.307 403.585 459.156L405.47 463.623" stroke="#2D3352" stroke-width="1.80126" stroke-linecap="round" stroke-linejoin="round"/>
<path d="M410.304 460.297L408.316 457.925" stroke="#2D3352" stroke-width="1.80126" stroke-linecap="round" stroke-linejoin="round"/>
<path d="M345.992 463.653L347.878 459.192C348.235 458.343 348.311 457.402 348.095 456.506C347.879 455.611 347.382 454.808 346.677 454.215L346.431 454.004L346.184 453.794C345.478 453.203 344.601 452.853 343.682 452.796C342.763 452.739 341.849 452.977 341.075 453.476L336.998 456.112" stroke="#2D3352" stroke-width="1.80126" stroke-linecap="round" stroke-linejoin="round"/>
<path d="M341.14 460.303L343.127 457.931" stroke="#2D3352" stroke-width="1.80126" stroke-linecap="round" stroke-linejoin="round"/>
<path d="M378.708 443.563L375.706 451.086L372.704 443.563C371.071 443.364 369.462 443.004 367.9 442.488L375.706 462.116L383.511 442.488C381.95 443.006 380.341 443.367 378.708 443.563Z" fill="#00BAFE"/>
<path d="M362.275 439.757L355.154 443.599L357.7 435.92C356.574 434.716 355.569 433.404 354.697 432.005L348.051 452.053L366.646 442.038C365.116 441.425 363.652 440.661 362.275 439.757Z" fill="#00BAFE"/>
<path d="M393.744 435.914L396.296 443.599L389.169 439.751C387.791 440.651 386.327 441.411 384.798 442.02L403.411 452.047L396.758 432.005C395.885 433.404 394.875 434.713 393.744 435.914Z" fill="#00BAFE"/>
<path d="M375.72 439.15C386.802 439.15 395.786 430.166 395.786 419.084C395.786 408.002 386.802 399.018 375.72 399.018C364.638 399.018 355.654 408.002 355.654 419.084C355.654 430.166 364.638 439.15 375.72 439.15Z" stroke="#2D3352" stroke-width="1.80126" stroke-linecap="round" stroke-linejoin="round"/>
<path d="M4.16846 587.81L64.8558 551.019C67.8019 549.313 72.3152 550.007 74.7256 551.713L85.9941 558.588L77.9593 576.76L80.2805 593.712C81.7684 604.564 76.5806 617.499 68.7442 622.449L41.2474 639.828L27.5486 660.639L12.0743 650.531C11.7668 650.343 11.4692 650.134 11.1815 649.896L11.122 649.857V649.847C8.49335 647.744 6.56896 644.083 5.90436 639.183L0.0915756 597.978C-0.434158 594.139 1.40092 589.566 4.16846 587.81Z" fill="url(#paint1_linear)"/>
<path d="M37.8744 660.361L83.246 633.916C90.9931 629.403 96.4488 623.104 94.9609 612.252L88.7711 563.23C88.2454 559.391 85.5672 557.556 82.8294 559.153L19.2655 596.202C16.5178 597.799 14.7124 602.253 15.2382 606.092L21.0906 648.825C22.5686 659.697 30.1273 664.885 37.8744 660.361Z" fill="url(#paint2_linear)"/>
<path d="M63.258 602.154C62.7124 598.166 59.4886 596.559 56.0466 598.563C52.6145 600.567 50.2734 605.417 50.819 609.405C51.3646 613.393 54.5884 615 58.0305 612.996C61.4626 610.992 63.8036 606.141 63.258 602.154Z" fill="#3629A6"/>
<path d="M57.3261 601.301L56.8697 601.469C55.1735 602.074 54.1618 605.11 54.6081 608.225L56.0067 617.876C56.4531 620.991 58.2089 623.034 59.9051 622.429L60.3614 622.261C62.0576 621.656 63.0695 618.62 62.6231 615.505L61.2244 605.854C60.778 602.749 59.0223 600.696 57.3261 601.301Z" fill="#3629A6"/>
<path d="M58.7252 615.019L57.8027 608.641C59.0426 606.489 59.6676 603.939 59.3601 601.658C59.122 599.952 58.3979 598.692 57.3861 597.958C60.2826 597.025 62.7823 598.692 63.2584 602.154C63.5659 604.425 62.941 606.985 61.701 609.137L62.6236 615.515C63.07 618.63 62.0582 621.665 60.3619 622.271L59.9056 622.439C58.9732 622.776 58.0209 622.29 57.277 621.269C58.4673 620.128 59.1021 617.598 58.7252 615.019Z" fill="#4A39E3"/>
<path d="M20.8025 586.094C23.9371 587.86 28.9464 587.85 32.0016 586.074C35.0568 584.299 34.9973 581.422 31.8627 579.656C28.7282 577.891 23.7188 577.901 20.6636 579.676C17.6084 581.452 17.668 584.329 20.8025 586.094Z" fill="#4A39E3"/>
<path d="M26.2227 585.323C21.8455 585.29 18.3124 583.234 18.3313 580.73C18.3502 578.226 21.9139 576.224 26.2912 576.257C30.6684 576.29 34.2015 578.346 34.1826 580.85C34.1637 583.353 30.5999 585.356 26.2227 585.323Z" fill="#6C5DFA"/>
<path d="M52.2869 567.436C55.4214 569.201 60.4308 569.191 63.486 567.416C66.5412 565.64 66.4816 562.764 63.3471 560.998C60.2125 559.232 55.2032 559.242 52.148 561.018C49.0928 562.793 49.1523 565.67 52.2869 567.436Z" fill="#4A39E3"/>
<path d="M52.2273 565.343C55.3618 567.108 60.3712 567.098 63.4264 565.323C66.4816 563.547 66.4221 560.671 63.2875 558.905C60.153 557.139 55.1436 557.149 52.0884 558.925C49.0431 560.71 49.1027 563.577 52.2273 565.343Z" fill="#6C5DFA"/>
<path d="M21.9735 581.749C24.0665 582.93 27.4292 582.93 29.4726 581.74C31.516 580.549 31.4763 578.625 29.3833 577.444C27.2903 576.264 23.9276 576.264 21.8842 577.454C19.8408 578.645 19.8805 580.569 21.9735 581.749Z" fill="#CDD1EA"/>
<path d="M54.0233 563.071C56.1163 564.252 59.479 564.252 61.5224 563.061C63.5658 561.871 63.5262 559.947 61.4331 558.766C59.3401 557.586 55.9774 557.586 53.934 558.776C51.8906 559.966 51.9303 561.891 54.0233 563.071Z" fill="#CDD1EA"/>
<path d="M30.8717 579.18L28.5902 561.137C27.3404 554.749 29.6814 545.534 35.0875 542.3L40.6721 538.947C42.6163 537.777 44.5804 537.529 46.1973 538.233C47.4471 538.778 48.5481 539.909 49.3615 541.457C49.9567 542.568 50.294 543.798 50.4428 545.038L52.3176 560.433C53.0814 563.111 63.6952 563.111 62.9314 560.433L60.1143 542.22C58.4081 536.229 54.5296 531.537 49.4905 529.335C44.6795 527.232 39.2537 527.629 34.6014 530.416L29.0168 533.769C20.1587 539.086 16.4885 548.539 17.9764 562.744L20.4563 580.033C21.1308 582.444 31.6355 581.859 30.8717 579.18Z" fill="#D9E9FF"/>
<path d="M138.929 341.645C138.929 344.668 136.48 347.11 133.465 347.11C130.443 347.11 128.001 344.66 128.001 341.645C128.001 338.623 130.45 336.181 133.465 336.181C136.48 336.181 138.929 338.623 138.929 341.645Z" fill="#DBEFFF"/>
<path d="M222.001 292.948C222.001 295.97 219.551 298.412 216.536 298.412C213.521 298.412 211.072 295.963 211.072 292.948C211.072 289.926 213.521 287.484 216.536 287.484C219.551 287.484 222.001 289.926 222.001 292.948Z" fill="#DBEFFF"/>
<path opacity="0.71" d="M169.73 303.934L214.925 329.435C216.4 330.266 217.324 332.686 216.981 334.806L211.688 367.24L212.075 380.073L201.047 366.81L162.977 345.326C161.501 344.496 160.578 342.075 160.921 339.955L166.421 306.268C166.765 304.156 168.255 303.103 169.73 303.934Z" fill="#7DADFF"/>
<path d="M190.641 294.459L143.72 266.344C142.188 265.427 140.655 266.408 140.304 268.528L135.012 300.962L128.001 317.705L144.365 312.169L183.888 335.852C185.421 336.768 186.953 335.787 187.304 333.668L192.804 299.981C193.141 297.868 192.174 295.383 190.641 294.459Z" fill="white"/>
<path d="M155.164 294.867C154.77 297.288 152.8 298.262 150.767 297.044C148.733 295.827 147.408 292.876 147.802 290.449C148.196 288.028 150.165 287.054 152.199 288.272C154.225 289.496 155.557 292.447 155.164 294.867Z" fill="#FCDC6C"/>
<path d="M166.486 301.785C166.092 304.206 164.123 305.18 162.089 303.962C160.055 302.745 158.73 299.794 159.124 297.367C159.518 294.946 161.487 293.972 163.521 295.19C165.555 296.407 166.88 299.357 166.486 301.785Z" fill="#FCDC6C"/>
<path d="M177.808 308.696C177.414 311.116 175.445 312.09 173.411 310.873C171.377 309.656 170.052 306.705 170.446 304.277C170.84 301.857 172.81 300.883 174.843 302.1C176.877 303.325 178.202 306.275 177.808 308.696Z" fill="#FCDC6C"/>
<path d="M442.429 653.036C445.875 655.112 448.183 659.274 448.481 663.359L453.416 660.629C452.092 655.138 448.693 649.987 444.021 647.169C439.343 644.351 434.501 644.537 430.993 647.117L433.27 654.19C435.382 651.563 438.983 650.96 442.429 653.036Z" fill="#D9E1FF"/>
<path d="M427.021 634.816L429.175 641.503C433.708 638.798 439.616 638.845 445.339 642.291C451.062 645.737 455.332 651.825 457.336 658.465L461.998 655.885C461.715 655.06 461.395 654.247 461.055 653.443C458.114 646.417 453.189 640.204 446.926 636.429C439.946 632.22 432.744 631.911 427.021 634.816Z" fill="#D9E1FF"/>
<path d="M436.453 664.044C436.499 664.137 436.54 664.23 436.592 664.322C436.674 664.472 436.762 664.616 436.855 664.76C436.937 664.889 437.025 665.013 437.117 665.136C437.2 665.249 437.287 665.363 437.38 665.471C437.504 665.615 437.638 665.754 437.777 665.888C437.854 665.965 437.931 666.043 438.014 666.115C438.246 666.311 438.482 666.496 438.74 666.651C438.998 666.805 439.255 666.924 439.513 667.016C439.605 667.052 439.693 667.068 439.786 667.099C439.945 667.145 440.105 667.186 440.265 667.212C440.383 667.233 440.497 667.238 440.61 667.243C440.734 667.248 440.852 667.248 440.976 667.243C441.11 667.238 441.244 667.222 441.372 667.202C441.45 667.186 441.522 667.166 441.599 667.145C442.372 666.944 443.041 666.45 443.505 665.703C443.592 665.559 443.675 665.414 443.747 665.255C443.845 665.049 443.932 664.832 443.999 664.59C444.082 664.281 444.138 663.962 444.164 663.632C444.345 661.355 443.134 658.836 441.177 657.657C439.224 656.482 437.179 657.039 436.247 658.862C436.113 659.12 436.005 659.408 435.917 659.717C435.85 659.959 435.814 660.206 435.788 660.454C435.768 660.644 435.757 660.835 435.752 661.026C435.747 661.427 435.794 661.824 435.866 662.226C435.979 662.854 436.17 663.467 436.453 664.044Z" fill="#D9E1FF"/>
<path d="M350.223 605.13C353.669 607.206 355.977 611.368 356.275 615.453L361.21 612.723C359.886 607.232 356.487 602.081 351.814 599.263C347.137 596.445 342.295 596.631 338.787 599.211L341.064 606.284C343.176 603.657 346.777 603.054 350.223 605.13Z" fill="#D9E1FF"/>
<path d="M334.815 586.91L336.969 593.597C341.502 590.892 347.41 590.939 353.133 594.385C358.856 597.831 363.126 603.92 365.13 610.559L369.792 607.979C369.509 607.154 369.189 606.341 368.849 605.537C365.908 598.511 360.983 592.299 354.72 588.523C347.74 584.314 340.538 584.005 334.815 586.91Z" fill="#D9E1FF"/>
<path d="M344.247 616.138C344.293 616.231 344.334 616.324 344.386 616.416C344.468 616.566 344.556 616.71 344.649 616.854C344.731 616.983 344.819 617.107 344.911 617.23C344.994 617.343 345.081 617.457 345.174 617.565C345.298 617.709 345.432 617.848 345.571 617.982C345.648 618.059 345.725 618.137 345.808 618.209C346.039 618.405 346.276 618.59 346.534 618.745C346.792 618.899 347.049 619.018 347.307 619.11C347.399 619.146 347.487 619.162 347.58 619.193C347.739 619.239 347.899 619.28 348.059 619.306C348.177 619.327 348.291 619.332 348.404 619.337C348.528 619.342 348.646 619.342 348.77 619.337C348.904 619.332 349.037 619.316 349.166 619.296C349.244 619.28 349.316 619.26 349.393 619.239C350.166 619.038 350.835 618.544 351.299 617.797C351.386 617.653 351.469 617.508 351.541 617.349C351.639 617.143 351.726 616.926 351.793 616.684C351.876 616.375 351.932 616.056 351.958 615.726C352.138 613.449 350.928 610.93 348.97 609.751C347.018 608.576 344.973 609.132 344.041 610.956C343.907 611.214 343.799 611.502 343.711 611.811C343.644 612.053 343.608 612.3 343.582 612.548C343.562 612.738 343.551 612.929 343.546 613.12C343.541 613.521 343.587 613.918 343.66 614.32C343.773 614.948 343.964 615.561 344.247 616.138Z" fill="#D9E1FF"/>
<path d="M395.372 629.14C408.467 637.15 416.719 656.58 413.808 672.528C413.747 672.853 413.68 673.177 413.613 673.502C414.277 673.785 414.942 674.13 415.611 674.537C423.457 679.338 428.402 690.975 426.655 700.53C424.971 709.766 417.651 713.676 410.079 709.586L357.419 677.133C348.558 671.766 343 658.641 344.968 647.864C346.951 636.985 355.719 632.545 364.651 638.01C365.563 638.567 366.438 639.211 367.273 639.921C371.363 626.642 383.313 621.758 395.372 629.14Z" fill="#467DE4"/>
<path d="M388.969 633.426C402.063 641.436 410.316 660.866 407.405 676.814C407.343 677.139 407.276 677.463 407.209 677.788C407.874 678.071 408.538 678.416 409.208 678.823C417.053 683.624 421.998 695.26 420.252 704.816C418.568 714.052 411.248 717.962 403.676 713.872L351.015 681.419C342.155 676.052 336.597 662.927 338.565 652.15C340.548 641.271 349.315 636.831 358.247 642.296C359.159 642.852 360.035 643.496 360.869 644.207C364.965 630.927 376.91 626.044 388.969 633.426Z" fill="white"/>
<path d="M386.1 634.085C399.194 642.095 407.446 661.525 404.536 677.473C404.474 677.798 404.407 678.122 404.34 678.447C405.005 678.73 405.669 679.075 406.339 679.482C414.184 684.283 419.129 695.92 417.383 705.475C415.699 714.711 408.379 718.621 400.807 714.531L348.146 682.079C339.286 676.711 333.728 663.586 335.696 652.81C337.679 641.93 346.446 637.49 355.378 642.955C356.29 643.512 357.166 644.156 358 644.866C362.09 631.582 374.041 626.703 386.1 634.085Z" fill="#9EC2FF"/>
<path d="M377.296 700.345L363.568 691.696L368.781 662.669L382.509 671.323L377.296 700.345Z" fill="white"/>
<path d="M362.853 668.696L384.822 681.167C386.193 681.945 388.104 680.337 387.491 678.926L377.734 656.477C377.26 655.39 375.736 655.2 374.638 656.091L362.935 665.626C361.812 666.543 361.771 668.083 362.853 668.696Z" fill="white"/>
<path opacity="0.39" d="M374.798 637.335C387.892 645.346 396.145 664.776 393.234 680.724C393.172 681.048 393.105 681.373 393.038 681.697C393.703 681.981 394.367 682.326 395.037 682.733C402.882 687.534 407.828 699.17 406.081 708.726C404.397 717.962 397.077 721.871 389.505 717.781L336.844 685.329C327.984 679.961 322.426 666.836 324.394 656.06C326.377 645.181 335.144 640.74 344.077 646.206C344.988 646.762 345.864 647.406 346.699 648.117C350.794 634.832 362.739 629.954 374.798 637.335Z" fill="#D9E1FF"/>
<path d="M379.717 527.97L291 476.747L379.162 425.84L468.749 476.962L379.717 527.97Z" fill="#DBEFFF"/>
<path d="M379.717 447.65L291 396.427L379.162 345.532L468.749 396.641L379.717 447.65Z" fill="#D9E9FF"/>
<path d="M379.717 447.65L379.843 512.842L291.126 461.619V396.427L379.717 447.65Z" fill="#CFE3FF"/>
<path d="M379.717 447.65L468.749 396.641V458.757L378.166 513.056L379.717 447.65Z" fill="#B6CEED"/>
<path d="M364.816 491.636L347.103 481.324V468.048L364.816 478.361V491.636Z" fill="white"/>
<path d="M341.29 478.361L323.564 468.048V443.666L341.29 453.979V478.361Z" fill="white"/>
<path d="M300.039 454.773L317.765 465.086V424.365L300.039 414.052V454.773Z" fill="white"/>
<path d="M433.769 39.0383C433.769 39.0383 407.97 42.1832 400.261 14.0663C389.08 23.0643 377.4 14.6952 370.476 7.56334L364.243 0C358.894 1.30474 355.775 2.13125 350.395 4.70955L352.646 9.51266L353.337 10.8538C334.79 39.1527 356.04 89.2371 360.199 97.0656C364.971 106.043 373.075 120.166 373.075 120.166C373.075 120.166 389.979 120.083 397.319 117.91C404.654 115.722 451.983 93.0526 433.769 39.0383Z" fill="#A6B6E0"/>
<path d="M419.92 43.7426C419.92 43.7426 394.122 46.8876 386.413 18.7706C369.004 32.7797 350.395 4.70432 350.395 4.70432C314.33 28.2469 341.579 92.7875 346.351 101.765C349.62 107.909 354.449 116.47 357.168 121.258C358.447 123.503 360.859 124.86 363.442 124.777C368.942 124.606 378.444 124.096 383.471 122.604C390.805 120.431 438.13 97.7569 419.92 43.7426Z" fill="white"/>
<path d="M408.604 49.7674C408.604 49.7674 388.144 52.2625 382.026 29.9623C368.22 41.0709 353.462 18.807 353.462 18.807C324.862 37.4789 346.471 88.6654 350.255 95.7869C352.298 99.6283 355.079 105.04 357.21 109.214C359.144 112.998 363.256 115.15 367.471 114.573C371.651 114.007 376.693 113.201 379.692 112.312C385.514 110.586 423.05 92.6056 408.604 49.7674Z" fill="#3B2AD1"/>
<path d="M408.604 49.7674C408.604 49.7674 388.154 52.2573 382.031 29.9779L363.77 114.381C364.96 114.667 366.207 114.745 367.471 114.573C371.65 114.006 376.692 113.201 379.692 112.312C385.514 110.586 423.05 92.6056 408.604 49.7674Z" fill="#5D5FEF"/>
<path d="M358.634 52.3093L367.278 85.8843L399.517 60.0026" stroke="white" stroke-width="7.267" stroke-miterlimit="10" stroke-linecap="round" stroke-linejoin="round"/>
<path d="M640.824 318.814C641.713 312.733 639.12 307.11 634.021 304.073L555.066 256.966C550.743 254.387 546.492 257.152 545.623 263.107L537.839 316.499C537.016 322.136 539.423 327.348 544.145 330.166L616.668 373.433C623.286 377.385 633 372.445 634.154 364.548L640.824 318.814Z" fill="#D9E9FF"/>
<path d="M576.955 326.614C585.094 323.208 587.46 310.336 582.241 297.863C577.022 285.391 566.194 278.04 558.055 281.445C549.917 284.851 547.55 297.722 552.769 310.195C557.988 322.668 568.817 330.019 576.955 326.614Z" fill="white"/>
<path d="M571.935 318.827C573.434 319.788 575.649 318.396 575.443 316.612C575.251 314.882 574.906 313.244 574.508 312.521C574.157 311.871 573.679 311.36 573.262 310.91C572.831 310.445 572.274 309.782 571.736 309.146C571.557 308.934 571.378 308.715 571.199 308.509L570.119 307.163C569.966 306.924 569.807 306.686 569.654 306.447C569.628 306.407 569.568 306.334 569.548 306.281C569.548 306.195 569.568 306.095 569.581 306.016C569.641 305.452 569.694 304.889 569.754 304.325C570.311 304.073 570.709 303.476 570.921 302.687C571.703 303.204 572.041 302.137 572.234 301.381C572.366 300.844 572.632 299.484 572.048 298.954C572.075 298.868 572.101 298.788 572.128 298.715C572.293 298.271 572.446 297.807 572.519 297.289C572.592 296.772 572.585 296.182 572.433 295.605C572.4 295.473 572.347 295.327 572.274 295.214C572.313 295.035 572.287 294.81 572.254 294.597C571.988 292.973 571.193 291.501 570.271 290.579C569.349 289.664 568.321 289.246 567.333 289.087C566.604 288.968 565.609 289.047 565.404 290.32C565.377 290.486 565.391 290.645 565.424 290.804C565.291 290.738 565.172 290.818 565.086 290.924C564.82 291.242 564.681 291.733 564.621 292.263C564.562 292.794 564.582 293.364 564.621 293.934C564.628 294.02 564.628 294.12 564.635 294.219C563.885 293.729 563.819 295.367 563.812 296.043C563.806 296.878 563.872 298.138 564.575 298.636C564.575 299.007 564.602 299.385 564.668 299.769C564.767 300.326 564.933 300.824 565.152 301.281C565.152 301.288 565.145 301.295 565.145 301.301C565.086 301.878 565.026 302.455 564.966 303.039C564.96 303.085 564.96 303.184 564.953 303.237C564.946 303.198 564.807 303.291 564.774 303.304C564.648 303.357 564.522 303.41 564.396 303.463V303.456L564.071 303.397V303.39L563.991 303.37C563.779 303.324 563.56 303.291 563.335 303.271L563.308 303.264C563.023 303.237 562.738 303.224 562.46 303.211C561.949 303.191 561.452 303.058 560.948 303.052C559.701 303.045 557.864 304.1 557.221 306.904C556.923 308.217 557.4 309.497 558.468 310.207L571.935 318.827ZM572.068 301.334C572.048 301.407 572.028 301.474 572.015 301.527C572.035 301.467 572.055 301.401 572.068 301.334Z" fill="#5D5FEF"/>
<path d="M620.507 327.321L596.324 312.163L595.058 320.717L619.241 335.882L620.507 327.321Z" fill="white"/>
<path d="M594.116 327.082L592.856 335.643L629.552 358.646L630.812 350.085L594.116 327.082Z" fill="white"/>
<path d="M579.682 333.352C590.226 328.98 593.493 312.698 586.977 296.985C580.462 281.272 566.633 272.078 556.089 276.45C545.545 280.822 542.279 297.104 548.794 312.817C555.309 328.53 569.138 337.724 579.682 333.352Z" stroke="white" stroke-width="0.878871" stroke-miterlimit="10" stroke-linecap="round" stroke-linejoin="round"/>
<path opacity="0.22" d="M437.954 415.175C437.954 415.175 411.403 383.915 397.958 394.37C384.515 404.835 426.954 420.675 426.954 420.675L437.954 415.175Z" fill="#2C1F9C"/>
<path opacity="0.13" d="M289 544C317.167 544 340 532.359 340 518C340 503.641 317.167 492 289 492C260.834 492 238 503.641 238 518C238 532.359 260.834 544 289 544Z" fill="#D9E9FF"/>
<path opacity="0.13" d="M498.997 531C470.83 531 447.997 519.359 447.997 505C447.997 490.641 470.83 479 498.997 479C527.164 479 549.997 490.641 549.997 505C549.997 519.359 527.164 531 498.997 531Z" fill="#D9E9FF"/>
<path opacity="0.22" d="M354.998 433.5C354.998 433.5 381.551 419.554 374.933 403.861C368.304 388.167 340.998 425.388 340.998 425.388L354.998 433.5Z" fill="#2C1F9C"/>
<path d="M325.228 412.61C327.781 412.61 378.84 431.015 378.792 388.725C378.743 346.436 313.604 394.724 313.604 394.724L325.228 412.61Z" fill="#3B2AD1"/>
<path d="M266.439 504.2L283.193 487.181C285.458 485.832 290.565 485.217 294.058 485.627C295.624 485.807 296.828 487.108 296.961 488.674L297.262 492.059C297.852 496.925 297.43 497.636 294.443 499.418L276.737 509.958C273.75 511.728 269.173 511.981 266.547 510.512L265.8 510.09C263.163 508.633 263.464 505.971 266.439 504.2Z" fill="#040413"/>
<path d="M295.708 487.843C295.708 492.854 283.519 492.854 283.519 487.843V471.546H295.708V487.843Z" fill="#C6D2F2"/>
<path d="M298.623 522.195L313.137 503.225C315.209 501.611 320.207 500.358 323.724 500.334C325.302 500.322 326.651 501.454 326.976 502.996L327.687 506.32C328.88 511.078 328.542 511.837 325.808 513.969L309.535 526.628C306.801 528.76 302.272 529.579 299.49 528.447L298.695 528.122C295.925 526.989 295.876 524.327 298.623 522.195Z" fill="#040413"/>
<path d="M325.626 502.333C326.252 507.308 314.147 508.825 313.521 503.851L311.497 487.687L323.602 486.169L325.626 502.333Z" fill="#C6D2F2"/>
<path d="M322.833 374.031C322.833 374.031 285.084 393.351 283.507 403.408C282.121 412.237 280.604 464.512 281.483 476.798C281.616 478.557 282.651 480.134 284.241 480.893C287.975 482.676 294.732 484.627 296.997 477.003C300.177 466.259 299.081 429.534 306.693 419.03C314.305 408.527 352.078 393.7 352.078 393.7L322.833 374.031Z" fill="#3B2AD1"/>
<path d="M348.173 391.556C348.173 391.556 305.932 412.611 304.691 422.186C303.607 430.545 308.823 478.147 310.16 490.12C310.364 491.963 311.581 493.516 313.303 494.203C317.146 495.721 323.77 497.13 325.734 489.975C328.564 479.689 326.228 444.963 333.503 434.737C337.453 429.196 347.595 422.921 364.916 414.755C372.829 411.021 378.503 395.459 368.879 394.218L348.173 391.556Z" fill="#3B2AD1"/>
<path d="M311.535 315.372L303.477 346.255C302.779 349.929 301.538 355.277 300.635 361.564C299.225 371.32 302.032 381.944 308.018 389.279C308.018 389.279 310.885 374.163 313.728 367.045C318.714 354.554 322.821 339.835 322.797 339.341C322.773 338.534 311.535 315.372 311.535 315.372Z" fill="#8D371E"/>
<path d="M323.482 294.402L304.535 326.947C307.125 337.294 312.738 342.557 319.808 345.34L325.831 305.121L323.482 294.402Z" fill="#2D3352"/>
<path d="M308.848 323.02C308.848 323.02 311.895 332.018 328.89 337.824" stroke="white" stroke-width="3.588" stroke-miterlimit="10" stroke-linecap="round" stroke-linejoin="round"/>
<path d="M317.797 372.525C320.724 356.505 320.073 346.737 317.436 324.634C317.436 294.028 326.758 282.634 346.042 289.68L354.016 291.8C377.287 304.339 389.115 303.712 384.947 328.344L380.876 382.342C380.864 410.117 316.315 405.203 317.797 372.525Z" fill="#2D3352"/>
<path d="M343.019 289.897C343.019 289.897 346.066 292.703 347.608 293.028C349.149 293.354 365.687 279.984 359.701 264.988C355.907 255.496 337.972 262.928 337.972 262.928L343.019 289.897Z" fill="#2C1F9C"/>
<path d="M348.487 302.99L347.56 303.146C344.44 303.676 341.441 301.556 340.911 298.425L337.924 280.803C337.394 277.683 339.514 274.684 342.646 274.154L343.573 273.997C346.693 273.467 349.692 275.587 350.222 278.719L355.582 295.233C356.1 298.352 351.607 302.46 348.487 302.99Z" fill="#8D371E"/>
<path d="M339.936 292.667C339.936 292.667 347.512 292.836 352.438 285.573C352.438 285.573 347.668 296.642 340.767 297.593L339.936 292.667Z" fill="#59200F"/>
<path d="M345.609 283.91C343.85 292.33 337.9 295.1 332.299 290.101C326.71 285.103 323.59 274.226 325.349 265.807C327.108 257.387 333.058 254.617 338.659 259.616C344.26 264.614 347.367 275.491 345.609 283.91Z" fill="#8D371E"/>
<path d="M354.1 280.646C352.342 289.066 343.73 292.703 338.141 287.705C332.552 282.706 329.432 271.829 331.191 263.41C332.949 254.991 338.9 252.22 344.501 257.219C350.089 262.217 355.859 272.227 354.1 280.646Z" fill="#8D371E"/>
<path d="M341.718 263C341.718 263 342.573 278.924 355.545 280.333C355.545 280.333 368.144 269.914 355.353 256.605C344.078 244.873 331.299 257.412 331.299 257.412L341.718 263Z" fill="#2C1F9C"/>
<path d="M324.879 269.818C324.879 269.818 328.059 263.591 336.755 262.675L331.299 257.4C331.299 257.4 324.47 257.363 324.879 269.818Z" fill="#21DED5"/>
<path d="M349.752 271.083C346.222 267.698 339.935 269.047 331.491 274.082C323.241 276.009 320.458 266.65 320.458 266.65C318.278 261.784 321.253 258.917 326.119 256.737L338.791 251.052C345.945 247.788 354.256 252.726 356.437 257.592L356.93 258.375C359.098 263.229 354.618 268.902 349.752 271.083Z" fill="#2C1F9C"/>
<path d="M356.485 282.537C356.063 284.585 354.052 285.898 352.004 285.476C349.956 285.055 348.644 283.043 349.065 280.996C349.487 278.948 351.498 277.635 353.546 278.057C355.605 278.49 356.918 280.49 356.485 282.537Z" fill="#8D371E"/>
<path d="M339.935 292.667C339.935 292.667 333.539 301.592 342.561 305.435C356.858 311.517 361.29 295.341 359.062 294.402L354.545 292.065C354.545 292.065 357.665 296.509 353.112 300.34C349.751 303.17 343.717 303.773 341.115 299.352L339.935 292.667Z" fill="white"/>
<path d="M364.266 324.622V377.042L373.938 371.369L364.266 324.622Z" fill="#040413"/>
<path d="M353.836 397.41L349.367 395.832L348.837 395.302L348.5 394.7L314.811 377.186C314.401 376.97 313.739 377.006 313.317 377.247L300.453 384.787L300.429 384.582L298.008 385.558L298.116 386.557H298.128C298.176 386.654 298.261 386.75 298.393 386.81L333.456 405.046C333.504 405.07 333.528 405.119 333.552 405.179C334.287 407.865 335.504 410.262 337.792 408.877L352.041 400.481C353.174 399.855 353.848 398.711 353.836 397.41Z" fill="#A8C4E5"/>
<path d="M334.902 407.829L294.528 386.834C294.058 386.594 294.07 386.16 294.552 385.883L311.704 375.825C312.185 375.548 312.956 375.512 313.426 375.753L353.801 396.747C354.27 396.988 354.258 397.422 353.777 397.699L336.625 407.757C336.143 408.046 335.372 408.07 334.902 407.829Z" fill="#E1EAF4"/>
<path d="M336.034 394.302L326.266 389.219C326.157 389.159 326.157 389.063 326.266 388.99L330.421 386.557C330.542 386.485 330.722 386.485 330.843 386.545L340.611 391.628C340.72 391.689 340.72 391.785 340.611 391.857L336.456 394.29C336.335 394.363 336.143 394.363 336.034 394.302Z" fill="#A8C4E5"/>
<path d="M331.36 384.209C331.095 383.257 330.192 382.113 329.325 381.679L289.275 361.167C288.914 360.986 288.625 360.95 288.42 361.034C288.348 361.07 288.287 361.119 288.239 361.179L287.119 362.431L288.251 362.335L294.262 384.522C294.527 385.473 295.43 386.618 296.297 387.051L334.167 406.456L335.455 407.696L335.636 407.997C336.371 408.142 337.985 406.974 337.985 406.974L331.36 384.209Z" fill="white"/>
<path d="M335.143 408.901C335.143 408.901 293.323 386.81 293.07 385.847L286.999 363.419C286.734 362.468 287.228 362.046 288.095 362.48L328.145 382.992C329.012 383.438 329.915 384.57 330.18 385.521L336.251 407.949C336.492 408.925 336.01 409.346 335.143 408.901Z" fill="#9EC2FF"/>
<path d="M312.691 387.184C313.016 388.376 311.908 388.641 310.222 387.774C308.535 386.907 306.909 385.245 306.584 384.052C306.259 382.86 307.367 382.595 309.053 383.462C310.739 384.329 312.366 386.003 312.691 387.184Z" fill="white"/>
<path d="M365.844 324.622L371.156 371.61C371.361 374.127 332.732 386.509 332.732 386.509L335.985 400.12L375.492 390.002C385.935 385.618 385.658 377.632 385.549 371.08L384.815 330.368L365.844 324.622Z" fill="#8D371E"/>
<path d="M364.675 329.765L368.012 364.563C368.999 367.442 394.992 361.504 393.968 357.204C393.788 356.445 391.114 314.745 379.442 305.218C369.963 297.485 362.363 313.71 364.675 329.765Z" fill="#2D3352"/>
<path d="M367.928 355.349C367.928 355.349 378.696 358.143 392.042 348.339" stroke="white" stroke-width="3.588" stroke-miterlimit="10" stroke-linecap="round" stroke-linejoin="round"/>
<path d="M414.793 258.515C414.793 258.515 399.752 253.308 395.453 266.394C391.154 279.481 398.076 285.696 391.394 294.055C384.712 302.413 377.715 323.644 388.847 326.518C399.992 329.393 405.955 324.614 404.758 315.789C403.56 306.952 402.085 305.805 407.329 298.707C412.574 291.609 414.793 258.515 414.793 258.515Z" fill="#040413"/>
<path d="M497.118 501.279L479.19 486.566C476.871 485.495 471.866 485.419 468.537 486.188C467.05 486.529 466.016 487.903 466.054 489.428L466.117 492.731C466.041 497.497 466.533 498.14 469.596 499.552L487.789 507.91C490.852 509.322 495.302 509.083 497.685 507.406L498.366 506.927C500.736 505.225 500.181 502.691 497.118 501.279Z" fill="#2C1F9C"/>
<path d="M437.297 385.822C437.297 385.822 476.253 406.889 477.791 416.66C479.14 425.232 477.842 475.233 477.842 487.197C477.842 494.635 466.899 492.568 467.075 487.184C467.441 476.304 464.049 438.621 456.649 428.422C449.261 418.223 412.574 403.813 412.574 403.813L437.297 385.822Z" fill="#FFC2B0"/>
<path d="M516.533 490.462L498.605 475.749C496.286 474.678 491.281 474.602 487.952 475.371C486.465 475.712 485.431 477.086 485.469 478.611L485.532 481.914C485.456 486.68 485.948 487.323 489.011 488.735L507.204 497.093C510.267 498.505 514.717 498.266 517.1 496.589L517.781 496.11C520.151 494.396 519.596 491.861 516.533 490.462Z" fill="#2C1F9C"/>
<path d="M456.712 374.993C456.712 374.993 493.399 395.253 494.937 405.023C496.286 413.596 497.257 464.403 497.257 476.367C497.257 483.805 486.314 481.738 486.49 476.355C486.856 465.475 483.464 427.792 476.064 417.592C468.676 407.393 431.989 392.983 431.989 392.983L456.712 374.993Z" fill="#FFC2B0"/>
<path d="M445.328 362.184C459.725 377.817 485.696 380.855 497.219 399.829C502.779 408.982 464.629 409.562 455.262 428.094C455.262 428.094 419.13 409.612 408.83 402.729C406.788 401.354 405.048 399.589 403.8 397.459C400.711 392.202 396.601 381.221 401.48 364.314C408.603 339.617 445.328 362.184 445.328 362.184Z" fill="#3B2AD1"/>
<path d="M446.185 362.234C447.067 346.727 445.743 340.298 446.828 321.16C445.403 298.303 445.012 292 427.186 291.407L422.508 292.97C420.277 293.714 418.121 294.698 416.104 295.908C394.546 308.78 390.108 311.528 391.911 324.778C392.301 331.649 397.344 323.959 397.067 328.573C396.714 334.385 393.159 347.37 397.307 369.71C397.899 372.875 398.756 377.527 401.429 379.304C413.015 387.007 442.377 371.828 446.185 362.234Z" fill="#E655BE"/>
<path d="M425.534 301.871C425.988 305.653 425.383 308.238 419.079 309.536C413.633 310.671 406.523 302.111 409.359 299.564C411.969 297.232 411.54 298.101 416.936 296.727C422.345 295.366 424.765 295.391 425.534 301.871Z" fill="white"/>
<path d="M422.924 295.479C422.924 295.479 419.81 298.051 418.298 298.278C416.785 298.505 401.429 284.599 408.073 270.353C412.284 261.326 429.316 269.546 429.316 269.546L422.924 295.479Z" fill="#040413"/>
<path d="M417.15 307.343L417.919 307.519C420.529 308.112 423.138 306.473 423.744 303.863L427.097 289.176C427.69 286.566 426.051 283.956 423.441 283.351L422.672 283.175C420.062 282.582 417.453 284.221 416.847 286.831L411.552 300.472C410.96 303.081 414.54 306.737 417.15 307.343Z" fill="#FFC2B0"/>
<path d="M425.319 297.748C425.319 297.748 418.94 297.522 415.133 291.193C415.133 291.193 418.612 300.736 424.387 301.858L425.319 297.748Z" fill="#F09A82"/>
<path d="M423.29 263.633C427.21 260.507 431.093 260.961 433.539 264.213C437.372 263.873 440.536 267.1 441.419 273.038C442.667 281.321 439.036 291.722 433.325 296.273C429.328 299.45 425.382 298.921 422.937 295.504C418.247 295.757 413.569 291.987 412.649 285.885C411.414 277.602 417.566 268.185 423.29 263.633Z" fill="#FFC2B0"/>
<path d="M425.66 269.395C425.66 269.395 423.945 284.826 411.263 285.494C411.263 285.494 399.588 274.665 412.75 262.423C424.362 251.631 436.099 264.529 436.099 264.529L425.66 269.395Z" fill="#040413"/>
<path d="M417.415 276.821C421.033 273.719 433.136 276.745 441.066 282.103C445.352 283.364 445.541 279.304 444.066 274.513C442.226 268.55 438.128 263.533 432.833 260.217L429.177 257.922C422.395 254.355 411.527 261.969 409.132 266.584L413.872 268.033C411.477 272.648 412.801 274.425 417.415 276.821Z" fill="#040413"/>
<path d="M410.229 287.587C410.532 289.604 412.41 290.991 414.427 290.688C416.444 290.386 417.831 288.507 417.529 286.49C417.226 284.473 415.347 283.086 413.33 283.389C411.313 283.691 409.926 285.57 410.229 287.587Z" fill="#FFC2B0"/>
<path d="M433.653 290.045L426.127 290.878C426.127 290.878 427.905 295.643 430.06 294.987C432.229 294.319 433.653 290.045 433.653 290.045Z" fill="white"/>
<path d="M454.998 319.5L458.498 331.5L460.62 345.278C461.288 348.845 458.552 365.676 456.712 374.993C454.858 384.385 453.925 376.758 448.113 383.881L451.114 356.523C451.48 353.182 451.265 349.816 450.458 346.551C448.656 339.176 445.466 326.052 445.479 325.711C445.504 324.93 454.998 319.5 454.998 319.5Z" fill="#FFC2B0"/>
<path d="M424.564 386.869L428.913 385.343L429.417 384.826L429.745 384.246L462.461 367.227C462.852 367.025 463.507 367.05 463.911 367.29L476.404 374.615L476.43 374.413L478.787 375.358L478.686 376.329H478.674C478.636 376.417 478.548 376.506 478.409 376.581L444.357 394.282C444.307 394.307 444.281 394.345 444.269 394.408C443.563 397.018 442.365 399.35 440.146 397.988L426.316 389.831C425.207 389.239 424.551 388.117 424.564 386.869Z" fill="#A8C4E5"/>
<path d="M442.957 396.98L482.166 376.594C482.62 376.354 482.607 375.938 482.14 375.674L465.474 365.903C465.007 365.626 464.263 365.6 463.81 365.84L424.601 386.226C424.147 386.465 424.16 386.881 424.626 387.146L441.293 396.917C441.747 397.194 442.503 397.219 442.957 396.98Z" fill="#E1EAF4"/>
<path d="M441.861 383.856L451.354 378.926C451.467 378.863 451.467 378.762 451.354 378.699L447.32 376.329C447.206 376.266 447.03 376.253 446.916 376.317L437.423 381.246C437.31 381.309 437.31 381.41 437.423 381.473L441.457 383.843C441.571 383.906 441.747 383.906 441.861 383.856Z" fill="#A8C4E5"/>
<path d="M446.399 374.035C446.651 373.102 447.534 372.005 448.366 371.576L487.259 351.657C487.6 351.48 487.89 351.443 488.079 351.531C488.154 351.569 488.205 351.606 488.255 351.67L489.339 352.892L488.243 352.804L482.405 374.35C482.153 375.283 481.271 376.38 480.439 376.808L443.664 395.643L442.415 396.841L442.239 397.131C441.52 397.27 439.957 396.135 439.957 396.135L446.399 374.035Z" fill="white"/>
<path d="M442.718 398.026C442.718 398.026 483.326 376.569 483.578 375.636L489.478 353.85C489.73 352.918 489.251 352.514 488.419 352.943L449.526 372.862C448.694 373.291 447.811 374.388 447.559 375.321L441.659 397.106C441.407 398.051 441.886 398.455 442.718 398.026Z" fill="#9EBBDE"/>
<path d="M464.529 376.934C464.213 378.094 465.285 378.346 466.924 377.514C468.563 376.682 470.139 375.056 470.454 373.909C470.769 372.749 469.698 372.497 468.059 373.329C466.42 374.161 464.844 375.774 464.529 376.934Z" fill="white"/>
<path d="M404.152 321.047L410.216 357.885C410.166 360.179 444.382 379.519 444.382 379.519L442.906 385.23L407.518 370.492C396.449 365.449 396.348 355.489 396.046 349.476L393.474 318.676L404.152 321.047Z" fill="#FFC2B0"/>
<path d="M391.003 329.998L394.054 353.271C394.81 355.225 413.091 352.375 412.271 349.476C412.133 348.959 409.41 321.122 400.963 314.302C394.104 308.755 389.049 319.231 391.003 329.998Z" fill="#E655BE"/>
<path d="M436.099 323.593L441.483 334.019C442.63 335.772 459.889 329.103 458.477 326.43C458.225 325.963 449.64 299.337 439.945 294.471C432.053 290.512 431.901 313.495 436.099 323.593Z" fill="#E655BE"/>
<defs>
<linearGradient id="paint0_linear" x1="688.457" y1="629.208" x2="712.485" y2="591.046" gradientUnits="userSpaceOnUse">
<stop stop-color="#4432DB"/>
<stop offset="0.1725" stop-color="#693DDA"/>
<stop offset="0.5664" stop-color="#B955D8"/>
<stop offset="0.8463" stop-color="#EC63D7"/>
<stop offset="0.9837" stop-color="#FF69D7"/>
</linearGradient>
<linearGradient id="paint1_linear" x1="87.2383" y1="605.336" x2="0.286567" y2="607.642" gradientUnits="userSpaceOnUse">
<stop offset="0.1983" stop-color="#7C6EFF"/>
<stop offset="1" stop-color="#3C3CB5"/>
</linearGradient>
<linearGradient id="paint2_linear" x1="76.1667" y1="580.381" x2="32.1966" y2="645.065" gradientUnits="userSpaceOnUse">
<stop offset="0.1983" stop-color="#ABA1FF"/>
<stop offset="1" stop-color="#6A69DE"/>
</linearGradient>
</defs>
</svg>
