<svg width="40" height="33" viewBox="0 0 40 33" fill="none" xmlns="http://www.w3.org/2000/svg">
<path d="M39.3125 28H37V18C37 16.9375 36.1875 16.0625 35.1875 16.0625H20.75C19.75 16 19 16.9375 19 18V28H16.625C16.25 28 16 28.3125 16 28.6875V29.375C16 30.8125 17.1875 32 18.625 32.0625H37.3125C38.75 32 39.9375 30.8125 40 29.375V28.6875C40 28.3125 39.6875 28 39.3125 28ZM34 28H22V19H34V28ZM16.9375 18H12.9375C12.375 18 11.9375 17.5625 11.9375 17.0625V13C11.9375 12.5 12.375 12.0625 12.9375 12.0625H16.875C17.4375 12.0625 17.875 12.5625 17.875 13V15.375C18.6875 14.5625 19.6875 14 20.75 14H30C29.9375 13.5 29.75 12.9375 29.3125 12.5625L25.9375 9.4375V3.0625C25.9375 2.5 25.5 2.0625 24.9375 2.0625H22.9375C22.4375 2.0625 22 2.5625 22 3.0625V5.75L16.3125 0.5625C15.9375 0.1875 15.4375 0.0625 14.9375 0.0625C14.4375 0.0625 13.9375 0.1875 13.5625 0.5625L0.5625 12.5C0.1875 12.9375 0 13.5 0 14C0 15.125 0.875 16 1.9375 16H3.875V22.9375C3.875 24.5625 5.1875 25.875 6.875 25.875H16.875L16.9375 18Z" fill="#5D5FEF"/>
</svg>
