<svg width="251" height="88" viewBox="0 0 251 88" fill="none" xmlns="http://www.w3.org/2000/svg">
<path d="M117.745 38.8031C117.745 34.7755 117.745 30.748 117.746 26.7204C117.746 26.4462 117.748 26.1728 117.756 25.8986C117.761 25.7186 117.857 25.6132 118.05 25.5584C118.129 25.5361 118.208 25.5053 118.288 25.4958C119.267 25.3853 120.232 25.171 121.219 25.1213C122.107 24.9217 123.023 25.0159 123.916 24.8634C124.13 24.8266 124.353 24.8326 124.572 24.8308C125.285 24.8257 125.997 24.818 126.71 24.8291C127.037 24.8343 127.364 24.8797 127.691 24.9088C127.827 24.9208 127.964 24.9414 128.1 24.9482C129.754 25.0374 131.353 25.4058 132.903 25.9637C134.569 26.5627 136.081 27.4436 137.392 28.6408C138.145 29.3272 138.77 30.1258 139.32 30.9819C140.249 32.431 140.806 34.0214 141.118 35.7096C141.359 37.0095 141.465 38.3164 141.39 39.6318C141.35 40.3396 141.262 41.0457 141.148 41.7492C141.021 42.5376 140.827 43.3046 140.568 44.0544C139.581 46.9148 137.786 49.1171 135.158 50.6313C133.575 51.5431 131.869 52.1121 130.077 52.4429C128.888 52.6622 127.693 52.7933 126.485 52.7856C125.498 52.7796 124.511 52.7668 123.525 52.7454C123.225 52.7385 122.925 52.6931 122.626 52.664C122.517 52.6537 122.409 52.6297 122.299 52.6254C121.148 52.5817 120.016 52.3606 118.872 52.2432C118.845 52.2406 118.818 52.2381 118.791 52.2312C117.626 51.9441 117.734 52.3323 117.733 50.9681C117.73 46.9131 117.732 42.8581 117.732 38.8031C117.736 38.8031 117.74 38.8031 117.745 38.8031ZM123.951 38.774C123.954 38.774 123.958 38.774 123.961 38.774C123.961 41.3756 123.96 43.9772 123.962 46.578C123.962 46.7965 123.972 47.0151 123.982 47.2336C123.988 47.3407 124.085 47.453 124.181 47.4607C124.754 47.5104 125.325 47.5626 125.898 47.6038C126.502 47.6475 127.099 47.5395 127.699 47.5009C128.552 47.4461 129.379 47.2687 130.181 46.9782C132.424 46.1658 133.884 44.6148 134.541 42.3157C134.851 41.2308 135.002 40.1245 135.007 38.9959C135.009 38.3104 134.966 37.6317 134.878 36.9504C134.775 36.1586 134.607 35.3857 134.322 34.6436C133.956 33.6872 133.432 32.8226 132.678 32.1182C131.905 31.3967 130.995 30.8902 129.993 30.574C128.919 30.2347 127.814 30.0427 126.682 30.0521C126.024 30.0573 125.366 30.0581 124.71 30.0761C123.955 30.0975 123.952 30.1044 123.951 30.8868C123.949 33.5167 123.951 36.1449 123.951 38.774Z" fill="#E0EBFF"/>
<path d="M202.142 38.6761C202.142 38.9392 202.141 39.0489 202.142 39.1586C202.156 40.6196 201.913 42.0421 201.536 43.4509C201.099 45.0868 200.383 46.583 199.364 47.9292C197.96 49.7854 196.185 51.159 193.992 51.9765C192.594 52.4984 191.152 52.788 189.657 52.7863C189.191 52.7863 188.725 52.7932 188.26 52.7709C185.728 52.6475 183.43 51.8471 181.406 50.3184C179.617 48.9661 178.34 47.2051 177.472 45.1476C176.949 43.906 176.66 42.6 176.447 41.2709C176.243 39.9889 176.302 38.7052 176.32 37.419C176.556 34.7574 177.291 32.2663 178.83 30.046C180.213 28.0527 182.029 26.6174 184.284 25.7245C185.31 25.3183 186.369 25.0818 187.461 24.9369C188.171 24.8427 188.878 24.799 189.59 24.8238C192.556 24.9241 195.236 25.8153 197.528 27.7425C198.607 28.65 199.478 29.7392 200.18 30.9603C201.133 32.6176 201.707 34.4009 201.986 36.2921C202.111 37.1379 202.131 37.982 202.142 38.6761ZM189.117 47.3517C189.499 47.3294 189.887 47.3405 190.264 47.2788C191.891 47.0132 193.156 46.1717 194.086 44.816C194.959 43.5426 195.368 42.1081 195.55 40.5956C195.579 40.3514 195.592 40.1046 195.612 39.8595C195.636 39.5605 195.676 39.2614 195.68 38.9615C195.698 37.8903 195.565 36.8303 195.338 35.7874C195.081 34.6014 194.632 33.4874 193.889 32.5096C193.556 32.0717 193.179 31.6776 192.726 31.3588C191.092 30.2088 189.305 29.9817 187.408 30.513C186.179 30.8575 185.209 31.5824 184.459 32.6185C183.889 33.4068 183.505 34.2783 183.244 35.2047C182.907 36.3958 182.789 37.6212 182.762 38.8535C182.754 39.2605 182.842 39.6693 182.853 40.0789C182.868 40.6291 182.946 41.1698 183.065 41.7036C183.315 42.8339 183.704 43.9077 184.371 44.8691C184.928 45.6721 185.615 46.3234 186.499 46.7518C187.324 47.1529 188.191 47.3791 189.117 47.3517Z" fill="#E0EBFF"/>
<path d="M206.425 38.8366C206.425 34.7276 206.425 30.6186 206.426 26.5096C206.426 26.2363 206.436 25.962 206.445 25.6887C206.448 25.5901 206.55 25.4762 206.648 25.4599C206.945 25.4102 207.241 25.3468 207.54 25.3211C208.031 25.2791 208.526 25.2842 209.01 25.1694C210.024 25.1591 211.025 24.9577 212.041 24.9534C212.395 24.9517 212.749 24.8969 213.104 24.8694C213.323 24.8532 213.541 24.8343 213.761 24.8326C214.39 24.8257 215.021 24.8249 215.652 24.8249C216.008 24.8249 216.362 24.8369 216.715 24.9072C216.929 24.95 217.151 24.9414 217.37 24.9637C219.046 25.1368 220.66 25.5344 222.148 26.3485C223.169 26.9064 224.057 27.6245 224.741 28.5808C225.306 29.3701 225.71 30.2313 225.963 31.1645C226.231 32.1482 226.322 33.1508 226.315 34.1714C226.309 35.0823 226.2 35.9744 225.961 36.8485C225.488 38.5769 224.524 39.9677 223.054 41.0012C222.897 41.1117 222.733 41.212 222.575 41.3191C222.301 41.505 222.272 41.6139 222.427 41.9412C222.707 42.5351 222.987 43.1298 223.278 43.7193C224.454 46.1008 225.635 48.4805 226.812 50.8619C226.994 51.2295 227.167 51.6023 227.341 51.9733C227.389 52.0761 227.31 52.2107 227.205 52.2184C227.15 52.2227 227.096 52.2304 227.041 52.2304C225.013 52.2312 222.985 52.2312 220.957 52.2304C220.93 52.2304 220.902 52.2278 220.875 52.2278C220.661 52.2312 220.509 52.1335 220.415 51.945C220.146 51.406 219.876 50.8679 219.611 50.3263C218.696 48.4573 217.784 46.5866 216.87 44.7168C216.63 44.2249 216.387 43.7339 216.142 43.2446C216.076 43.1126 215.967 43.0372 215.815 43.0381C214.884 43.0398 213.953 43.0424 213.02 43.0449C212.994 43.0449 212.966 43.0527 212.94 43.0552C212.84 43.0664 212.722 43.1701 212.717 43.2635C212.705 43.5094 212.692 43.7553 212.693 44.0013C212.696 46.5489 212.703 49.0966 212.707 51.6442C212.707 51.7531 212.696 51.8628 212.689 51.9716C212.684 52.0539 212.557 52.1935 212.479 52.2013C212.371 52.2115 212.262 52.2295 212.153 52.2295C210.399 52.2312 208.645 52.2312 206.891 52.2287C206.784 52.2287 206.674 52.2081 206.57 52.1773C206.525 52.1644 206.479 52.1087 206.463 52.0616C206.436 51.9862 206.422 51.9022 206.419 51.8216C206.413 51.5748 206.414 51.3289 206.414 51.0821C206.414 47.0005 206.414 42.919 206.414 38.8374C206.418 38.8366 206.422 38.8366 206.425 38.8366ZM212.689 34.0112C212.689 34.7773 212.689 35.5434 212.689 36.3095C212.689 36.6651 212.692 37.0207 212.689 37.3764C212.685 37.9171 212.764 37.9676 213.316 37.9633C213.863 37.9582 214.411 37.9531 214.959 37.9522C215.732 37.9505 216.483 37.7962 217.218 37.5837C217.582 37.4783 217.938 37.3095 218.26 37.1098C219.04 36.6274 219.544 35.9341 219.716 35.0189C219.879 34.1543 219.872 34.0583 219.738 33.15C219.572 32.0317 218.959 31.2484 217.974 30.7343C217.184 30.3212 216.328 30.1379 215.45 30.0856C214.685 30.0402 213.917 30.0633 213.151 30.0564C213.124 30.0564 213.096 30.059 213.069 30.0607C212.821 30.0744 212.706 30.1764 212.697 30.4001C212.69 30.5912 212.689 30.7831 212.689 30.9742C212.689 31.9863 212.689 32.9992 212.689 34.0112Z" fill="#E0EBFF"/>
<path d="M237.473 47.7957C237.473 49.0562 237.474 50.3167 237.471 51.5764C237.47 51.7392 237.449 51.9029 237.423 52.064C237.416 52.1086 237.36 52.1609 237.315 52.1789C237.24 52.208 237.156 52.2234 237.075 52.2251C236.691 52.2311 236.307 52.2311 235.924 52.2311C234.664 52.232 233.402 52.232 232.142 52.2311C231.922 52.2311 231.703 52.2294 231.484 52.22C231.27 52.2114 231.14 52.076 231.13 51.8498C231.119 51.6313 231.118 51.4119 231.118 51.1925C231.117 49.0828 231.114 46.973 231.119 44.8632C231.12 44.5085 231.158 44.1528 231.172 43.7981C231.185 43.4973 231.195 43.1956 231.196 42.8949C231.197 37.4971 231.196 32.0993 231.196 26.7014C231.196 26.4547 231.197 26.2079 231.197 25.9619C231.196 25.4443 231.283 25.4855 231.711 25.3963C231.897 25.3569 232.089 25.3329 232.28 25.3192C232.744 25.2858 233.206 25.2318 233.669 25.1881C234.459 25.1127 235.251 25.0596 236.042 24.9902C236.695 24.9327 237.353 24.9199 238.008 24.8608C238.716 24.7965 239.432 24.8213 240.145 24.8248C241.464 24.8299 242.766 25.0056 244.048 25.3064C245.283 25.596 246.45 26.0588 247.511 26.77C248.34 27.327 249.038 28.0117 249.602 28.8369C250.214 29.7341 250.567 30.7333 250.808 31.7822C251.019 32.7 250.997 33.6306 250.999 34.5621C251.003 35.7275 250.764 36.8432 250.349 37.9281C249.846 39.2418 249.021 40.3146 247.929 41.187C247.152 41.8074 246.278 42.2582 245.343 42.5958C244.046 43.0645 242.713 43.3405 241.334 43.4065C240.733 43.4347 240.137 43.5478 239.532 43.5093C239.204 43.4887 238.877 43.4613 238.549 43.445C238.276 43.4313 238.002 43.4236 237.729 43.421C237.593 43.4202 237.479 43.5444 237.472 43.6884C237.466 43.7981 237.462 43.9069 237.462 44.0166C237.461 45.2771 237.462 46.5377 237.462 47.7974C237.467 47.7957 237.469 47.7957 237.473 47.7957ZM237.461 34.155C237.461 35.2502 237.461 36.3445 237.461 37.4396C237.461 37.6582 237.461 37.8775 237.469 38.0961C237.478 38.348 237.573 38.4585 237.809 38.462C238.384 38.4697 238.959 38.4671 239.534 38.4671C240.169 38.468 240.78 38.342 241.391 38.1766C241.928 38.0318 242.419 37.809 242.876 37.4979C243.408 37.1354 243.816 36.6744 244.104 36.0943C244.377 35.5424 244.478 34.9537 244.535 34.3547C244.58 33.8885 244.506 33.4284 244.407 32.9716C244.213 32.0778 243.765 31.358 243.008 30.8301C242.222 30.2826 241.337 30.0289 240.405 29.9055C240.134 29.8695 239.855 29.8858 239.588 29.8378C239.043 29.7401 238.496 29.7804 237.949 29.7855C237.895 29.7864 237.841 29.8001 237.787 29.8078C237.611 29.8344 237.484 29.9621 237.476 30.1326C237.467 30.3237 237.463 30.5156 237.462 30.7067C237.461 31.8559 237.461 33.0059 237.461 34.155Z" fill="#E0EBFF"/>
<path d="M166.671 52.7693C166.259 52.7693 165.847 52.7908 165.438 52.7659C162.985 52.6142 160.706 51.9236 158.66 50.5328C157.139 49.4984 155.941 48.1702 155.017 46.5814C154.224 45.2164 153.744 43.745 153.417 42.2085C153.073 40.5864 153.018 38.9453 153.144 37.306C153.316 35.0703 153.915 32.9451 155.053 30.9947C155.733 29.8293 156.573 28.7959 157.602 27.9072C159.327 26.417 161.316 25.5181 163.544 25.1042C164.514 24.9234 165.489 24.8103 166.479 24.8163C167.91 24.8248 169.314 25.0254 170.7 25.3741C171.873 25.6698 172.995 26.1025 174.068 26.6578C174.214 26.7332 174.356 26.8155 174.496 26.9012C174.692 27.022 174.731 27.1805 174.613 27.3896C174.506 27.5807 174.399 27.7727 174.281 27.9569C173.571 29.0632 172.86 30.1678 172.146 31.2715C172.073 31.3855 171.986 31.4935 171.893 31.592C171.837 31.6511 171.756 31.6863 171.669 31.646C171.274 31.4592 170.885 31.2561 170.483 31.0864C169.8 30.7968 169.09 30.5997 168.348 30.5277C167.912 30.4857 167.484 30.4035 167.042 30.4009C166.214 30.3966 165.403 30.5054 164.605 30.7111C162.837 31.1653 161.523 32.2004 160.664 33.8149C160.262 34.5707 160.006 35.3737 159.835 36.21C159.718 36.7764 159.69 37.348 159.639 37.9205C159.565 38.7705 159.617 39.6172 159.691 40.4595C159.806 41.7835 160.178 43.0389 160.895 44.1718C161.718 45.4743 162.878 46.3518 164.347 46.8017C165.107 47.0339 165.888 47.183 166.691 47.1753C166.993 47.1727 167.294 47.1779 167.595 47.1762C169.163 47.1693 170.62 46.746 171.995 46.0082C172.163 45.9182 172.328 45.8222 172.5 45.7408C172.538 45.7228 172.62 45.7408 172.646 45.7716C172.732 45.8753 172.813 45.9867 172.876 46.1059C173.231 46.7845 173.579 47.4684 173.934 48.1479C174.212 48.6818 174.499 49.2122 174.779 49.7452C174.842 49.8661 174.899 49.9912 174.955 50.1154C175.009 50.2345 174.957 50.3888 174.838 50.4745C174.793 50.5062 174.751 50.5422 174.706 50.5713C173.333 51.4548 171.842 52.0555 170.254 52.4231C169.077 52.6974 167.881 52.8208 166.671 52.7693Z" fill="#E0EBFF"/>
<path d="M112.976 38.8573C112.976 42.9663 112.977 47.0744 112.976 51.1834C112.976 51.4568 112.96 51.7293 112.948 52.0026C112.944 52.096 112.826 52.2006 112.725 52.2083C112.589 52.2186 112.453 52.2306 112.317 52.2306C110.672 52.2323 109.029 52.2323 107.384 52.2306C107.248 52.2306 107.112 52.2152 106.976 52.2032C106.881 52.1946 106.777 52.0823 106.768 51.9812C106.76 51.8998 106.75 51.8184 106.748 51.737C106.745 51.545 106.747 51.3539 106.747 51.162C106.75 42.9175 106.754 34.6721 106.759 26.4275C106.759 26.1816 106.772 25.9357 106.784 25.6897C106.789 25.5895 106.898 25.4841 106.999 25.4764C107.136 25.4661 107.272 25.4541 107.408 25.4541C109.053 25.4524 110.696 25.4532 112.341 25.4532C112.45 25.4532 112.56 25.4566 112.669 25.4626C112.814 25.4704 112.935 25.58 112.946 25.7103C112.953 25.7917 112.963 25.874 112.964 25.9554C112.966 26.1748 112.965 26.3933 112.965 26.6126C112.965 30.6942 112.965 34.7758 112.965 38.8565C112.968 38.8573 112.972 38.8573 112.976 38.8573Z" fill="#E0EBFF"/>
<path d="M191.076 68.6672C190.528 68.6732 189.982 68.6569 189.451 68.4864C188.159 68.0716 187.397 67.1804 187.091 65.8805C187.055 65.7245 187.075 65.5548 187.074 65.392C187.073 65.2926 187.156 65.2335 187.228 65.2249C187.499 65.1941 187.773 65.1829 188.046 65.1684C188.126 65.1641 188.257 65.2763 188.284 65.3672C188.324 65.4983 188.355 65.6311 188.392 65.7622C188.569 66.3758 188.948 66.8274 189.516 67.1102C190.443 67.572 191.409 67.632 192.388 67.3055C192.927 67.1256 193.351 66.7982 193.548 66.2284C193.765 65.5951 193.563 64.9224 192.998 64.5745C192.745 64.4185 192.464 64.2926 192.181 64.2009C191.634 64.0244 191.076 63.8838 190.524 63.7253C190.13 63.6122 189.732 63.5093 189.344 63.3757C188.9 63.2223 188.494 62.9918 188.159 62.6567C187.459 61.9574 187.234 61.1305 187.505 60.1733C187.773 59.2324 188.377 58.6094 189.295 58.2898C190.368 57.9162 191.447 57.929 192.52 58.2812C193.565 58.624 194.233 59.3275 194.488 60.4055C194.526 60.5649 194.554 60.726 194.584 60.8863C194.596 60.9471 194.522 61.0679 194.468 61.0834C194.151 61.1751 193.829 61.241 193.498 61.1965C193.451 61.1905 193.385 61.1485 193.37 61.1074C193.313 60.954 193.278 60.7929 193.227 60.6378C192.948 59.7825 192.329 59.3532 191.458 59.2787C191.078 59.2461 190.692 59.2675 190.309 59.2821C189.974 59.2941 189.663 59.4106 189.38 59.5837C188.72 59.9882 188.579 60.6121 188.731 61.2102C188.793 61.457 188.96 61.6507 189.173 61.7843C189.357 61.9 189.555 62.002 189.76 62.0723C190.122 62.1974 190.491 62.2994 190.86 62.4022C191.467 62.571 192.076 62.7278 192.682 62.8992C193.163 63.0355 193.596 63.2668 193.972 63.5976C194.712 64.2489 194.973 65.0715 194.843 66.0347C194.704 67.0673 194.133 67.7931 193.23 68.2704C192.79 68.5027 192.319 68.6484 191.817 68.6655C191.57 68.6741 191.323 68.6672 191.076 68.6672Z" fill="#E0EBFF"/>
<path d="M217.44 63.3011C217.44 61.9343 217.44 60.5675 217.44 59.2007C217.44 59.0096 217.438 58.8176 217.442 58.6265C217.45 58.2803 217.532 58.1981 217.885 58.1921C218.751 58.1775 218.76 58.1664 218.759 59.0276C218.754 61.433 218.757 63.8393 218.757 66.2447C218.757 66.4632 218.754 66.6825 218.76 66.9011C218.769 67.2464 218.848 67.3278 219.203 67.3295C220.324 67.3338 221.445 67.3321 222.567 67.3338C222.813 67.3338 223.059 67.3355 223.305 67.3432C223.494 67.3492 223.588 67.4529 223.592 67.6629C223.606 68.5404 223.67 68.5292 222.772 68.5275C221.24 68.5249 219.708 68.5284 218.177 68.525C217.987 68.525 217.795 68.5087 217.606 68.4855C217.562 68.4804 217.514 68.4247 217.487 68.3793C217.461 68.3347 217.452 68.2747 217.45 68.2216C217.443 67.9757 217.44 67.7297 217.44 67.4838C217.439 66.0896 217.44 64.6953 217.44 63.3011Z" fill="#E0EBFF"/>
<path d="M204.871 63.3885C204.871 61.9926 204.871 60.5975 204.871 59.2016C204.871 58.983 204.871 58.7637 204.879 58.5452C204.887 58.3164 205.003 58.2084 205.243 58.1955C205.271 58.1938 205.298 58.1912 205.325 58.1904C206.218 58.1818 206.191 58.1492 206.191 59.025C206.189 61.8983 206.191 64.7716 206.189 67.6449C206.189 67.8634 206.176 68.0819 206.165 68.2996C206.16 68.3999 206.055 68.5018 205.949 68.5044C205.676 68.5113 205.403 68.5155 205.13 68.5121C205.001 68.5104 204.891 68.3801 204.886 68.231C204.878 68.0125 204.873 67.794 204.873 67.5746C204.87 66.1795 204.871 64.7836 204.871 63.3885Z" fill="#E0EBFF"/>
<path d="M139.888 65.3791C139.845 64.5204 139.453 63.8683 138.747 63.3962C138.589 63.2899 138.411 63.2145 138.244 63.1228C138.157 63.0757 138.131 62.9754 138.19 62.9274C138.359 62.7894 138.533 62.6558 138.695 62.5092C139.032 62.205 139.241 61.8143 139.332 61.3815C139.603 60.0867 138.848 58.911 137.815 58.4988C137.484 58.3668 137.137 58.2931 136.778 58.2623C135.355 58.1406 133.93 58.2014 132.506 58.198C132.452 58.198 132.398 58.2126 132.343 58.2203C132.248 58.234 132.124 58.3454 132.118 58.4294C132.108 58.5931 132.096 58.7567 132.096 58.9204C132.094 61.8785 132.094 64.8375 132.097 67.7956C132.097 67.9867 132.111 68.1778 132.134 68.3681C132.14 68.4109 132.2 68.4726 132.244 68.4812C132.378 68.5069 132.515 68.5215 132.651 68.5223C133.337 68.5257 134.021 68.524 134.707 68.524C135.146 68.524 135.584 68.5292 136.022 68.5223C136.378 68.5163 136.734 68.5043 137.09 68.4812C137.532 68.452 137.953 68.3304 138.354 68.1478C138.843 67.9259 139.215 67.5771 139.486 67.1109C139.8 66.5737 139.919 65.9978 139.888 65.3791ZM138.032 66.158C137.963 66.5848 137.752 66.9198 137.359 67.1281C137.04 67.2978 136.694 67.392 136.339 67.3989C135.465 67.4152 134.591 67.4074 133.718 67.4049C133.572 67.4049 133.462 67.2918 133.462 67.1427C133.462 66.2694 133.466 65.3971 133.471 64.5239C133.472 64.4245 133.581 64.3174 133.685 64.3174C134.176 64.3148 134.667 64.3156 135.158 64.3156C135.158 64.3131 135.158 64.3114 135.158 64.3088L137.03 64.421C137.623 64.6044 137.998 65.0535 138.043 65.667C138.054 65.8307 138.058 65.9978 138.032 66.158ZM138.032 61.2915C137.963 61.7183 137.752 62.0533 137.359 62.2616C137.04 62.4312 136.694 62.5255 136.339 62.5324C135.465 62.5487 134.591 62.5409 133.718 62.5384C133.572 62.5384 133.462 62.4252 133.462 62.2761C133.462 61.4029 133.466 60.5306 133.471 59.6574C133.472 59.558 133.581 59.4508 133.685 59.4508C134.176 59.4483 134.667 59.4491 135.158 59.4491C135.158 59.4466 135.158 59.4448 135.158 59.4423L137.03 59.5545C137.623 59.7379 137.998 60.1869 138.043 60.8005C138.054 60.9642 138.058 61.1313 138.032 61.2915Z" fill="#E0EBFF"/>
<path d="M158.28 68.2696C157.862 67.4992 157.437 66.7331 157.028 65.9584C156.64 65.2258 156.191 64.5454 155.549 64.0081C155.465 63.9378 155.513 63.7973 155.632 63.7536C155.862 63.6679 156.101 63.5993 156.322 63.4922C156.831 63.2445 157.221 62.8589 157.447 62.3396C157.93 61.2239 157.821 60.1502 157.152 59.1356C156.933 58.8048 156.627 58.5837 156.262 58.4363C156.029 58.3429 155.791 58.2966 155.543 58.2744C154.888 58.2152 154.232 58.1801 153.573 58.1887C152.723 58.1989 151.874 58.1921 151.024 58.1972C150.787 58.1989 150.67 58.3172 150.662 58.5451C150.656 58.7097 150.655 58.8742 150.655 59.0379C150.654 60.4904 150.655 61.942 150.655 63.3945C150.655 64.6002 150.654 65.8059 150.655 67.0116C150.655 67.3955 150.655 67.7786 150.662 68.1625C150.667 68.4161 150.761 68.5138 151.004 68.519C151.195 68.5232 151.387 68.5155 151.578 68.5104C151.665 68.5078 151.793 68.381 151.798 68.2953C151.806 68.159 151.818 68.0219 151.818 67.8857C151.819 66.9816 151.813 66.0776 151.82 65.1726C151.831 63.7141 151.639 63.9464 153.097 63.925C153.207 63.9232 153.316 63.9267 153.425 63.9378C153.908 63.9875 154.326 64.1692 154.633 64.5591C154.784 64.7527 154.941 64.9447 155.069 65.1546C155.382 65.6688 155.685 66.1907 155.981 66.7143C156.251 67.1907 156.521 67.668 156.765 68.1582C156.909 68.4478 157.122 68.5498 157.425 68.5275C157.534 68.5198 157.645 68.5284 157.754 68.5267C157.891 68.5241 158.029 68.5215 158.165 68.5147C158.272 68.5095 158.336 68.375 158.28 68.2696ZM154.785 62.7415C154.347 62.7424 153.91 62.7415 153.472 62.7415C153.472 62.7441 153.472 62.7467 153.472 62.7492C153.034 62.7492 152.597 62.7518 152.159 62.7475C151.957 62.7458 151.832 62.6404 151.831 62.4665C151.828 61.5093 151.829 60.5529 151.832 59.5957C151.832 59.4621 151.961 59.3361 152.097 59.3352C152.972 59.3301 153.847 59.3215 154.722 59.3318C154.938 59.3344 155.154 59.3926 155.368 59.4406C155.932 59.5666 156.281 59.9471 156.429 60.4758L155.581 62.565C155.324 62.6653 155.063 62.7407 154.785 62.7415Z" fill="#E0EBFF"/>
<path d="M177.293 68.2643C177.088 67.7279 176.885 67.1897 176.677 66.655C175.653 64.0302 174.626 61.4063 173.6 58.7815C173.551 58.6547 173.498 58.5287 173.44 58.4053C173.391 58.2999 173.301 58.2279 173.189 58.2185C172.971 58.1997 172.752 58.1911 172.534 58.192C171.98 58.1954 171.947 58.2177 171.759 58.7267C170.624 61.8065 169.491 64.8872 168.359 67.9687C168.313 68.0955 168.293 68.2318 168.263 68.3646C168.249 68.428 168.278 68.4743 168.345 68.4854C168.451 68.5025 168.559 68.5248 168.666 68.5248C169.683 68.5188 169.499 68.6259 169.817 67.7442C169.956 67.3585 170.085 66.9686 170.219 66.5804C170.325 66.2702 170.426 65.9575 170.539 65.6498C170.601 65.4827 170.726 65.3919 170.915 65.3919C172.092 65.3936 173.27 65.3927 174.448 65.391C174.666 65.391 174.805 65.4896 174.879 65.6952C175.128 66.3902 175.382 67.0843 175.636 67.7776C175.702 67.9575 175.777 68.1341 175.85 68.3106C175.894 68.4177 175.972 68.494 176.091 68.5051C176.253 68.5205 176.418 68.524 176.595 68.5325C176.774 68.524 176.966 68.5171 177.157 68.506C177.265 68.5 177.336 68.3757 177.293 68.2643ZM174.019 64.2984C173.965 64.3027 173.91 64.3087 173.856 64.3087C173.066 64.3096 172.276 64.3104 171.486 64.3079C171.405 64.3079 171.325 64.2864 171.245 64.2744C171.183 64.265 171.097 64.1545 171.11 64.0962C171.133 63.9908 171.15 63.8828 171.186 63.7809L172.46 59.9915C172.494 59.8347 172.55 59.6839 172.672 59.5433C172.713 59.6376 172.752 59.7096 172.779 59.785C173.24 61.0935 173.699 62.4029 174.158 63.7132C174.185 63.7903 174.209 63.8683 174.232 63.9462C174.287 64.1382 174.198 64.2847 174.019 64.2984Z" fill="#E0EBFF"/>
<path d="M69.221 73.3665C69.072 73.2029 68.9298 73.0337 68.7738 72.877C67.8503 71.952 66.9232 71.0306 65.9983 70.1063C65.8576 69.9656 65.7237 69.8186 65.5878 69.673C65.5497 69.6321 65.5518 69.5232 65.5878 69.4892C65.9747 69.1259 66.3387 68.7321 66.7555 68.4069C67.2824 67.995 67.7352 67.5118 68.2067 67.0451C68.3474 66.9065 68.4646 66.7435 68.5922 66.5917C68.6636 66.5071 68.7274 66.4149 68.8078 66.34C69.2439 65.9288 69.6246 65.4677 69.9935 64.999C70.4303 64.4436 70.8844 63.9014 71.2803 63.3142C71.5396 62.9293 71.8142 62.5549 72.0687 62.1673C72.5048 61.501 72.9049 60.8132 73.3001 60.1226C73.6086 59.5846 73.9144 59.0458 74.1696 58.4807C74.5877 57.5544 75.0369 56.6406 75.3587 55.6733C75.4564 55.38 75.5798 55.0951 75.6832 54.8039C75.9279 54.1167 76.104 53.4088 76.3127 52.7113C76.4902 52.1178 76.6109 51.5125 76.7551 50.912C76.8425 50.5494 76.9298 50.1847 76.9652 49.8082C76.9978 49.458 77.0685 49.1093 77.1358 48.7647C77.1878 48.5012 77.2127 48.2419 77.2266 47.977C77.2349 47.8231 77.2398 47.6643 77.2814 47.518C77.3368 47.3225 77.3493 47.127 77.3542 46.9273C77.3632 46.5078 77.3424 46.0876 77.4623 45.6751C77.5039 45.5309 77.4797 45.3672 77.4817 45.2119C77.4852 44.902 77.4873 44.5914 77.4873 44.2814C77.4873 44.1407 77.5462 44.0249 77.6239 43.9146C77.8347 43.6352 78.1453 43.7122 78.4212 43.7094C79.663 43.6983 80.9049 43.6962 82.1467 43.7094C82.6015 43.7142 82.7853 43.5582 82.745 43.0805C82.4906 40.0734 82.0898 37.094 81.3022 34.1715C79.6416 28.0096 76.7918 22.496 72.4764 17.7604C66.2049 10.8795 58.3568 7.06669 49.2141 5.74999C47.5473 5.51009 45.8666 5.42689 44.1893 5.30139C44.1588 5.38251 44.1082 5.46225 44.1013 5.54545C44.0867 5.72157 44.0937 5.89976 44.0937 6.07726C44.0937 7.27469 44.0937 8.47143 44.0937 9.66887C44.0937 9.82418 44.0957 9.97949 44.093 10.1341C44.086 10.5869 44.0555 10.6195 43.6014 10.6326C43.3802 10.6389 43.1618 10.6423 42.9434 10.7061C42.7978 10.7491 42.6369 10.7443 42.4823 10.7484C42.1495 10.7568 41.8167 10.7561 41.4845 10.7609C41.2634 10.7644 41.0408 10.7581 40.8279 10.8413C40.7676 10.8649 40.6983 10.8753 40.6331 10.8774C40.2351 10.894 39.8344 10.8781 39.4502 11.0133C39.0453 10.9842 38.6619 11.1187 38.2708 11.1811C37.6835 11.2747 37.1032 11.4182 36.5229 11.552C35.9418 11.6859 35.3559 11.8086 34.7867 11.9826C34.0039 12.2218 33.2349 12.5054 32.4605 12.771C32.3558 12.807 32.2552 12.8528 32.1505 12.8895C31.4599 13.1308 30.7902 13.4213 30.1322 13.7389C29.7529 13.9219 29.3799 14.1182 29.0006 14.3005C27.8004 14.8774 26.6723 15.577 25.5622 16.3092C24.8598 16.7723 24.1914 17.2806 23.5265 17.7944C22.8435 18.3227 22.1738 18.8649 21.5685 19.4834C21.5068 19.5465 21.4485 19.6186 21.3757 19.6664C20.8883 19.9868 20.5236 20.4388 20.1069 20.8354C20.0264 20.9117 19.937 20.9838 19.8767 21.0746C19.6035 21.4837 19.2339 21.8054 18.908 22.1667C18.6862 22.4128 18.4775 22.6715 18.2729 22.9322C17.5095 23.907 16.7385 24.8784 16.0888 25.9337C15.7068 26.555 15.3109 27.1686 14.9691 27.8169C14.6799 28.3646 14.3804 28.9075 14.1024 29.4615C13.7148 30.2339 13.4034 31.0389 13.0734 31.8356C12.726 32.6753 12.4584 33.5427 12.1769 34.4045C12.0056 34.9287 11.8808 35.4688 11.7484 36.0048C11.6215 36.5186 11.5036 37.0351 11.3962 37.5537C11.3248 37.899 11.2873 38.2506 11.2201 38.5972C11.1826 38.7914 11.1833 38.9911 11.1209 39.1845C11.0807 39.3079 11.0848 39.4466 11.0786 39.579C11.0682 39.8002 11.0675 40.02 10.9906 40.235C10.9545 40.3362 10.9531 40.4527 10.9496 40.5629C10.9372 40.9387 10.9469 41.3138 10.8387 41.6827C10.7964 41.8269 10.8179 41.9906 10.8165 42.1459C10.8117 42.7664 10.8089 43.387 10.8054 44.0082C10.5031 44.0984 10.3651 43.8515 10.2043 43.6921C7.42945 40.929 4.66225 38.159 1.89158 35.3918C1.73211 35.2331 1.60453 35.0569 1.51855 34.8503C1.59829 34.2117 1.77371 33.5933 1.93665 32.9741C2.78116 29.7708 3.9675 26.6971 5.51439 23.7663C6.91498 21.1121 8.5735 18.6285 10.4844 16.312C11.842 14.6666 13.3147 13.1329 14.8928 11.7011C16.9999 9.78951 19.279 8.10465 21.721 6.64166C24.7766 4.81049 28.0077 3.37246 31.417 2.33727C33.029 1.84776 34.6626 1.45047 36.3225 1.15717C37.2169 0.999089 38.1148 0.872204 39.0162 0.757106C40.9347 0.511656 42.8602 0.463121 44.7898 0.479762C45.1448 0.482535 45.4991 0.494322 45.8541 0.501256C46.9413 0.52067 48.0202 0.630914 49.1004 0.745319C50.1592 0.85695 51.2096 1.01989 52.2545 1.21195C53.3868 1.41996 54.5086 1.68205 55.6201 1.98782C58.4705 2.77132 61.2176 3.82523 63.8524 5.16549C66.5481 6.53696 69.0734 8.1726 71.4308 10.0689C72.9707 11.308 74.4268 12.6371 75.7816 14.0752C77.7168 16.1296 79.4523 18.34 80.9617 20.7273C81.9581 22.3026 82.8532 23.932 83.6436 25.6203C84.9534 28.4187 85.9435 31.3281 86.6376 34.3372C86.9163 35.5451 87.1299 36.7675 87.308 37.994C87.3878 38.5418 87.4058 39.0979 87.4918 39.6442C87.6305 40.5234 87.5778 41.4151 87.6977 42.2942C87.7192 43.6456 87.7747 44.9977 87.6429 46.3469C87.6298 46.4794 87.627 46.6125 87.6214 46.7449C87.5729 47.986 87.4169 49.2147 87.2415 50.4433C86.994 52.1774 86.6258 53.8845 86.1682 55.5749C85.6641 57.4379 85.029 59.2552 84.2753 61.0309C83.1021 63.7933 81.6634 66.4107 79.9453 68.8721C78.9808 70.2547 77.9414 71.579 76.8272 72.8451C75.8593 73.9448 74.8276 74.9806 73.766 75.9881C73.6211 76.1254 73.4776 76.2648 73.325 76.3923C72.7593 76.8652 72.8674 76.8853 72.3328 76.3591C71.4169 75.457 70.5003 74.5549 69.583 73.6543C69.4727 73.544 69.375 73.4192 69.221 73.3665Z" fill="#E0EBFF"/>
<path d="M1.51745 34.8483C1.69565 35.0127 1.87939 35.1707 2.05065 35.342C4.78665 38.0725 7.51987 40.8057 10.2566 43.5354C10.4271 43.7053 10.5707 43.9092 10.8043 44.0069C10.8064 44.339 10.8085 44.6712 10.8119 45.004C10.8147 45.291 10.8175 45.5746 10.9021 45.8582C10.9576 46.0433 10.934 46.2534 10.9409 46.4517C10.9513 46.7381 10.9236 47.0286 11.0394 47.3039C11.056 47.3434 11.0664 47.3912 11.0623 47.4335C11.02 47.8821 11.16 48.3099 11.219 48.746C11.298 49.3347 11.4207 49.9178 11.5317 50.5016C11.6592 51.1735 11.825 51.8364 12.0052 52.4964C12.2895 53.5406 12.598 54.5765 12.9905 55.5881C13.1978 56.1234 13.4245 56.6517 13.6256 57.1891C13.6797 57.334 13.7532 57.4713 13.8191 57.6113C13.9966 57.992 14.2108 58.356 14.337 58.7602C14.3633 58.8441 14.407 58.9239 14.4521 58.9995C14.7357 59.4744 14.9846 59.9688 15.2522 60.452C15.5192 60.9353 15.8118 61.4047 16.1092 61.87C16.3949 62.3165 16.7014 62.7505 16.9995 63.1894C17.2477 63.5548 17.5057 63.9112 17.7962 64.2468C18.0707 64.563 18.312 64.9069 18.5713 65.2362C18.6532 65.3402 18.7433 65.438 18.8334 65.5358C19.0283 65.7465 19.2418 65.9386 19.393 66.1903C19.4706 66.3206 19.5954 66.424 19.7043 66.5335C20.1883 67.0209 20.6736 67.507 21.161 67.991C21.3649 68.1934 21.5542 68.4125 21.8142 68.5512C21.8717 68.5817 21.9203 68.6316 21.9667 68.6788C22.4348 69.1516 22.9811 69.5302 23.4921 69.9511C24.5363 70.8108 25.6714 71.5333 26.8175 72.2447C27.9102 72.9235 29.0494 73.5156 30.2136 74.0544C30.9742 74.4066 31.7452 74.7436 32.5446 75.0084C32.9218 75.1333 33.2893 75.2893 33.6665 75.4155C34.6511 75.7448 35.6551 76.0083 36.6563 76.2822C37.2491 76.3508 37.8059 76.5956 38.4077 76.6254C38.6254 76.6358 38.8293 76.7599 39.056 76.7495C39.4956 76.918 39.9795 76.8334 40.4233 76.9873C40.5238 77.022 40.6431 77.0019 40.7533 77.0081C40.8858 77.0157 41.0286 76.997 41.1486 77.0393C41.4717 77.1544 41.8031 77.135 42.1345 77.1426C42.3557 77.1482 42.5734 77.1523 42.7918 77.2133C42.9589 77.2598 43.1413 77.2626 43.3167 77.2674C43.6488 77.2771 43.9816 77.2751 44.3137 77.2764C44.4531 77.2771 44.5765 77.3187 44.675 77.4172C44.8157 77.5579 44.9773 77.6876 45.0827 77.8519C45.2415 78.0988 45.4481 78.2957 45.6492 78.5009C46.0215 78.8809 46.398 79.256 46.7703 79.6359C46.9714 79.8412 47.1898 80.0298 47.334 80.2863C47.3867 80.3806 47.4755 80.4562 47.5531 80.5345C48.1605 81.1495 48.7679 81.7639 49.378 82.3754C49.4557 82.4531 49.5472 82.5169 49.6325 82.5869C49.6706 82.6652 49.6963 82.7533 49.7497 82.8192C49.862 82.9557 49.9889 83.0806 50.1102 83.2095C51.099 84.2565 52.0884 85.3035 53.0771 86.3511C53.1527 86.4316 53.2248 86.5162 53.2976 86.5994C53.3337 86.641 53.3059 86.7519 53.2574 86.7706C53.2165 86.7866 53.1777 86.8122 53.1347 86.8192C52.1307 86.9876 51.1274 87.161 50.1151 87.2795C49.0584 87.403 48.0003 87.4875 46.9388 87.5597C45.9639 87.6255 44.9905 87.6387 44.0156 87.6373C42.7072 87.6359 41.4037 87.5527 40.1023 87.4168C39.5296 87.3572 38.9555 87.3121 38.3841 87.2386C37.7476 87.1561 37.1111 87.0646 36.4802 86.9488C34.9991 86.677 33.5306 86.3504 32.0787 85.9483C29.8974 85.3437 27.7764 84.5761 25.7102 83.6554C23.1531 82.5155 20.7284 81.1405 18.4306 79.5423C15.7071 77.6488 13.2401 75.4633 11.0255 72.9977C8.22225 69.8762 5.94733 66.4045 4.20492 62.5876C3.10802 60.1844 2.25865 57.6945 1.63394 55.1284C1.30944 53.7944 1.06469 52.4444 0.860147 51.0875C0.777637 50.5412 0.759609 49.9844 0.672246 49.4387C0.539121 48.6039 0.580722 47.758 0.471171 46.9225C0.445517 46.7256 0.448984 46.5245 0.448984 46.3248C0.447597 45.3278 0.418476 44.33 0.458691 43.3344C0.497519 42.3845 0.539814 41.4325 0.647285 40.4853C0.706914 39.9577 0.742275 39.4273 0.817852 38.901C0.928789 38.1349 1.03349 37.3673 1.15066 36.6018C1.21099 36.208 1.28656 35.817 1.36491 35.4266C1.40513 35.2304 1.46614 35.0404 1.51745 34.8483Z" fill="white"/>
<path d="M49.8604 82.5137L49.8842 82.4891C49.8842 82.4891 49.9175 82.4978 49.9167 82.4978C49.916 82.4978 49.8943 82.5332 49.8943 82.5332L49.8604 82.5137Z" fill="#4769F1"/>
<path d="M77.5649 43.805C76.8022 43.5907 76.0236 43.7217 75.2533 43.7107C74.7305 43.703 74.5037 43.5241 74.4684 42.9799C74.2375 39.4444 73.5497 36.0012 72.2801 32.6869C68.7398 23.4417 62.1502 17.5488 52.6331 14.9112C50.3027 14.265 47.9203 13.8691 45.4956 13.7575C44.4487 13.7096 44.3967 13.6341 44.3967 12.5705C44.396 10.4439 44.3994 8.31738 44.3932 6.19084C44.3925 5.88646 44.4521 5.56543 44.2365 5.29572C43.765 5.38031 43.9196 5.77067 43.9141 6.03484C43.8884 7.27457 43.8898 8.51568 43.9099 9.75541C43.9175 10.2165 43.7796 10.4231 43.2887 10.4807C42.1224 10.6173 40.9465 10.5861 39.7823 10.7538C31.6714 11.9242 24.8155 15.4687 19.2707 21.5245C17.2675 23.7121 15.5924 26.125 14.2549 28.7653C11.8316 33.5488 10.5835 38.62 10.63 43.9949C10.5745 44.9948 10.6973 45.9883 10.8047 46.9757C11.313 51.676 12.6525 56.1211 14.9545 60.2681C16.3287 62.7434 17.9963 65.0017 19.9599 67.0339C23.175 70.3607 26.9482 72.8831 31.2103 74.6734C35.2575 76.3735 39.4877 77.2575 43.8662 77.4385C44.3571 77.4586 44.674 77.6604 44.9964 78.0091C46.3325 79.4568 47.652 80.9226 49.0671 82.2955C49.2224 82.4466 49.3736 82.6269 49.6322 82.586C49.7085 82.5617 49.7841 82.5375 49.8603 82.5125L49.9137 82.4972C50.0891 82.4778 50.2673 82.4702 50.4407 82.4362C51.5889 82.2074 52.7336 81.9627 53.8659 81.6617C56.3932 80.9899 58.8407 80.1024 61.185 78.9417C64.1373 77.4801 66.8227 75.6302 69.219 73.3664C69.2481 73.0246 68.9784 72.8602 68.7835 72.6626C67.9286 71.7945 67.0744 70.9251 66.1959 70.0819C65.8471 69.747 65.8159 69.5127 66.1904 69.1667C67.1645 68.2667 68.1401 67.375 69.0304 66.3787C71.0515 64.1162 72.762 61.65 74.1224 58.9493C76.4521 54.3246 77.5684 49.3955 77.6745 44.2286C77.6786 44.0774 77.7216 43.9138 77.5649 43.805ZM69.5337 46.9272C69.316 48.8512 68.8806 50.7233 68.2295 52.5441C66.8712 56.3465 64.735 59.6503 61.8222 62.448C58.5364 65.6035 54.6757 67.7287 50.2576 68.8346C49.0533 69.1362 47.8288 69.3296 46.5911 69.453C45.4838 69.564 44.3779 69.5695 43.2692 69.555C42.3811 69.5432 41.5019 69.4336 40.6213 69.3213C39.2762 69.1494 37.9588 68.8519 36.6671 68.4511C32.4958 67.158 28.8903 64.9393 25.843 61.8115C24.1609 60.0851 22.7603 58.1534 21.6177 56.0331C21.5345 55.8784 21.4686 55.7141 21.4041 55.5512C21.3951 55.5276 21.4312 55.4714 21.461 55.4506C21.4943 55.4271 21.5435 55.4187 21.5865 55.418C21.764 55.4132 21.9415 55.4118 22.1183 55.4118C26.6203 55.4118 31.1223 55.4104 35.625 55.4125C36.5166 55.4132 36.2788 55.3321 36.9007 55.9263C38.2306 57.1986 39.5528 58.4785 40.8785 59.755C40.9583 59.832 41.0429 59.9041 41.1184 59.9852C41.2335 60.1093 41.3778 60.1468 41.5386 60.1468C41.7161 60.1468 41.8936 60.1482 42.0711 60.1482C44.466 60.1482 46.8616 60.1482 49.2571 60.1482C49.4568 60.1482 49.6565 60.1516 49.8555 60.1544C49.9498 60.1558 50.0281 60.1953 50.0753 60.2778C50.1522 60.4123 50.2167 60.5545 50.2999 60.6848C50.9371 61.6826 51.8607 62.1235 53.0207 61.9599C54.0988 61.8074 54.8511 61.1729 55.1881 60.135C55.7525 58.3933 54.5468 56.8637 53.0824 56.6231C51.9903 56.4435 50.8518 56.9552 50.2985 57.9017C50.2874 57.9211 50.2743 57.9391 50.2639 57.9585C49.9858 58.4737 50.1044 58.4196 49.4436 58.4203C47.1368 58.4231 44.8307 58.4217 42.5239 58.421C41.9179 58.421 42.0046 58.4529 41.5941 58.0431C40.3225 56.775 39.0529 55.504 37.7834 54.2338C37.6738 54.1242 37.5553 54.0216 37.4561 53.9031C37.2696 53.6791 37.038 53.6125 36.751 53.6167C35.8642 53.6299 34.9767 53.6215 34.0899 53.6215C29.8319 53.6215 25.5733 53.6215 21.3154 53.6215C21.1157 53.6215 20.916 53.6215 20.7163 53.6174C20.5735 53.6146 20.4612 53.5619 20.4064 53.4163C20.328 53.209 20.2393 53.0058 20.1651 52.7971C19.6818 51.4389 19.2901 50.057 19.0335 48.6356C18.8165 47.434 18.6848 46.2269 18.6258 45.0072C18.5724 43.8972 18.6161 42.7906 18.691 41.6853C18.7569 40.7133 18.9066 39.7481 19.1036 38.7927C19.6402 36.1926 20.5409 33.7256 21.8444 31.4091C22.1266 30.9071 22.4407 30.4231 22.7319 29.9267C22.8789 29.675 23.0661 29.5245 23.3767 29.5599C23.53 29.5772 23.6867 29.5626 23.842 29.5626C26.5031 29.5626 29.1649 29.5626 31.826 29.5626C34.4871 29.5626 37.149 29.5626 39.8101 29.5626C39.9876 29.5626 40.1651 29.5668 40.3426 29.5626C40.5367 29.5585 40.6837 29.6126 40.7621 29.8122C40.8182 29.9558 40.8924 30.0951 40.9777 30.2234C41.5684 31.1137 42.4171 31.5498 43.4676 31.4583C44.606 31.3598 45.4104 30.7268 45.791 29.6431C46.3526 28.0463 45.2523 26.4397 43.7393 26.1582C42.7825 25.98 41.5469 26.3891 40.943 27.4084C40.8529 27.5602 40.7641 27.7121 40.6747 27.8639C40.4819 27.9395 40.2802 27.9076 40.0819 27.9083C35.003 27.9131 29.9241 27.9159 24.8453 27.918C24.6907 27.918 24.5353 27.9097 24.3814 27.8944C24.3599 27.8923 24.319 27.8105 24.3301 27.7932C24.4112 27.6621 24.4951 27.5311 24.5943 27.4132C25.5664 26.256 26.6265 25.1861 27.7886 24.2189C30.3402 22.0965 33.1871 20.508 36.3509 19.4937C37.6191 19.0873 38.9101 18.7837 40.2268 18.5784C41.237 18.421 42.2507 18.3468 43.2699 18.2962C44.3141 18.2442 45.3563 18.2858 46.3928 18.3704C47.9633 18.498 49.5102 18.7837 51.0286 19.2122C54.7596 20.2654 58.0767 22.0757 60.9915 24.628C61.9616 25.4774 62.8553 26.3995 63.6887 27.3813C63.7601 27.4659 63.8253 27.5554 63.8912 27.6448C63.9397 27.7107 63.8877 27.8486 63.8121 27.8521C63.6131 27.8611 63.4141 27.8715 63.2152 27.8715C61.5518 27.8729 59.8884 27.8722 58.225 27.8722C58.0697 27.8722 57.9137 27.884 57.7598 27.8701C57.47 27.8438 57.2606 27.9624 57.0588 28.1648C55.6041 29.6264 54.1404 31.079 52.6802 32.5351C51.6277 33.5841 50.5759 34.6332 49.5241 35.6815C49.3986 35.8063 49.2765 35.9367 49.1406 36.0497C49.0768 36.1024 48.9867 36.1412 48.9042 36.1509C48.751 36.1683 48.5943 36.1613 48.4389 36.1613C43.0716 36.1613 37.705 36.1613 32.3377 36.1613C32.2934 36.1613 32.249 36.162 32.2046 36.1613C31.6693 36.1537 31.7366 36.2023 31.4475 35.701C30.8886 34.7316 30.0233 34.2511 28.9056 34.3246C27.5563 34.4134 26.7506 35.4299 26.501 36.309C26.1585 37.5141 26.8151 39.1206 28.3301 39.554C29.4277 39.8674 30.5239 39.5228 31.1985 38.6623C31.3344 38.489 31.4585 38.2997 31.5466 38.0993C31.6354 37.8975 31.7782 37.8511 31.9682 37.8525C32.1679 37.8538 32.3675 37.8518 32.5672 37.8518C38.0233 37.8518 43.4786 37.8531 48.9347 37.8504C49.7993 37.8497 49.5948 37.9405 50.2063 37.3324C52.6268 34.9237 55.0439 32.5115 57.4623 30.1007C57.6038 29.9599 57.7466 29.8206 57.8915 29.6833C57.9921 29.5876 58.1141 29.5432 58.2542 29.5446C58.3873 29.5467 58.5204 29.5432 58.6535 29.5432C60.6719 29.5432 62.6903 29.5432 64.708 29.5432C64.8633 29.5432 65.0186 29.546 65.1732 29.5508C65.2675 29.5536 65.3424 29.5994 65.3965 29.6757C65.4859 29.8025 65.5747 29.9294 65.6592 30.0598C67.0654 32.2355 68.0929 34.5805 68.7967 37.0703C68.8328 37.1979 68.8522 37.3304 68.8764 37.4607C68.8938 37.5522 68.8279 37.6223 68.7204 37.6243C68.5207 37.6285 68.3211 37.6306 68.1221 37.6306C65.7272 37.6313 63.3316 37.6264 60.9361 37.6327C59.9834 37.6354 60.2677 37.5176 59.6118 38.1714C57.1302 40.6446 54.6556 43.1241 52.1762 45.5994C51.5861 46.188 51.7685 46.1027 50.9662 46.1034C45.3993 46.1055 39.833 46.1048 34.266 46.1048C34.0885 46.1048 33.911 46.1034 33.7335 46.1014C33.592 46.1 33.4797 46.0501 33.4041 45.9197C33.3043 45.7471 33.2058 45.5723 33.0866 45.4135C32.5416 44.689 31.7921 44.3319 30.9046 44.3347C30.0122 44.3375 29.2738 44.7243 28.7413 45.4524C27.6229 46.9798 28.3558 49.2901 30.4234 49.7048C31.5972 49.9405 32.6165 49.4038 33.1919 48.5288C33.289 48.3811 33.3639 48.2189 33.4554 48.067C33.5033 47.988 33.583 47.9415 33.6752 47.9381C33.8964 47.9298 34.1183 47.9256 34.3402 47.9256C40.1061 47.9249 45.8728 47.9249 51.6388 47.9249C51.8385 47.9249 52.0382 47.9228 52.2372 47.9207C52.3765 47.9194 52.4951 47.8687 52.5943 47.7696C52.7191 47.6441 52.8473 47.5214 52.9728 47.3959C55.3878 44.9816 57.8028 42.568 60.2178 40.1537C60.3592 40.013 60.509 39.8791 60.64 39.7294C60.7995 39.547 60.9909 39.4902 61.2287 39.4909C63.2914 39.4964 65.3535 39.4936 67.4162 39.4936C67.9043 39.4936 68.3918 39.4923 68.8799 39.495C68.9902 39.4957 69.1025 39.4992 69.2099 39.5193C69.271 39.5304 69.3306 39.572 69.3451 39.6476C69.3861 39.8653 69.4443 40.0809 69.4651 40.3C69.524 40.9178 69.6329 41.5293 69.6495 42.152C69.6634 42.6838 69.7272 43.2149 69.7203 43.7453C69.7064 44.8069 69.653 45.8677 69.5337 46.9272ZM51.747 59.2905C51.7719 58.7247 52.1893 58.4453 52.6525 58.4196C53.1219 58.455 53.5268 58.7434 53.5407 59.3071C53.5539 59.8292 53.1268 60.1932 52.6684 60.2112C52.2192 60.2286 51.722 59.8542 51.747 59.2905ZM42.3811 28.7133C42.406 28.1475 42.8234 27.8681 43.2866 27.8424C43.756 27.8778 44.1609 28.1662 44.1748 28.7299C44.188 29.252 43.7608 29.616 43.3025 29.6341C42.8532 29.6514 42.3561 29.277 42.3811 28.7133ZM30.0157 36.9511C30.0143 37.4274 29.6822 37.8199 29.1372 37.824C28.5118 37.8289 28.2206 37.2957 28.2427 36.8915C28.2677 36.4283 28.6983 36.0261 29.1649 36.0449C29.6558 36.065 30.0198 36.4533 30.0157 36.9511ZM31.9578 47.0554C31.9238 47.5768 31.4426 48.0116 30.933 47.9824C30.4053 47.9519 29.9748 47.4895 29.99 46.9715C30.006 46.4453 30.4573 46.0105 30.9843 46.0154C31.5362 46.0195 31.9938 46.5084 31.9578 47.0554Z" fill="#F7F7F7"/>
<path d="M49.7759 55.7689C49.3113 55.7772 48.9778 55.4507 48.9785 54.9889C48.9792 54.5528 49.2815 54.2317 49.7135 54.213C50.194 54.1922 50.5095 54.5008 50.5573 54.9598C50.601 55.3758 50.2176 55.7613 49.7759 55.7689Z" fill="#1598D8"/>
<path d="M44.1865 5.30155C44.2468 5.23222 44.3217 5.18229 44.4139 5.18299C44.9 5.18715 45.386 5.15317 45.8714 5.24608C46.13 5.29601 46.4004 5.28699 46.6653 5.30017C46.9967 5.31681 47.3316 5.28977 47.6533 5.39932C47.6942 5.41318 47.7414 5.41942 47.7844 5.41734C48.3203 5.39169 48.8397 5.52759 49.3666 5.58444C49.9802 5.65031 50.5897 5.7668 51.1978 5.87982C51.7407 5.98105 52.2753 6.12665 52.8189 6.21748C53.2786 6.29444 53.7292 6.41024 54.1744 6.53435C55.7948 6.98642 57.3916 7.50852 58.9572 8.13116C60.3397 8.68099 61.6675 9.34038 62.978 10.0365C64.0534 10.6078 65.0879 11.252 66.0919 11.9433C66.8393 12.4577 67.5701 12.9937 68.2759 13.5657C68.9125 14.0816 69.5295 14.6182 70.1432 15.1604C70.6916 15.6458 71.2324 16.1367 71.7303 16.6713C72.3182 17.3022 72.9166 17.9249 73.4533 18.603C73.6731 18.8803 73.9116 19.1417 74.1355 19.4163C74.8227 20.258 75.4515 21.14 76.0548 22.0414C76.6462 22.9247 77.187 23.8385 77.7147 24.7614C78.1002 25.4354 78.4593 26.1218 78.788 26.8228C79.3524 28.0244 79.8932 29.2371 80.3189 30.4976C80.4389 30.854 80.5803 31.2027 80.7017 31.5584C81.1087 32.7517 81.4332 33.9692 81.7396 35.1916C81.9331 35.9633 82.0884 36.7434 82.2395 37.5234C82.3449 38.0642 82.3976 38.6161 82.5162 39.1556C82.5079 39.7116 82.6965 40.2476 82.684 40.8037C82.6826 40.8696 82.6805 40.9396 82.6978 41.002C82.8227 41.4346 82.7977 41.8798 82.8199 42.3215C82.8289 42.4976 82.8511 42.6737 82.8837 42.847C82.9371 43.1327 82.9412 43.4184 82.9114 43.7061C82.9031 43.7838 82.8164 43.8739 82.7367 43.878C82.5377 43.8878 82.3387 43.8995 82.1404 43.8995C80.8105 43.9016 79.48 43.9002 78.1501 43.9009C77.9726 43.9009 77.7958 43.9092 77.6183 43.9141C77.0421 43.9065 76.4659 43.8975 75.8904 43.8912C75.4911 43.8871 75.0924 43.8885 74.693 43.8843C74.5446 43.8829 74.4503 43.7997 74.3872 43.6687C74.3283 43.5459 74.2985 43.4197 74.2971 43.2845C74.295 43.0627 74.2922 42.8415 74.2881 42.6196C74.2839 42.3984 74.2943 42.1758 74.207 41.9644C74.1903 41.9242 74.1771 41.8784 74.1778 41.8354C74.1862 41.3466 74.0794 40.8703 74.0315 40.3877C73.9899 39.9689 73.904 39.5591 73.8325 39.1479C73.7417 38.6279 73.6218 38.1107 73.5233 37.592C73.4325 37.1136 73.3146 36.6428 73.196 36.1734C72.9749 35.2956 72.7426 34.4178 72.4188 33.5712C72.1109 32.7663 71.8253 31.9529 71.4716 31.1646C71.2359 30.6397 70.9898 30.1197 70.7395 29.6025C70.4302 28.9646 70.0634 28.3599 69.7022 27.7505C69.3292 27.1216 68.9263 26.5135 68.5068 25.9165C68.088 25.3203 67.6824 24.7129 67.1693 24.1887C66.3754 23.1417 65.3701 22.2965 64.4618 21.3591C64.3231 21.2163 64.1851 21.0713 64.0035 20.9784C63.9452 20.9486 63.8925 20.9042 63.844 20.8592C63.082 20.1464 62.2181 19.5688 61.3555 18.9892C60.7301 18.5697 60.086 18.1842 59.428 17.8174C59.0605 17.6129 58.7055 17.3834 58.3193 17.2176C57.5268 16.8772 56.7488 16.5063 55.9445 16.1908C55.0785 15.8503 54.1959 15.5612 53.3098 15.2832C52.5942 15.0592 51.8662 14.8741 51.1264 14.7403C51.0182 14.7209 50.9135 14.6834 50.806 14.6578C50.2257 14.5219 49.6398 14.4206 49.0491 14.3423C48.8092 14.3104 48.5727 14.2424 48.3321 14.2223C48.1103 14.2036 47.8925 14.1877 47.6797 14.1135C47.5986 14.085 47.5043 14.0892 47.4162 14.0871C47.1506 14.0802 46.8892 14.0712 46.6285 13.9914C46.4642 13.9408 46.2763 13.945 46.1009 13.9561C45.5206 13.9921 44.9568 13.8687 44.3883 13.7945C44.3668 13.7918 44.3411 13.7862 44.3266 13.7723C44.2947 13.7432 44.2489 13.7106 44.2434 13.6739C44.2226 13.5435 44.2073 13.4104 44.2066 13.2787C44.2039 12.4362 44.2052 11.5945 44.2059 10.7521C44.2066 9.11226 44.208 7.47177 44.2073 5.83197C44.2073 5.65586 44.1942 5.47836 44.1865 5.30155Z" fill="white"/>
<path d="M147.469 51.9996C146.845 51.9996 146.222 52.0011 145.599 51.9982C145.461 51.9975 145.323 51.9845 145.186 51.9737C145.107 51.9679 145.022 51.872 145.014 51.7869C145.01 51.7414 145.001 51.6953 145.001 51.6499C145 50.2002 144.999 48.7498 145.001 47.3002C145.001 47.2339 145.02 47.1639 145.046 47.1026C145.062 47.0665 145.109 47.0427 145.145 47.0182C145.163 47.006 145.19 46.9987 145.211 47.0002C145.856 47.06 146.491 47.1711 147.093 47.4207C148.216 47.8851 149 48.6907 149.477 49.7978C149.741 50.4137 149.899 51.0613 149.997 51.7234C150.016 51.8503 149.939 51.9629 149.822 51.9715C149.685 51.9816 149.546 51.991 149.409 51.991C148.762 51.9931 148.116 51.9917 147.469 51.9917C147.469 51.9946 147.469 51.9975 147.469 51.9996Z" fill="white"/>
</svg>
