<svg width="43" height="58" viewBox="0 0 43 58" fill="none" xmlns="http://www.w3.org/2000/svg">
<path d="M7.30304 0.500003C11.3375 0.496268 14.621 3.74995 14.6322 7.75821C14.6434 11.7553 11.3449 15.0388 7.31799 15.0388C3.28358 15.0388 0.00748391 11.7889 1.27822e-05 7.77315C-0.00745835 3.76115 3.26116 0.503739 7.30304 0.500003Z" fill="#5D5FEF"/>
<path d="M21.9992 1.42938C23.6279 1.42938 25.2604 1.44805 26.8891 1.42564C27.8902 1.4107 28.3235 1.86644 28.316 2.86383C28.2974 6.12498 28.2974 9.3824 28.316 12.6435C28.3235 13.7194 27.8342 14.1378 26.7807 14.1266C23.5196 14.1004 20.2622 14.0929 17.001 14.1303C15.9924 14.1415 15.5441 13.7567 15.5479 12.7481C15.5591 9.44217 15.5591 6.13619 15.5479 2.83021C15.5441 1.85149 15.9289 1.38455 16.9674 1.41443C18.6447 1.463 20.3219 1.42564 21.9992 1.42938Z" fill="white"/>
<path d="M36.5744 1.42939C38.2031 1.42939 39.8355 1.44806 41.4643 1.42565C42.4691 1.41071 42.895 1.87018 42.8912 2.86758C42.8726 6.12873 42.8688 9.38988 42.8912 12.6473C42.8987 13.7306 42.3981 14.134 41.3559 14.1266C38.0948 14.1004 34.8336 14.093 31.5762 14.1303C30.5639 14.1415 30.1193 13.7493 30.1231 12.7482C30.1343 9.44218 30.1343 6.1362 30.1231 2.82649C30.1193 1.84777 30.5116 1.38456 31.5501 1.41444C33.2199 1.46301 34.8971 1.42565 36.5744 1.42939Z" fill="white"/>
<path d="M7.36708 15.9948C8.95469 15.9948 10.5423 16.0285 12.1299 15.9836C13.2469 15.95 13.7624 16.3871 13.7512 17.5376C13.725 20.7577 13.7287 23.9815 13.7474 27.2015C13.7549 28.2774 13.2655 28.6995 12.2121 28.692C8.94348 28.6659 5.67486 28.6584 2.40624 28.6958C1.37149 28.707 0.971786 28.2699 0.975522 27.2837C0.986728 24.0151 0.990464 20.7465 0.971786 17.4779C0.964315 16.4356 1.34908 15.9388 2.46228 15.9799C4.09846 16.0397 5.73463 15.9948 7.36708 15.9948Z" fill="white"/>
<path d="M21.9994 15.9977C23.6281 15.9977 25.2605 16.0164 26.8892 15.9903C27.8941 15.9753 28.3237 16.446 28.3199 17.4322C28.305 20.6933 28.2975 23.9508 28.3237 27.2119C28.3312 28.299 27.8343 28.6987 26.7884 28.6912C23.5272 28.665 20.2698 28.6576 17.0087 28.6949C16.0001 28.7061 15.548 28.3214 15.5518 27.3165C15.563 24.0105 15.563 20.7045 15.5518 17.3986C15.548 16.4199 15.9328 15.9529 16.9713 15.9828C18.6448 16.0314 20.3221 15.994 21.9994 15.9977Z" fill="white"/>
<path d="M1.65049 36.4104C1.65049 34.7817 1.65423 33.1493 1.65049 31.5206C1.64676 30.5979 2.05393 30.187 3.01397 30.1944C6.31995 30.2243 9.62592 30.2206 12.9319 30.1982C14.0227 30.1907 14.4187 30.7062 14.4149 31.741C14.3962 34.9535 14.3925 38.1661 14.4149 41.3825C14.4224 42.4322 13.9965 42.9252 12.9244 42.9178C9.61845 42.8991 6.31248 42.8954 3.0065 42.9215C2.0502 42.929 1.64302 42.5031 1.65049 41.5842C1.65796 39.8583 1.65049 38.1325 1.65049 36.4104Z" fill="white"/>
<path d="M21.7559 43.2643C20.1272 43.2643 18.4948 43.2456 16.8661 43.2717C15.9882 43.2867 15.5624 42.8982 15.5624 42.0315C15.5586 38.6322 15.5586 35.2328 15.5624 31.8334C15.5624 30.9929 15.9247 30.5559 16.8325 30.5596C20.187 30.582 23.5378 30.5783 26.8923 30.5596C27.9009 30.5559 28.3231 31.0191 28.3193 32.0053C28.3044 35.2664 28.2969 38.5276 28.3231 41.785C28.3305 42.872 27.8262 43.2867 26.7877 43.2717C25.1105 43.2493 23.4332 43.268 21.7559 43.2643Z" fill="white"/>
<path d="M36.4192 43.2671C34.8353 43.2671 33.2514 43.2297 31.6675 43.282C30.6178 43.3156 30.1098 42.9346 30.1173 41.8438C30.1397 38.5378 30.1322 35.2281 30.121 31.9222C30.1173 30.9061 30.5917 30.5437 31.5891 30.5549C34.8502 30.5923 38.1114 30.5848 41.3725 30.5587C42.4297 30.5512 42.9004 30.9845 42.8929 32.0566C42.8668 35.3178 42.8705 38.5789 42.8892 41.8401C42.8929 42.845 42.4372 43.282 41.4472 43.2745C39.7737 43.2521 38.0964 43.2633 36.4192 43.2671Z" fill="white"/>
<path d="M7.36741 45.1322C8.95129 45.1322 10.5352 45.1659 12.1191 45.121C13.221 45.0911 13.7627 45.5021 13.7552 46.6563C13.7291 49.8689 13.7253 53.0853 13.759 56.2978C13.7702 57.4559 13.236 57.8556 12.1377 57.8481C8.92514 57.8182 5.70882 57.8107 2.49623 57.8518C1.42039 57.8668 0.972121 57.4484 0.979592 56.38C1.00201 53.1189 1.00201 49.8615 0.979592 46.6003C0.972121 45.5506 1.38303 45.0799 2.48129 45.1173C4.10626 45.1771 5.7387 45.1322 7.36741 45.1322Z" fill="white"/>
<path d="M28.312 51.5234C28.312 53.1073 28.2784 54.6911 28.3233 56.275C28.3569 57.4256 27.8451 57.8552 26.7319 57.8477C23.5193 57.8178 20.303 57.8029 17.0904 57.8552C15.91 57.8739 15.5327 57.3621 15.5401 56.2676C15.5663 53.055 15.5626 49.8387 15.5439 46.6261C15.5364 45.595 15.9062 45.102 17.0232 45.1206C20.2843 45.1655 23.5455 45.1542 26.8029 45.1281C27.8675 45.1206 28.3345 45.5764 28.3158 46.6373C28.2896 48.2622 28.312 49.8947 28.312 51.5234Z" fill="white"/>
</svg>
