<svg width="16" height="22" viewBox="0 0 16 22" fill="none" xmlns="http://www.w3.org/2000/svg">
<path d="M2.71923 1.19648e-06C4.2214 -0.00138971 5.44401 1.21009 5.44818 2.70253C5.45235 4.1908 4.22419 5.4134 2.72479 5.4134C1.22261 5.4134 0.00278657 4.20332 4.75933e-06 2.70809C-0.00277705 1.21426 1.21427 0.0013921 2.71923 1.19648e-06Z" fill="#5D5FEF"/>
<path d="M8.19117 0.346123C8.7976 0.346123 9.40543 0.353077 10.0119 0.344732C10.3846 0.339168 10.546 0.508859 10.5432 0.88023C10.5362 2.09449 10.5362 3.30736 10.5432 4.52162C10.546 4.9222 10.3638 5.07798 9.97153 5.07381C8.75727 5.06407 7.54439 5.06129 6.33013 5.0752C5.95459 5.07937 5.78768 4.93611 5.78907 4.56057C5.79325 3.32961 5.79325 2.09866 5.78907 0.867712C5.78768 0.503295 5.93094 0.329432 6.31762 0.340559C6.94213 0.358641 7.56665 0.344732 8.19117 0.346123Z" fill="#5D5FEF"/>
<path d="M13.6179 0.346127C14.2244 0.346127 14.8322 0.353081 15.4386 0.344736C15.8128 0.339172 15.9713 0.510253 15.9699 0.881625C15.963 2.09589 15.9616 3.31015 15.9699 4.52302C15.9727 4.92638 15.7863 5.0766 15.3983 5.07381C14.184 5.06408 12.9698 5.0613 11.7569 5.07521C11.38 5.07938 11.2144 4.93333 11.2158 4.56057C11.22 3.32962 11.22 2.09867 11.2158 0.866325C11.2144 0.501908 11.3605 0.329436 11.7472 0.340563C12.3689 0.358645 12.9934 0.344736 13.6179 0.346127Z" fill="#5D5FEF"/>
<path d="M2.7426 5.76932C3.33373 5.76932 3.92487 5.78184 4.516 5.76515C4.93188 5.75263 5.12383 5.91536 5.11966 6.34376C5.10992 7.54272 5.11131 8.74308 5.11826 9.94204C5.12105 10.3426 4.93884 10.4998 4.5466 10.497C3.32956 10.4873 2.11252 10.4845 0.895476 10.4984C0.510195 10.5026 0.361368 10.3398 0.362759 9.97263C0.366931 8.75559 0.368322 7.53855 0.361368 6.32151C0.358586 5.93345 0.501849 5.74845 0.916339 5.76375C1.52556 5.78601 2.13477 5.76932 2.7426 5.76932Z" fill="#5D5FEF"/>
<path d="M8.19173 5.77056C8.79816 5.77056 9.40599 5.77752 10.0124 5.76778C10.3866 5.76222 10.5465 5.93747 10.5451 6.30467C10.5396 7.51893 10.5368 8.7318 10.5465 9.94606C10.5493 10.3508 10.3643 10.4996 9.97487 10.4969C8.76061 10.4871 7.54774 10.4843 6.33348 10.4982C5.95793 10.5024 5.78963 10.3592 5.79103 9.98501C5.7952 8.75405 5.7952 7.5231 5.79103 6.29215C5.78963 5.92773 5.9329 5.75387 6.31957 5.765C6.9427 5.78308 7.56721 5.76917 8.19173 5.77056Z" fill="#5D5FEF"/>
<path d="M0.614295 13.3709C0.614295 12.7645 0.615686 12.1567 0.614295 11.5502C0.612904 11.2067 0.764513 11.0537 1.12198 11.0565C2.35293 11.0676 3.58388 11.0662 4.81483 11.0579C5.22097 11.0551 5.36841 11.247 5.36702 11.6323C5.36006 12.8285 5.35867 14.0247 5.36702 15.2222C5.3698 15.6131 5.21124 15.7967 4.81205 15.7939C3.5811 15.7869 2.35015 15.7855 1.11919 15.7953C0.763122 15.7981 0.611514 15.6395 0.614295 15.2973C0.617077 14.6547 0.614295 14.0121 0.614295 13.3709Z" fill="#5D5FEF"/>
<path d="M8.10111 15.9231C7.49468 15.9231 6.88685 15.9161 6.28041 15.9259C5.95355 15.9314 5.79499 15.7868 5.79499 15.4641C5.7936 14.1984 5.7936 12.9326 5.79499 11.6669C5.79499 11.3539 5.92991 11.1912 6.2679 11.1926C7.51693 11.201 8.76457 11.1996 10.0136 11.1926C10.3891 11.1912 10.5463 11.3637 10.5449 11.7309C10.5394 12.9451 10.5366 14.1594 10.5463 15.3723C10.5491 15.777 10.3613 15.9314 9.97466 15.9259C9.35014 15.9175 8.72563 15.9245 8.10111 15.9231Z" fill="#5D5FEF"/>
<path d="M13.5604 15.9241C12.9706 15.9241 12.3809 15.9102 11.7911 15.9296C11.4003 15.9422 11.2111 15.8003 11.2139 15.3941C11.2222 14.1632 11.2195 12.9309 11.2153 11.6999C11.2139 11.3216 11.3905 11.1867 11.7619 11.1908C12.9762 11.2047 14.1904 11.202 15.4047 11.1922C15.7983 11.1894 15.9736 11.3508 15.9708 11.75C15.9611 12.9642 15.9624 14.1785 15.9694 15.3928C15.9708 15.7669 15.8011 15.9296 15.4325 15.9269C14.8094 15.9185 14.1849 15.9227 13.5604 15.9241Z" fill="#5D5FEF"/>
<path d="M2.74274 16.6185C3.33249 16.6185 3.92223 16.6311 4.51198 16.6144C4.92229 16.6032 5.12397 16.7562 5.12119 17.186C5.11146 18.3822 5.11007 19.5798 5.12258 20.776C5.12676 21.2071 4.92786 21.356 4.51893 21.3532C3.32275 21.3421 2.12518 21.3393 0.929003 21.3546C0.528422 21.3601 0.361513 21.2044 0.364295 20.8066C0.37264 19.5923 0.37264 18.3794 0.364295 17.1652C0.361513 16.7743 0.514513 16.5991 0.923439 16.613C1.52848 16.6352 2.13631 16.6185 2.74274 16.6185Z" fill="#5D5FEF"/>
<path d="M10.5417 18.9982C10.5417 19.588 10.5292 20.1777 10.5459 20.7675C10.5584 21.1959 10.3678 21.3558 9.95333 21.3531C8.75715 21.3419 7.55958 21.3364 6.3634 21.3558C5.92387 21.3628 5.78339 21.1722 5.78617 20.7647C5.79591 19.5685 5.79452 18.3709 5.78756 17.1748C5.78478 16.7909 5.92248 16.6073 6.33836 16.6142C7.55262 16.6309 8.76688 16.6268 9.97975 16.617C10.3762 16.6142 10.55 16.7839 10.5431 17.1789C10.5333 17.784 10.5417 18.3918 10.5417 18.9982Z" fill="#5D5FEF"/>
</svg>
