<?xml version="1.0" encoding="UTF-8" standalone="no"?>
<!DOCTYPE svg PUBLIC "-//W3C//DTD SVG 1.1//EN" "http://www.w3.org/Graphics/SVG/1.1/DTD/svg11.dtd">
<svg xmlns="http://www.w3.org/2000/svg" version="1.1" viewBox="00.00 10.00 565.00 442.00" transform="scale(1.8)">
<path fill="#e0ebff" d="
  M 529.33 268.07
  Q 526.01 275.61 524.83 277.68
  Q 519.08 287.83 512.46 297.43
  C 506.20 306.52 496.48 311.72 487.34 317.29
  Q 483.10 319.88 478.70 321.29
  C 463.26 326.28 445.93 329.98 429.77 333.31
  Q 420.70 335.18 410.61 336.21
  Q 388.95 338.44 375.25 339.01
  Q 333.60 340.73 279.00 339.23
  C 248.96 338.40 224.29 337.63 199.41 334.89
  C 180.68 332.83 157.48 332.22 143.25 331.01
  Q 128.72 329.77 88.70 325.37
  C 63.27 322.57 36.90 318.83 15.00 316.97
  Q 12.77 316.78 11.58 316.43
  A 0.78 0.78 0.0 0 1 11.01 315.68
  C 11.01 306.49 12.09 297.71 13.08 288.59
  Q 14.05 279.56 15.66 270.50
  C 18.03 257.20 20.15 243.87 23.58 230.84
  Q 25.14 224.89 26.73 218.94
  Q 28.33 213.02 30.77 207.36
  Q 36.68 193.65 42.74 180.01
  C 46.28 172.06 51.30 163.29 56.77 156.51
  Q 63.76 147.85 70.62 139.07
  Q 72.10 137.18 74.16 135.89
  Q 95.08 122.82 118.71 115.87
  Q 120.51 115.34 123.82 115.15
  C 126.13 115.02 128.67 114.27 130.74 114.05
  Q 158.20 111.19 185.76 109.65
  Q 195.04 109.13 205.75 109.07
  C 229.86 108.94 254.14 108.53 278.24 109.37
  Q 343.41 111.64 361.50 112.81
  Q 378.53 113.90 421.84 118.79
  C 454.77 122.50 487.63 126.84 520.58 130.56
  C 528.75 131.48 538.23 133.23 545.14 134.10
  C 548.30 134.50 549.14 136.10 548.99 139.22
  Q 547.99 159.92 547.88 180.62
  Q 547.85 187.35 546.88 193.82
  C 544.99 206.48 543.39 219.86 541.04 231.72
  C 538.21 246.04 535.07 255.06 529.33 268.07
  Z
  M 21.18 282.60
  Q 19.61 293.50 18.89 304.50
  Q 18.73 306.94 19.24 308.62
  Q 19.58 309.71 20.72 309.84
  Q 57.39 313.73 93.81 318.04
  Q 104.16 319.26 113.71 320.12
  Q 156.59 324.01 199.50 327.66
  Q 225.60 329.88 236.13 329.90
  C 254.28 329.94 272.61 330.99 290.50 331.01
  Q 328.81 331.05 367.12 330.94
  C 391.62 330.87 416.56 328.64 439.99 324.70
  Q 458.25 321.63 476.61 314.68
  Q 485.54 311.29 491.68 306.95
  Q 503.83 298.36 511.68 286.22
  C 529.09 259.31 537.14 224.38 540.03 192.48
  C 541.44 176.87 541.19 159.74 540.93 143.74
  A 2.66 2.65 3.2 0 0 538.60 141.14
  Q 474.33 133.30 411.11 126.02
  Q 394.03 124.06 364.36 121.99
  Q 331.93 119.72 299.48 117.61
  Q 289.57 116.97 279.50 116.98
  Q 239.00 117.01 198.50 117.01
  C 177.54 117.01 154.84 118.69 135.75 121.79
  Q 125.66 123.43 108.36 127.95
  Q 102.42 129.50 97.48 131.99
  Q 90.66 135.42 84.13 139.38
  C 75.35 144.71 69.87 152.55 63.32 160.16
  C 56.32 168.31 51.49 178.21 46.75 187.72
  Q 42.43 196.39 39.18 206.19
  Q 26.78 243.56 21.18 282.60
  Z"
/>
<path fill="#e0ebff" d="
  M 73.45 236.25
  Q 78.42 210.85 83.29 185.43
  C 84.60 178.59 82.87 173.57 87.94 167.34
  Q 88.24 166.98 88.71 166.98
  Q 92.79 166.98 105.76 166.99
  C 110.65 167.00 110.42 170.43 109.66 174.22
  C 106.65 189.33 105.10 205.57 101.07 221.66
  Q 100.23 225.03 99.76 229.98
  Q 99.06 237.36 96.59 244.29
  Q 94.18 251.08 89.46 256.93
  C 83.13 264.76 75.52 269.76 65.76 273.05
  Q 62.72 274.07 59.15 274.03
  C 56.15 274.00 51.06 274.60 48.53 273.15
  C 44.52 270.86 45.98 263.06 47.19 258.69
  Q 48.58 253.71 52.40 251.87
  C 56.26 250.01 61.96 252.31 65.54 248.45
  Q 68.70 245.03 71.38 241.23
  Q 72.90 239.07 73.45 236.25
  Z"
/>
<path fill="#e0ebff" d="
  M 431.01 167.16
  L 432.50 169.32
  Q 432.77 169.72 432.52 170.14
  L 425.00 182.53
  Q 424.73 182.97 424.22 182.97
  Q 413.44 183.07 402.67 182.96
  C 399.84 182.93 396.93 182.22 394.05 181.92
  A 1.90 1.90 0.0 0 1 392.66 178.97
  L 399.70 168.46
  Q 399.99 168.02 400.52 168.00
  L 430.72 167.01
  A 0.35 0.32 69.9 0 1 431.01 167.16
  Z"
/>
<path fill="#e0ebff" d="
  M 331.96 245.55
  Q 332.32 252.11 330.92 258.53
  A 1.44 1.44 0.0 0 1 330.35 259.39
  C 327.44 261.45 325.03 262.99 321.23 263.00
  Q 314.91 263.00 309.50 263.00
  A 3.49 3.48 -86.7 0 1 306.04 259.11
  C 306.95 251.11 307.75 243.05 309.20 235.03
  Q 312.85 214.85 316.52 194.67
  C 317.14 191.23 318.92 188.61 320.60 185.75
  A 3.47 3.47 0.0 0 1 323.70 184.03
  C 336.33 184.40 349.45 184.26 362.11 185.83
  Q 363.92 186.06 365.45 187.06
  C 368.55 189.07 372.12 190.67 374.03 193.98
  C 375.81 197.06 377.98 199.94 378.04 203.62
  Q 378.14 208.78 377.84 210.36
  Q 377.11 214.27 372.02 226.38
  C 370.39 230.26 365.52 235.05 361.94 237.20
  Q 356.63 240.40 350.89 242.67
  Q 347.00 244.22 342.24 244.56
  Q 337.32 244.92 332.40 245.08
  Q 331.94 245.09 331.96 245.55
  Z
  M 334.26 203.42
  L 331.70 224.05
  A 0.65 0.64 7.9 0 0 332.24 224.76
  C 337.03 225.50 346.67 225.17 350.22 221.24
  C 353.95 217.10 358.12 207.66 351.17 204.02
  C 347.43 202.06 339.12 202.88 334.68 203.04
  Q 334.31 203.05 334.26 203.42
  Z"
/>
<path fill="#e0ebff" d="
  M 497.00 186.26
  Q 506.46 189.82 511.35 197.16
  C 527.65 221.61 512.57 246.90 489.90 259.39
  Q 478.06 265.92 465.04 263.56
  C 460.91 262.82 453.89 260.47 450.43 257.71
  Q 438.43 248.16 436.46 233.08
  C 435.82 228.17 437.17 223.88 438.32 218.98
  C 439.48 214.03 442.69 209.57 445.20 205.20
  Q 446.90 202.23 449.31 200.14
  Q 457.22 193.27 466.16 187.77
  C 473.70 183.13 481.87 184.03 490.25 183.99
  C 492.05 183.98 495.32 185.63 497.00 186.26
  Z
  M 491.73 231.72
  C 495.75 226.97 496.16 219.10 493.83 213.56
  C 490.48 205.59 480.28 204.61 473.06 206.66
  C 468.75 207.88 464.70 212.28 461.93 215.53
  C 459.11 218.83 458.88 223.06 458.86 227.17
  Q 458.84 230.69 460.51 233.41
  C 468.50 246.40 483.76 241.13 491.73 231.72
  Z"
/>
<path fill="#e0ebff" d="
  M 147.52 248.05
  Q 133.28 247.88 125.50 248.02
  Q 124.47 248.04 123.39 248.75
  A 1.62 1.61 84.5 0 0 122.77 249.51
  Q 120.22 255.97 116.09 261.58
  Q 115.80 261.98 115.31 261.98
  Q 107.17 262.04 98.99 262.01
  Q 97.24 262.01 94.37 260.04
  Q 93.97 259.76 93.95 259.27
  Q 93.76 255.74 95.86 252.20
  Q 105.51 235.90 131.04 191.65
  C 132.24 189.58 133.93 188.11 135.62 186.49
  Q 135.92 186.20 136.35 186.17
  L 154.56 185.17
  A 4.98 4.95 78.2 0 1 159.48 188.40
  C 160.58 191.38 161.84 194.49 162.62 197.69
  Q 168.71 222.42 173.72 247.39
  C 174.35 250.54 174.50 253.94 174.80 257.04
  A 4.53 4.52 -2.8 0 1 170.29 262.00
  L 153.71 262.00
  A 2.00 2.00 0.0 0 1 152.18 261.29
  Q 147.55 255.82 148.02 248.59
  Q 148.06 248.05 147.52 248.05
  Z
  M 148.20 227.35
  L 143.67 203.46
  A 0.65 0.65 0.0 0 0 142.54 203.16
  Q 142.35 203.38 142.14 203.81
  Q 136.08 215.90 130.02 227.82
  A 0.83 0.82 -76.5 0 0 130.75 229.02
  L 146.85 228.98
  A 1.37 1.37 0.0 0 0 148.20 227.35
  Z"
/>
<path fill="#e0ebff" d="
  M 206.06 238.98
  Q 213.60 239.06 222.00 238.99
  C 223.68 238.97 224.90 239.31 226.45 239.79
  Q 226.90 239.93 226.96 240.40
  Q 227.40 243.95 225.53 246.92
  C 222.54 251.65 219.91 256.67 217.11 261.52
  A 0.88 0.87 14.7 0 1 216.35 261.96
  Q 198.78 262.10 181.25 261.93
  Q 180.03 261.92 177.37 259.99
  Q 176.98 259.71 177.04 259.23
  C 177.59 255.24 177.83 251.12 178.60 247.27
  Q 183.96 220.41 188.62 193.42
  C 189.21 189.98 190.93 188.03 192.88 185.34
  Q 193.12 185.00 193.54 185.00
  L 209.75 185.00
  A 3.36 3.35 -86.7 0 1 213.08 188.74
  C 212.53 193.56 212.19 198.11 211.06 202.83
  Q 207.11 219.38 204.77 237.49
  Q 204.58 238.96 206.06 238.98
  Z"
/>
<path fill="#e0ebff" d="
  M 276.51 248.02
  Q 265.50 247.93 254.50 248.08
  C 253.00 248.10 252.16 248.60 251.56 250.06
  Q 249.02 256.18 245.11 261.56
  Q 244.81 261.96 244.32 261.97
  Q 236.49 262.08 228.63 261.97
  C 226.48 261.94 225.13 261.12 223.34 260.15
  Q 222.84 259.88 222.85 259.31
  Q 222.90 255.53 225.44 251.19
  Q 242.77 221.59 259.91 191.87
  C 261.18 189.67 262.83 188.16 264.63 186.48
  Q 264.94 186.20 265.35 186.17
  L 283.55 185.17
  A 4.97 4.96 77.9 0 1 288.44 188.34
  C 289.66 191.49 290.92 194.78 291.76 198.22
  Q 297.76 222.70 302.72 247.41
  C 303.34 250.47 303.46 253.79 303.80 256.82
  A 4.67 4.66 -3.2 0 1 299.16 262.00
  L 282.74 262.00
  A 2.07 2.05 69.6 0 1 281.17 261.27
  Q 276.54 255.80 277.02 248.57
  Q 277.06 248.02 276.51 248.02
  Z
  M 276.61 228.99
  A 0.72 0.72 0.0 0 0 277.32 228.14
  L 272.71 203.42
  A 0.72 0.72 0.0 0 0 271.36 203.23
  L 259.01 227.96
  A 0.72 0.72 0.0 0 0 259.66 229.00
  L 276.61 228.99
  Z"
/>
<path fill="#e0ebff" d="
  M 411.53 248.04
  Q 397.69 247.89 389.50 248.02
  C 388.10 248.04 387.11 248.68 386.55 250.06
  Q 384.05 256.24 380.07 261.59
  Q 379.77 261.99 379.27 261.99
  Q 371.44 262.03 363.64 261.97
  C 361.53 261.95 360.20 261.15 358.45 260.21
  Q 357.99 259.96 357.95 259.44
  Q 357.72 255.79 359.86 252.19
  Q 370.61 234.05 395.69 190.49
  Q 396.42 189.23 399.70 186.52
  Q 400.09 186.20 400.60 186.17
  L 418.54 185.17
  A 4.97 4.96 -12.1 0 1 423.45 188.34
  C 424.66 191.49 425.92 194.78 426.76 198.21
  Q 432.73 222.61 437.69 247.23
  C 438.32 250.39 438.49 253.78 438.79 256.89
  A 4.65 4.65 0.0 0 1 434.16 262.00
  L 417.72 262.00
  A 2.01 2.00 69.6 0 1 416.20 261.30
  Q 411.54 255.84 412.02 248.58
  Q 412.06 248.05 411.53 248.04
  Z
  M 412.20 227.35
  L 407.67 203.43
  A 0.60 0.60 0.0 0 0 406.67 203.10
  Q 405.89 203.81 405.29 205.06
  Q 399.75 216.58 393.94 228.05
  A 0.66 0.66 0.0 0 0 394.53 229.01
  L 410.85 228.99
  A 1.38 1.38 0.0 0 0 412.20 227.35
  Z"
/>
<path fill="#e0ebff" d="
  M 450.5517 290.8542
  A 10.22 10.22 0.0 0 1 440.5298 301.2685
  L 438.5102 301.3073
  A 10.22 10.22 0.0 0 1 428.0959 291.2854
  L 428.0483 288.8058
  A 10.22 10.22 0.0 0 1 438.0702 278.3915
  L 440.0898 278.3527
  A 10.22 10.22 0.0 0 1 450.5041 288.3746
  L 450.5517 290.8542
  Z
  M 439.2800 297.2600
  A 7.47 5.58 90.0 0 0 444.8600 289.7900
  A 7.47 5.58 90.0 0 0 439.2800 282.3200
  A 7.47 5.58 90.0 0 0 433.7000 289.7900
  A 7.47 5.58 90.0 0 0 439.2800 297.2600
  Z"
/>
<path fill="#e0ebff" d="
  M 474.79 294.85
  A 2.29 2.28 6.0 0 0 473.07 292.73
  Q 470.21 292.00 467.34 290.88
  C 461.91 288.75 461.96 281.95 467.13 279.48
  C 472.38 276.97 479.59 278.35 480.33 285.09
  Q 480.37 285.49 479.96 285.49
  L 475.26 285.50
  Q 474.76 285.50 474.63 285.01
  Q 473.90 282.16 470.80 282.53
  A 1.69 1.68 82.3 0 0 469.33 284.47
  C 469.84 287.75 476.86 287.84 479.25 290.27
  C 482.83 293.93 480.54 299.59 475.85 300.98
  C 470.87 302.44 462.95 301.04 462.59 294.71
  Q 462.57 294.26 463.03 294.26
  L 467.70 294.25
  Q 468.13 294.25 468.30 294.65
  C 469.49 297.59 474.93 298.43 474.79 294.85
  Z"
/>
<path fill="#e0ebff" d="
  M 224.00 295.25
  L 217.49 295.25
  A 0.35 0.35 0.0 0 0 217.15 295.49
  L 215.49 300.76
  A 0.35 0.35 0.0 0 1 215.15 301.00
  L 209.75 301.00
  A 0.35 0.35 0.0 0 1 209.42 300.53
  L 217.23 278.98
  A 0.35 0.35 0.0 0 1 217.56 278.75
  L 224.13 278.75
  A 0.35 0.35 0.0 0 1 224.46 278.98
  L 232.25 300.53
  A 0.35 0.35 0.0 0 1 231.92 301.00
  L 226.41 301.00
  A 0.35 0.35 0.0 0 1 226.08 300.76
  L 224.33 295.49
  A 0.35 0.35 0.0 0 0 224.00 295.25
  Z
  M 218.78 290.37
  A 0.30 0.30 0.0 0 0 219.07 290.75
  L 222.46 290.76
  A 0.30 0.30 0.0 0 0 222.75 290.37
  L 221.06 284.61
  A 0.30 0.30 0.0 0 0 220.49 284.61
  L 218.78 290.37
  Z"
/>
<path fill="#e0ebff" d="
  M 250.34 296.00
  L 260.97 296.00
  A 0.33 0.33 0.0 0 1 261.30 296.33
  L 261.30 300.67
  A 0.33 0.33 0.0 0 1 260.97 301.00
  L 244.58 301.00
  A 0.33 0.33 0.0 0 1 244.25 300.67
  L 244.25 279.08
  A 0.33 0.33 0.0 0 1 244.58 278.75
  L 249.68 278.75
  A 0.33 0.33 0.0 0 1 250.01 279.08
  L 250.01 295.67
  A 0.33 0.33 0.0 0 0 250.34 296.00
  Z"
/>
<rect fill="#e0ebff" x="274.25" y="278.73" width="5.76" height="22.26" rx="0.32"/>
<path fill="#e0ebff" d="
  M 299.80 286.25
  L 299.90 300.42
  Q 299.91 301.00 299.33 301.00
  L 294.53 301.00
  Q 294.07 301.00 294.07 300.53
  L 294.07 279.22
  Q 294.07 278.75 294.53 278.75
  L 302.69 278.75
  A 0.56 0.55 83.4 0 1 303.23 279.18
  L 306.62 294.00
  Q 306.94 295.39 307.26 294.00
  L 310.64 279.24
  Q 310.75 278.75 311.25 278.75
  L 319.01 278.75
  Q 319.52 278.75 319.52 279.26
  L 319.53 300.42
  Q 319.53 301.00 318.95 301.00
  L 314.25 301.00
  Q 313.75 301.00 313.75 300.50
  L 313.78 286.74
  A 0.17 0.17 0.0 0 0 313.45 286.69
  L 309.97 300.36
  Q 309.80 301.00 309.14 301.00
  L 304.29 301.00
  Q 303.83 300.99 303.72 300.55
  L 300.04 286.21
  A 0.12 0.12 0.0 0 0 299.80 286.25
  Z"
/>
<path fill="#e0ebff" d="
  M 339.40 292.36
  L 339.42 296.14
  A 0.36 0.36 0.0 0 0 339.78 296.50
  L 350.37 296.50
  A 0.36 0.36 0.0 0 1 350.73 296.86
  L 350.72 300.64
  A 0.36 0.36 0.0 0 1 350.36 301.00
  L 333.98 301.00
  A 0.36 0.36 0.0 0 1 333.62 300.64
  L 333.62 279.11
  A 0.36 0.36 0.0 0 1 333.98 278.75
  L 350.02 278.75
  A 0.36 0.36 0.0 0 1 350.38 279.11
  L 350.38 282.89
  A 0.36 0.36 0.0 0 1 350.02 283.25
  L 339.78 283.25
  A 0.36 0.36 0.0 0 0 339.42 283.61
  L 339.41 287.14
  A 0.36 0.36 0.0 0 0 339.77 287.50
  L 349.39 287.50
  A 0.36 0.36 0.0 0 1 349.75 287.86
  L 349.75 291.64
  A 0.36 0.36 0.0 0 1 349.39 292.00
  L 339.76 292.00
  A 0.36 0.36 0.0 0 0 339.40 292.36
  Z"
/>
<path fill="#e0ebff" d="
  M 379.52 292.81
  L 379.49 279.26
  Q 379.49 278.75 379.99 278.75
  L 384.76 278.75
  Q 385.26 278.75 385.26 279.26
  L 385.26 300.49
  Q 385.26 301.00 384.76 301.00
  L 378.32 301.00
  Q 377.70 301.00 377.41 300.46
  L 370.11 287.14
  Q 369.68 286.36 369.69 287.25
  L 369.78 300.36
  Q 369.79 301.00 369.14 301.00
  L 364.49 301.00
  Q 363.99 301.00 363.99 300.49
  L 363.99 279.26
  Q 363.99 278.75 364.49 278.75
  L 370.55 278.75
  Q 371.18 278.75 371.49 279.30
  L 379.03 292.94
  Q 379.53 293.83 379.52 292.81
  Z"
/>
<path fill="#e0ebff" d="
  M 410.25 283.57
  L 410.25 300.68
  A 0.32 0.32 0.0 0 1 409.93 301.00
  L 404.80 301.00
  A 0.32 0.32 0.0 0 1 404.48 300.68
  L 404.48 283.57
  A 0.32 0.32 0.0 0 0 404.16 283.25
  L 397.55 283.25
  A 0.32 0.32 0.0 0 1 397.23 282.93
  L 397.23 279.07
  A 0.32 0.32 0.0 0 1 397.55 278.75
  L 417.18 278.75
  A 0.32 0.32 0.0 0 1 417.50 279.07
  L 417.50 282.93
  A 0.32 0.32 0.0 0 1 417.18 283.25
  L 410.57 283.25
  A 0.32 0.32 0.0 0 0 410.25 283.57
  Z"
/>
</svg>
