<svg width="201" height="50" viewBox="0 0 201 50" fill="none" xmlns="http://www.w3.org/2000/svg">
<path d="M41.2311 33.94C38.0445 33.94 34.8637 33.9001 31.6771 33.9571C30.0098 33.9855 29.401 32.8361 29.401 31.6809C29.401 27.9595 29.401 24.238 29.4067 20.5166C29.4067 19.5378 30.1123 18.7412 31.091 18.6046C31.4722 18.5534 31.8592 18.5477 32.2461 18.5477C36.3374 18.542 40.4345 18.5477 44.5258 18.542C45.6866 18.542 45.7435 18.4794 45.7492 17.3072C45.7492 16.7837 45.7492 16.2659 45.7435 15.7424C45.7435 15.2303 45.5045 14.9344 44.9753 14.9059C44.7022 14.8945 44.429 14.8832 44.1559 14.8775C39.9508 14.8775 35.74 14.8775 31.5348 14.8775C31.2617 14.8775 30.9886 14.8775 30.7154 14.8718C29.5091 14.8433 29.401 14.7295 29.401 13.5346C29.401 13.1249 29.3953 12.7152 29.401 12.3112C29.4123 11.4804 29.6229 11.2641 30.4423 11.2357C30.7609 11.2243 31.0796 11.2243 31.3983 11.2243C36.5594 11.2243 41.7262 11.2243 46.8873 11.2243C49.2032 11.2243 49.5503 11.5771 49.5503 13.9158C49.5446 18.8209 49.5389 23.7202 49.5389 28.6252C49.5389 28.9154 49.5048 29.2682 49.6471 29.4845C49.8348 29.769 50.1592 29.9909 50.4665 30.1559C50.6429 30.2527 50.9103 30.1787 51.1379 30.1844C52.0142 30.2015 52.2987 30.4575 52.3442 31.2997C52.3727 31.772 52.3727 32.2557 52.3442 32.7279C52.2873 33.6099 51.9459 33.9343 51.0469 33.9343C47.7806 33.94 44.503 33.94 41.2311 33.94ZM40.9523 30.0194C42.2497 30.0194 43.5414 30.0137 44.8387 30.0251C45.4192 30.0307 45.7549 29.8031 45.7549 29.2C45.7549 27.2254 45.7663 25.2509 45.7378 23.2821C45.7207 22.4342 45.5671 22.2976 44.7079 22.2919C42.1415 22.2749 39.5695 22.3033 37.0032 22.2749C36.2692 22.2692 36.0529 22.6106 36.0529 23.265C36.0529 25.1712 36.0302 27.0775 36.0415 28.9837C36.0472 29.7804 36.3204 30.0251 37.1341 30.0307C38.4087 30.0307 39.6776 30.0251 40.9523 30.0194Z" fill="#E0EBFF"/>
<path d="M64.4645 33.94C61.7104 33.94 58.962 33.9457 56.2079 33.94C54.5861 33.94 54.074 33.4336 54.074 31.8403C54.074 30.5941 54.0626 29.3422 54.0797 28.0961C54.0911 27.2767 54.3301 27.0491 55.1438 27.0434C55.8721 27.0377 56.6005 27.0377 57.3289 27.0434C58.0629 27.0491 58.2393 27.2141 58.2621 27.9709C58.2791 28.4944 58.2735 29.0122 58.2735 29.5357C58.2791 30.0592 58.5124 30.3096 59.0701 30.3039C61.7332 30.2868 64.3905 30.3039 67.0536 30.2925C67.7819 30.2925 67.9925 30.0877 67.9982 29.3593C68.0096 28.0221 68.0039 26.6792 67.9982 25.342C67.9925 24.4429 67.8388 24.2836 66.9113 24.2779C64.3621 24.2665 61.8185 24.2722 59.2693 24.2722C58.1084 24.2722 56.9476 24.2836 55.7925 24.2665C54.5691 24.2437 54.0512 23.7259 54.0456 22.5025C54.0342 19.4411 54.0342 16.3741 54.0399 13.3127C54.0456 11.9356 54.7284 11.2357 56.1453 11.23C60.487 11.213 64.8344 11.2243 69.1761 11.2186C70.519 11.2186 71.8619 11.213 73.1991 11.2243C74.1608 11.2357 74.6217 11.6966 74.6274 12.6412C74.6331 14.0012 74.6388 15.3669 74.6217 16.7269C74.616 17.6373 74.286 17.956 73.3869 17.9616C72.7268 17.9673 72.0667 17.973 71.4067 17.9616C70.4507 17.9389 70.1548 17.6259 70.1434 16.687C70.1377 16.3001 70.1207 15.9188 70.115 15.5319C70.1093 15.0255 69.8646 14.8149 69.3468 14.8206C67.3893 14.832 65.4375 14.8149 63.4801 14.8149C62.0689 14.8149 60.6577 14.8377 59.2522 14.8092C58.5693 14.7922 58.2848 15.1222 58.2791 15.7367C58.2621 17.0284 58.2678 18.3258 58.2735 19.6175C58.2735 20.2435 58.6433 20.3914 59.2124 20.3914C63.6906 20.38 68.1746 20.38 72.6528 20.3914C73.0568 20.3914 73.4836 20.4369 73.8478 20.5792C74.377 20.784 74.6217 21.2563 74.6217 21.8311C74.6274 25.3477 74.6388 28.8643 74.6217 32.3809C74.616 33.4165 74.0299 33.9343 72.9829 33.9343C70.1491 33.94 67.304 33.94 64.4645 33.94Z" fill="#E0EBFF"/>
<path d="M99.2158 22.6903C99.2158 25.911 99.2158 29.1317 99.2158 32.3581C99.2158 33.5872 98.8744 33.9343 97.6339 33.9343C91.8583 33.94 86.0826 33.94 80.3069 33.9343C79.0266 33.9343 78.6795 33.5758 78.6795 32.324C78.6738 25.837 78.6738 19.3444 78.6738 12.8575C78.6738 11.6796 79.0722 11.2471 80.2614 11.2414C86.0598 11.2243 91.8582 11.2243 97.6567 11.2357C98.772 11.2357 99.2158 11.6909 99.2215 12.8233C99.2329 16.1123 99.2272 19.4013 99.2272 22.696C99.2215 22.6903 99.2215 22.6903 99.2158 22.6903ZM82.6058 22.5708C82.6001 22.5708 82.5888 22.5708 82.5831 22.5708C82.5831 24.8185 82.5774 27.0604 82.5888 29.3081C82.5944 30.1389 82.7595 30.3153 83.5049 30.321C86.2305 30.3267 88.9619 30.3153 91.6875 30.3324C92.3078 30.338 92.5638 30.0592 92.5638 29.4788C92.5695 28.6822 92.5582 27.8912 92.5695 27.0946C92.5866 25.985 92.5411 24.864 92.6777 23.7714C92.8597 22.2578 93.9124 21.1255 94.601 19.8338C94.9196 19.2306 95.1472 18.5477 95.2611 17.8763C95.3692 17.239 95.2952 16.5618 95.2838 15.9075C95.261 15.0084 95.079 14.8377 94.1913 14.8377C90.7373 14.8377 87.2776 14.8377 83.8235 14.8377C82.7367 14.8377 82.6172 14.9458 82.6115 16.0383C82.6001 18.212 82.6058 20.3914 82.6058 22.5708Z" fill="#E0EBFF"/>
<path d="M180.2 22.5764C180.2 19.3557 180.2 16.135 180.2 12.9086C180.2 11.6567 180.604 11.23 181.879 11.2243C187.632 11.2129 193.385 11.2129 199.138 11.2186C200.281 11.2186 200.759 11.7079 200.759 12.8403C200.759 19.3728 200.759 25.9109 200.754 32.4434C200.754 33.5416 200.384 33.9286 199.285 33.9286C193.442 33.9399 187.598 33.9399 181.759 33.9286C180.576 33.9286 180.217 33.5473 180.217 32.3694C180.206 29.1089 180.206 25.8426 180.2 22.5764C180.206 22.5764 180.206 22.5764 180.2 22.5764ZM190.426 14.8376C188.679 14.8376 186.926 14.8376 185.179 14.8376C184.292 14.8376 184.127 14.9856 184.121 15.8448C184.109 20.3344 184.109 24.8241 184.115 29.3137C184.115 30.1616 184.274 30.3209 185.1 30.3209C187.757 30.3266 190.414 30.3266 193.072 30.3209C193.931 30.3209 194.085 30.1673 194.096 29.2796C194.107 28.261 194.158 27.2368 194.085 26.2182C193.937 24.164 194.369 22.2748 195.661 20.6645C196.861 19.1736 196.913 17.4722 196.816 15.7082C196.782 15.1107 196.52 14.8205 195.877 14.8262C194.056 14.8547 192.241 14.8376 190.426 14.8376Z" fill="#E0EBFF"/>
<path d="M25.3622 17.009C25.3622 21.8628 25.3679 26.7224 25.3565 31.5762C25.3565 31.9574 25.3167 32.3501 25.2143 32.7142C24.981 33.545 24.4233 33.9434 23.5698 33.9434C16.565 33.9434 9.56593 33.949 2.56117 33.9434C1.07601 33.9434 0.433002 33.3117 0.421621 31.8379C0.410241 28.9131 0.410241 25.9826 0.421621 23.0578C0.427312 21.9425 0.677685 21.7206 1.79867 21.7149C2.29942 21.7149 2.80017 21.7149 3.30091 21.7149C3.87563 21.7149 4.20567 22.0165 4.23412 22.5741C4.27964 23.4334 4.27964 24.2983 4.28533 25.1575C4.29102 26.563 4.3081 27.9685 4.27964 29.3797C4.26826 30.0057 4.4845 30.2902 5.13888 30.2902C9.13916 30.2788 13.1394 30.2902 17.1454 30.2731C18.4087 30.2674 18.5851 30.0512 18.5851 28.7766C18.5907 25.8517 18.5509 22.9212 18.6306 19.9964C18.6476 19.2965 18.9379 18.5113 19.3362 17.9309C22.1699 13.8225 21.5554 15.3133 21.6123 10.5619C21.6464 7.77367 21.618 4.97973 21.618 2.19149C21.618 1.10464 21.8399 0.888407 22.9381 0.882717C23.3478 0.882717 23.7575 0.877027 24.1672 0.882717C24.9923 0.899788 25.3508 1.26397 25.3565 2.10613C25.3622 3.73925 25.3565 5.37236 25.3565 7.00548C25.3622 10.3343 25.3622 13.6688 25.3622 17.009Z" fill="#E0EBFF"/>
<path d="M173.166 14.9174C173.166 16.8521 173.12 18.6673 173.183 20.4768C173.234 21.9563 172.961 23.3219 172.102 24.534C170.884 26.2581 170.406 28.153 170.605 30.247C170.679 30.9868 170.617 31.7436 170.617 32.4947C170.611 33.7067 170.395 33.9343 169.2 33.94C168.722 33.9457 168.244 33.9514 167.766 33.9343C167.037 33.9116 166.685 33.5929 166.605 32.8759C166.576 32.6313 166.588 32.3752 166.588 32.1305C166.588 26.7077 166.588 21.2848 166.588 15.8619C166.588 15.5945 166.588 15.3214 166.588 14.9117C165.842 14.9117 165.148 14.9117 164.46 14.9117C163.077 14.906 162.872 14.7011 162.872 13.3468C162.872 11.2243 162.872 11.2243 165.04 11.2243C165.512 11.2243 165.99 11.2243 166.537 11.2243C166.554 10.9114 166.588 10.6496 166.588 10.3879C166.594 7.9126 166.588 5.44301 166.594 2.96773C166.594 1.48825 167.174 0.879387 168.636 0.873697C173.206 0.862316 177.775 0.868007 182.344 0.873697C183.511 0.873697 183.966 1.33461 183.972 2.47267C183.977 3.6278 183.96 4.78862 183.977 5.94375C183.983 6.54123 183.727 6.83144 183.13 6.83144C182.31 6.83144 181.491 6.83144 180.677 6.84282C180.085 6.84851 179.818 6.564 179.795 5.97789C179.732 4.5098 179.721 4.5098 178.264 4.5098C176.608 4.5098 174.953 4.5098 173.24 4.5098C173.24 6.75747 173.24 8.93685 173.24 11.2243C174.258 11.2243 175.271 11.2243 176.284 11.2243C177.377 11.2243 177.581 11.4349 177.604 12.5445C177.61 12.9997 177.593 13.4549 177.604 13.9045C177.621 14.5475 177.342 14.8832 176.677 14.8832C175.835 14.8832 174.992 14.9003 174.156 14.9117C173.854 14.9174 173.564 14.9174 173.166 14.9174Z" fill="#E0EBFF"/>
<path d="M124.451 22.8894C124.451 26.1784 124.451 29.4731 124.451 32.7621C124.451 33.7977 124.309 33.9343 123.268 33.94C122.608 33.94 121.947 33.9286 121.287 33.94C120.718 33.9514 120.457 33.6555 120.411 33.1206C120.394 32.893 120.405 32.6654 120.4 32.4378C120.394 27.0377 120.388 21.6319 120.383 16.2318C120.383 16.0269 120.377 15.8221 120.377 15.6172C120.377 14.9685 120.07 14.6954 119.404 14.7011C117.219 14.7239 115.039 14.7068 112.854 14.7068C111.375 14.7068 109.895 14.7011 108.422 14.7068C107.608 14.7125 107.431 14.8832 107.42 15.714C107.409 16.5561 107.363 17.3983 107.437 18.2291C107.488 18.7697 107.608 19.4013 107.921 19.811C109.571 21.9619 110.112 24.3632 109.935 27.0263C109.81 28.9268 109.918 30.8388 109.907 32.745C109.901 33.775 109.742 33.9229 108.723 33.9229C107.221 33.9229 105.719 33.9059 104.222 33.9286C103.608 33.94 103.346 33.6669 103.317 33.0921C103.312 32.9328 103.306 32.7735 103.306 32.6142C103.289 26.0305 103.266 19.4525 103.249 12.8688C103.243 11.543 103.551 11.2129 104.888 11.2129C110.823 11.2016 116.764 11.2016 122.699 11.2129C123.99 11.2129 124.445 11.6966 124.445 12.9997C124.451 16.3058 124.451 19.6004 124.451 22.8894Z" fill="#E0EBFF"/>
<path d="M139.65 22.6618C139.65 19.3728 139.65 16.0838 139.65 12.7891C139.65 11.543 139.946 11.23 141.221 11.23C146.405 11.2243 151.589 11.2243 156.773 11.2243C157.546 11.2243 158.32 11.2129 159.094 11.23C160.266 11.2527 160.767 11.7364 160.767 12.8916C160.773 19.5606 160.773 26.2353 160.767 32.9043C160.767 33.8034 160.631 33.9343 159.743 33.94C159.06 33.9457 158.377 33.9457 157.694 33.94C157.029 33.9343 156.761 33.6725 156.727 33.0011C156.716 32.7962 156.721 32.5914 156.721 32.3865C156.721 26.8954 156.721 21.4042 156.721 15.9131C156.721 14.8035 156.636 14.7181 155.515 14.7181C151.947 14.7181 148.374 14.7181 144.806 14.7181C143.895 14.7181 143.753 14.8661 143.736 15.7879C143.736 15.9017 143.747 16.0155 143.736 16.1293C143.497 18.1323 143.981 19.9248 145.238 21.5294C146.024 22.5252 146.263 23.7373 146.268 24.9891C146.28 27.601 146.28 30.2071 146.274 32.819C146.274 33.7351 146.052 33.9457 145.159 33.9457C143.679 33.9457 142.205 33.9457 140.726 33.9457C139.804 33.9457 139.65 33.7977 139.65 32.8759C139.65 29.4674 139.65 26.0646 139.65 22.6618Z" fill="#E0EBFF"/>
<path d="M129.271 17.4097C129.271 12.3738 129.271 7.33215 129.271 2.29624C129.271 1.14111 129.555 0.862284 130.722 0.856594C131.291 0.856594 131.86 0.850904 132.429 0.856594C133.1 0.867975 133.424 1.16387 133.493 1.82963C133.515 2.07432 133.51 2.33038 133.51 2.57506C133.504 5.84129 133.493 9.11322 133.498 12.3794C133.498 13.1932 133.521 14.0183 133.629 14.8263C133.692 15.3043 133.84 15.8335 134.124 16.2033C135.592 18.0925 136.053 20.1979 135.951 22.5708C135.809 25.8313 135.917 29.1032 135.917 32.3752C135.917 33.5303 135.53 33.9229 134.363 33.9343C133.043 33.9457 131.723 33.9457 130.409 33.9343C129.481 33.9286 129.293 33.7238 129.293 32.728C129.288 27.6238 129.293 22.5139 129.293 17.4097C129.282 17.4097 129.276 17.4097 129.271 17.4097Z" fill="#E0EBFF"/>
<path d="M182.173 43.1241C182.173 43.9605 182.196 44.706 182.167 45.4457C182.139 46.0716 181.729 46.4017 181.137 46.4074C179.476 46.4358 177.82 46.4472 176.158 46.4017C175.413 46.3789 175.151 46.0489 175.14 45.3148C175.123 44.1597 175.123 42.9989 175.14 41.8438C175.151 41.0528 175.402 40.774 176.21 40.7569C177.826 40.7228 179.436 40.7171 181.052 40.7569C181.945 40.7797 182.179 41.0926 182.145 42.06C181.871 42.1112 181.587 42.1852 181.302 42.2193C181.183 42.2307 180.95 42.1738 180.944 42.1283C180.87 41.4511 180.352 41.6958 180.005 41.6901C178.85 41.6674 177.695 41.6787 176.483 41.6787C176.483 42.9306 176.483 44.1199 176.483 45.3604C177.917 45.3604 179.339 45.3604 180.824 45.3604C180.824 44.9791 180.824 44.5865 180.824 44.0687C180.278 44.0687 179.72 44.063 179.163 44.0687C178.838 44.0744 178.588 44.0288 178.582 43.6021C178.577 43.1867 178.787 43.1127 179.134 43.1184C180.13 43.1298 181.126 43.1241 182.173 43.1241Z" fill="#E0EBFF"/>
<path d="M53.2224 42.8055C52.9777 41.6788 52.9777 41.6788 51.9136 41.6788C51.1625 41.6788 50.4114 41.6902 49.6659 41.6731C49.3131 41.6675 49.1709 41.8154 49.1766 42.1511C49.1823 43.0559 49.1879 43.9663 49.1709 44.8711C49.1652 45.2865 49.3416 45.4231 49.7456 45.4117C50.6105 45.3889 51.4755 45.3718 52.3347 45.4174C52.9322 45.4515 53.1882 45.2637 53.1086 44.6606C53.0915 44.5297 53.1313 44.3988 53.1541 44.2224C53.2907 44.2395 53.3988 44.2452 53.4955 44.2679C53.9337 44.3647 54.4856 44.2679 54.423 45.0361C54.3491 45.9807 54.1499 46.3278 53.3476 46.4018C52.7387 46.4587 52.1241 46.4132 51.5096 46.4132C51.2991 46.9196 51.373 47.1472 51.9421 47.1984C52.6818 47.261 53.0801 47.7333 53.0744 48.3991C53.0687 49.0421 52.6192 49.5371 51.9079 49.5713C51.3446 49.5997 50.7812 49.503 50.2179 49.4689C49.7058 49.4404 49.6204 49.1673 49.7797 48.7234C50.2577 48.7974 50.7243 48.8941 51.1909 48.934C51.5836 48.9624 52.0274 48.9397 52.0616 48.4161C52.1014 47.8813 51.6746 47.8244 51.2706 47.7959C51.1852 47.7902 51.0942 47.7731 50.9576 47.7504C50.9178 47.3236 50.8837 46.9082 50.8381 46.4302C50.252 46.4302 49.7058 46.4473 49.1652 46.4245C48.2149 46.3847 47.9361 46.123 47.9133 45.2011C47.8906 44.0688 47.8906 42.9307 47.9247 41.7983C47.9475 41.0245 48.1865 40.7684 48.9603 40.7513C50.4114 40.7172 51.8681 40.7172 53.3191 40.7513C54.1613 40.7741 54.7303 41.5878 54.3604 42.3105C54.2125 42.595 53.6264 42.6462 53.2224 42.8055Z" fill="#E0EBFF"/>
<path d="M60.3949 40.757C61.2826 40.757 62.1703 40.7513 63.0523 40.757C63.6953 40.7627 64.0026 41.1268 64.0026 41.7471C64.0083 42.9477 63.9969 44.1541 64.0083 45.3547C64.014 45.992 63.6725 46.3733 63.0751 46.3847C61.2599 46.4188 59.439 46.4188 57.6238 46.3847C57.0092 46.3733 56.6905 45.9636 56.6905 45.3434C56.6849 44.1427 56.6735 42.9364 56.6962 41.7357C56.7076 41.1268 57.0149 40.7513 57.6636 40.7513C58.574 40.7513 59.4845 40.757 60.3949 40.757ZM62.6767 41.7414C61.0948 41.7414 59.5698 41.7414 58.0505 41.7414C58.0505 42.9876 58.0505 44.1712 58.0505 45.3661C59.621 45.3661 61.129 45.3661 62.6767 45.3661C62.6767 44.1484 62.6767 42.9762 62.6767 41.7414Z" fill="#E0EBFF"/>
<path d="M24.8932 40.757C25.7809 40.757 26.6686 40.7513 27.5506 40.757C28.205 40.7627 28.4952 41.1496 28.5065 41.7528C28.5236 42.9534 28.5179 44.1598 28.5122 45.3604C28.5122 45.9864 28.1708 46.379 27.562 46.3904C25.7467 46.4245 23.9259 46.4188 22.1106 46.3847C21.5018 46.3733 21.1888 45.975 21.1945 45.3434C21.2002 44.1655 21.1831 42.9819 21.2002 41.804C21.2116 41.0586 21.4676 40.7854 22.2358 40.757C23.1235 40.7228 24.0055 40.7513 24.8932 40.7513C24.8932 40.7513 24.8932 40.7513 24.8932 40.757ZM27.2148 45.3832C27.2148 44.7174 27.2148 44.1143 27.2148 43.5111C27.2148 41.6845 27.2148 41.6845 25.3769 41.6845C24.4323 41.6845 23.4877 41.6845 22.5488 41.6845C22.5488 42.9876 22.5488 44.1712 22.5488 45.3832C24.0966 45.3832 25.5874 45.3832 27.2148 45.3832Z" fill="#E0EBFF"/>
<path d="M151.77 40.7456C152.613 40.7456 153.455 40.7512 154.291 40.7456C154.997 40.7399 155.355 41.0984 155.367 41.7755C155.389 42.9534 155.418 44.137 155.367 45.3149C155.333 46.1684 155.008 46.4131 154.069 46.4359C153.022 46.4586 151.975 46.4472 150.934 46.4415C150.342 46.4415 149.75 46.4643 149.159 46.4245C148.362 46.3676 148.077 46.1229 148.043 45.3376C147.992 44.1597 147.992 42.9762 148.043 41.7983C148.077 40.9959 148.339 40.7797 149.17 40.7512C150.041 40.7171 150.906 40.7399 151.77 40.7456C151.77 40.7399 151.77 40.7399 151.77 40.7456ZM151.714 45.4116C152.351 45.4116 152.988 45.4457 153.614 45.3888C153.79 45.3718 154.075 45.1043 154.081 44.9393C154.126 44.0118 154.126 43.0843 154.081 42.1568C154.075 41.9917 153.779 41.7072 153.614 41.7015C152.345 41.6617 151.076 41.6617 149.807 41.7015C149.642 41.7072 149.352 41.9917 149.341 42.1568C149.295 43.0843 149.295 44.0118 149.341 44.9393C149.346 45.1043 149.631 45.3775 149.807 45.3888C150.439 45.4457 151.076 45.4116 151.714 45.4116Z" fill="#E0EBFF"/>
<path d="M169.014 46.4359C168.217 46.4359 167.421 46.453 166.63 46.4302C165.662 46.4018 165.349 46.0888 165.338 45.1499C165.321 44.0858 165.321 43.016 165.338 41.9519C165.355 41.0586 165.628 40.7627 166.527 40.7456C168.212 40.7171 169.89 40.7171 171.575 40.7513C172.422 40.7684 172.65 41.0244 172.667 41.8836C172.69 42.9933 172.69 44.1086 172.667 45.2182C172.65 46.1059 172.377 46.3904 171.472 46.4245C170.653 46.4587 169.833 46.4302 169.014 46.4359C169.014 46.4302 169.014 46.4359 169.014 46.4359ZM171.347 41.6788C170.363 41.6788 169.435 41.6788 168.513 41.6788C166.641 41.6788 166.641 41.6788 166.641 43.5395C166.641 45.4059 166.641 45.4059 168.507 45.4059C169.446 45.4059 170.391 45.4059 171.353 45.4059C171.347 44.1142 171.347 42.9307 171.347 41.6788Z" fill="#E0EBFF"/>
<path d="M18.6509 42.0316C18.3323 42.0999 18.0478 42.1625 17.712 42.2307C17.6608 41.656 17.2682 41.6617 16.8357 41.6674C15.7489 41.6845 14.6677 41.6731 13.541 41.6731C13.541 42.1283 13.541 42.5039 13.541 42.9705C14.1784 42.9705 14.7872 42.9705 15.3904 42.9705C16.0505 42.9705 16.7105 42.9648 17.3706 42.9705C18.429 42.9876 18.6965 43.2493 18.7704 44.2793C18.9013 46.1457 18.6339 46.4359 16.7731 46.4359C15.7489 46.4359 14.7246 46.4359 13.7061 46.4359C13.5012 46.4359 13.2964 46.4359 13.0915 46.4017C12.4087 46.2936 11.999 45.9238 12.1355 45.3377C12.1981 45.0702 12.7046 44.9052 13.1712 44.5865C13.1598 45.3775 13.4898 45.4515 13.9507 45.4344C14.9522 45.4059 15.9537 45.3889 16.9495 45.4401C17.5243 45.4685 17.6438 45.2352 17.6324 44.7288C17.621 44.2622 17.5812 43.9606 16.9723 43.9834C15.8854 44.0289 14.7872 44.0004 13.7004 43.9947C12.6363 43.9834 12.3404 43.6818 12.3347 42.6006C12.3176 40.8992 12.4826 40.7228 14.1784 40.7228C15.3392 40.7228 16.5 40.7114 17.6551 40.7627C18.4632 40.8025 18.6851 41.1154 18.6509 42.0316Z" fill="#E0EBFF"/>
<path d="M80.198 45.3889C80.2208 45.1556 80.2321 44.9564 80.2606 44.763C80.3403 44.1769 80.124 43.9549 79.5095 43.9834C78.4454 44.0289 77.3699 44.0061 76.3058 43.9948C75.2986 43.9834 74.9971 43.6818 74.98 42.6974C74.9458 40.8708 75.0881 40.7172 76.9204 40.7228C78.0584 40.7228 79.1965 40.7172 80.3289 40.7684C81.1198 40.8082 81.3531 41.161 81.2735 42.0259C81.0003 42.0885 80.7215 42.1568 80.437 42.2194C80.4484 42.1511 80.4597 42.0828 80.4711 42.0202C80.1069 41.9064 79.7428 41.7073 79.3672 41.6902C78.3714 41.6504 77.3699 41.6845 76.3684 41.6902C76.3286 41.6902 76.2831 41.7186 76.192 41.7528C76.192 42.1056 76.192 42.4811 76.192 42.9648C76.9545 42.9648 77.717 42.9648 78.4795 42.9648C79.0941 42.9648 79.7086 42.9534 80.3232 42.9819C80.9776 43.016 81.3873 43.3347 81.3759 44.046C81.3702 44.4102 81.3986 44.7743 81.3873 45.1328C81.3474 46.1116 81.0857 46.4018 80.1183 46.4188C78.7527 46.4473 77.387 46.4416 76.027 46.4188C75.5319 46.4074 75.0141 46.3562 74.8207 45.7417C74.6158 45.0873 74.6898 44.9507 75.384 44.8597C75.5206 44.8426 75.6514 44.8369 75.8165 44.8255C75.862 45.0133 75.9018 45.1783 75.9473 45.3832C77.3528 45.3889 78.7527 45.3889 80.198 45.3889Z" fill="#E0EBFF"/>
<path d="M101.439 44.1711C102.304 43.107 103.101 42.1169 103.909 41.1495C104.057 40.9731 104.273 40.7854 104.484 40.7341C105.149 40.5748 105.331 40.7398 105.331 41.4284C105.331 43.0785 105.331 44.7287 105.331 46.4074C104.922 46.4074 104.592 46.4074 104.148 46.4074C104.148 45.1555 104.148 43.9036 104.148 42.6461C104.074 42.6176 104 42.5835 103.932 42.555C103.095 43.6191 102.264 44.6832 101.348 45.8497C100.432 44.7344 99.5785 43.6931 98.7307 42.6575C98.6738 42.6745 98.6112 42.6916 98.5543 42.7144C98.5543 43.9378 98.5543 45.1612 98.5543 46.4131C98.156 46.4131 97.8714 46.4131 97.5016 46.4131C97.5016 45.2864 97.5016 44.1768 97.5016 43.0729C97.5016 42.5493 97.4788 42.0258 97.513 41.508C97.53 41.2463 97.6723 40.774 97.7349 40.774C98.1104 40.7967 98.5998 40.8195 98.8217 41.0528C99.5558 41.821 100.193 42.6859 100.87 43.511C101.035 43.6988 101.195 43.8866 101.439 44.1711Z" fill="#E0EBFF"/>
<path d="M139.651 46.4075C139.196 46.4075 138.866 46.4075 138.49 46.4075C138.49 44.5411 138.49 42.6917 138.49 40.8196C138.98 40.592 139.389 40.7172 139.793 41.0472C141.051 42.0601 142.32 43.0502 143.583 44.046C143.771 44.1939 143.97 44.3362 144.311 44.5866C144.311 43.4314 144.323 42.43 144.306 41.4228C144.3 40.9903 144.311 40.6887 144.892 40.6887C145.472 40.6887 145.489 40.9903 145.484 41.4171C145.467 43.0673 145.478 44.7175 145.478 46.6009C144.932 46.379 144.465 46.288 144.129 46.0319C142.849 45.0589 141.603 44.0289 140.345 43.0217C140.157 42.8681 139.964 42.7258 139.651 42.4869C139.651 43.8696 139.651 45.0987 139.651 46.4075Z" fill="#E0EBFF"/>
<path d="M89.2067 46.396C89.2067 45.2977 89.2067 44.2337 89.2067 43.1753C89.2067 42.5607 89.2294 41.9462 89.201 41.3373C89.1782 40.8593 89.3774 40.7057 89.844 40.7114C91.4145 40.7284 92.985 40.7398 94.5498 40.7114C95.1985 40.7 95.4489 40.9105 95.2042 41.6389C93.702 41.6389 92.1713 41.6389 90.578 41.6389C90.5553 41.9405 90.5439 42.1567 90.5154 42.3786C90.4642 42.8509 90.6634 43.0216 91.1414 42.9989C91.8413 42.9647 92.5412 42.9875 93.2866 42.9875C93.2866 43.2948 93.2866 43.5338 93.2866 43.8809C92.6891 43.8809 92.0859 43.8809 91.4771 43.8809C90.487 43.8809 90.487 43.8809 90.5154 44.8539C90.5211 45.0075 90.5496 45.1669 90.5723 45.4116C92.1656 45.4116 93.7418 45.4116 95.3465 45.4116C95.3465 45.7928 95.3465 46.0773 95.3465 46.4017C93.3378 46.396 91.3462 46.396 89.2067 46.396Z" fill="#E0EBFF"/>
<path d="M134.77 42.7087C134.753 42.4754 134.793 42.2706 134.719 42.1283C134.622 41.9519 134.44 41.7015 134.286 41.7015C133.177 41.6674 132.067 41.6845 130.9 41.6845C130.9 42.9306 130.9 44.1142 130.9 45.4059C132.073 45.4059 133.245 45.4173 134.417 45.3889C134.525 45.3889 134.684 45.1328 134.719 44.9735C134.77 44.7402 134.73 44.4898 134.73 44.2053C134.935 44.2451 135.043 44.2622 135.151 44.2849C135.589 44.376 136.124 44.2963 136.062 45.0588C135.988 45.9522 135.8 46.3619 135.037 46.3904C133.518 46.4529 131.999 46.4302 130.479 46.396C129.876 46.379 129.546 46.0034 129.552 45.3661C129.563 44.1654 129.552 42.9648 129.558 41.7641C129.558 41.1382 129.865 40.774 130.502 40.7683C132.021 40.757 133.546 40.7399 135.066 40.7797C135.788 40.7968 136.312 41.7129 136.027 42.3787C135.976 42.4925 135.8 42.5892 135.669 42.6177C135.396 42.6689 135.123 42.6746 134.77 42.7087Z" fill="#E0EBFF"/>
<path d="M125.396 42.9704C125.396 43.3346 125.396 43.5565 125.396 43.8809C124.764 43.8809 124.161 43.8809 123.552 43.8809C122.665 43.8809 122.665 43.8809 122.67 44.7742C122.67 44.9563 122.67 45.1327 122.67 45.4002C124.258 45.4002 125.811 45.4002 127.422 45.4002C127.422 45.7814 127.422 46.0773 127.422 46.4074C125.419 46.4074 123.45 46.4074 121.436 46.4074C121.413 46.2651 121.362 46.1115 121.362 45.9635C121.356 44.3987 121.345 42.8338 121.373 41.269C121.379 41.0869 121.589 40.7569 121.709 40.7569C123.592 40.7227 125.47 40.7341 127.399 40.7341C127.399 41.0642 127.399 41.3202 127.399 41.6389C125.863 41.6389 124.326 41.6389 122.727 41.6389C122.727 42.0884 122.727 42.481 122.727 42.9704C123.598 42.9704 124.469 42.9704 125.396 42.9704Z" fill="#E0EBFF"/>
<path d="M66.5985 46.4018C66.5985 44.6093 66.5871 42.8909 66.6213 41.1667C66.6213 41.0188 66.9058 40.7456 67.0651 40.7456C68.7665 40.7172 70.4736 40.7115 72.175 40.7456C72.34 40.7513 72.5904 41.0245 72.6416 41.2179C72.7383 41.5593 72.4993 41.6731 72.1579 41.6675C70.7752 41.6561 69.3924 41.6618 67.9471 41.6618C67.9471 42.1056 67.9471 42.4982 67.9471 42.9705C68.8462 42.9705 69.7168 42.9705 70.6386 42.9705C70.6386 43.2892 70.6386 43.5282 70.6386 43.8753C70.0241 43.8753 69.3981 43.8753 68.7722 43.8753C67.8674 43.8753 67.8674 43.8753 67.8902 44.7801C67.8959 44.9565 67.9187 45.1385 67.9414 45.3889C69.5176 45.3889 71.0711 45.3889 72.6814 45.3889C72.6814 45.7588 72.6814 46.0604 72.6814 46.3961C70.6841 46.4018 68.6982 46.4018 66.5985 46.4018Z" fill="#E0EBFF"/>
<path d="M39.9376 45.3888C41.3147 45.3888 42.6178 45.3888 44.0119 45.3888C44.0119 44.0459 44.0346 42.7372 44.0005 41.4284C43.9891 40.9106 44.12 40.7114 44.672 40.7057C45.2581 40.7 45.3434 40.9618 45.332 41.4455C45.3093 42.6916 45.332 43.9378 45.3207 45.184C45.3093 46.0546 45.0589 46.3846 44.2167 46.4074C42.7202 46.4529 41.2179 46.4529 39.7214 46.4074C38.9077 46.3846 38.6516 46.0774 38.6402 45.2409C38.6175 43.9264 38.6402 42.612 38.6232 41.2975C38.6175 40.8423 38.8053 40.7114 39.232 40.7114C39.6645 40.7114 39.9149 40.7968 39.9035 41.3089C39.875 42.3957 39.8921 43.4826 39.8978 44.5751C39.8921 44.8369 39.9206 45.1043 39.9376 45.3888Z" fill="#E0EBFF"/>
<path d="M187.858 46.3734C188.945 44.524 189.992 42.7259 191.068 40.9448C191.278 40.592 192.382 40.575 192.598 40.9221C193.697 42.7145 194.766 44.5183 195.865 46.3506C194.573 46.5782 194.596 46.5612 193.947 45.5824C193.793 45.3548 193.429 45.1613 193.145 45.1443C192.263 45.0874 191.369 45.1386 190.487 45.1158C190.055 45.1044 189.708 45.1841 189.571 45.6279C189.309 46.4587 188.706 46.5612 187.858 46.3734ZM193.196 44.1599C192.695 43.2722 192.268 42.5097 191.756 41.6049C191.267 42.5381 190.863 43.3063 190.413 44.1599C191.386 44.1599 192.194 44.1599 193.196 44.1599Z" fill="#E0EBFF"/>
<path d="M119.389 40.7912C119.389 41.0985 119.389 41.3432 119.389 41.6618C118.49 41.6618 117.619 41.6618 116.646 41.6618C116.646 43.2835 116.646 44.8313 116.646 46.4075C116.185 46.4075 115.832 46.4075 115.348 46.4075C115.348 45.6905 115.348 44.9793 115.348 44.2623C115.348 43.6079 115.326 42.9478 115.354 42.2934C115.371 41.8325 115.229 41.6391 114.74 41.6618C114.04 41.696 113.34 41.6732 112.583 41.6732C112.583 41.3773 112.583 41.1212 112.583 40.7912C114.814 40.7912 117.067 40.7912 119.389 40.7912Z" fill="#E0EBFF"/>
<path d="M163.726 45.4059C163.726 45.7815 163.726 46.066 163.726 46.3961C161.82 46.3961 159.925 46.3961 157.951 46.3961C157.951 44.6093 157.945 42.851 157.968 41.087C157.968 40.9675 158.196 40.7797 158.343 40.7456C158.6 40.6887 158.878 40.7285 159.225 40.7285C159.225 42.299 159.225 43.807 159.225 45.4059C160.768 45.4059 162.224 45.4059 163.726 45.4059Z" fill="#E0EBFF"/>
<path d="M31.0586 46.4359C31.0586 44.5979 31.0586 42.8567 31.0586 41.1211C31.0586 40.5976 31.4683 40.7513 31.7585 40.7285C32.1056 40.7001 32.3787 40.7513 32.3731 41.2179C32.356 42.3958 32.3901 43.5737 32.3617 44.7516C32.3446 45.2864 32.5267 45.4572 33.0616 45.4401C34.1939 45.4002 35.332 45.4401 36.4644 45.423C36.8513 45.4173 36.9139 45.6222 36.9139 45.9351C36.9139 46.2481 36.857 46.4473 36.4644 46.4416C34.6947 46.4302 32.925 46.4359 31.0586 46.4359Z" fill="#E0EBFF"/>
<path d="M185.976 40.8139C185.976 42.6803 185.976 44.5069 185.976 46.3847C185.572 46.3847 185.185 46.3847 184.695 46.3847C184.695 45.423 184.695 44.4614 184.695 43.494C184.695 42.9079 184.695 42.3161 184.695 41.73C184.701 40.609 184.764 40.5521 185.976 40.8139Z" fill="#E0EBFF"/>
<path d="M62.2228 38.0769C62.0805 39.2263 61.5513 39.6189 60.5612 39.3686C59.9694 39.2206 59.3833 38.9532 58.8883 39.5791C58.837 39.6417 58.6436 39.5848 58.5127 39.5848C58.5867 38.5378 59.1329 38.1053 60.0661 38.3159C60.6921 38.4581 61.3351 38.7995 61.8529 38.0826C61.887 38.0314 62.0577 38.0769 62.2228 38.0769Z" fill="#E0EBFF"/>
</svg>
