<svg width="800" height="800" viewBox="0 0 800 800" fill="none" xmlns="http://www.w3.org/2000/svg">
<path d="M321.332 252.87C317.2 275.221 302.299 293.753 282.202 302.957H307.433C329.033 302.957 349.006 315.541 358.334 335.013L394.021 422.352C400.908 437.19 399.406 457.35 379.684 466.867C375.113 469.121 370.167 470.185 365.033 470.185C352.011 470.185 339.426 462.797 334.418 452.279L316.261 417.468V490.783H421.007V548.822L336.296 583.256C329.91 585.885 326.842 593.21 329.472 599.596C331.413 604.481 336.108 607.423 341.054 607.423C342.62 607.423 344.185 607.11 345.75 606.483L421.007 575.868V603.477C421.007 610.364 426.641 616 433.528 616C440.416 616 446.05 610.365 446.05 603.477V575.742L521.37 605.856C527.818 608.423 535.08 605.294 537.648 598.907C540.214 592.458 537.083 585.196 530.697 582.629L446.05 548.757V490.781H583.79C601.07 490.781 615.094 476.757 615.094 459.477V252.868H321.332V252.87ZM566.696 434.435H422.697V415.653H566.696V434.435ZM566.696 378.087H403.914V359.305H566.696V378.087ZM566.696 321.739H378.87V302.957H566.696V321.739ZM633.876 215.054V215.555C633.876 229.248 622.775 240.348 609.083 240.348H322.522C322.522 220.608 314.126 202.832 300.772 190.261H609.083C622.775 190.261 633.876 201.361 633.876 215.054ZM197.304 240.348C197.304 209.225 222.529 184 253.652 184C284.775 184 310 209.225 310 240.348C310 271.471 284.775 296.696 253.652 296.696C222.529 296.696 197.304 271.471 197.304 240.348ZM374.255 455.604C363.174 460.956 349.701 455.234 345.706 446.863L303.758 366.31L303.739 583.632C303.739 596.717 294.167 608.395 281.144 609.627C266.205 611.035 253.652 599.341 253.652 584.697C253.652 599.341 241.099 611.042 226.161 609.62C213.138 608.388 203.565 596.711 203.565 583.632V453.218C203.565 463.937 194.644 472.52 183.806 471.975C173.645 471.462 166 462.365 166 452.185V403.131V359.305C166 335.1 185.622 315.479 209.826 315.479H307.465C324.357 315.479 339.746 325.183 347.015 340.428L382.534 427.397C386.533 435.775 387.848 449.042 374.255 455.604ZM197.304 240.348C197.304 209.225 222.529 184 253.652 184C284.775 184 310 209.225 310 240.348C310 271.471 284.775 296.696 253.652 296.696C222.529 296.696 197.304 271.471 197.304 240.348ZM374.255 455.604C363.174 460.956 349.701 455.234 345.706 446.863L303.758 366.31L303.739 583.632C303.739 596.717 294.167 608.395 281.144 609.627C266.205 611.035 253.652 599.341 253.652 584.697C253.652 599.341 241.099 611.042 226.161 609.62C213.138 608.388 203.565 596.711 203.565 583.632V453.218C203.565 463.937 194.644 472.52 183.806 471.975C173.645 471.462 166 462.365 166 452.185V403.131V359.305C166 335.1 185.622 315.479 209.826 315.479H307.465C324.357 315.479 339.746 325.183 347.015 340.428L382.534 427.397C386.533 435.775 387.848 449.042 374.255 455.604Z" fill="#5D5FEF"/>
</svg>
