<svg width="158" height="74" viewBox="0 0 158 74" fill="none" xmlns="http://www.w3.org/2000/svg">
<path d="M105.935 28.9798C105.354 28.9379 104.824 28.9064 104.305 28.9064H101.055V47.8561C101.055 48.1499 101.075 48.4542 101.117 48.79H96.008C96.0495 48.4752 96.0807 48.1604 96.0807 47.8561V28.9064H92.7578C92.3321 28.9064 91.844 28.9274 91.2625 28.9798V24.6569H105.925V28.9798H105.935ZM88.1889 48.8319H74.617C74.6586 48.4437 74.6793 48.1184 74.6793 47.8246V25.3914C74.6793 25.0766 74.669 24.7723 74.6482 24.4575H88.1162V28.5811C87.6281 28.5077 87.1712 28.4762 86.7559 28.4762H79.3937V34.1422H87.2958V38.3393H79.3937V44.7818H86.6624C87.057 44.7818 87.5658 44.7608 88.1889 44.7083V48.8319V48.8319ZM71.4915 24.7303C71.4499 25.0661 71.4188 25.4019 71.4188 25.7376V48.8739H67.2133L62.3328 36.5346V47.9296C62.3328 48.2653 62.3432 48.5801 62.364 48.8739H57.8262C57.8677 48.5591 57.8885 48.2443 57.8885 47.9296V24.7303H62.3432L66.9848 37.0697V25.6642C66.9848 25.3704 66.9641 25.0556 66.9121 24.7303H71.4915Z" fill="#E0EBFF"/>
<path d="M157.999 48.8214H153.119C153.098 48.5486 152.984 48.1814 152.786 47.7092L150.73 42.316L148.602 47.7092C148.467 48.066 148.342 48.4332 148.238 48.8214H143.42L148.3 36.2198L143.825 24.6884H148.705C148.84 25.1605 148.944 25.5278 149.038 25.7901L150.73 30.1131L152.392 25.7901C152.527 25.4333 152.631 25.0661 152.724 24.6884H157.604L153.129 36.2198L157.999 48.8214ZM135.632 36.7759C135.632 33.4917 135.59 31.4561 135.497 30.6797C135.3 28.9589 134.708 28.0985 133.732 28.0985C132.756 28.0985 132.174 28.9589 131.977 30.6797C131.883 31.4666 131.842 33.4917 131.842 36.7759C131.842 40.0181 131.883 42.0222 131.977 42.7777C132.174 44.4565 132.756 45.2959 133.732 45.2959C134.708 45.2959 135.3 44.4565 135.497 42.7777C135.59 42.0222 135.632 40.0181 135.632 36.7759ZM140.741 36.7759C140.741 40.6477 140.45 43.4387 139.848 45.1595C138.83 48.1394 136.795 49.6189 133.742 49.6189C130.689 49.6189 128.654 48.1394 127.636 45.1595C127.044 43.4387 126.743 40.6477 126.743 36.7759C126.743 32.9356 127.055 30.1235 127.668 28.3608C128.685 25.3599 130.71 23.8594 133.742 23.8594C136.774 23.8594 138.799 25.3599 139.817 28.3608C140.44 30.1235 140.741 32.9356 140.741 36.7759ZM119.277 41.571C119.277 40.3434 119.038 39.4515 118.55 38.8849C118.104 38.3078 117.294 38.014 116.131 38.014H114.625V44.7923H116.048C118.208 44.7923 119.277 43.722 119.277 41.571ZM119.08 31.4141C119.08 29.4415 118.114 28.4657 116.193 28.4657H114.698V34.4675H116.287C118.145 34.4675 119.08 33.4497 119.08 31.4141ZM124.459 42.2111C124.459 44.2676 123.815 45.873 122.538 47.0377C121.25 48.2234 119.578 48.8214 117.522 48.8214H109.849C109.921 48.3283 109.952 48.024 109.952 47.9191V25.3074C109.952 25.1081 109.932 24.7933 109.88 24.3736H117.014C119.132 24.3736 120.835 24.9297 122.091 26.0524C123.389 27.2381 124.044 28.8749 124.044 30.9839C124.044 33.1035 123.265 34.8452 121.686 36.2093C123.535 37.5733 124.459 39.5774 124.459 42.2111Z" fill="#E0EBFF"/>
<path fill-rule="evenodd" clip-rule="evenodd" d="M22.3918 8.59434C23.2472 8.59434 23.9434 9.29775 23.9434 10.1622C23.9434 11.0266 23.2472 11.73 22.3918 11.73C21.5363 11.73 20.8318 11.0266 20.8318 10.1622C20.8402 9.29775 21.5363 8.59434 22.3918 8.59434ZM19.3473 23.7388C19.3473 24.1456 20.144 24.2049 20.6137 24.2812C21.7124 24.4592 22.9369 24.4507 24.0272 24.2982C24.3795 24.2473 25.4363 24.1626 25.4363 23.7897C25.4363 23.5185 24.9498 22.832 24.8659 22.4846L23.6918 22.6541C21.444 22.9422 20.7144 22.4846 19.9176 22.4846C19.8505 22.7812 19.3473 23.5609 19.3473 23.7388ZM17.9047 12.5351C17.9047 13.6623 18.0389 15.0182 18.2318 16.1115C18.3408 16.7471 18.735 17.637 17.9047 17.637C17.6195 17.637 17.5189 17.4505 17.4602 17.1963C17.3931 16.9336 17.3595 16.7217 17.3176 16.459C17.2673 16.1962 17.2254 15.9335 17.1918 15.6962C17.1583 15.4335 17.0995 15.1538 17.0828 14.925C16.3028 15.1369 14.508 17.4251 14.508 17.4251C14.508 16.459 14.7009 15.442 13.9376 15.442C13.686 15.442 13.4763 15.6539 13.4763 15.9081V24.9762C13.4763 25.3067 13.728 25.4423 14.0467 25.4423C14.4912 25.4423 14.4409 25.0185 14.5918 24.6965C15.0028 23.8236 15.4808 22.9252 16.1686 22.2218C16.8983 21.4761 17.5273 20.9506 18.4415 20.4591C18.7518 20.2896 19.0537 20.1794 19.3557 20.0269L19.8757 21.2218C19.9511 21.4167 19.9344 21.4422 20.1692 21.5015C21.0666 21.7473 22.7021 21.832 23.7169 21.6625C24.5388 21.5269 24.7485 21.6032 24.933 21.2218C25.0001 21.0862 25.0337 20.976 25.1092 20.8235C25.2434 20.5523 25.3272 20.2896 25.453 20.0269C26.1743 20.4167 26.5266 20.4676 27.3485 21.0862C27.4911 21.1964 27.6253 21.2811 27.7595 21.3998C27.902 21.5184 28.0278 21.6117 28.1537 21.7303L28.8749 22.51C29.2859 22.9761 29.7891 23.7558 30.0323 24.3066C30.1162 24.4931 30.1917 24.6117 30.2588 24.8067C30.3259 25.0016 30.3427 25.2135 30.502 25.349C30.8123 25.6118 31.3407 25.4168 31.3407 24.9762V15.9081C31.3407 15.3488 30.3091 15.103 30.3091 16.1623C30.3091 16.5776 30.3091 17.0014 30.3091 17.4166C30.1833 17.3234 30.1833 17.2641 30.0827 17.1285C29.5543 16.4081 28.5982 15.4844 27.8853 15.0098C27.6085 14.8233 27.7091 15.086 27.5498 16.0861C27.4911 16.4335 27.4324 16.7047 27.382 17.0098C27.2898 17.4844 27.2311 17.6285 26.8117 17.6285C26.0988 17.6285 26.5182 16.5013 26.5853 16.1454C27.0298 13.6792 27.0298 11.1029 26.5433 8.67909C26.1491 6.72141 25.344 4.21286 24.2537 2.5518C23.7924 1.83991 23.4821 1.34837 22.9537 0.687338C22.7776 0.526316 22.5679 0.255122 22.3918 0.136475C22.2576 0.229698 22.2324 0.272072 22.1318 0.399194C21.5195 1.21278 21.2679 1.3738 20.5802 2.53485L19.6911 4.23828C19.2969 5.10272 18.9363 6.00105 18.6847 6.9248C18.5253 7.51804 18.4079 8.00958 18.2821 8.65366C18.0641 9.79776 17.9047 11.1961 17.9047 12.5351ZM20.3286 5.29764C20.6221 4.7383 20.8318 4.17049 21.2511 3.41623C21.4273 3.11113 21.5866 2.83147 21.7795 2.54332C21.8802 2.39078 21.9472 2.30603 22.0563 2.14501C22.1569 2.00093 22.2576 1.83144 22.3834 1.74669C22.8195 2.03483 23.9601 4.21286 24.2201 4.78915C24.3124 4.98407 24.3543 5.11967 24.4466 5.28916L23.4569 5.16204C22.9118 5.08577 21.9053 5.07729 21.335 5.16204C21.1756 5.18746 20.9492 5.21289 20.8318 5.22984C20.6221 5.26374 20.5466 5.29764 20.3286 5.29764ZM20.4376 10.1368C20.4376 9.0435 21.3182 8.15365 22.2408 8.15365C22.9369 8.15365 23.264 8.22992 23.7924 8.72146C24.8995 9.73844 24.3124 12.1114 22.3918 12.1114C21.3182 12.1199 20.4376 11.23 20.4376 10.1368ZM23.3395 73.3419L23.4653 52.9515L17.4015 60.6636L6.87576 55.3245L7.86542 64.7061L23.3395 73.3419ZM47.8632 50.4938L41.5477 42.3241L24.715 51.4091L30.8207 59.4178L47.8632 50.4938ZM24.6311 73.3419L24.5053 52.9515L30.5691 60.6636L41.0948 55.3245L40.1052 64.7146L24.6311 73.3419ZM0.107422 50.4938L6.42286 42.3241L23.264 51.4091L17.1583 59.4178L0.107422 50.4938ZM7.20285 41.197C7.8822 40.9597 8.57832 41.019 9.30799 41.3749H9.91186C9.63509 40.9597 9.24928 40.6037 8.75445 40.3156C11.7738 34.8578 14.6925 33.7137 17.4937 36.9002C17.4015 36.1375 17.0995 35.5019 16.5963 34.9934C19.6408 32.7306 21.1002 29.6288 20.9827 25.688C21.9473 25.6965 22.9118 25.6965 23.8763 25.688C24.1866 30.3577 25.7885 33.3069 28.6569 34.5357C28.0278 35.0273 27.5666 35.6798 27.2646 36.4765C30.762 33.5272 33.6891 34.7391 36.0626 40.1122C35.551 40.5105 35.14 40.9258 34.8297 41.3664H35.6433C36.3646 41.0275 37.0691 41.0275 37.7652 41.3664H40.5329L24.0776 50.5023L7.20285 41.197Z" fill="#E0EBFF"/>
</svg>
