<svg width="199" height="51" viewBox="0 0 199 51" fill="none" xmlns="http://www.w3.org/2000/svg">
<path d="M25.0812 0.854004C11.325 0.854004 0.172852 12.0061 0.172852 25.7623C0.172852 39.5185 11.325 50.6706 25.0812 50.6706C38.8374 50.6706 49.9895 39.5185 49.9895 25.7623C49.9895 12.0061 38.8374 0.854004 25.0812 0.854004ZM39.2362 14.1916C39.0522 16.3954 38.843 18.6061 38.475 20.7846C37.6786 25.4912 36.3878 30.0659 34.3751 34.4116C33.309 36.715 32.0562 38.9075 30.3005 40.77C29.042 42.1043 27.622 43.1703 25.7497 43.5032C24.6739 43.6942 23.6921 43.4189 22.7398 42.992C20.8717 42.1549 19.4672 40.7517 18.2354 39.1646C15.7381 35.9467 14.1186 32.2851 12.8925 28.4324C11.4051 23.7622 10.6269 18.9797 10.707 14.0722C10.7154 13.5188 10.7744 12.9486 10.9205 12.4177C11.2829 11.0974 12.1818 10.3993 13.5344 10.5314C15.6524 10.7392 17.7592 11.0665 19.8717 11.3404C21.6948 11.5764 23.5137 11.8643 25.3438 12.0258C26.9548 12.1677 28.5097 11.7716 30.0238 11.2294C30.2134 11.162 30.4044 11.096 30.5954 11.03C30.1783 12.0665 29.4479 12.7604 28.4886 13.2225C26.9984 13.9416 25.3888 14.1692 23.7763 14.1734C21.4785 14.179 19.1764 14.0835 16.8856 13.9121C14.5639 13.7394 13.4332 14.6931 13.3658 17.0443C13.2829 19.9742 13.8434 22.81 14.6102 25.6134C15.6679 29.4844 17.1033 33.2064 19.2186 36.6307C19.8478 37.649 20.6035 38.5929 21.3521 39.5297C21.7102 39.9778 22.1709 40.3514 22.6134 40.725C23.9561 41.8571 25.3705 42.0607 26.9661 41.1815C28.5336 40.3191 29.7766 39.1393 30.8005 37.7052C32.493 35.3329 33.5633 32.6685 34.3919 29.8973C35.6181 25.796 36.2754 21.5908 36.5676 17.3294C36.6715 15.8181 35.9384 15.231 34.4523 15.6776C33.0703 16.0948 31.7303 16.6524 30.3735 17.1552C28.4956 17.8519 26.6571 18.696 24.7328 19.2185C22.1457 19.9208 19.8899 18.2424 19.6821 15.6158C20.2383 15.7071 20.779 15.8055 21.3226 15.8827C23.7876 16.2268 26.1542 15.7563 28.4521 14.9262C30.3384 14.245 32.1812 13.4402 34.0549 12.7239C35.1378 12.3095 36.2403 11.9542 37.4384 12.1382C38.6112 12.318 39.3332 13.0174 39.2362 14.1916Z" fill="#E0EBFF"/>
<path d="M122.027 31.4957C121.988 29.0869 120.941 27.7905 118.59 27.1851C116.487 26.6444 114.351 26.5896 112.271 27.2034C111.199 27.5194 110.217 28.1388 109.212 28.6121C105.665 25.9674 101.919 26.4098 98.0835 28.2301C98.0498 27.8396 98.0189 27.4899 97.9866 27.1121C97.2969 27.1121 96.6607 27.1121 95.9233 27.1121C95.9233 27.4885 95.9233 27.775 95.9233 28.0602C95.9233 31.4915 95.912 34.9214 95.9289 38.3527C95.9359 39.8261 95.6283 39.6926 97.3138 39.725C97.8728 39.7362 98.0596 39.5508 98.0512 38.9805C98.0203 36.9664 98.0329 34.9509 98.0413 32.9353C98.0498 31.0434 98.8714 29.8186 100.63 29.1023C102.144 28.4871 103.717 28.4464 105.292 28.7821C107.241 29.1978 107.897 30.0532 107.898 32.0364C107.898 34.1475 107.883 36.2585 107.904 38.3696C107.918 39.8415 107.577 39.68 109.296 39.7264C109.911 39.7432 110.129 39.5704 110.118 38.9201C110.078 36.7136 110.101 34.5056 110.104 32.2991C110.105 30.6558 110.692 29.7512 112.217 29.1641C113.892 28.5208 115.625 28.3986 117.372 28.8018C119.194 29.2217 119.847 30.0799 119.848 31.9494C119.85 34.0604 119.848 36.1714 119.848 38.2825C119.848 39.7727 119.848 39.7544 121.377 39.725C121.874 39.7151 122.049 39.5466 122.047 39.0508C122.028 36.5324 122.068 34.0126 122.027 31.4957Z" fill="#E0EBFF"/>
<path d="M198.804 28.5854C198.794 26.98 199.139 27.1626 197.287 27.1275C196.753 27.1177 196.589 27.2932 196.596 27.8312C196.625 29.8945 196.61 31.9577 196.607 34.021C196.604 36.1405 195.629 37.5057 193.6 38.1434C191.705 38.7389 189.772 38.7516 187.851 38.3007C185.809 37.8217 185.149 36.9453 185.149 34.8609C185.149 32.6769 185.158 30.4942 185.144 28.3101C185.137 27.0853 185.4 27.1738 183.938 27.1219C183.226 27.0966 182.977 27.2988 182.991 28.0447C183.036 30.4436 182.998 32.8426 183.012 35.243C183.025 37.4818 183.918 38.9103 186.042 39.6224C189.508 40.7839 192.954 40.8317 196.236 38.9173C196.325 38.8653 196.438 38.8583 196.638 38.8049C196.59 39.2108 196.587 39.5479 196.506 39.864C196.167 41.1842 195.155 41.8036 193.961 42.1506C191.899 42.7503 189.791 42.7545 187.691 42.409C186.126 42.1506 184.793 41.5227 184.39 39.7586C184.356 39.6125 184.102 39.43 183.938 39.4159C183.394 39.3724 182.847 39.3991 182.251 39.3991C182.25 41.5269 183.525 43.1338 185.762 43.8023C188.531 44.6296 191.347 44.6085 194.149 44.0018C197.415 43.2939 198.913 41.6253 198.826 38.1588C198.746 34.9691 198.823 31.7766 198.804 28.5854Z" fill="#E0EBFF"/>
<path d="M138.512 27.6907C134.672 26.2806 130.818 26.2637 127.227 28.6262C127.139 28.6838 127.02 28.6936 126.864 28.7399C126.839 28.1669 126.816 27.6528 126.791 27.0699C126.321 27.0699 125.913 27.1079 125.514 27.0615C124.887 26.9885 124.694 27.2062 124.698 27.8509C124.724 33.007 124.712 38.1631 124.715 43.3192C124.715 43.572 124.749 43.8234 124.766 44.0636C125.489 44.0636 126.125 44.0636 126.843 44.0636C126.843 42.1576 126.843 40.3008 126.843 38.3822C127.757 38.8513 128.507 39.3499 129.331 39.6365C132.304 40.6744 135.311 40.6449 138.27 39.5985C140.099 38.951 141.581 37.8091 142.226 35.8919C143.31 32.6643 142.382 29.1122 138.512 27.6907ZM137.502 37.8527C136.317 38.305 135.081 38.7207 133.665 38.7207C132.251 38.7207 131.006 38.2811 129.736 37.8386C127.877 37.1911 126.939 35.7304 126.843 33.7767C126.75 31.8805 127.628 30.4802 129.29 29.6431C131.978 28.2905 134.779 28.1852 137.554 29.3186C139.446 30.0925 140.49 31.5448 140.449 33.6812C140.41 35.7557 139.355 37.1462 137.502 37.8527Z" fill="#E0EBFF"/>
<path d="M161.548 27.3831C161.541 27.1795 161.313 26.834 161.152 26.8129C160.618 26.7399 160.067 26.7848 159.456 26.7848C159.456 27.4674 159.456 28.0587 159.456 28.8902C157.552 27.4197 155.533 26.9196 153.396 26.8283C150.914 26.7216 148.542 27.0755 146.353 28.386C142.671 30.5925 142.537 36.3961 146.461 38.4777C150.608 40.6772 154.799 40.6744 158.902 38.2459C159.036 38.1659 159.181 38.0999 159.4 37.9875C159.431 38.6252 159.458 39.18 159.487 39.7783C159.812 39.7783 160.049 39.7825 160.286 39.7783C161.708 39.753 161.56 40.003 161.565 38.5353C161.573 35.9692 161.567 33.403 161.567 30.8355C161.567 29.6838 161.587 28.5321 161.548 27.3831ZM157.025 37.1602C154.258 38.5493 151.393 38.6083 148.54 37.4706C146.794 36.774 145.749 35.4368 145.728 33.4972C145.707 31.5968 146.707 30.299 148.359 29.4563C149.674 28.7849 152.446 28.5447 153.186 28.57C153.925 28.5953 155.403 28.9394 156.733 29.4268C158.435 30.049 159.355 31.3959 159.431 33.2331C159.507 35.0618 158.611 36.3638 157.025 37.1602Z" fill="#E0EBFF"/>
<path d="M72.619 35.3222C72.1344 36.5653 71.206 37.3799 69.9236 37.7044C68.9784 37.9445 68.0036 38.1412 67.0331 38.1945C65.1243 38.2999 63.2478 38.0892 61.5343 37.1327C60.1086 36.3377 59.3951 35.1214 59.4274 33.4781C59.4682 31.4625 60.7379 29.9119 63.0371 29.1549C64.9389 28.5284 66.8926 28.4399 68.8618 28.7532C70.5796 29.027 71.9069 29.8627 72.626 31.5145C72.6611 31.5946 72.7468 31.6536 72.824 31.7378C73.4406 31.5159 74.0432 31.2996 74.7286 31.0538C74.0081 29.2897 72.8437 28.1211 71.1512 27.5073C68.9587 26.7123 66.6974 26.6604 64.415 26.9736C62.8559 27.1871 61.4036 27.6941 60.0412 28.5017C56.4863 30.61 56.1422 36.4052 60.2168 38.5738C60.7646 38.8659 61.332 39.137 61.9163 39.3393C64.0456 40.0809 66.2634 40.1778 68.4517 39.8632C69.7972 39.6693 71.1442 39.1876 72.3802 38.6019C73.6668 37.9923 74.4407 36.8153 74.9224 35.4009C74.3859 35.2366 73.9196 35.1284 73.48 34.9514C73.0403 34.7787 72.8058 34.8419 72.619 35.3222Z" fill="#E0EBFF"/>
<path d="M180.255 31.8355C180.255 29.584 179.496 28.4253 177.399 27.6092C174.863 26.6218 172.247 26.56 169.627 27.1682C168.626 27.4014 167.682 27.8761 166.675 28.2553C166.627 27.8901 166.576 27.5025 166.525 27.0994C165.841 27.0994 165.224 27.0994 164.479 27.0994C164.479 27.4589 164.479 27.7413 164.479 28.0236C164.479 31.4802 164.468 34.9354 164.485 38.392C164.492 39.8148 164.179 39.687 165.835 39.7263C166.43 39.7403 166.626 39.5395 166.616 38.944C166.585 37.0001 166.631 35.0562 166.598 33.1123C166.565 31.2835 167.405 30.0208 169.046 29.3326C171.369 28.3579 173.759 28.3073 176.132 29.1472C177.602 29.6669 178.122 30.4872 178.126 32.0364C178.132 34.1249 178.116 36.2121 178.132 38.3007C178.143 39.8429 177.868 39.6884 179.552 39.7263C180.137 39.7389 180.271 39.51 180.265 38.965C180.241 36.5885 180.257 34.212 180.255 31.8355Z" fill="#E0EBFF"/>
<path d="M91.1455 28.2328C89.4628 27.2609 87.6144 26.8943 85.7071 26.8198C83.2308 26.7229 80.8277 27.0502 78.6464 28.3424C76.5929 29.5587 75.5283 31.3425 75.642 33.7569C75.7488 36.0281 76.9286 37.6082 78.888 38.6644C80.7743 39.6813 82.8109 40.0142 84.3699 39.9959C87.3069 39.9959 89.2227 39.5998 90.8393 38.7473C92.3071 37.9734 93.4742 36.92 93.9967 35.2794C94.8886 32.4746 93.7931 29.7624 91.1455 28.2328ZM89.5204 37.288C89.342 37.3778 89.1623 37.4593 88.9797 37.5324C87.7086 38.0464 86.3602 38.1841 84.9936 38.2388C83.7842 38.1981 82.5904 38.0914 81.4499 37.7234C81.0692 37.6012 80.6956 37.4495 80.329 37.2613C78.7573 36.4537 77.7952 35.2401 77.8008 33.4072C77.8079 31.5476 78.7531 30.2568 80.3993 29.5334C83.3952 28.2174 86.4529 28.2216 89.4586 29.4815C91.1385 30.1865 92.102 31.5124 92.1076 33.4002C92.1146 35.2612 91.1286 36.4803 89.5204 37.288Z" fill="#E0EBFF"/>
<path d="M70.0374 7.08154C62.2281 7.08154 57.3262 10.4272 57.3262 15.7659C57.3262 21.1046 62.2281 24.4502 70.0374 24.4502C77.8467 24.4502 82.7486 21.1046 82.7486 15.7659C82.75 10.4286 77.8481 7.08154 70.0374 7.08154ZM70.0374 22.1018C64.3461 22.1018 60.3951 20.0062 60.3951 15.7673C60.3951 11.5269 64.3461 9.43276 70.0374 9.43276C75.7286 9.43276 79.6782 11.5284 79.6782 15.7673C79.6796 20.0062 75.7286 22.1018 70.0374 22.1018Z" fill="#E0EBFF"/>
<path d="M92.2627 7.33728H83.4141V24.1947H92.2627C100.861 24.1947 106.054 21.1805 106.054 15.766C106.054 10.3514 100.861 7.33728 92.2627 7.33728ZM92.5956 21.8463H86.3187V9.6871H92.5956C98.8684 9.6871 102.985 11.6802 102.985 15.766C102.985 19.8518 98.8684 21.8463 92.5956 21.8463Z" fill="#E0EBFF"/>
<path d="M119.431 7.08154C111.622 7.08154 106.72 10.4272 106.72 15.7659C106.72 21.1046 111.622 24.4502 119.431 24.4502C127.24 24.4502 132.142 21.1046 132.142 15.7659C132.142 10.4286 127.24 7.08154 119.431 7.08154ZM119.431 22.1018C113.74 22.1018 109.789 20.0062 109.789 15.7673C109.789 11.5269 113.74 9.43276 119.431 9.43276C125.122 9.43276 129.072 11.5284 129.072 15.7673C129.073 20.0062 125.122 22.1018 119.431 22.1018Z" fill="#E0EBFF"/>
<path d="M174.244 7.33728H154.32H153.489H151.164V19.158H151.159V20.9516L136.915 7.33728H132.803V24.1961H135.96V12.2925L135.955 12.2041V10.5706L150.208 24.1961H154.32V10.1211H162.626V24.1961H165.529V10.1211H174.244V7.33728Z" fill="#E0EBFF"/>
<path d="M186.06 7.08154C178.251 7.08154 173.349 10.4272 173.349 15.7659C173.349 21.1046 178.251 24.4502 186.06 24.4502C193.869 24.4502 198.771 21.1046 198.771 15.7659C198.771 10.4286 193.869 7.08154 186.06 7.08154ZM186.06 22.1018C180.369 22.1018 176.418 20.0062 176.418 15.7673C176.418 11.5269 180.369 9.43276 186.06 9.43276C191.751 9.43276 195.701 11.5284 195.701 15.7673C195.701 20.0062 191.751 22.1018 186.06 22.1018Z" fill="#E0EBFF"/>
</svg>
