<svg width="164" height="81" viewBox="0 0 164 81" fill="none" xmlns="http://www.w3.org/2000/svg">
<path fill-rule="evenodd" clip-rule="evenodd" d="M62.8209 0.513423C62.7556 0.619177 60.9552 8.83651 60.9552 9.0291C60.9552 9.05547 72.3705 9.0614 86.3226 9.04221L111.69 9.00728L112.2 6.59124C112.481 5.26241 112.892 3.32101 113.114 2.27686L113.516 0.37854H88.2104C71.8905 0.37854 62.8748 0.426445 62.8209 0.513423ZM60.1684 13.6037C59.994 13.7146 58.1728 22.0461 58.2838 22.2257C58.367 22.3602 108.605 22.3589 108.808 22.2244C109.003 22.0954 110.716 13.9856 110.608 13.7041C110.536 13.5174 107.762 13.4945 85.4306 13.4963C71.6275 13.4975 60.2595 13.5459 60.1684 13.6037ZM13.1174 26.2108C11.8048 26.3999 9.92354 26.9863 8.67963 27.5939C5.75303 29.0238 3.90828 31.1852 3.09994 34.132C2.86275 34.9964 2.81305 35.4886 2.85681 36.5402C2.9061 37.7225 2.96119 37.9537 3.37965 38.7345C4.38873 40.6175 5.74682 41.3379 10.9775 42.7642C15.0059 43.8626 15.8121 44.2004 16.1611 44.9356C16.5947 45.8494 16.123 47.4353 15.1595 48.3031C13.3208 49.9593 9.25506 49.8458 8.10364 48.1061C7.78169 47.6197 7.73171 47.4001 7.72273 46.4317L7.71238 45.317H4.00506H0.297738L0.177488 45.7312C0.111357 45.959 0.0348703 46.6424 0.00767246 47.2499C-0.112578 49.9328 1.1874 52.2155 3.43446 53.2669C3.91366 53.4912 5.01469 53.8424 5.88129 54.0474C7.33451 54.3912 7.68781 54.4203 10.4253 54.4231C13.0813 54.4258 13.5316 54.3921 14.7051 54.1022C19.5797 52.8982 22.455 50.6677 23.7166 47.1118C24.7513 44.1946 24.4947 41.8049 22.985 40.3034C21.817 39.1418 20.6355 38.6543 15.7037 37.2994C12.2042 36.3379 11.9373 36.2337 11.3226 35.5867C10.9518 35.1964 10.9092 35.0615 10.9155 34.2974C10.9232 33.3366 11.1414 32.824 11.8275 32.1532C13.3742 30.641 16.5281 30.4542 17.5646 31.8133C17.9146 32.272 17.9495 32.4222 17.9495 33.4676V34.6174H21.7159C25.1732 34.6174 25.4906 34.5975 25.5816 34.3758C25.6363 34.243 25.6809 33.3265 25.6809 32.3394C25.6809 30.6531 25.6569 30.4926 25.2833 29.684C24.3902 27.75 22.3571 26.6094 19.0681 26.197C17.7578 26.0327 14.2973 26.0407 13.1174 26.2108ZM32.4586 26.8652C32.4188 26.9298 31.9216 29.1818 31.3539 31.8699C30.7861 34.558 29.5082 40.565 28.5141 45.2189C27.52 49.8726 26.7435 53.7401 26.7887 53.8131C26.8908 53.9785 47.0008 53.9919 47.2612 53.8268C47.4402 53.7131 48.5365 49.0028 48.4304 48.8031C48.4001 48.7462 45.5057 48.6985 41.9983 48.6974C38.4909 48.6962 35.5465 48.6479 35.4554 48.5899C35.2098 48.4338 36.2959 43.1763 36.6249 42.9276C36.8142 42.7846 38.0756 42.7533 42.71 42.7763C47.6026 42.8008 48.576 42.7738 48.6774 42.6116C48.744 42.505 48.8669 42.0761 48.9505 41.6585C49.034 41.2408 49.2525 40.2183 49.4361 39.3863C49.6199 38.5542 49.7217 37.8249 49.6623 37.7656C49.6029 37.7062 46.8853 37.6415 43.6233 37.6217C37.7909 37.5862 37.6924 37.5811 37.7056 37.3096C37.724 36.9351 38.7148 32.2644 38.8079 32.1141C38.8486 32.0481 41.7205 31.9933 45.19 31.9922C48.6594 31.9909 51.5739 31.9418 51.6666 31.883C51.8587 31.7609 52.8595 27.0784 52.7361 26.8787C52.634 26.7136 32.5607 26.7002 32.4586 26.8652ZM57.3107 26.8634C57.2658 26.9359 56.4247 30.8069 55.4416 35.4658C54.4584 40.1246 53.1843 46.1388 52.6104 48.8305C51.9751 51.8096 51.6164 53.7742 51.6938 53.8516C51.7698 53.9276 54.8854 53.9487 59.4598 53.9042C67.7908 53.823 68.3102 53.78 70.4772 52.989C72.0207 52.4257 73.0593 51.7575 74.0882 50.666C75.0721 49.6223 75.7026 48.4632 76.1325 46.9075C77.0964 43.4191 75.686 41.0761 72.0096 40.0589L71.1218 39.8133L72.2167 39.4445C75.9274 38.1945 77.9013 36.1349 78.3365 33.0595C78.7453 30.1715 77.1618 28.055 73.8638 27.0813C73.1242 26.863 72.197 26.8311 65.2138 26.7842C60.3354 26.7513 57.3615 26.7811 57.3107 26.8634ZM84.6315 27.0586C84.1085 29.2194 79.1443 52.919 79.1298 53.3245L79.11 53.8768L82.736 53.9136L86.362 53.9503L86.4964 53.6375C86.6416 53.2988 88.3439 45.3289 88.5036 44.2392C88.6537 43.2154 88.7829 43.1731 91.3974 43.2943C93.7766 43.4048 94.2036 43.5196 94.6936 44.1816C95.0442 44.6555 95.0528 45.8894 94.7286 49.1827C94.4677 51.8339 94.4163 53.6375 94.5968 53.8179C94.6766 53.8977 96.2581 53.9357 98.5856 53.9135L102.442 53.8768L102.478 52.7723C102.497 52.1648 102.603 50.0826 102.713 48.1452C102.983 43.4009 102.854 42.5064 101.758 41.5445C101.214 41.067 100.266 40.7514 98.9515 40.6103C98.4743 40.5591 98.1194 40.4819 98.1626 40.4386C98.2059 40.3953 98.8449 40.2149 99.5824 40.0375C103.205 39.1667 105.329 37.1743 106.04 33.9796C106.35 32.5878 106.266 30.541 105.862 29.6304C105.461 28.724 104.68 27.9189 103.798 27.5018C102.275 26.781 101.871 26.753 92.9532 26.7503L84.7067 26.748L84.6315 27.0586ZM120.425 26.9896C120.237 27.2005 118.05 30.7895 106.434 49.942L104.048 53.8768L107.725 53.9136C110.55 53.9419 111.441 53.9099 111.571 53.7756C111.664 53.6793 112.3 52.5755 112.985 51.3226C113.669 50.0697 114.329 48.9048 114.451 48.734L114.673 48.4234H119.965C124.152 48.4234 125.289 48.4611 125.407 48.6037C125.489 48.703 125.69 49.8678 125.854 51.1923C126.071 52.9529 126.209 53.647 126.369 53.7732C126.673 54.0145 134.679 54.0241 134.679 53.783C134.679 53.6934 133.689 48.2108 132.478 41.5992C131.267 34.9877 130.208 29.1744 130.123 28.6808C130.038 28.1873 129.908 27.5505 129.834 27.2657L129.698 26.748H125.169C121.029 26.748 120.621 26.7688 120.425 26.9896ZM143.517 27.0586C143.446 27.2294 143.265 27.9595 143.116 28.6808C142.967 29.4022 141.717 35.2939 140.339 41.7733C138.961 48.2529 137.867 53.6425 137.909 53.75C138.017 54.0319 158.171 54.0452 158.405 53.7634C158.546 53.5936 159.53 49.3386 159.53 48.8986C159.53 48.728 158.601 48.6995 153.037 48.6995C147.651 48.6995 146.531 48.6671 146.471 48.5094C146.371 48.2487 147.453 43.216 147.663 42.962C147.808 42.7874 148.682 42.7589 153.703 42.766C157.327 42.7709 159.625 42.7228 159.708 42.6401C159.856 42.4922 160.772 38.4701 160.772 37.9691V37.6547H154.832C149.909 37.6547 148.878 37.6221 148.818 37.4643C148.743 37.2704 149.642 32.8714 149.872 32.3049L149.998 31.9943H156.335C161.239 31.9943 162.702 31.9553 162.808 31.8217C162.916 31.6847 163.948 27.17 163.948 26.8339C163.948 26.7866 159.38 26.748 153.798 26.748H143.647L143.517 27.0586ZM69.4441 31.9252C70.2292 32.3191 70.6194 32.9658 70.6194 33.8732C70.6194 35.5816 69.4526 37.1914 67.9866 37.5059C67.1697 37.6811 62.5231 37.708 62.4181 37.5382C62.3355 37.4045 63.3721 32.3672 63.5829 31.8779L63.7222 31.5543L66.3079 31.6017C68.5585 31.643 68.965 31.6849 69.4441 31.9252ZM97.2957 32.0932C98.296 32.5479 98.5362 33.0354 98.4714 34.4793C98.3936 36.2165 97.7486 37.2552 96.3061 37.966C95.7287 38.2506 95.447 38.2799 92.8663 38.3229C91.3205 38.3489 90.0082 38.3178 89.9502 38.2539C89.8922 38.1901 90.079 37.0507 90.3654 35.7219C90.6517 34.393 90.9601 32.9422 91.0508 32.4978L91.2157 31.6898L93.9297 31.7433C96.3421 31.7909 96.7161 31.8297 97.2957 32.0932ZM124.266 37.5233C124.554 40.5262 124.749 43.089 124.7 43.2182C124.618 43.4311 124.272 43.4532 121.012 43.4532H117.415L117.645 43.0045C118.136 42.0463 123.259 32.5977 123.452 32.2929C123.564 32.1155 123.676 31.9912 123.7 32.0168C123.723 32.0423 123.978 34.5203 124.266 37.5233ZM67.5058 42.901C68.501 43.4038 68.7568 43.8249 68.7496 44.948C68.7427 46.0224 68.3664 46.9929 67.6786 47.7107C66.7041 48.7274 65.6507 48.9756 62.3104 48.9756C60.4714 48.9756 59.9888 48.9375 59.9888 48.7921C59.9888 48.5173 61.2318 42.7356 61.3225 42.589C61.3673 42.5165 62.5594 42.4823 64.1118 42.509C66.6811 42.5534 66.8585 42.5739 67.5058 42.901ZM50.6007 58.4182C50.6007 58.4482 50.1969 60.3496 49.7033 62.6436C49.2097 64.9376 48.8059 66.87 48.8059 66.9379C48.8059 67.0101 59.2985 67.0615 74.054 67.0615C94.0877 67.0615 99.3301 67.0259 99.4382 66.8889C99.5624 66.7317 101.271 58.9386 101.269 58.5363C101.269 58.3989 96.1095 58.3637 75.9347 58.3637C62.001 58.3637 50.6007 58.3883 50.6007 58.4182ZM47.8469 71.79C47.7355 72.0673 46.1915 79.3879 46.1361 79.901C46.1164 80.0844 49.0105 80.1081 71.4463 80.1081H96.7788L97.6367 76.1044C98.1086 73.9023 98.4975 71.9608 98.5011 71.79L98.5075 71.4794H73.2396H47.9716L47.8469 71.79Z" fill="#E0EBFF"/>
</svg>
