<svg version="1.2" xmlns="http://www.w3.org/2000/svg" viewBox="0 0 660 170" transform="scale(1.1)">
	<title>Novo Projeto</title>
	<style>
		.s0 { fill: #e0ebff } 
		.s1 { fill: #5d5fef } 
		.s2 { fill: #ffffff } 
	</style>
	<path id="Object 4" class="s0" d="m69.6 18.9c10.7 0 20.6 3.6 28.4 9.7-16.6 25-38.6 48-61.6 69.4-8.2-8.4-13.3-19.9-13.3-32.6 0-25.7 20.8-46.5 46.5-46.5z"/>
	<path id="Object 5" fill-rule="evenodd" class="s0" d="m182.2 154.1q-2.6 0-4.7-1.2-2.2-1.1-3.4-3.2-1.2-2-1.2-4.6 0-2.5 1.2-4.6 1.2-2 3.4-3.2 2.1-1.2 4.7-1.2 2.7 0 4.8 1.2 2.1 1.2 3.3 3.2 1.2 2.1 1.2 4.6 0 2.6-1.2 4.6-1.2 2.1-3.3 3.3-2.1 1.1-4.8 1.1zm0-1.7q2.1 0 3.8-0.9 1.7-0.9 2.7-2.6 0.9-1.7 0.9-3.8 0-2-0.9-3.7-1-1.7-2.7-2.7-1.7-0.9-3.8-0.9-2.1 0-3.8 0.9-1.7 1-2.6 2.7-1 1.7-1 3.7 0 2.1 1 3.8 0.9 1.7 2.6 2.6 1.7 0.9 3.8 0.9zm21.3-16.1h7.2q2.8 0 4.9 1.1 2.2 1.1 3.3 3.1 1.2 2 1.2 4.6 0 2.6-1.2 4.6-1.1 2-3.3 3.1-2.1 1.2-4.9 1.2h-7.2zm7.1 16q2.3 0 4-0.9 1.8-0.9 2.7-2.5 1-1.7 1-3.8 0-2.1-1-3.7-0.9-1.7-2.7-2.6-1.7-0.9-4-0.9h-5.3v14.4zm27.4 0v1.6h-12.5v-17.6h12.1v1.6h-10.2v6.3h9.1v1.6h-9.1v6.5zm10.4 1.8q-2 0-3.8-0.6-1.8-0.7-2.8-1.7l0.7-1.4q1 0.9 2.6 1.5 1.6 0.6 3.3 0.6 2.4 0 3.5-0.9 1.2-0.8 1.2-2.2 0-1.1-0.6-1.7-0.7-0.6-1.6-1-0.9-0.3-2.6-0.7-2-0.5-3.2-1-1.2-0.5-2-1.4-0.9-1-0.9-2.6 0-1.4 0.8-2.5 0.7-1.1 2.1-1.7 1.5-0.7 3.7-0.7 1.5 0 2.9 0.4 1.5 0.4 2.5 1.2l-0.6 1.5q-1.1-0.8-2.4-1.1-1.2-0.4-2.4-0.4-2.4 0-3.5 0.9-1.2 0.9-1.2 2.3 0 1.1 0.6 1.7 0.7 0.7 1.6 1 1 0.3 2.7 0.7 1.9 0.5 3.1 1 1.2 0.5 2 1.4 0.9 1 0.9 2.6 0 1.3-0.7 2.4-0.8 1.1-2.3 1.8-1.4 0.6-3.6 0.6zm24.3-1.8v1.6h-12.5v-17.6h12.1v1.6h-10.3v6.3h9.2v1.6h-9.2v6.5zm20.3-16v17.6h-1.5l-11.4-14.3v14.3h-1.8v-17.6h1.5l11.4 14.3v-14.3zm21.4 0l-7.9 17.6h-1.8l-7.8-17.6h2l6.8 15.3 6.8-15.3zm11.2 17.8q-2.6 0-4.7-1.2-2.2-1.1-3.4-3.2-1.2-2-1.2-4.6 0-2.5 1.2-4.6 1.2-2 3.4-3.2 2.1-1.2 4.7-1.2 2.7 0 4.8 1.2 2.1 1.1 3.3 3.2 1.2 2.1 1.2 4.6 0 2.6-1.2 4.6-1.2 2.1-3.3 3.2-2.1 1.2-4.8 1.2zm0-1.7q2.1 0 3.8-0.9 1.7-1 2.7-2.6 0.9-1.7 0.9-3.8 0-2.1-0.9-3.7-1-1.7-2.7-2.7-1.7-0.9-3.8-0.9-2.1 0-3.8 0.9-1.7 1-2.6 2.7-1 1.6-1 3.7 0 2.1 1 3.8 0.9 1.6 2.6 2.6 1.7 0.9 3.8 0.9zm14.6-16.1h1.9v16h9.9v1.6h-11.8zm29.4 0l-7.8 17.7h-1.9l-7.8-17.7h2l6.8 15.4 6.8-15.4zm3.7 0h1.9v17.7h-1.9zm27.1 0v17.7h-1.8v-14.1l-6.9 11.9h-0.9l-7-11.9v14.1h-1.8v-17.7h1.6l7.7 13.1 7.6-13.1zm19.4 16.1v1.6h-12.5v-17.7h12.1v1.6h-10.3v6.3h9.2v1.6h-9.2v6.6zm20.3-16.1v17.7h-1.5l-11.4-14.3v14.3h-1.9v-17.7h1.6l11.4 14.4v-14.4zm10.3 1.6h-6.2v-1.6h14.3v1.6h-6.2v16.1h-1.9zm19.7 16.2q-2.7 0-4.8-1.1-2.1-1.2-3.3-3.3-1.2-2-1.2-4.6 0-2.5 1.2-4.6 1.2-2 3.3-3.2 2.1-1.2 4.8-1.2 2.6 0 4.7 1.2 2.1 1.2 3.3 3.2 1.2 2.1 1.2 4.6 0 2.6-1.2 4.7-1.2 2-3.3 3.2-2.1 1.1-4.7 1.1zm0-1.6q2.1 0 3.8-1 1.6-0.9 2.6-2.6 1-1.7 1-3.8 0-2-1-3.7-1-1.7-2.6-2.6-1.7-1-3.8-1-2.1 0-3.8 1-1.7 0.9-2.7 2.6-1 1.7-1 3.7 0 2.1 1 3.8 1 1.7 2.7 2.6 1.7 1 3.8 1zm33.7-0.1v1.6h-12.5v-17.7h12.1v1.6h-10.3v6.3h9.2v1.6h-9.2v6.6zm-4.6-20.7h2.4l-4 3.2h-1.8zm27.8 17.5h-9.8l-2.2 4.7h-1.9l8.1-17.7h1.8l8.1 17.7h-2zm-0.6-1.5l-4.3-9.5-4.2 9.5zm21-2.6h1.8v6.7q-1.2 1.1-2.9 1.7-1.7 0.6-3.6 0.6-2.7 0-4.8-1.2-2.1-1.1-3.3-3.2-1.2-2.1-1.2-4.6 0-2.6 1.2-4.6 1.2-2.1 3.3-3.2 2.1-1.2 4.8-1.2 2 0 3.7 0.6 1.7 0.7 2.9 2l-1.2 1.1q-2.1-2-5.3-2-2.1 0-3.9 0.9-1.7 1-2.7 2.6-1 1.7-1 3.8 0 2.1 1 3.7 1 1.7 2.7 2.7 1.7 0.9 3.9 0.9 2.7 0 4.6-1.3zm15.9 9q-2.6 0-4.7-1.2-2.2-1.2-3.4-3.2-1.2-2.1-1.2-4.6 0-2.6 1.2-4.6 1.2-2.1 3.4-3.3 2.1-1.1 4.7-1.1 2.7 0 4.8 1.1 2.1 1.2 3.3 3.2 1.2 2.1 1.2 4.7 0 2.5-1.2 4.6-1.2 2-3.3 3.2-2.1 1.2-4.8 1.2zm0-1.7q2.1 0 3.8-1 1.7-0.9 2.7-2.6 0.9-1.7 0.9-3.7 0-2.1-0.9-3.8-1-1.7-2.7-2.6-1.7-1-3.8-1-2.1 0-3.8 1-1.7 0.9-2.6 2.6-1 1.7-1 3.8 0 2 1 3.7 0.9 1.7 2.6 2.6 1.7 1 3.8 1zm26.7 1.5l-4-5.7q-0.7 0.1-1.5 0.1h-4.7v5.6h-1.9v-17.7h6.6q3.4 0 5.3 1.6 2 1.7 2 4.5 0 2.1-1.1 3.5-1 1.4-3 2l4.3 6.1zm-5.5-7.2q2.7 0 4.1-1.2 1.3-1.1 1.3-3.2 0-2.2-1.3-3.3-1.4-1.2-4.1-1.2h-4.7v8.9zm23.9 2.5h-9.8l-2.1 4.7h-2l8.1-17.7h1.9l8 17.7h-1.9zm-0.7-1.5l-4.3-9.5-4.2 9.5z"/>
	<path id="Object 6" class="s0" d="m193.3 117.4c0-20.5 0-34.5 0-59.3l4.7-0.1h0.5q5.1 0 7.5 2.5 2.4 2.2 2.4 5.9 0.2 4.2-2.5 6.4-2.4 2.1-6.8 2.4c6 3 9.9 12.4 10.5 17.4q2.1-0.4 4-1 5.6-1.9 9.2-5.3 3.9-3.4 5.8-8.4 2-5.3 1.9-11.7-0.2-6-2-11-1.8-5-5.1-8.4-3.6-3.6-8.6-5.6-5.3-2-12.3-2h-1.2q-13.3 0-26.6 0c-0.9 0-2.1 0-2.1 2v69c0 3.6 2.8 7.2 7.9 7.1z"/>
	<path id="Object 7" fill-rule="evenodd" class="s0" d="m290 117.4q-9.1 0-18.2 0-2.5-8.1-4.9-16.2-11.8 0-23.5 0 0 0.1 0 0.2c-0.9 2.8-1.8 5.6-2.6 8q-1.3 4-2.5 8-0.3 0-0.5 0-0.1 0-0.1 0 0 0 0 0 0 0 0 0 0 0 0 0 0 0 0 0 0 0 0 0 0 0 0 0-0.1 0-0.1 0 0 0 0 0 0 0 0 0 0 0 0 0 0 0 0 0 0 0-0.1 0 0 0 0 0 0 0 0 0 0 0 0 0 0 0 0 0 0 0 0 0-0.1 0-0.1 0 0 0 0 0 0 0 0 0 0 0 0 0 0 0-0.1 0 0 0 0 0 0 0 0 0 0 0 0 0 0 0-0.1 0 0 0 0 0 0 0 0 0 0 0 0 0 0 0-0.1 0 0 0 0 0 0 0 0 0 0 0 0 0-0.1 0-0.1 0 0 0 0 0 0 0 0 0-0.1 0-0.1 0 0 0 0 0 0 0 0 0 0 0-0.1 0 0 0 0 0 0 0 0 0-0.1 0-0.1 0 0 0 0 0 0 0 0 0-0.1 0-0.1 0 0 0 0 0 0 0-0.1 0 0 0 0 0 0 0 0 0-0.1 0-0.1 0 0 0 0 0-0.1 0-0.1 0 0 0 0 0 0 0-0.1 0 0 0 0 0 0 0-0.1 0 0 0 0 0 0 0-0.1 0 0 0 0 0 0 0-0.1 0 0 0 0 0-0.1 0-0.1 0 0 0 0 0-0.1 0-0.1 0 0 0 0 0-0.1 0-0.1 0 0 0-0.1 0 0 0 0 0-0.1 0-0.1 0 0 0 0 0-0.1 0-0.1 0 0 0-0.1 0 0 0 0 0-0.1 0-0.1 0 0 0-0.1 0 0 0 0 0-0.1 0-0.1 0 0 0-0.1 0 0 0 0 0-0.1 0-0.1 0-0.1 0-0.1 0 0 0-0.1 0 0 0 0 0-0.1 0-0.1 0 0 0-0.1 0 0 0-0.1 0 0 0 0 0-0.1 0-0.1 0 0 0-0.1 0 0 0-0.1 0 0 0 0 0-0.1 0-0.1 0 0 0-0.1 0 0 0-0.1 0 0 0 0 0-0.1 0-0.1 0-0.1 0-0.1 0 0 0-0.1 0 0 0-0.1 0-3.1 0-6.2 0c-9.8 0-7.6-6.4-3.8-16.9q4.5-12.4 9.1-24.9c3.2-9 6.7-18.7 8.9-24.8 3.7-10.1 3.8-10.8 6.8-11.1 3-0.2 8.9 0 12.2 0.1 1.1 0 1.9 0 2.5 0.1q1.5 0 3 0 12.9 36.8 25.8 73.6c0.5 1.3 1.4 4-1.5 3.9zm-26-30.7q-3.8-10.3-7.7-20.6-2 5.3-4.1 10.6c-1.1 2.9-2.2 5.9-3.2 8.7q-0.3 0.6-0.5 1.3 7.8 0 15.5 0z"/>
	<path id="Object 8" fill-rule="evenodd" class="s0" d="m352.9 117.5q-10.8 0-21.5 0-6.7-11.3-13.4-22.6-2.2 0-4.4 0 0 11.3 0 22.6-7.6 0-15.2 0c-3.3-0.1-5.7-2.6-5.6-8.8q0-34.8 0.1-69.5 15.6 0 31.3 0 7.5 0 12.8 2.1 5.3 1.9 8.9 5.7 3.4 3.6 5.1 8.7 1.8 5.1 1.8 11.3 0 8-3.1 13.5-2.8 5.8-8.9 9-0.6 0.4-1.2 0.8 7.3 11.8 14.5 23.6c1.8 2.9 0.8 3.6-1.2 3.6zm-39.7-44.2q3.1 0 6.2 0 3.4 0 6.1-1.6 2.8-1.6 2.8-5.9 0-3.4-2-5.4-2.4-2.2-6.9-2.2-3.1 0-6.2 0 0 7.6 0 15.1z"/>
	<path id="Object 9" class="s0" d="m494.7 119.6q12.6 0 20.6-6.7 4.1-3.2 6.3-7.9 2.1-4.7 2.1-9.9 0-11-6.8-16.9-6.2-5.3-17.9-8.1-10.1-2.5-12.5-4.3-1.6-1-1.6-3.1 0-2.1 1.4-2.8 2.3-1.5 6.2-1.5 4.8 0 9.1 1.6 4.5 1.5 7 3.7c2.3 2 3.6 2.7 5.5 0 2.8-3.8 5.5-7.7 8.2-11.5 0.5-0.7 0.5-1.2-0.2-1.8q-1-0.8-2-1.6-5.2-4.5-12.6-6.9-6.9-2.4-14.5-2.4-11.7 0-19.8 6-4.3 3.2-6.5 7.9-2.1 4.5-2.1 10.1 0 5.7 1.8 10.1 1.9 4.4 5.9 7.5 3.8 2.8 8.1 4.6 4.8 1.8 12.1 3.5 7 1.6 9.4 3.5 1.5 1.1 1.5 2.9 0 1.9-1.7 3.2-2.4 1.7-6.6 1.7-5 0-9.6-2-4.7-1.9-9.6-6.2-0.8-0.7-1.7-1.4c-1.1-1.1-1.7-0.9-2.5 0q-5.7 6.9-11.4 13.7 1.4 1.3 2.8 2.7 14 12.3 31.6 12.3z"/>
	<path id="Object 10" fill-rule="evenodd" class="s0" d="m548.7 114.4q-6.8-2.6-12.3-8.1-5.3-5.5-8-12.7-3-7.5-3-16.3 0-8.8 3-16.3 2.7-7.3 8-12.7 5.2-5.3 12.3-8.3 7.2-2.9 15.8-2.9 8.5 0 15.8 2.9 7.1 3 12.3 8.3 5.2 5.3 8 12.7 2.9 7.5 2.9 16.3 0 8.8-2.9 16.3-2.9 7.4-8 12.6-5.2 5.3-12.3 8.2-7.3 3-15.8 3-8.4 0-15.8-3zm8.8-53.2q-3 1.3-5.2 3.8-2.2 2.5-3.4 5.8-1.2 3.2-1.2 6.9 0 3.7 1.2 6.9 1.2 3.2 3.4 5.7 2.2 2.5 5.2 3.8 3 1.3 6.4 1.3 7.2 0 11.8-5.1 2.2-2.4 3.4-5.7 1.2-3.2 1.2-6.9 0-3.7-1.2-6.9-1.2-3.3-3.4-5.7-2.2-2.6-5.2-3.9-3.1-1.3-6.6-1.3-3.4 0-6.4 1.3z"/>
	<path id="Object 11" class="s0" d="m455.8 115.1v-60.4c-2.9 8.3-15.7 14.3-22.1 15.1v47.6c7 0 13.4 0 20.4 0 1.5 0 1.7-0.7 1.7-2.3z"/>
	<path id="Object 12" class="s0" d="m152.7 139.3c-3.4 8.5-11.7 14.6-21.5 14.6q-53.6 0-107.3 0c-9.7 0-18.1-6.1-21.5-14.6z"/>
	<path id="Object 13" class="s0" d="m154.4 116.8h-134.3c7.3-5.3 7.6-5.7 23.2-17.2h111.1z"/>
	<path id="Object 14" class="s1" d="m154.4 99.6h-111.1c9.2-7.2 17.8-14.4 26.3-22.5h84.8z"/>
	<path id="Object 15" class="s0" d="m154.4 77.1h-84.8c18.7-17.8 37.1-40.1 61.6-76.8 12.8 0 23.2 10.4 23.2 23.2z"/>
	<path id="Object 16" class="s1" d="m152.7 139.3h-150.3c-1-2.7-1.6-5.5-1.6-8.5 6.9-5 13.3-9.6 19.3-14h134.3v14c0 3-0.6 5.8-1.7 8.5z"/>
	<path id="Object 17" fill-rule="evenodd" class="s0" d="m188.9 17.8h4.7v9.1q-1.8 1.4-4.2 2.1-2.4 0.8-4.8 0.8-3.5 0-6.3-1.5-2.8-1.5-4.4-4.2-1.6-2.6-1.6-5.9 0-3.4 1.6-6 1.6-2.7 4.4-4.1 2.8-1.5 6.4-1.5 2.9 0 5.3 1 2.4 1 4.1 2.8l-3.4 3.1q-2.4-2.5-5.8-2.5-2.1 0-3.8 0.9-1.7 0.9-2.6 2.5-0.9 1.7-0.9 3.8 0 2.1 0.9 3.7 0.9 1.6 2.6 2.5 1.7 0.9 3.8 0.9 2.2 0 4-0.9zm22.4 11.9q-3.5 0-6.3-1.5-2.8-1.5-4.4-4.1-1.6-2.7-1.6-6 0-3.3 1.6-5.9 1.6-2.7 4.4-4.2 2.8-1.5 6.3-1.5 3.5 0 6.3 1.5 2.8 1.5 4.4 4.2 1.6 2.6 1.6 5.9 0 3.3-1.6 6-1.6 2.6-4.4 4.1-2.8 1.5-6.3 1.5zm0-4.4q2 0 3.6-0.9 1.6-0.9 2.5-2.5 0.9-1.7 0.9-3.8 0-2-0.9-3.7-0.9-1.6-2.5-2.5-1.6-0.9-3.6-0.9-2 0-3.6 0.9-1.6 0.9-2.5 2.5-0.9 1.7-0.9 3.7 0 2.1 0.9 3.8 0.9 1.6 2.5 2.5 1.6 0.9 3.6 0.9zm39-18.4l-9.7 22.5h-5.2l-9.6-22.5h5.6l6.8 16 6.9-16zm21.2 18.3v4.2h-17.3v-22.5h16.9v4.2h-11.8v4.9h10.4v4h-10.4v5.2zm20.4 4.2l-4.3-6.3h-4.8v6.3h-5.2v-22.5h9.7q3 0 5.2 1 2.2 1 3.4 2.8 1.2 1.9 1.2 4.4 0 2.5-1.2 4.3-1.2 1.8-3.4 2.7l5 7.3zm-0.1-14.3q0-1.9-1.2-2.9-1.2-1-3.6-1h-4.2v7.8h4.2q2.4 0 3.6-1.1 1.2-1 1.2-2.8zm31.9-8.2v22.5h-4.3l-11.1-13.7v13.7h-5.2v-22.5h4.3l11.2 13.6v-13.6zm18.1 22.8q-3.5 0-6.3-1.5-2.8-1.5-4.4-4.1-1.5-2.7-1.5-6 0-3.3 1.5-5.9 1.6-2.7 4.4-4.2 2.8-1.5 6.3-1.5 3.5 0 6.3 1.5 2.8 1.5 4.4 4.2 1.6 2.6 1.6 5.9 0 3.3-1.6 6-1.6 2.6-4.4 4.1-2.8 1.5-6.3 1.5zm0-4.4q2 0 3.6-0.9 1.6-0.9 2.5-2.5 1-1.7 1-3.8 0-2-1-3.7-0.9-1.6-2.5-2.5-1.6-0.9-3.6-0.9-2 0-3.6 0.9-1.6 0.9-2.5 2.5-0.9 1.7-0.9 3.7 0 2.1 0.9 3.8 0.9 1.6 2.5 2.5 1.6 0.9 3.6 0.9zm27.3-18.4h10.2q3.6 0 6.4 1.4 2.8 1.4 4.4 3.9 1.5 2.6 1.5 5.9 0 3.4-1.5 5.9-1.6 2.6-4.4 4-2.8 1.4-6.4 1.4h-10.2zm9.9 18.1q3.4 0 5.4-1.8 2-1.9 2-5.1 0-3.2-2-5.1-2-1.9-5.4-1.9h-4.7v13.9zm35.8 0.1v4.2h-17.3v-22.4h16.9v4.1h-11.8v4.9h10.4v4h-10.4v5.2z"/>
	<path id="Object 18" class="s2" d="m111 76.4v-18.6l16.6-4.5 15.5 4.2v19.6h-32.1z"/>
	<path id="Object 19" class="s1" d="m149.4 67l0.1 10.1h-6.4v-19.6z"/>
	<path id="Object 20" class="s1" d="m124.9 19.5h4.8v7.3l10.3-0.6 0.3 4.7-10.6 0.7v45.5h-4.8v-45.2l-10.4 0.6-0.3-4.8 10.7-0.6z"/>
	<path id="Object 21" class="s2" d="m194 93.8q1.3 0 2.9 0c3-0.1 6.6 0 8.6 0 2 0 2.2 0.1 2.2-0.7-0.5-5.4-5.5-17.3-13-18.8l-5.5-0.6c-2.8-0.4-4.9 0.7-4.9 3.3v10c0 2.6 2.1 6.7 4.9 6.8z"/>
	<path id="Object 22" class="s2" d="m433.7 50.8q-0.1 1.5 0 3.3c0 3.4 0 7.6 0 9.8-0.1 2.2-0.1 2.5 0.7 2.5 6.1-0.6 19.6-6.2 21.3-14.7l0.7-6.2c0.4-3.2-0.8-5.5-3.7-5.5h-11.3c-3 0-7.7 2.3-7.7 5.4z"/>
	<path id="Object 23" fill-rule="evenodd" class="s0" d="m426 117.4q-9.1 0-18.2 0-2.5-8.1-5-16.2-11.7 0-23.4 0-0.1 0.1-0.1 0.2c-0.9 2.8-1.8 5.6-2.6 8q-1.2 4-2.5 8-0.2 0-0.5 0 0 0 0 0 0 0 0 0 0 0 0 0-0.1 0-0.1 0 0 0 0 0 0 0 0 0 0 0 0 0 0 0 0 0 0 0 0 0-0.1 0-0.1 0 0 0 0 0 0 0 0 0 0 0 0 0 0 0 0 0 0 0-0.1 0 0 0 0 0 0 0 0 0 0 0 0 0 0 0 0 0 0 0-0.1 0 0 0 0 0 0 0 0 0 0 0 0 0 0 0 0 0-0.1 0-0.1 0 0 0 0 0 0 0 0 0 0 0 0 0-0.1 0-0.1 0 0 0 0 0 0 0 0 0 0 0 0 0-0.1 0-0.1 0 0 0 0 0 0 0 0 0-0.1 0-0.1 0 0 0 0 0 0 0 0 0 0 0-0.1 0 0 0 0 0 0 0 0 0 0 0-0.1 0 0 0 0 0 0 0 0 0-0.1 0-0.1 0 0 0 0 0 0 0 0 0-0.1 0-0.1 0 0 0 0 0 0 0-0.1 0 0 0 0 0 0 0-0.1 0 0 0 0 0 0 0 0 0-0.1 0-0.1 0 0 0 0 0-0.1 0-0.1 0 0 0 0 0-0.1 0-0.1 0 0 0 0 0-0.1 0-0.1 0 0 0 0 0-0.1 0-0.1 0 0 0 0 0-0.1 0-0.1 0 0 0-0.1 0 0 0 0 0 0 0-0.1 0 0 0 0 0-0.1 0-0.1 0 0 0 0 0-0.1 0-0.1 0 0 0-0.1 0 0 0 0 0-0.1 0-0.1 0 0 0-0.1 0 0 0 0 0-0.1 0-0.1 0 0 0-0.1 0 0 0 0 0-0.1 0-0.1 0 0 0-0.1 0 0 0-0.1 0 0 0 0 0-0.1 0-0.1 0 0 0-0.1 0 0 0 0 0-0.1 0-0.1 0-0.1 0-0.1 0 0 0-0.1 0 0 0 0 0-0.1 0-0.1 0-0.1 0-0.1 0 0 0-0.1 0 0 0 0 0-0.1 0-0.1 0-0.1 0-0.1 0 0 0-0.1 0 0 0-0.1 0 0 0 0 0-0.1 0-0.1 0-3.1 0-6.2 0c-9.8 0-7.6-6.4-3.9-16.9q4.6-12.4 9.1-24.9c3.3-9 6.8-18.7 9-24.8 3.6-10.1 3.8-10.8 6.8-11.1 3-0.2 8.8 0 12.1 0.1 1.1 0 1.9 0 2.6 0.1q1.5 0 2.9 0 12.9 36.8 25.8 73.6c0.5 1.3 1.5 4-1.4 3.9zm-26-30.7q-3.9-10.3-7.8-20.6-2 5.3-4 10.6c-1.1 2.9-2.3 5.9-3.3 8.7q-0.2 0.6-0.5 1.3 7.8 0 15.6 0z"/>
</svg>
