<svg width="116" height="68" viewBox="0 0 116 68" fill="none" xmlns="http://www.w3.org/2000/svg">
<path d="M14.5341 35.7389C4.50521 33.6947 7.47548 45.8552 7.47548 45.8552C10.402 60.5753 25.821 64.0609 25.821 64.0609C29.595 65.0936 33.4648 65.7376 37.3699 65.9828C40.7633 66.1372 44.1042 65.1018 46.8156 63.0555C49.5271 61.0091 51.4389 58.0802 52.221 54.7746C52.7771 52.5049 52.5529 50.1141 51.5846 47.9874C50.6164 45.8607 48.9603 44.1218 46.8834 43.0509C45.1008 42.1854 43.2208 41.5372 41.2836 41.1203L14.5341 35.7389Z" stroke="white" stroke-width="2.78459" stroke-miterlimit="10" stroke-linecap="round"/>
<path d="M106.694 35.7389C116.723 33.6947 113.752 45.8552 113.752 45.8552C110.826 60.5753 95.4069 64.0609 95.4069 64.0609C91.6356 65.0928 87.7688 65.7368 83.8667 65.9828C80.4649 66.148 77.1124 65.1178 74.3904 63.0707C71.6684 61.0236 69.7484 58.0886 68.9631 54.7746C68.4109 52.5039 68.6379 50.1136 69.6075 47.9875C70.5771 45.8614 72.2331 44.1228 74.3096 43.0509C76.089 42.1853 77.9661 41.5371 79.9005 41.1203L106.694 35.7389Z" stroke="white" stroke-width="2.78459" stroke-miterlimit="10" stroke-linecap="round"/>
<path d="M74.009 43.1821C72.5668 44.0833 71.3266 45.2731 70.3661 46.6765C69.7555 47.5393 68.9442 48.2407 68.0021 48.7201C67.0601 49.1995 66.0155 49.4426 64.9586 49.4283H56.275C55.2181 49.4426 54.1736 49.1995 53.2315 48.7201C52.2894 48.2407 51.4781 47.5393 50.8675 46.6765C49.9071 45.2731 48.6668 44.0833 47.2246 43.1821" stroke="white" stroke-width="2.78459" stroke-miterlimit="10" stroke-linecap="round"/>
<path d="M7.9541 37.9228L23.5652 8.69226C27.7498 1.03083 34.3803 1.07452 40.6353 3.29345" stroke="white" stroke-width="2.78459" stroke-miterlimit="10" stroke-linecap="round"/>
<path d="M113.282 37.9228L97.6707 8.69226C93.4862 1.03083 86.8555 1.07452 80.6006 3.29345" stroke="white" stroke-width="2.78459" stroke-miterlimit="10" stroke-linecap="round"/>
<path d="M8.52951 24.915L2.4755 35.1361C2.20202 35.5979 2.0415 36.1178 2.00703 36.6534C1.97257 37.189 2.06512 37.7252 2.27715 38.2182C2.48919 38.7113 2.81473 39.1472 3.22721 39.4906C3.63969 39.834 4.12743 40.0751 4.65075 40.1942L7.14053 40.7621M7.14053 40.7621L19.4145 43.5663C19.7067 43.6285 19.9836 43.7478 20.2296 43.9172C20.4756 44.0866 20.6858 44.3029 20.848 44.5536C21.0103 44.8043 21.1215 45.0846 21.1754 45.3784C21.2292 45.6722 21.2246 45.9737 21.1617 46.2657L20.7686 48.0653C20.7065 48.3593 20.5867 48.638 20.4161 48.8853C20.2455 49.1326 20.0276 49.3436 19.7749 49.5061C19.5222 49.6686 19.2398 49.7793 18.944 49.8319C18.6483 49.8845 18.3449 49.8779 18.0517 49.8125L7.88306 47.48C7.15988 44.8506 6.97263 43.3822 7.14053 40.7621Z" stroke="#2F75EE" stroke-width="2.78459" stroke-miterlimit="10" stroke-linecap="round"/>
<path d="M71.0103 59.5359C69.6824 58.106 68.0738 56.9654 66.2851 56.1855C64.4964 55.4055 62.5659 55.0029 60.6145 55.0029C58.6631 55.0029 56.7327 55.4055 54.944 56.1855C53.1552 56.9654 51.5466 58.106 50.2188 59.5359" stroke="white" stroke-width="2.78459" stroke-miterlimit="10" stroke-linecap="round"/>
</svg>
