<svg width="102" height="97" viewBox="0 0 102 97" fill="none" xmlns="http://www.w3.org/2000/svg">
<path d="M24.9941 26.7998H76.5858" stroke="white" stroke-width="1.5142" stroke-linecap="round" stroke-linejoin="round"/>
<path d="M50.7852 1V26.8229" stroke="white" stroke-width="1.5142" stroke-linecap="round" stroke-linejoin="round"/>
<path d="M24.9941 26.8227C24.9993 19.9802 27.7223 13.4199 32.5643 8.58516C37.4063 3.75039 43.9706 1.03712 50.8131 1.04224C57.6556 1.04736 64.2159 3.77044 69.0507 8.61244C73.8854 13.4545 76.5987 20.0188 76.5936 26.8613" stroke="white" stroke-width="1.5142" stroke-linecap="round" stroke-linejoin="round"/>
<path d="M50.7939 1C50.7939 1 36.96 6.51968 36.96 26.7997" stroke="white" stroke-width="1.5142" stroke-linecap="round" stroke-linejoin="round"/>
<path d="M50.792 1C50.792 1 64.6182 6.51968 64.6182 26.7997" stroke="white" stroke-width="1.5142" stroke-linecap="round" stroke-linejoin="round"/>
<path d="M50.7828 15.7294C36.5397 15.7294 32.8496 8.25659 32.8496 8.25659" stroke="white" stroke-width="1.5142" stroke-linecap="round" stroke-linejoin="round"/>
<path d="M68.7329 8.25659C68.7329 8.25659 65.0428 15.7294 50.792 15.7294" stroke="white" stroke-width="1.5142" stroke-linecap="round" stroke-linejoin="round"/>
<path d="M50.792 52.6227V26.7998" stroke="white" stroke-width="1.5142" stroke-linecap="round" stroke-linejoin="round"/>
<path d="M76.5936 26.8228C76.5936 33.6653 73.8754 40.2275 69.037 45.0659C64.1986 49.9043 57.6364 52.6225 50.7939 52.6225C43.9513 52.6225 37.3891 49.9043 32.5507 45.0659C27.7123 40.2275 24.9941 33.6653 24.9941 26.8228" stroke="white" stroke-width="1.5142" stroke-linecap="round" stroke-linejoin="round"/>
<path d="M50.792 52.6225C50.792 52.6225 64.6182 47.1028 64.6182 26.8228" stroke="white" stroke-width="1.5142" stroke-linecap="round" stroke-linejoin="round"/>
<path d="M50.7939 52.6225C50.7939 52.6225 36.96 47.1028 36.96 26.8228" stroke="white" stroke-width="1.5142" stroke-linecap="round" stroke-linejoin="round"/>
<path d="M68.7329 45.3661C68.7329 45.3661 65.0428 37.8933 50.792 37.8933" stroke="white" stroke-width="1.5142" stroke-linecap="round" stroke-linejoin="round"/>
<path d="M32.835 45.3661C32.835 45.3661 36.525 37.8933 50.7682 37.8933" stroke="white" stroke-width="1.5142" stroke-linecap="round" stroke-linejoin="round"/>
<path d="M58.313 95.2901L56.4834 89.3303C56.1337 88.1989 55.4309 87.2092 54.4779 86.5062C53.5249 85.8033 52.3718 85.4241 51.1876 85.4241H50.3538C49.1696 85.4241 48.0165 85.8033 47.0635 86.5062C46.1105 87.2092 45.4077 88.1989 45.058 89.3303L43.2207 95.2901" stroke="white" stroke-width="1.5142" stroke-linecap="round" stroke-linejoin="round"/>
<path d="M50.792 95.9998V92.0164" stroke="white" stroke-width="1.5142" stroke-linecap="round" stroke-linejoin="round"/>
<path d="M100.578 74.4154L95.3671 71.0033C94.3725 70.3593 93.1974 70.0516 92.0148 70.1252C90.8323 70.1989 89.7045 70.6501 88.7975 71.4124L88.481 71.6749L88.1567 71.9451C87.2502 72.7074 86.6113 73.7399 86.3335 74.8914C86.0557 76.0428 86.1536 77.253 86.6127 78.3448L89.0368 84.0884" stroke="white" stroke-width="1.5142" stroke-linecap="round" stroke-linejoin="round"/>
<path d="M95.2516 79.8115L92.6963 76.7622" stroke="white" stroke-width="1.5142" stroke-linecap="round" stroke-linejoin="round"/>
<path d="M12.5643 84.1274L14.9884 78.3916C15.4475 77.2997 15.5454 76.0896 15.2676 74.9381C14.9898 73.7866 14.3509 72.7543 13.4444 71.9919L13.1279 71.7216L12.8114 71.4515C11.9032 70.6913 10.7757 70.2416 9.59375 70.168C8.41176 70.0943 7.2372 70.4007 6.24176 71.0423L1 74.4313" stroke="white" stroke-width="1.5142" stroke-linecap="round" stroke-linejoin="round"/>
<path d="M6.32422 79.8196L8.87949 76.7703" stroke="white" stroke-width="1.5142" stroke-linecap="round" stroke-linejoin="round"/>
<path d="M54.6272 58.2966L50.7672 67.9696L46.9073 58.2966C44.8083 58.0402 42.7396 57.5773 40.7314 56.9148L50.7672 82.151L60.8031 56.9148C58.7959 57.581 56.7269 58.0439 54.6272 58.2966Z" fill="#5D5FEF"/>
<path d="M33.5002 53.4026L24.3445 58.3433L27.6177 48.4696C26.1706 46.9212 24.8779 45.2355 23.7578 43.4363L15.2119 69.2129L39.1203 56.3362C37.1539 55.5481 35.2711 54.5653 33.5002 53.4026Z" fill="#5D5FEF"/>
<path d="M73.9616 48.4619L77.2425 58.3433L68.0791 53.3949C66.3074 54.5521 64.4247 55.5297 62.459 56.313L86.3905 69.2051L77.8369 43.4363C76.7138 45.235 75.4157 46.9184 73.9616 48.4619Z" fill="#5D5FEF"/>
<path d="M50.786 52.6224C65.0348 52.6224 76.5858 41.0715 76.5858 26.8227C76.5858 12.5739 65.0348 1.02295 50.786 1.02295C36.5372 1.02295 24.9863 12.5739 24.9863 26.8227C24.9863 41.0715 36.5372 52.6224 50.786 52.6224Z" stroke="white" stroke-width="1.5142" stroke-linecap="round" stroke-linejoin="round"/>
</svg>
