<svg width="25" height="24" viewBox="0 0 25 24" fill="none" xmlns="http://www.w3.org/2000/svg">
<path d="M24.2031 0.046875C24.1094 0.046875 24.5781 -0.046875 19.7031 0.796875L10.2812 10.2188C10 10.5 10 10.9688 10.2812 11.2969C10.5625 11.5781 11.0312 11.5781 11.3594 11.2969L20.4531 2.15625L23.3125 1.6875L22.8438 4.54688L13.75 13.6406C13.4219 13.9688 13.4219 14.4375 13.75 14.7188C14.0312 15 14.5 15 14.7812 14.7188L24.25 5.25L24.9531 0.890625C25.0469 0.421875 24.6719 0.046875 24.2031 0.046875ZM6.71875 9.84375C6.29688 9.5625 5.92188 9.84375 5.82812 9.9375L4.1875 11.5781C3.95312 11.8125 3.90625 12.2344 4.09375 12.5156L6.25 15.75L4.375 17.625L3.57812 17.2031C3.48438 17.2031 3.10938 17.0156 2.875 17.3438L1.1875 19.0312C0.90625 19.2656 0.90625 19.6875 1.1875 19.9688L5.07812 23.8125C5.17188 23.9531 5.35938 24 5.5 24C5.6875 24 5.82812 23.9531 5.96875 23.8125L7.60938 22.1719C7.79688 21.9375 7.84375 21.6562 7.75 21.4219L7.32812 20.625L9.20312 18.75L12.4375 20.9062C12.7656 21.0938 13.1406 21.0469 13.375 20.8125L15.0156 19.1719C15.25 18.9375 15.2969 18.5625 15.1094 18.2812L6.71875 9.84375ZM12.8125 19.3125C9.625 17.2031 10.375 17.6719 9.0625 16.8281L5.54688 20.2969C6.10938 21.4688 6.01562 21.1875 6.15625 21.5156L5.5 22.1719L2.82812 19.5L3.48438 18.8438C3.8125 18.9844 3.53125 18.8906 4.70312 19.4531L8.17188 15.9375C7.32812 14.625 7.79688 15.375 5.6875 12.1875L6.34375 11.5312L13.4688 18.6562L12.8125 19.3125Z" fill="#FF643E"/>
</svg>
