<svg width="19" height="19" viewBox="0 0 19 19" fill="none" xmlns="http://www.w3.org/2000/svg">
<path d="M11.0254 13.9609L13.8027 11.1484L3.43164 0.742188L0.689453 0.285156C0.373047 0.214844 0.0917969 0.496094 0.162109 0.8125L0.619141 3.55469L11.0254 13.9609ZM17.9863 16.5273L15.877 14.418L17.002 12.3438C17.1074 12.1328 17.0723 11.8516 16.8965 11.6758L16.2988 11.0781C16.0527 10.8672 15.7012 10.8672 15.4902 11.0781L10.9551 15.6133C10.7441 15.8594 10.7441 16.2109 10.9551 16.4219L11.5527 17.0195C11.6934 17.1953 12.0098 17.2656 12.2207 17.125L14.2598 16.0352L16.3691 18.1094C16.5801 18.3203 16.9316 18.3203 17.1426 18.1094L17.9512 17.3008C18.1973 17.0898 18.1973 16.7383 17.9863 16.5273ZM17.6699 3.55469L18.127 0.8125C18.1973 0.496094 17.916 0.214844 17.5996 0.285156L14.8574 0.742188L9.9707 5.66406L12.748 8.47656L17.6699 3.55469ZM5.54102 10.0586L3.67773 11.9219L2.79883 11.0781C2.58789 10.8672 2.20117 10.8672 1.99023 11.0781L1.39258 11.6758C1.25195 11.8516 1.18164 12.1328 1.28711 12.3438L2.41211 14.418L0.302734 16.5273C0.0917969 16.7383 0.0917969 17.0898 0.302734 17.3008L1.11133 18.1094C1.32227 18.3203 1.67383 18.3203 1.91992 18.1094L3.99414 16.0352L6.0332 17.125C6.24414 17.2656 6.52539 17.1953 6.70117 17.0195L7.29883 16.4219C7.50977 16.2109 7.50977 15.8242 7.29883 15.6133L6.45508 14.7695L8.31836 12.8711L5.54102 10.0586Z" fill="#FF643E"/>
</svg>
