<svg width="190" height="29" viewBox="0 0 190 29" fill="none" xmlns="http://www.w3.org/2000/svg">
<path fill-rule="evenodd" clip-rule="evenodd" d="M0.612305 6.16398H6.26371V0.512578H0.612305V6.16398ZM9.61268 28.351H16.3106V6.16398H24.4738V0.512578H9.61268V28.351ZM31.5904 28.351H49.5911V22.706L37.765 22.5949L37.6482 17.0482H44.777V11.4068L37.765 11.2921L37.6474 6.16398H49.5911V0.512578H31.5904V28.351ZM56.917 28.351H63.615L63.6217 20.7634C63.6275 13.938 63.6602 13.218 63.9457 13.5945C64.12 13.8248 65.0678 15.4023 66.0515 17.1005L67.8401 20.1878H73.2043L74.9929 17.1005C75.9767 15.4023 76.9244 13.8248 77.0988 13.5945C77.3843 13.218 77.4169 13.938 77.4228 20.7634L77.4295 28.351H84.1274V0.512578H77.491L71.2376 11.2921H69.7942L63.558 0.512578H56.917V28.351ZM91.4533 28.351H98.3606V19.5959L102.808 19.5256C107.21 19.4561 107.268 19.4492 108.408 18.8658C109.98 18.0606 111.192 16.8206 111.897 15.2935C112.481 14.0305 112.489 13.9596 112.489 10.0362C112.489 6.17696 112.473 6.02458 111.938 4.88299C111.162 3.22881 110.055 2.09371 108.442 1.29959L107.057 0.617234L91.4533 0.49353V28.351ZM118.873 28.351H136.874V22.6996H125.152V17.0482H132.06V11.3968H125.152V6.16398H136.874V0.512578H118.873V28.351ZM148.805 0.797242C145.119 1.80068 143.315 4.23476 143.277 8.25709C143.26 10.0329 143.321 10.3732 143.844 11.4392C144.794 13.3727 145.99 14.2696 149.791 15.8959C154.18 17.7738 154.54 17.9681 154.833 18.6111C155.195 19.4056 155.146 21.0527 154.743 21.6285C154.074 22.5828 153.359 22.6996 148.183 22.6996H143.362V28.3989L149.066 28.3005C154.143 28.213 154.921 28.1534 156.139 27.7584C160.036 26.4954 161.71 23.8271 161.532 19.1681C161.459 17.2713 161.365 16.7855 160.891 15.8712C160 14.1488 158.897 13.3647 154.472 11.3091C152.262 10.2822 150.318 9.2486 150.152 9.01228C149.678 8.33516 149.775 7.26747 150.365 6.67784C150.879 6.16398 150.879 6.16398 155.388 6.16398H159.898V0.512578L154.822 0.526602C151.512 0.536021 149.419 0.630002 148.805 0.797242ZM166.177 6.16398H174.341V28.351H180.829V0.512578H166.177V6.16398ZM184.178 6.16398H189.83V0.512578H184.178V6.16398ZM105.241 6.60269C105.947 7.25993 106.105 7.88305 106.105 9.99751C106.104 12.1503 105.746 13.1906 104.849 13.6437C104.483 13.8287 103.413 13.8926 101.291 13.856L98.2559 13.8038L98.1419 6.16398H101.456C104.532 6.16398 104.804 6.19558 105.241 6.60269Z" fill="#E0EBFF"/>
</svg>
