<svg width="22" height="24" viewBox="0 0 22 24" fill="none" xmlns="http://www.w3.org/2000/svg">
<path d="M8.75 21C8.32812 21 8 21.375 8 21.75V24H9.5V21.75C9.5 21.375 9.125 21 8.75 21ZM13.25 21C12.8281 21 12.5 21.375 12.5 21.75C12.5 22.1719 12.8281 22.5 13.25 22.5C13.625 22.5 14 22.1719 14 21.75C14 21.375 13.625 21 13.25 21ZM8.1875 8.0625L8.5625 9.23438C8.60938 9.42188 8.84375 9.42188 8.89062 9.23438L9.3125 8.0625L10.4375 7.6875C10.625 7.64062 10.625 7.40625 10.4375 7.35938L9.3125 6.9375L8.89062 5.8125C8.84375 5.625 8.60938 5.625 8.5625 5.8125L8.1875 6.9375L7.01562 7.35938C6.82812 7.40625 6.82812 7.64062 7.01562 7.6875L8.1875 8.0625ZM16.25 14.8125C14.75 15.8906 12.9219 16.5 11 16.5C9.03125 16.5 7.20312 15.8906 5.70312 14.8125C2.65625 15.9844 0.5 18.9375 0.5 22.4062C0.5 23.2969 1.20312 24 2.09375 24H6.5V21C6.5 20.2031 7.15625 19.5 8 19.5H14C14.7969 19.5 15.5 20.2031 15.5 21V24H19.8594C20.75 24 21.5 23.2969 21.5 22.4062C21.5 18.9375 19.2969 15.9844 16.25 14.8125ZM3.5 10.5H4.10938C5.28125 13.1719 7.90625 15 11 15C14.0469 15 16.6719 13.1719 17.8438 10.5H18.5C18.875 10.5 19.25 10.1719 19.25 9.75V5.25C19.25 4.875 18.875 4.5 18.5 4.5H17.8438C16.6719 1.875 14.0469 0 11 0C7.90625 0 5.28125 1.875 4.10938 4.5H3.5C3.07812 4.5 2.75 4.875 2.75 5.25V9.75C2.75 10.1719 3.07812 10.5 3.5 10.5ZM5.375 6.375C5.375 5.34375 6.35938 4.5 7.625 4.5H14.375C15.5938 4.5 16.625 5.34375 16.625 6.375V7.5C16.625 9.98438 14.6094 12 12.125 12H9.875C7.39062 12 5.375 9.98438 5.375 7.5V6.375Z" fill="#2F75EE"/>
</svg>
