<svg width="28" height="32" viewBox="0 0 28 32" fill="none" xmlns="http://www.w3.org/2000/svg">
<path d="M11 28C10.4375 28 10 28.5 10 29V32H12V29C12 28.5 11.5 28 11 28ZM17 28C16.4375 28 16 28.5 16 29C16 29.5625 16.4375 30 17 30C17.5 30 18 29.5625 18 29C18 28.5 17.5 28 17 28ZM10.25 10.75L10.75 12.3125C10.8125 12.5625 11.125 12.5625 11.1875 12.3125L11.75 10.75L13.25 10.25C13.5 10.1875 13.5 9.875 13.25 9.8125L11.75 9.25L11.1875 7.75C11.125 7.5 10.8125 7.5 10.75 7.75L10.25 9.25L8.6875 9.8125C8.4375 9.875 8.4375 10.1875 8.6875 10.25L10.25 10.75ZM21 19.75C19 21.1875 16.5625 22 14 22C11.375 22 8.9375 21.1875 6.9375 19.75C2.875 21.3125 0 25.25 0 29.875C0 31.0625 0.9375 32 2.125 32H8V28C8 26.9375 8.875 26 10 26H18C19.0625 26 20 26.9375 20 28V32H25.8125C27 32 28 31.0625 28 29.875C28 25.25 25.0625 21.3125 21 19.75ZM4 14H4.8125C6.375 17.5625 9.875 20 14 20C18.0625 20 21.5625 17.5625 23.125 14H24C24.5 14 25 13.5625 25 13V7C25 6.5 24.5 6 24 6H23.125C21.5625 2.5 18.0625 0 14 0C9.875 0 6.375 2.5 4.8125 6H4C3.4375 6 3 6.5 3 7V13C3 13.5625 3.4375 14 4 14ZM6.5 8.5C6.5 7.125 7.8125 6 9.5 6H18.5C20.125 6 21.5 7.125 21.5 8.5V10C21.5 13.3125 18.8125 16 15.5 16H12.5C9.1875 16 6.5 13.3125 6.5 10V8.5Z" fill="#5D5FEF"/>
</svg>
