<svg width="28" height="32" viewBox="0 0 28 32" fill="none" xmlns="http://www.w3.org/2000/svg">
<path d="M5.5625 18.375L12.9375 20H15L22.375 18.375C23.375 18.1875 24 17.3125 23.9375 16.3125L23.5 9C23.25 4 19.0625 0 14 0C10.625 0 7.6875 1.75 6 4.375V2C6.5 2 7 1.5625 7 1C7 0.5 6.5 0 6 0H5C4.4375 0 4 0.5 4 1V16.5C4 17.4375 4.625 18.1875 5.5625 18.375ZM20.5625 9.8125L20.625 10.625C19.0625 11.5 16.625 13.375 16.0625 16.6875L15.5 16.875V10.75L20.5625 9.8125ZM14 3C16.875 3 19.3125 4.9375 20.1875 7.5H7.75C8.5625 4.9375 11.0625 3 14 3ZM7.375 9.8125L12.5 10.75V16.875L11.875 16.6875C11.3125 13.375 8.875 11.5 7.3125 10.625L7.375 9.8125ZM20 22H8C3.5625 22 0 25.625 0 30C0 31.125 0.875 32 2 32H26C27.0625 32 28 31.125 28 30C28 25.625 24.375 22 20 22ZM10 29L14 26L18 29H10Z" fill="#5D5FEF"/>
</svg>
