<svg width="30" height="24" viewBox="0 0 30 24" fill="none" xmlns="http://www.w3.org/2000/svg">
<path d="M10.5 12C13.7812 12 16.5 9.32812 16.5 6C16.5 2.71875 13.7812 0 10.5 0C7.17188 0 4.5 2.71875 4.5 6C4.5 9.32812 7.17188 12 10.5 12ZM12.8438 14.25H8.10938C3.60938 14.25 0 17.9062 0 22.4062C0 23.2969 0.703125 24 1.59375 24H19.3594C20.25 24 21 23.2969 21 22.4062C21 17.9062 17.3438 14.25 12.8438 14.25ZM28.875 9.375H26.625V7.125C26.625 6.51562 26.1094 6 25.5 6C24.8438 6 24.375 6.51562 24.375 7.125V9.375H22.125C21.4688 9.375 21 9.89062 21 10.5C21 11.1562 21.4688 11.625 22.125 11.625H24.375V13.875C24.375 14.5312 24.8438 15 25.5 15C26.1094 15 26.625 14.5312 26.625 13.875V11.625H28.875C29.4844 11.625 30 11.1562 30 10.5C30 9.89062 29.4844 9.375 28.875 9.375Z" fill="white"/>
</svg>
