<svg width="22" height="24" viewBox="0 0 22 24" fill="none" xmlns="http://www.w3.org/2000/svg">
<path d="M15.5 16.5H6.5C3.17188 16.5 0.5 19.2188 0.5 22.5C0.5 23.3438 1.15625 24 2 24H20C20.7969 24 21.5 23.3438 21.5 22.5C21.5 19.2188 18.7812 16.5 15.5 16.5ZM9.125 22.5L11 20.625L12.8281 22.5H9.125ZM14.8906 22.5L11.5156 18.9844C11.2344 18.7031 10.7188 18.7031 10.4375 18.9844L7.0625 22.5H2C2 20.0625 4.01562 18 6.5 18H15.5C17.9375 18 20 20.0625 20 22.5H14.8906ZM4.67188 13.7812L10.2031 15H11.75L17.2812 13.7812C18.0312 13.6406 18.5 12.9844 18.4531 12.2344L18.125 6.75C17.9375 3 14.7969 0 11 0C8.46875 0 6.26562 1.3125 5 3.28125V1.5C5.375 1.5 5.75 1.17188 5.75 0.75C5.75 0.375 5.375 0 5 0H4.25C3.82812 0 3.5 0.375 3.5 0.75V12.375C3.5 13.0781 3.96875 13.6406 4.67188 13.7812ZM16.9531 12.3281L13.7188 13.0781C14.1406 10.875 15.7812 9.70312 16.7656 9.14062L16.9531 12.3281ZM16.6719 7.54688C15.0312 8.25 12.5 10.125 12.1719 13.4062L11.75 13.5V7.5H16.6719V7.54688ZM11 1.5C13.7188 1.5 16.0156 3.42188 16.5312 6H5.42188C5.9375 3.46875 8.23438 1.5 11 1.5ZM5.28125 7.5H10.25V13.5L9.78125 13.4062C9.45312 10.125 6.92188 8.25 5.28125 7.54688V7.5ZM5.1875 9.14062C6.17188 9.70312 7.8125 10.875 8.23438 13.0312L5 12.3281L5.1875 9.14062Z" fill="#5D5FEF"/>
</svg>
